<?xml version="1.0" encoding="UTF-8"?>
<svg id="Layer_1" xmlns="http://www.w3.org/2000/svg" width="274.98" height="64.23" viewBox="0 0 274.98 64.23">
  <defs>
    <style>
      .cls-1 {
        opacity: .6;
      }

      .cls-1, .cls-2 {
        isolation: isolate;
      }

      .cls-1, .cls-2, .cls-3 {
        fill: #273a5b;
      }

      .cls-2 {
        opacity: .4;
      }
    </style>
  </defs>
  <path class="cls-2" d="M273.75,53.2h.26v-5.89h-.53v5.39l-71.66-.06v.5l71.93.06Z"/>
  <path class="cls-2" d="M177.34,53.12v-.5l-71.67-.07v-6.21h-.5v6.71h.25l71.92.07Z"/>
  <path class="cls-1" d="M180.48,51.21c.04-.12.1-.24.19-.34.08-.1.18-.18.3-.23.11-.06.24-.09.37-.09.13,0,.25.02.37.06.11.03.21.09.3.17.08.08.15.18.2.28.05.11.07.24.07.36,0,.15-.03.3-.09.43-.07.12-.15.22-.25.31-.11.1-.23.19-.36.26-.14.07-.28.16-.43.25l-.47.33c-.17.13-.32.27-.46.43-.12.14-.21.3-.26.48-.05.18-.07.37-.07.56h2.77v-.33h-2.36c0-.1.02-.19.05-.28.04-.08.08-.15.13-.22l.17-.19.2-.16c.11-.09.23-.17.36-.23l.4-.23.4-.25c.26-.17.47-.4.6-.68.06-.16.09-.33.09-.5,0-.16-.03-.31-.09-.46-.05-.14-.13-.27-.24-.37-.12-.11-.26-.19-.41-.25-.18-.06-.38-.09-.57-.09-.19,0-.38.03-.56.09-.17.06-.32.16-.44.29-.12.12-.21.27-.28.43-.06.19-.09.38-.09.58h.41c0-.14,0-.28.05-.41Z"/>
  <path class="cls-1" d="M183.21,53.21c.03.24.11.47.22.69.1.2.25.36.44.48.22.12.46.18.71.17.25,0,.5-.05.72-.17.18-.12.33-.28.44-.47.11-.21.18-.44.21-.68.05-.27.07-.54.06-.81v-.5c-.02-.17-.04-.34-.08-.51-.03-.16-.08-.31-.15-.46-.12-.29-.36-.52-.65-.63-.17-.06-.36-.09-.54-.09-.26-.01-.52.05-.74.18-.18.13-.33.29-.43.49-.1.22-.17.45-.21.69-.04.26-.05.53-.05.79,0,.28,0,.56.05.83ZM183.58,51.74c.02-.21.08-.42.16-.61.07-.16.17-.31.31-.42.15-.11.33-.16.52-.16.2,0,.39.05.55.16.14.11.25.25.32.41.08.19.13.39.15.59.02.22.02.45,0,.67.01.22.01.43,0,.65-.02.2-.06.4-.14.59-.07.17-.17.32-.31.44-.16.12-.36.18-.56.17-.18,0-.35-.04-.5-.14-.14-.08-.26-.21-.33-.36-.09-.18-.14-.37-.16-.57-.04-.24-.06-.49-.06-.74,0-.23.02-.45.05-.68h0Z"/>
  <path class="cls-1" d="M186.55,53.21c.03.24.11.47.22.69.1.2.25.36.44.48.22.12.46.18.71.17.25,0,.5-.05.72-.17.18-.12.33-.28.44-.47.11-.21.18-.44.21-.68.05-.27.07-.54.06-.81v-.5c-.02-.17-.04-.34-.08-.51-.03-.16-.08-.31-.15-.46-.12-.29-.36-.52-.65-.63-.17-.06-.36-.09-.54-.09-.26-.01-.52.05-.74.18-.18.13-.33.29-.43.49-.1.22-.17.45-.21.69-.04.26-.05.53-.05.79,0,.28,0,.56.05.83ZM186.92,51.74c.02-.21.08-.42.16-.61.07-.16.17-.31.31-.42.15-.11.33-.16.52-.16.2,0,.39.05.55.16.14.11.25.25.32.41.08.19.13.39.15.59.02.22.02.45,0,.67.01.22.01.43,0,.65-.02.2-.06.4-.14.59-.07.17-.17.32-.31.44-.16.12-.36.18-.56.17-.18,0-.35-.04-.5-.14-.14-.08-.26-.21-.33-.36-.09-.18-.14-.37-.16-.57-.04-.24-.06-.49-.06-.74,0-.23.02-.45.05-.68Z"/>
  <path class="cls-1" d="M189.98,54.44h.36v-1.68c0-.07,0-.14,0-.21,0-.08,0-.15,0-.23.02-.08.04-.15.07-.22.02-.07.05-.13.09-.18.09-.12.2-.21.33-.27.11-.06.24-.09.37-.09.2-.02.39.05.53.19.1.16.15.34.14.53v2.16h.36v-2.12c.02-.08.04-.15.07-.22.03-.06.06-.12.1-.18.08-.11.19-.21.32-.27.12-.06.25-.09.38-.09.2-.02.39.05.53.19.1.16.15.34.14.53v2.16h.36v-2c.01-.15.01-.31,0-.46-.02-.14-.07-.27-.14-.39-.07-.12-.17-.22-.29-.28-.16-.08-.33-.11-.51-.1-.21,0-.41.05-.59.14-.19.1-.33.27-.42.46l-.12-.24c-.05-.07-.11-.13-.17-.19-.08-.05-.17-.09-.26-.12-.12-.02-.25-.02-.37,0-.19,0-.39.05-.56.13-.17.1-.31.24-.4.42h0v-.47h-.36l.04,3.1Z"/>
  <path class="cls-1" d="M194.98,54.44h.36v-1.89c0-.08,0-.15,0-.23.02-.08.04-.15.07-.22.02-.07.05-.13.1-.18.08-.12.19-.21.32-.27.12-.06.25-.09.38-.09.2-.02.39.05.53.19.1.16.15.34.14.53v2.16h.36v-1.68c0-.07,0-.14,0-.21,0-.08,0-.15,0-.23.02-.08.04-.15.07-.22.02-.07.05-.13.09-.18.09-.12.2-.21.33-.27.12-.06.25-.09.38-.09.19-.02.39.05.52.19.1.16.15.34.14.53v2.16h.36v-2c.01-.15.01-.31,0-.46-.02-.14-.07-.27-.14-.39-.06-.12-.16-.22-.28-.28-.16-.08-.34-.11-.52-.1-.21,0-.41.05-.59.14-.19.1-.33.27-.42.46-.03-.08-.07-.17-.12-.24-.05-.07-.1-.14-.17-.19-.08-.05-.17-.09-.26-.12-.12-.02-.25-.02-.37,0-.19,0-.39.05-.56.13-.17.1-.31.24-.4.42h0v-.47h-.36l.04,3.1Z"/>
  <polygon class="cls-2" points="273.5 62.38 149.66 62.38 149.66 62.88 274 62.88 274 56.44 273.5 56.44 273.5 62.38"/>
  <polygon class="cls-2" points=".5 62.38 .5 56.25 0 56.25 0 62.88 125.16 62.88 125.16 62.38 .5 62.38"/>
  <path class="cls-1" d="M130.48,62.64c-.02-.11-.06-.21-.12-.3-.06-.1-.14-.19-.23-.26-.11-.08-.24-.15-.37-.19.18-.08.34-.2.45-.37.1-.17.16-.37.15-.57,0-.16-.03-.32-.1-.47-.06-.13-.15-.24-.26-.33-.11-.09-.24-.15-.38-.19-.15-.04-.31-.06-.47-.06-.17-.02-.34-.02-.51,0-.17.04-.32.12-.45.23-.13.12-.23.27-.31.43-.07.16-.1.34-.1.52h.38c0-.12.02-.25.07-.36.04-.11.1-.2.18-.29.08-.08.18-.15.29-.19.12-.04.24-.06.37-.06.12-.01.23-.01.35,0,.1.03.2.07.29.13.18.14.27.35.26.57,0,.14-.03.28-.09.4-.06.11-.14.19-.25.25-.11.07-.24.12-.38.13-.16.01-.33.01-.49,0v.32c.17-.02.35-.02.52,0,.15.01.3.06.43.13.26.14.41.41.41.7,0,.12-.01.25-.06.36-.06.11-.13.22-.22.31-.1.09-.21.16-.34.21-.14.06-.28.08-.43.08-.28.01-.55-.08-.76-.25-.21-.19-.31-.46-.29-.74h-.39c.02.21.07.42.14.62.06.16.16.3.28.41.13.11.29.19.46.22.21.04.42.06.63.06.2,0,.4-.04.58-.11.16-.06.31-.16.43-.28.12-.11.21-.25.27-.4.06-.16.09-.32.09-.49-.03.03-.03-.07-.03-.17Z"/>
  <path class="cls-1" d="M133.83,62.85c.02-.37-.11-.72-.35-1-.27-.25-.63-.38-1-.36-.14,0-.27.02-.4.06-.11.04-.21.09-.3.15-.08.06-.15.13-.22.21l-.19.24c0-.19,0-.41.07-.63.02-.22.08-.43.16-.63.08-.18.2-.34.35-.47.18-.13.39-.19.61-.18.2-.01.39.06.54.19.14.14.23.32.27.52h.39c-.02-.3-.16-.58-.39-.77-.24-.19-.54-.28-.85-.27-.27-.01-.54.06-.76.22-.2.14-.36.33-.47.55-.12.23-.2.48-.24.74-.04.26-.07.53-.07.79,0,.32.03.63.12.94.06.23.17.44.31.63.12.16.28.28.47.35.19.07.39.1.59.1.37.02.73-.11,1-.36.25-.28.38-.65.36-1.02ZM133.23,63.56c-.3.34-.79.44-1.2.24-.12-.05-.21-.14-.29-.24-.08-.1-.14-.22-.17-.34-.04-.12-.06-.24-.06-.36,0-.14.03-.28.07-.41.04-.12.11-.23.19-.33.08-.1.18-.18.3-.23.13-.05.26-.08.4-.08.27-.02.54.08.74.26.17.22.25.49.23.77.01.12.01.25,0,.37-.05.13-.12.25-.21.35h0Z"/>
  <path class="cls-1" d="M137.18,62.1c0-.17,0-.34,0-.51,0-.17-.03-.34-.07-.5-.03-.16-.08-.31-.15-.46-.07-.14-.15-.27-.26-.38-.11-.11-.25-.2-.39-.26-.17-.06-.36-.09-.54-.09-.26-.01-.52.05-.74.19-.18.12-.33.28-.43.48-.11.22-.18.46-.21.7-.04.26-.06.52-.06.78,0,.28.02.56.06.83.04.24.11.47.23.69.1.2.24.36.43.48.45.23.99.23,1.44,0,.18-.11.33-.28.43-.47.11-.21.19-.44.22-.68.03-.27.05-.53.04-.8ZM136.62,63.3c-.07.17-.18.31-.32.43-.16.12-.35.18-.55.17-.18,0-.36-.04-.51-.13-.13-.09-.24-.22-.32-.36-.09-.18-.14-.37-.17-.57-.03-.25-.05-.49-.05-.74,0-.23.02-.46.05-.69.02-.21.07-.41.15-.6.07-.17.18-.32.32-.43.15-.11.33-.16.52-.15.19,0,.38.04.54.15.15.11.26.25.32.42.08.18.14.38.16.58v1.32c-.02.21-.07.41-.14.6Z"/>
  <path class="cls-1" d="M142.04,62.17v-.45c-.03-.14-.07-.27-.14-.4-.07-.11-.17-.21-.29-.28-.36-.15-.77-.13-1.11.05-.18.11-.33.26-.42.45-.03-.08-.07-.16-.11-.23-.05-.07-.11-.14-.18-.19-.07-.06-.16-.11-.25-.13-.12-.03-.24-.05-.37-.05-.2,0-.39.05-.57.14-.17.1-.3.24-.39.41h0v-.46h-.36v3.11h.36v-1.7c0-.07,0-.14,0-.21,0-.15.04-.3.09-.45.03-.06.06-.12.1-.18.08-.11.19-.21.32-.27.12-.05.25-.08.38-.08.2-.03.39.04.53.19.1.16.15.34.14.53v2.15h.36v-1.89c0-.08,0-.15,0-.23.02-.07.04-.15.07-.22.02-.06.05-.13.09-.18.09-.11.2-.21.33-.27.12-.05.25-.08.38-.08.2-.03.39.05.53.19.1.16.15.34.14.53v2.15h.36v-1.95Z"/>
  <path class="cls-1" d="M147.04,62.17c0-.15,0-.3,0-.45-.02-.14-.07-.28-.14-.4-.07-.12-.17-.21-.29-.28-.16-.07-.33-.1-.51-.1-.21,0-.41.05-.59.15-.18.1-.33.26-.42.45-.03-.08-.07-.16-.12-.23-.05-.07-.11-.13-.17-.19-.08-.06-.17-.1-.26-.13-.12-.03-.24-.05-.37-.05-.2,0-.39.05-.56.14-.17.09-.31.23-.4.41h0v-.46h-.36v3.11h.36v-1.7c0-.07,0-.14,0-.21,0-.08,0-.15,0-.23.02-.07.04-.15.07-.22.02-.06.05-.13.09-.18.09-.12.2-.21.33-.27.12-.05.25-.08.38-.08.19-.03.39.05.52.19.1.16.15.34.14.53v2.15h.36v-1.68c0-.07,0-.14,0-.21,0-.15.04-.3.09-.45.03-.06.06-.12.1-.18.08-.11.19-.21.32-.27.12-.05.25-.08.38-.08.2-.03.39.05.53.19.1.16.15.34.14.53v2.15h.36l.02-1.95Z"/>
  <path class="cls-3" d="M106.64,40.83c-1.15,0-2.08-.91-2.12-2.06l-.36-14.42c-.07-2.81-2.29-5.1-5.1-5.26-7.8,3-15.99,4.9-24.32,5.64-2.2.2-4.41.24-6.61.11-21.34-1.16-42.95-2.73-64.22-4.68-1.46-.13-2.66-1.2-2.94-2.64C-.15,12.44-.15,7.17.97,2.09,1.27.86,2.37,0,3.63,0h0C14.63,0,25.71.08,36.68.17c18.33.16,36.91.41,55.21.75,7.5.14,15.01.3,22.54.47,10.37.23,21.09.46,31.62.62l55.27.86c23.68.37,50.51.79,73.38,12.18.17.08.28.25.28.44,0,.19-.1.36-.26.45l-1.44.76h0c-19.94,10.47-43.28,14.07-63.59,16.63-34.18,4.29-68.56,6.79-103,7.49h-.05ZM98.97,18.09h0c3.38.12,6.09,2.86,6.17,6.24l.34,14.41c.01.61.52,1.1,1.13,1.09,0,0,.01,0,.02,0,34.4-.69,68.75-3.19,102.89-7.49,20.23-2.54,43.46-6.13,63.26-16.52h0l.57-.3c-22.48-10.87-48.82-11.28-72.09-11.65l-55.26-.86c-10.54-.16-21.27-.39-31.64-.62-7.52-.17-15.03-.33-22.53-.47-18.3-.34-36.87-.59-55.2-.75-11-.09-22.08-.15-33-.17h0c-.8,0-1.5.54-1.69,1.32-1.09,4.94-1.09,10.06,0,15,.19.99,1,1.73,2,1.85,21.26,1.94,42.86,3.51,64.18,4.67,2.16.12,4.32.09,6.47-.1,8.27-.74,16.4-2.63,24.14-5.62.08-.03.16-.04.24-.03Z"/>
</svg>