<?xml version="1.0" encoding="UTF-8"?>
<svg id="uuid-76612dba-9681-474a-afaa-d98cfefb5b77" data-name="Layer_1" xmlns="http://www.w3.org/2000/svg" width="275.14" height="66.08" viewBox="0 0 275.14 66.08">
  <defs>
    <style>
      .uuid-b3c62faa-7077-49cf-84ef-99ea2cca7067 {
        opacity: .6;
      }

      .uuid-b3c62faa-7077-49cf-84ef-99ea2cca7067, .uuid-29b94697-e761-4186-8cdf-dfa65b035ce8 {
        isolation: isolate;
      }

      .uuid-b3c62faa-7077-49cf-84ef-99ea2cca7067, .uuid-29b94697-e761-4186-8cdf-dfa65b035ce8, .uuid-9891b45d-cb8b-4da2-a638-5ca2d49b66c1 {
        fill: #273a5b;
      }

      .uuid-8ab6beb9-02b3-4a30-89ff-02c932d61006 {
        opacity: .25;
      }

      .uuid-29b94697-e761-4186-8cdf-dfa65b035ce8 {
        opacity: .4;
      }
    </style>
  </defs>
  <path class="uuid-29b94697-e761-4186-8cdf-dfa65b035ce8" d="M273.76,55.14h.26v-6h-.53v5.53l-69.16-.06v.5l69.43.03Z"/>
  <path class="uuid-29b94697-e761-4186-8cdf-dfa65b035ce8" d="M179.85,55.06v-.5l-69.17-.07v-6.38h-.5v6.88h.25l69.42.07Z"/>
  <path class="uuid-b3c62faa-7077-49cf-84ef-99ea2cca7067" d="M182.96,53.07c.04-.12.1-.24.19-.34.08-.1.18-.18.3-.23.11-.06.24-.09.37-.09.13,0,.25.02.37.06.11.03.21.09.3.17.08.08.15.18.2.28.05.11.07.24.07.36,0,.15-.03.3-.09.43-.07.12-.15.22-.25.31-.11.1-.23.19-.36.26-.14.07-.28.16-.43.25l-.47.33c-.17.13-.32.27-.46.43-.12.14-.21.3-.26.48-.05.18-.07.37-.07.56h2.77v-.33h-2.36c0-.1.02-.19.05-.28.04-.08.08-.15.13-.22l.17-.19.2-.16c.11-.09.23-.17.36-.23l.4-.23.4-.25c.26-.17.47-.4.6-.68.06-.16.09-.33.09-.5,0-.16-.03-.31-.09-.46-.05-.14-.13-.27-.24-.37-.12-.11-.26-.19-.41-.25-.18-.06-.38-.09-.57-.09-.19,0-.38.03-.56.09-.17.06-.32.16-.44.29-.12.12-.21.27-.28.43-.06.19-.09.38-.09.58h.41c0-.14,0-.28.05-.41Z"/>
  <path class="uuid-b3c62faa-7077-49cf-84ef-99ea2cca7067" d="M185.72,55.07c.03.24.11.47.22.69.1.2.25.36.44.48.22.12.46.18.71.17.25,0,.5-.05.72-.17.18-.12.33-.28.44-.47.11-.21.18-.44.21-.68.03-.26.04-.53.03-.79v-.5c-.02-.17-.04-.34-.08-.51-.03-.16-.08-.31-.15-.46-.12-.29-.36-.52-.65-.63-.17-.06-.36-.09-.54-.09-.26-.01-.52.05-.74.18-.18.13-.33.29-.43.49-.1.22-.17.45-.21.69-.04.26-.05.53-.05.79,0,.27.03.54.08.81ZM186.09,53.6c.02-.21.08-.42.16-.61.07-.16.17-.31.31-.42.15-.11.33-.16.52-.16.2,0,.39.05.55.16.14.11.25.25.32.41.08.19.13.39.15.59.02.22.02.45,0,.67.01.22.01.43,0,.65-.02.2-.06.4-.14.59-.07.17-.17.32-.31.44-.16.12-.36.18-.56.17-.18,0-.35-.04-.5-.14-.14-.08-.26-.21-.33-.36-.09-.18-.14-.37-.16-.57-.04-.24-.06-.49-.06-.74,0-.23.02-.45.05-.68h0Z"/>
  <path class="uuid-b3c62faa-7077-49cf-84ef-99ea2cca7067" d="M189.06,55.07c.03.24.11.47.22.69.1.2.25.36.44.48.22.12.46.18.71.17.25,0,.5-.05.72-.17.18-.12.33-.28.44-.47.11-.21.18-.44.21-.68.05-.27.07-.54.06-.81v-.5c-.02-.17-.04-.34-.08-.51-.03-.16-.08-.31-.15-.46-.12-.29-.36-.52-.65-.63-.17-.06-.36-.09-.54-.09-.26-.01-.52.05-.74.18-.18.13-.33.29-.43.49-.1.22-.17.45-.21.69-.04.26-.05.53-.05.79,0,.28,0,.56.05.83ZM189.43,53.6c.02-.21.08-.42.16-.61.07-.16.17-.31.31-.42.15-.11.33-.16.52-.16.2,0,.39.05.55.16.14.11.25.25.32.41.08.19.13.39.15.59.02.22.02.45,0,.67.01.22.01.43,0,.65-.02.2-.06.4-.14.59-.07.17-.17.32-.31.44-.16.12-.36.18-.56.17-.18,0-.35-.04-.5-.14-.14-.08-.26-.21-.33-.36-.09-.18-.14-.37-.16-.57-.04-.24-.06-.49-.06-.74,0-.23.02-.45.05-.68Z"/>
  <path class="uuid-b3c62faa-7077-49cf-84ef-99ea2cca7067" d="M192.49,56.3h.36v-1.68c0-.07,0-.14,0-.21,0-.08,0-.15,0-.23.02-.08.04-.15.07-.22.02-.07.05-.13.09-.18.09-.12.2-.21.33-.27.11-.06.24-.09.37-.09.2-.02.39.05.53.19.1.16.15.34.14.53v2.16h.36v-2.12c.02-.08.04-.15.07-.22.03-.06.06-.12.1-.18.08-.11.19-.21.32-.27.12-.06.25-.09.38-.09.2-.02.39.05.53.19.1.16.15.34.14.53v2.16h.36v-2c.01-.15.01-.31,0-.46-.02-.14-.07-.27-.14-.39-.07-.12-.17-.22-.29-.28-.16-.08-.33-.11-.51-.1-.21,0-.41.05-.59.14-.19.1-.33.27-.42.46l-.12-.24s-.05-.09-.08-.13c-.08-.05-.17-.09-.26-.12-.12-.02-.25-.02-.37,0-.19,0-.39.05-.56.13-.17.1-.31.24-.4.42h0v-.47h-.41v3.04Z"/>
  <path class="uuid-b3c62faa-7077-49cf-84ef-99ea2cca7067" d="M197.49,56.3h.36v-1.89c0-.08,0-.15,0-.23.02-.08.04-.15.07-.22.02-.07.05-.13.1-.18.08-.12.19-.21.32-.27.12-.06.25-.09.38-.09.2-.02.39.05.53.19.1.16.15.34.14.53v2.16h.36v-1.68c0-.07,0-.14,0-.21,0-.08,0-.15,0-.23.02-.08.04-.15.07-.22.02-.07.05-.13.09-.18.09-.12.2-.21.33-.27.12-.06.25-.09.38-.09.19-.02.39.05.52.19.1.16.15.34.14.53v2.16h.36v-2c.01-.15.01-.31,0-.46-.02-.14-.07-.27-.14-.39-.06-.12-.16-.22-.28-.28-.16-.08-.34-.11-.52-.1-.21,0-.41.05-.59.14-.19.1-.33.27-.42.46-.03-.08-.07-.17-.12-.24-.02-.05-.05-.09-.08-.13-.08-.05-.17-.09-.26-.12-.12-.02-.25-.02-.37,0-.19,0-.39.05-.56.13-.17.1-.31.24-.4.42h0v-.47h-.41v3.04Z"/>
  <polygon class="uuid-29b94697-e761-4186-8cdf-dfa65b035ce8" points="273.51 64.24 149.67 64.24 149.67 64.74 274.01 64.74 274.01 58.3 273.51 58.3 273.51 64.24"/>
  <polygon class="uuid-29b94697-e761-4186-8cdf-dfa65b035ce8" points=".51 64.24 .51 58.11 0 58.11 0 64.36 0 64.74 125.17 64.74 125.17 64.24 .51 64.24"/>
  <path class="uuid-b3c62faa-7077-49cf-84ef-99ea2cca7067" d="M130.49,64.63h-.58v-2.83h-.35l-2,2.82v.33h1.94v1h.39v-1h.6v-.32ZM129.49,62.38v2.25h-1.56l1.56-2.25Z"/>
  <path class="uuid-b3c62faa-7077-49cf-84ef-99ea2cca7067" d="M131.49,65.4c.03-.08.07-.16.13-.22.05-.07.11-.14.17-.2l.2-.16c.11-.09.23-.16.35-.23l.41-.23c.14-.07.27-.15.4-.24.13-.09.25-.19.35-.3.1-.12.18-.25.24-.39.11-.31.11-.64,0-.95-.05-.14-.14-.27-.25-.38-.12-.1-.25-.19-.4-.25-.18-.06-.38-.09-.57-.09-.19,0-.38.03-.56.1-.17.06-.32.15-.44.28-.12.13-.21.28-.28.44-.07.18-.1.38-.1.57h.41c0-.14.01-.28.06-.41.04-.12.1-.24.19-.34.08-.09.18-.17.29-.23.12-.05.25-.08.38-.08.13,0,.25.01.37.05.11.04.2.1.29.17.09.08.15.17.2.28.11.25.11.54,0,.79-.06.12-.14.23-.24.32-.11.1-.23.18-.36.25l-.44.26c-.16.1-.31.21-.46.32-.17.13-.32.28-.46.44-.13.14-.22.3-.27.48-.04.18-.06.36-.06.55h2.77v-.32h-2.32c-.02-.09-.02-.19,0-.28Z"/>
  <path class="uuid-b3c62faa-7077-49cf-84ef-99ea2cca7067" d="M137.19,63.96c0-.17,0-.34,0-.51,0-.17-.03-.34-.07-.5-.03-.16-.08-.31-.15-.46-.07-.14-.15-.27-.26-.38-.11-.11-.25-.2-.39-.26-.17-.06-.36-.09-.54-.09-.26-.01-.52.05-.74.19-.18.12-.33.28-.43.48-.11.22-.18.46-.21.7-.04.26-.06.52-.06.78,0,.28.02.56.06.83.04.24.11.47.23.69.1.2.24.36.43.48.45.23.99.23,1.44,0,.18-.11.33-.28.43-.47.11-.21.19-.44.22-.68.03-.27.05-.53.04-.8ZM136.63,65.16c-.07.17-.18.31-.32.43-.16.12-.35.18-.55.17-.18,0-.36-.04-.51-.13-.13-.09-.24-.22-.32-.36-.09-.18-.14-.37-.17-.57-.03-.25-.05-.49-.05-.74,0-.23.02-.46.05-.69.02-.21.07-.41.15-.6.07-.17.18-.32.32-.43.15-.11.33-.16.52-.15.19,0,.38.04.54.15.15.11.26.25.32.42.08.18.14.38.16.58v1.32c-.02.21-.07.41-.14.6Z"/>
  <path class="uuid-b3c62faa-7077-49cf-84ef-99ea2cca7067" d="M142.05,64.03v-.45c-.03-.14-.07-.27-.14-.4-.07-.11-.17-.21-.29-.28-.36-.15-.77-.13-1.11.05-.18.11-.33.26-.42.45-.03-.08-.07-.16-.11-.23-.05-.07-.11-.14-.18-.19-.07-.06-.16-.11-.25-.13-.12-.03-.24-.05-.37-.05-.2,0-.39.05-.57.14-.17.1-.3.24-.39.41h0v-.46h-.36v3.11h.36v-1.7c0-.07,0-.14,0-.21,0-.15.04-.3.09-.45.03-.06.06-.12.1-.18.08-.11.19-.21.32-.27.12-.05.25-.08.38-.08.2-.03.39.04.53.19.1.16.15.34.14.53v2.15h.36v-1.89c0-.08,0-.15,0-.23.02-.07.04-.15.07-.22.02-.06.05-.13.09-.18.09-.11.2-.21.33-.27.12-.05.25-.08.38-.08.2-.03.39.05.53.19.1.16.15.34.14.53v2.15h.36v-1.95Z"/>
  <path class="uuid-b3c62faa-7077-49cf-84ef-99ea2cca7067" d="M147.05,64.03c0-.15,0-.3,0-.45-.02-.14-.07-.28-.14-.4-.07-.12-.17-.21-.29-.28-.16-.07-.33-.1-.51-.1-.21,0-.41.05-.59.15-.18.1-.33.26-.42.45-.03-.08-.07-.16-.12-.23-.05-.07-.11-.13-.17-.19-.08-.06-.17-.1-.26-.13-.12-.03-.24-.05-.37-.05-.2,0-.39.05-.56.14-.17.09-.31.23-.4.41h0v-.46h-.36v3.11h.36v-1.7c0-.07,0-.14,0-.21,0-.08,0-.15,0-.23.02-.07.04-.15.07-.22.02-.06.05-.13.09-.18.09-.12.2-.21.33-.27.12-.05.25-.08.38-.08.19-.03.39.05.52.19.1.16.15.34.14.53v2.15h.36v-1.68c0-.07,0-.14,0-.21,0-.15.04-.3.09-.45.03-.06.06-.12.1-.18.08-.11.19-.21.32-.27.12-.05.25-.08.38-.08.2-.03.39.05.53.19.1.16.15.34.14.53v2.15h.36l.02-1.95Z"/>
  <path class="uuid-9891b45d-cb8b-4da2-a638-5ca2d49b66c1" d="M113.83,42.92h-.2c-1.58,0-2.92-1.15-3.15-2.71l-2.09-13.49c-1.56-3.44-4.53-3.93-7.68-4.45l-.71-.11c-4.34-.74-8.79.47-13.1,1.63l-2.1.57c-9.04,2.34-18.38,3.3-27.7,2.82-4.49-.23-9-.8-13.38-1.35-4-.5-8.07-1-12.12-1.27-8.56-.55-15.58.23-21.45,2.4-.81.29-1.71-.08-2.08-.86-.9-1.93-1.77-3.86-2.6-5.75C3.59,16.03,1.8,11.6.17,7.18c-.15-.39-.13-.83.06-1.21.18-.38.52-.66.92-.79C25.65-2.36,52.09-.07,77.67,2.18c6.82.59,13.87,1.21,20.75,1.62,19.41,1.15,39.36.76,58.65.37,39-.78,79.44-1.58,117.07,10.53l1,.32-.87.58c-19.75,13-43.92,17.77-67.1,21-30.93,4.22-62.12,6.34-93.34,6.32ZM97.21,20.92c1.01,0,2.01.07,3,.24l.7.12c3.14.51,6.69,1.09,8.46,5.08v.13l2.12,13.57c.16,1.07,1.09,1.86,2.17,1.86h.2c31.18,0,62.32-2.14,93.21-6.38,22.71-3.13,46.38-7.75,65.79-20.23-37.19-11.73-77.11-10.94-115.74-10.17-19.31.39-39.28.78-58.73-.38-6.89-.41-14-1-20.78-1.61C52.14.94,25.79-1.35,1.47,6.15c-.14.04-.25.14-.31.27-.06.13-.06.29,0,.42,1.63,4.4,3.41,8.82,5.29,13.12h0c.82,1.88,1.69,3.81,2.58,5.73.15.31.51.45.83.34,6-2.21,13.16-3,21.86-2.46,4.08.26,8.2.78,12.18,1.28,4.36.54,8.86,1.11,13.31,1.34,9.22.47,18.46-.47,27.39-2.79l2.1-.56c3.4-1.09,6.94-1.74,10.51-1.91h0Z"/>
  <path class="uuid-9891b45d-cb8b-4da2-a638-5ca2d49b66c1" d="M104.78,22.3l-1-.25c1.51-5.76,1.53-11.8.06-17.57l1-.25c1.52,5.93,1.5,12.15-.06,18.07Z"/>
  <path class="uuid-9891b45d-cb8b-4da2-a638-5ca2d49b66c1" d="M12.49,25.98c-3.9-6.55-6.8-13.65-8.62-21.05l1-.24c1.8,7.31,4.66,14.3,8.51,20.77l-.89.52Z"/>
  <g class="uuid-8ab6beb9-02b3-4a30-89ff-02c932d61006">
    <path class="uuid-9891b45d-cb8b-4da2-a638-5ca2d49b66c1" d="M86.74,16.91c-1.79,0-3.24-1.44-3.25-3.23,0-1.79,1.44-3.24,3.23-3.25,1.79,0,3.24,1.44,3.25,3.23,0,0,0,.01,0,.02,0,1.78-1.45,3.23-3.23,3.23ZM86.74,11.44c-1.24,0-2.24.99-2.25,2.23s.99,2.24,2.23,2.25,2.24-.99,2.25-2.23c0,0,0,0,0,0,0-1.23-1-2.23-2.23-2.24Z"/>
  </g>
  <g class="uuid-8ab6beb9-02b3-4a30-89ff-02c932d61006">
    <path class="uuid-9891b45d-cb8b-4da2-a638-5ca2d49b66c1" d="M56.42,17.18c-1.78,0-3.23-1.45-3.23-3.23s1.45-3.23,3.23-3.23,3.23,1.45,3.23,3.23-1.45,3.23-3.23,3.23h0ZM56.42,11.72c-1.23,0-2.23,1-2.23,2.23s1,2.23,2.23,2.23,2.23-1,2.23-2.23c0-1.23-1-2.23-2.23-2.23t0,0Z"/>
  </g>
  <g class="uuid-8ab6beb9-02b3-4a30-89ff-02c932d61006">
    <path class="uuid-9891b45d-cb8b-4da2-a638-5ca2d49b66c1" d="M23.64,16.63c-1.78,0-3.23-1.45-3.23-3.23s1.45-3.23,3.23-3.23,3.23,1.45,3.23,3.23-1.45,3.23-3.23,3.23h0ZM23.64,11.17c-1.23,0-2.23,1-2.23,2.23s1,2.23,2.23,2.23,2.23-1,2.23-2.23-1-2.23-2.23-2.23h0Z"/>
  </g>
  <path class="uuid-9891b45d-cb8b-4da2-a638-5ca2d49b66c1" d="M118.04,42.83c-4.01-12.21-5.31-25.15-3.82-37.91l1,.12c-1.47,12.62-.18,25.41,3.78,37.48l-.96.31Z"/>
</svg>