<?xml version="1.0" encoding="UTF-8"?>
<svg id="uuid-40836514-562a-4445-b71c-1262c27dc173" data-name="Layer_1" xmlns="http://www.w3.org/2000/svg" width="275.51" height="64.78" viewBox="0 0 275.51 64.78">
  <defs>
    <style>
      .uuid-6663b417-fd6f-4bc1-8ac7-34c7607f8e2f {
        opacity: .6;
      }

      .uuid-6663b417-fd6f-4bc1-8ac7-34c7607f8e2f, .uuid-83e51240-c0dc-491c-b65b-39b7c3097fc1 {
        isolation: isolate;
      }

      .uuid-6663b417-fd6f-4bc1-8ac7-34c7607f8e2f, .uuid-83e51240-c0dc-491c-b65b-39b7c3097fc1, .uuid-6f6017d8-eb43-4fdf-8744-d6faf9c5cb96 {
        fill: #273a5b;
      }

      .uuid-f3cfbc78-5595-4005-9790-ffdca9900dac {
        opacity: .25;
      }

      .uuid-83e51240-c0dc-491c-b65b-39b7c3097fc1 {
        opacity: .4;
      }
    </style>
  </defs>
  <path class="uuid-83e51240-c0dc-491c-b65b-39b7c3097fc1" d="M274.29,53.84h.26v-6h-.53v5.53l-69.91-.06v.5l70.18.03Z"/>
  <path class="uuid-83e51240-c0dc-491c-b65b-39b7c3097fc1" d="M179.63,53.76v-.5l-69.91-.07v-6.38h-.5v6.88h.25l70.16.07Z"/>
  <path class="uuid-6663b417-fd6f-4bc1-8ac7-34c7607f8e2f" d="M182.75,51.77c.04-.13.1-.24.19-.34.08-.1.18-.17.29-.23.12-.06.25-.09.38-.09.13,0,.25.02.37.06.11.03.21.09.29.17.18.16.28.4.27.64,0,.15-.03.3-.09.43-.06.12-.14.22-.24.31-.11.09-.23.18-.36.26l-.44.25-.46.33c-.17.13-.32.27-.46.43-.13.14-.22.3-.27.48-.04.18-.06.37-.06.56h2.77v-.33h-2.37c0-.1.03-.19.06-.28.03-.08.08-.15.13-.22.05-.07.11-.13.17-.19l.2-.16c.11-.09.23-.16.35-.23l.41-.23.4-.25c.13-.09.24-.19.35-.3.1-.11.18-.24.24-.38.06-.16.09-.33.09-.5,0-.16-.03-.31-.08-.46-.05-.14-.14-.27-.25-.37-.12-.11-.26-.2-.41-.25-.18-.06-.37-.09-.56-.09-.19,0-.39.03-.57.09-.16.07-.31.17-.44.29-.12.12-.21.27-.27.43-.07.19-.1.38-.1.58h.41c0-.14.01-.28.06-.41Z"/>
  <path class="uuid-6663b417-fd6f-4bc1-8ac7-34c7607f8e2f" d="M185.5,53.77c.04.24.11.48.23.69.1.19.25.36.43.48.22.12.47.18.72.17.25,0,.49-.05.71-.17.19-.11.34-.28.44-.47.11-.21.19-.44.22-.68.04-.27.06-.54.06-.81v-.5c0-.17-.03-.34-.07-.51-.03-.16-.09-.31-.15-.46-.07-.14-.15-.26-.26-.37-.11-.11-.24-.2-.39-.26-.17-.06-.36-.09-.54-.09-.26-.01-.52.05-.74.18-.18.12-.33.29-.43.49-.11.21-.18.45-.21.69-.04.26-.06.53-.06.79,0,.28,0,.55.04.83ZM185.87,52.3c.02-.21.08-.42.16-.61.07-.16.18-.31.32-.42.15-.11.33-.17.52-.16.19,0,.38.05.54.16.14.11.25.25.32.41.08.19.14.39.16.59v1.32c-.02.2-.07.4-.15.59-.06.17-.17.32-.31.44-.16.12-.35.18-.55.17-.18,0-.36-.04-.51-.14-.14-.09-.25-.21-.32-.36-.09-.18-.15-.37-.17-.57-.03-.25-.05-.49-.05-.74,0-.23.02-.46.04-.68h0Z"/>
  <path class="uuid-6663b417-fd6f-4bc1-8ac7-34c7607f8e2f" d="M188.84,53.77c.04.24.11.47.22.69.11.19.26.36.44.48.22.12.47.18.72.17.25,0,.49-.05.71-.17.19-.11.34-.28.44-.47.11-.21.19-.44.22-.68.04-.27.06-.54.06-.81v-.5c0-.17-.03-.34-.07-.51-.03-.16-.09-.31-.15-.46-.07-.14-.15-.26-.26-.37-.11-.11-.24-.2-.39-.26-.17-.06-.36-.09-.54-.09-.26-.01-.52.05-.74.18-.18.12-.33.29-.43.49-.11.21-.18.45-.21.69-.04.26-.06.53-.06.79,0,.28,0,.55.04.83ZM189.22,52.3c.02-.21.07-.42.15-.61.07-.16.18-.31.32-.42.15-.11.33-.17.52-.16.19,0,.38.05.54.16.14.11.25.25.32.41.08.19.14.39.16.59v1.32c-.02.2-.07.4-.15.59-.06.17-.17.32-.31.44-.16.12-.35.18-.55.17-.18,0-.36-.04-.51-.14-.14-.09-.25-.21-.32-.36-.09-.18-.15-.37-.17-.57-.02-.25-.02-.49,0-.74-.02-.23-.02-.45,0-.68h0Z"/>
  <path class="uuid-6663b417-fd6f-4bc1-8ac7-34c7607f8e2f" d="M192.27,55h.36v-1.89c0-.08,0-.15,0-.23,0-.08.03-.15.06-.22.03-.06.06-.12.1-.18.08-.11.19-.21.32-.27.12-.06.25-.09.38-.09.2-.02.39.05.53.19.1.16.15.34.14.53v2.16h.36v-1.68c0-.07,0-.14,0-.21,0-.08,0-.15,0-.23.02-.08.04-.15.07-.22.02-.07.05-.13.09-.18.09-.12.2-.21.33-.27.12-.06.25-.09.38-.09.2-.02.39.05.53.19.1.16.14.34.13.53v2.16h.36v-2.46c-.03-.14-.07-.27-.14-.39-.07-.12-.17-.21-.29-.28-.16-.07-.33-.11-.51-.1-.21,0-.41.05-.6.14-.19.1-.33.27-.42.46-.03-.08-.07-.16-.11-.24-.05-.07-.11-.13-.18-.19-.08-.06-.17-.1-.26-.12-.12-.02-.24-.02-.36,0-.2,0-.39.05-.57.13-.17.1-.31.24-.4.42h0v-.47h-.36l.06,3.1Z"/>
  <path class="uuid-6663b417-fd6f-4bc1-8ac7-34c7607f8e2f" d="M197.28,55h.36v-1.68c0-.07,0-.14,0-.21,0-.08,0-.15,0-.23.02-.08.04-.15.07-.22.02-.07.05-.13.09-.18.09-.12.2-.21.33-.27.12-.06.25-.09.38-.09.19-.02.39.05.52.19.1.16.15.34.14.53v2.16h.36v-2.12c.02-.08.04-.15.07-.22.02-.07.05-.13.1-.18.08-.11.19-.21.32-.27.12-.06.25-.09.38-.09.2-.02.39.05.53.19.1.16.15.34.14.53v2.16h.36v-2c.01-.15.01-.31,0-.46-.02-.14-.07-.27-.14-.39-.07-.12-.17-.22-.29-.28-.16-.08-.33-.11-.51-.1-.21,0-.41.05-.59.14-.19.11-.34.27-.43.46-.03-.08-.07-.16-.11-.24-.05-.07-.11-.13-.17-.19-.08-.05-.17-.09-.26-.12-.12-.02-.25-.02-.37,0-.19,0-.39.05-.56.13-.17.1-.31.24-.4.42h0v-.47h-.36l.04,3.1Z"/>
  <polygon class="uuid-83e51240-c0dc-491c-b65b-39b7c3097fc1" points="1.04 62.94 1.04 56.81 .54 56.81 .54 63.06 .53 63.44 125.7 63.44 125.7 62.94 1.04 62.94"/>
  <polygon class="uuid-83e51240-c0dc-491c-b65b-39b7c3097fc1" points="274.04 62.94 150.2 62.94 150.2 63.44 274.54 63.44 274.54 57 274.04 57 274.04 62.94"/>
  <path class="uuid-6663b417-fd6f-4bc1-8ac7-34c7607f8e2f" d="M131.02,63.2c-.02-.11-.06-.21-.12-.3-.06-.1-.14-.19-.23-.26-.11-.08-.24-.15-.37-.19.18-.08.34-.2.45-.37.1-.17.16-.37.15-.57,0-.16-.03-.32-.1-.47-.06-.13-.15-.24-.26-.33-.11-.09-.24-.15-.38-.19-.15-.04-.31-.06-.47-.06-.17-.02-.34-.02-.51,0-.17.04-.32.12-.45.23-.13.12-.23.27-.31.43-.07.16-.1.34-.1.52h.38c0-.12.02-.25.07-.36.04-.11.11-.21.19-.29.08-.09.17-.15.28-.19.12-.04.24-.06.37-.06.12-.01.23-.01.35,0,.1.03.2.07.29.13.18.14.27.35.26.57,0,.14-.03.28-.09.4-.06.1-.14.19-.24.25-.12.07-.25.11-.39.13-.16.01-.33.01-.49,0v.32c.17-.02.35-.02.52,0,.15.01.3.06.43.13.26.14.41.41.41.7,0,.12-.01.25-.06.36-.06.11-.13.22-.22.31-.1.09-.21.16-.34.21-.14.06-.28.09-.43.08-.28.01-.55-.08-.76-.25-.21-.19-.31-.46-.29-.74h-.39c.02.21.07.42.14.62.12.32.4.56.74.63.21.04.42.06.63.06.2,0,.4-.04.59-.11.16-.06.3-.16.42-.28.12-.11.21-.25.27-.4.06-.16.09-.32.09-.49,0-.06-.02-.11-.03-.17Z"/>
  <path class="uuid-6663b417-fd6f-4bc1-8ac7-34c7607f8e2f" d="M134.32,63.38c0-.2-.03-.4-.09-.59-.06-.17-.16-.32-.29-.44-.12-.12-.26-.21-.42-.28-.16-.05-.33-.07-.5-.07h-.26c-.08,0-.15,0-.23,0l-.21.09-.23.13.26-1.42h1.78v-.33h-2.11l-.34,2.2h.31c.11-.14.25-.26.41-.34.16-.07.34-.1.51-.1.15,0,.3.02.44.08.12.05.24.13.33.22.09.1.16.21.21.34.05.14.08.29.08.44,0,.14-.03.28-.07.42-.04.12-.11.24-.2.34-.09.1-.2.18-.32.24-.14.05-.28.08-.43.08-.25,0-.5-.07-.7-.22-.2-.16-.32-.39-.35-.64h-.38c.01.19.06.38.15.55.07.15.18.28.32.37.14.1.29.17.46.2.18.05.37.07.56.06.17,0,.35-.03.51-.09.16-.06.3-.15.42-.27.13-.12.24-.28.3-.45.06-.17.09-.34.08-.52Z"/>
  <path class="uuid-6663b417-fd6f-4bc1-8ac7-34c7607f8e2f" d="M137.72,62.66c0-.17,0-.34,0-.51,0-.17-.03-.34-.07-.5-.03-.16-.08-.31-.15-.46-.07-.14-.15-.27-.26-.38-.11-.11-.25-.2-.39-.26-.17-.06-.36-.09-.54-.09-.26-.01-.52.05-.74.19-.18.12-.33.28-.43.48-.11.22-.18.46-.21.7-.04.26-.06.52-.06.78,0,.28.02.56.06.83.04.24.11.47.23.69.1.2.24.36.43.48.22.12.47.18.72.17.25,0,.5-.05.72-.17.18-.11.33-.28.43-.47.11-.21.19-.44.22-.68.03-.27.05-.53.04-.8ZM137.16,63.86c-.07.17-.18.31-.32.43-.16.12-.35.18-.55.17-.18,0-.35-.04-.5-.13-.14-.09-.25-.21-.33-.36-.09-.18-.14-.37-.17-.57-.03-.25-.05-.49-.05-.74,0-.23.02-.46.05-.69.02-.21.07-.41.15-.6.07-.17.18-.32.32-.43.15-.11.33-.16.52-.15.19,0,.39.04.55.15.14.11.25.26.31.42.08.18.14.38.16.58v1.32c-.02.21-.07.41-.14.6Z"/>
  <path class="uuid-6663b417-fd6f-4bc1-8ac7-34c7607f8e2f" d="M142.58,62.73v-.45c-.03-.14-.07-.27-.14-.4-.07-.11-.17-.21-.29-.28-.36-.15-.77-.13-1.11.05-.18.11-.33.26-.42.45-.03-.08-.07-.16-.11-.23-.05-.07-.11-.14-.18-.19-.07-.06-.16-.11-.25-.13-.12-.03-.24-.05-.37-.05-.2,0-.39.05-.57.14-.17.1-.3.24-.39.41h0v-.46h-.36v3.11h.36v-1.7c0-.07,0-.14,0-.21,0-.08,0-.15,0-.23.02-.07.04-.15.06-.22.03-.06.06-.12.1-.18.08-.11.19-.21.32-.27.12-.05.25-.08.38-.08.2-.03.39.04.53.19.1.16.15.34.14.53v2.15h.36v-1.89c0-.08,0-.15,0-.23.02-.07.04-.15.07-.22.02-.07.05-.13.1-.18.08-.12.19-.21.32-.27.12-.05.25-.08.38-.08.2-.03.39.05.53.19.1.16.15.34.14.53v2.15h.36l.04-1.95Z"/>
  <path class="uuid-6663b417-fd6f-4bc1-8ac7-34c7607f8e2f" d="M147.58,62.73c0-.15,0-.3,0-.45-.02-.14-.07-.28-.14-.4-.07-.12-.17-.21-.29-.28-.16-.07-.33-.1-.51-.1-.21,0-.41.05-.59.15-.18.1-.33.26-.42.45-.03-.08-.07-.16-.12-.23-.05-.07-.11-.13-.17-.19-.08-.06-.17-.11-.26-.13-.12-.03-.24-.05-.37-.05-.2,0-.39.05-.56.14-.17.09-.31.23-.4.41h0v-.46h-.36v3.11h.36v-1.7c0-.07,0-.14,0-.21,0-.08,0-.15,0-.23.02-.07.04-.15.07-.22.02-.06.05-.13.09-.18.09-.12.2-.21.33-.27.12-.05.25-.08.38-.08.2-.03.39.05.53.19.1.16.14.34.13.53v2.15h.36v-1.68c0-.07,0-.14,0-.21,0-.15.04-.3.09-.45.03-.06.06-.12.1-.18.08-.11.19-.21.32-.27.12-.05.25-.08.38-.08.2-.03.39.05.53.19.1.16.15.34.14.53v2.15h.36l.02-1.95Z"/>
  <path class="uuid-6f6017d8-eb43-4fdf-8744-d6faf9c5cb96" d="M107.59,40.41c-.23,0-.43-.16-.49-.38l-4.33-18.19c-.76-3.15-3.8-5.19-7-4.7-9.84,1.61-20.43,3.19-31.17,4-13.76,1-25.79.43-36.76-1.66-2.52.26-4.99.81-7.38,1.65-3.11,1-6.33,1.95-9.65,1.66-2.11-.18-4.14-.9-5.9-2.08-1.01-.67-1.9-1.5-2.65-2.46C.17,15.57-.52,12.05.4,8.78,1.4,5.48,4.17,2.63,8.02.95,9.44.33,10.97,0,12.52,0l156.52.81c35.32.18,71.84.36,106.14,11.66.26.09.4.37.31.64-.04.12-.12.21-.23.27-19.29,10.38-41.17,14.46-60.17,17.46-35.57,5.62-71.48,8.82-107.49,9.57h-.01ZM96.72,16.06c3.33.02,6.22,2.31,7,5.55l4.3,17.79c35.84-.76,71.59-3.95,107-9.54,18.58-2.94,39.92-6.91,58.82-16.8C239.92,2.17,203.89,2,169.02,1.81L12.51,1h-.06c-1.39,0-2.77.27-4.05.82-3.6,1.57-6.17,4.19-7.08,7.2-.82,2.96-.19,6.14,1.7,8.57.68.87,1.5,1.63,2.42,2.25h0c1.62,1.09,3.49,1.75,5.43,1.92,3.12.27,6.11-.65,9.27-1.62,2.48-.88,5.05-1.45,7.67-1.7h.12c10.91,2.09,22.87,2.63,36.57,1.66,10.7-.76,21.26-2.35,31.08-3.94.38-.07.76-.1,1.14-.1Z"/>
  <path class="uuid-6f6017d8-eb43-4fdf-8744-d6faf9c5cb96" d="M88.76,18l-.92-.4,3.71-8.35,3.7-8.34.91.4c-1.25,2.84-2.48,5.6-3.7,8.35s-2.44,5.48-3.7,8.34Z"/>
  <g class="uuid-f3cfbc78-5595-4005-9790-ffdca9900dac">
    <path class="uuid-6f6017d8-eb43-4fdf-8744-d6faf9c5cb96" d="M80.02,13.29c-2.42,0-4.39-1.96-4.4-4.38,0-2.42,1.96-4.39,4.38-4.4,2.42,0,4.39,1.96,4.4,4.38,0,0,0,.01,0,.02,0,2.42-1.96,4.37-4.38,4.38ZM80.02,5.52c-1.87,0-3.39,1.51-3.4,3.38s1.51,3.39,3.38,3.4c1.87,0,3.39-1.51,3.4-3.38,0,0,0,0,0,0,0-1.87-1.51-3.38-3.38-3.39Z"/>
  </g>
  <g class="uuid-f3cfbc78-5595-4005-9790-ffdca9900dac">
    <path class="uuid-6f6017d8-eb43-4fdf-8744-d6faf9c5cb96" d="M11.02,15.92c-2.42,0-4.38-1.96-4.38-4.38s1.96-4.38,4.38-4.38,4.38,1.96,4.38,4.38h0c0,2.42-1.96,4.37-4.38,4.38ZM11.02,8.16c-1.87,0-3.38,1.51-3.38,3.38s1.51,3.38,3.38,3.38,3.38-1.51,3.38-3.38h0c0-1.86-1.52-3.37-3.38-3.38Z"/>
  </g>
</svg>