<?xml version="1.0" encoding="UTF-8"?>
<svg id="uuid-f9ef5a51-4470-41af-9a35-85eb33da7d89" data-name="Layer_1" xmlns="http://www.w3.org/2000/svg" width="275.37" height="66.3" viewBox="0 0 275.37 66.3">
  <defs>
    <style>
      .uuid-ea75d928-c903-4496-b585-627efb220dd3 {
        opacity: .6;
      }

      .uuid-ea75d928-c903-4496-b585-627efb220dd3, .uuid-d213e05d-11f5-4702-84f2-30de8f080d81 {
        isolation: isolate;
      }

      .uuid-ea75d928-c903-4496-b585-627efb220dd3, .uuid-d213e05d-11f5-4702-84f2-30de8f080d81, .uuid-e043368d-78b9-4f19-8dbc-3c58891406fa {
        fill: #273a5b;
      }

      .uuid-3e073643-da49-442f-9df6-2cde9ce20642 {
        opacity: .25;
      }

      .uuid-d213e05d-11f5-4702-84f2-30de8f080d81 {
        opacity: .4;
      }
    </style>
  </defs>
  <path class="uuid-d213e05d-11f5-4702-84f2-30de8f080d81" d="M178.02,55.27v-.5l-71.67-.07v-6.38h-.5v6.88h.25l71.92.07Z"/>
  <path class="uuid-d213e05d-11f5-4702-84f2-30de8f080d81" d="M274.43,55.35h.26v-6h-.53v5.53l-71.66-.06v.5l71.93.03Z"/>
  <path class="uuid-ea75d928-c903-4496-b585-627efb220dd3" d="M181.16,53.28c.04-.12.1-.24.19-.34.08-.1.18-.18.3-.23.11-.06.24-.09.37-.09.13,0,.25.02.37.06.11.03.21.09.3.17.08.08.15.18.2.28.05.11.07.24.07.36,0,.15-.03.3-.09.43-.07.12-.15.22-.25.31-.11.1-.23.19-.36.26-.14.07-.28.16-.43.25l-.47.33c-.17.13-.32.27-.46.43-.12.14-.21.3-.26.48-.05.18-.07.37-.07.56h2.77v-.33h-2.36c0-.1.02-.19.05-.28.04-.08.08-.15.13-.22l.17-.19.2-.16c.11-.09.23-.17.36-.23l.4-.23.4-.25c.26-.17.47-.4.6-.68.06-.16.09-.33.09-.5,0-.16-.03-.31-.09-.46-.05-.14-.13-.27-.24-.37-.12-.11-.26-.19-.41-.25-.18-.06-.38-.09-.57-.09-.19,0-.38.03-.56.09-.17.06-.32.16-.44.29-.12.12-.21.27-.28.43-.06.19-.09.38-.09.58h.41c0-.14,0-.28.05-.41Z"/>
  <path class="uuid-ea75d928-c903-4496-b585-627efb220dd3" d="M183.89,55.28c.03.24.11.47.22.69.1.2.25.36.44.48.22.12.46.18.71.17.25,0,.5-.05.72-.17.18-.12.33-.28.44-.47.11-.21.18-.44.21-.68.05-.27.07-.54.06-.81v-.5c-.02-.17-.04-.34-.08-.51-.03-.16-.08-.31-.15-.46-.12-.29-.36-.52-.65-.63-.17-.06-.36-.09-.54-.09-.26-.01-.52.05-.74.18-.18.13-.33.29-.43.49-.1.22-.17.45-.21.69-.04.26-.05.53-.05.79,0,.28,0,.56.05.83ZM184.26,53.81c.02-.21.08-.42.16-.61.07-.16.17-.31.31-.42.15-.11.33-.16.52-.16.2,0,.39.05.55.16.14.11.25.25.32.41.08.19.13.39.15.59.02.22.02.45,0,.67.01.22.01.43,0,.65-.02.2-.06.4-.14.59-.07.17-.17.32-.31.44-.16.12-.36.18-.56.17-.18,0-.35-.04-.5-.14-.14-.08-.26-.21-.33-.36-.09-.18-.14-.37-.16-.57-.04-.24-.06-.49-.06-.74,0-.23.02-.45.05-.68h0Z"/>
  <path class="uuid-ea75d928-c903-4496-b585-627efb220dd3" d="M187.23,55.28c.03.24.11.47.22.69.1.2.25.36.44.48.22.12.46.18.71.17.25,0,.5-.05.72-.17.18-.12.33-.28.44-.47.11-.21.18-.44.21-.68.05-.27.07-.54.06-.81v-.5c-.02-.17-.04-.34-.08-.51-.03-.16-.08-.31-.15-.46-.12-.29-.36-.52-.65-.63-.17-.06-.36-.09-.54-.09-.26-.01-.52.05-.74.18-.18.13-.33.29-.43.49-.1.22-.17.45-.21.69-.04.26-.05.53-.05.79,0,.28,0,.56.05.83ZM187.6,53.81c.02-.21.08-.42.16-.61.07-.16.17-.31.31-.42.15-.11.33-.16.52-.16.2,0,.39.05.55.16.14.11.25.25.32.41.08.19.13.39.15.59.02.22.02.45,0,.67.01.22.01.43,0,.65-.02.2-.06.4-.14.59-.07.17-.17.32-.31.44-.16.12-.36.18-.56.17-.18,0-.35-.04-.5-.14-.14-.08-.26-.21-.33-.36-.09-.18-.14-.37-.16-.57-.04-.24-.06-.49-.06-.74,0-.23.02-.45.05-.68Z"/>
  <path class="uuid-ea75d928-c903-4496-b585-627efb220dd3" d="M190.66,56.51h.36v-1.68c0-.07,0-.14,0-.21,0-.08,0-.15,0-.23.02-.08.04-.15.07-.22.02-.07.05-.13.09-.18.09-.12.2-.21.33-.27.11-.06.24-.09.37-.09.2-.02.39.05.53.19.1.16.15.34.14.53v2.16h.36v-2.12c.02-.08.04-.15.07-.22.03-.06.06-.12.1-.18.08-.11.19-.21.32-.27.12-.06.25-.09.38-.09.2-.02.39.05.53.19.1.16.15.34.14.53v2.16h.36v-2c.01-.15.01-.31,0-.46-.02-.14-.07-.27-.14-.39-.07-.12-.17-.22-.29-.28-.16-.08-.33-.11-.51-.1-.21,0-.41.05-.59.14-.19.1-.33.27-.42.46l-.12-.24c-.05-.07-.11-.13-.17-.19-.08-.05-.17-.09-.26-.12-.12-.02-.25-.02-.37,0-.19,0-.39.05-.56.13-.17.1-.31.24-.4.42h0v-.47h-.36l.04,3.1Z"/>
  <path class="uuid-ea75d928-c903-4496-b585-627efb220dd3" d="M195.66,56.51h.36v-1.89c0-.08,0-.15,0-.23.02-.08.04-.15.07-.22.02-.07.05-.13.1-.18.08-.12.19-.21.32-.27.12-.06.25-.09.38-.09.2-.02.39.05.53.19.1.16.15.34.14.53v2.16h.36v-1.68c0-.07,0-.14,0-.21,0-.08,0-.15,0-.23.02-.08.04-.15.07-.22.02-.07.05-.13.09-.18.09-.12.2-.21.33-.27.12-.06.25-.09.38-.09.19-.02.39.05.52.19.1.16.15.34.14.53v2.16h.36v-2c.01-.15.01-.31,0-.46-.02-.14-.07-.27-.14-.39-.06-.12-.16-.22-.28-.28-.16-.08-.34-.11-.52-.1-.21,0-.41.05-.59.14-.19.1-.33.27-.42.46-.03-.08-.07-.17-.12-.24-.05-.07-.1-.14-.17-.19-.08-.05-.17-.09-.26-.12-.12-.02-.25-.02-.37,0-.19,0-.39.05-.56.13-.17.1-.31.24-.4.42h0v-.47h-.36l.04,3.1Z"/>
  <polygon class="uuid-d213e05d-11f5-4702-84f2-30de8f080d81" points="1.18 64.45 1.18 58.32 .68 58.32 .68 64.57 .67 64.95 125.84 64.95 125.84 64.45 1.18 64.45"/>
  <polygon class="uuid-d213e05d-11f5-4702-84f2-30de8f080d81" points="274.18 64.45 150.34 64.45 150.34 64.95 274.68 64.95 274.68 58.51 274.18 58.51 274.18 64.45"/>
  <path class="uuid-ea75d928-c903-4496-b585-627efb220dd3" d="M131.16,64.71c-.02-.11-.06-.21-.12-.3-.06-.1-.14-.19-.23-.26-.11-.08-.24-.15-.37-.19.18-.08.34-.2.45-.37.1-.17.16-.37.15-.57,0-.16-.03-.32-.1-.47-.06-.13-.15-.24-.26-.33-.11-.09-.24-.15-.38-.19-.15-.04-.31-.06-.47-.06-.17-.02-.34-.02-.51,0-.17.04-.32.12-.45.23-.13.12-.23.27-.31.43-.07.16-.1.34-.1.52h.38c0-.12.02-.25.07-.36.04-.11.11-.21.19-.29.08-.09.17-.15.28-.19.12-.04.24-.06.37-.06.12-.01.23-.01.35,0,.1.03.2.07.29.13.18.14.27.35.26.57,0,.14-.03.28-.09.4-.06.1-.14.19-.24.25-.12.07-.25.11-.39.13-.16.01-.33.01-.49,0v.32c.17-.02.35-.02.52,0,.15.01.3.06.43.13.26.14.41.41.41.7,0,.12-.01.25-.06.36-.06.11-.13.22-.22.31-.1.09-.21.16-.34.21-.14.06-.28.09-.43.08-.28.01-.55-.08-.76-.25-.21-.19-.31-.46-.29-.74h-.39c.02.21.07.42.14.62.12.32.4.56.74.63.21.04.42.06.63.06.2,0,.4-.04.59-.11.16-.06.3-.16.42-.28.12-.11.21-.25.27-.4.06-.16.09-.32.09-.49,0-.06-.02-.11-.03-.17Z"/>
  <path class="uuid-ea75d928-c903-4496-b585-627efb220dd3" d="M134.51,64.92c.02-.37-.1-.73-.35-1-.27-.25-.63-.38-1-.36-.14,0-.27.02-.4.06-.1.04-.2.09-.29.15-.08.06-.16.13-.23.21l-.19.24c0-.19,0-.41.07-.63.02-.22.08-.43.16-.63.08-.18.2-.34.35-.47.18-.13.39-.19.61-.18.2-.01.39.06.54.19.14.14.23.32.27.52h.39c-.02-.3-.16-.58-.39-.77-.24-.19-.54-.28-.85-.27-.27-.01-.54.06-.76.22-.2.14-.36.33-.47.55-.12.23-.2.48-.24.74-.04.26-.06.53-.06.79,0,.32.03.63.11.94.06.23.17.44.31.63.12.16.28.28.47.35.19.07.39.1.59.1.37.02.73-.11,1-.36.25-.28.38-.65.36-1.02ZM133.91,65.63c-.3.34-.79.44-1.2.24-.12-.05-.21-.14-.29-.24-.08-.1-.14-.22-.17-.34-.04-.12-.05-.24-.05-.36,0-.14.02-.28.06-.41.04-.12.11-.23.19-.33.08-.1.18-.18.3-.23.13-.05.26-.08.4-.08.27-.02.54.08.74.26.17.22.25.49.23.77.01.12.01.25,0,.37-.05.13-.12.25-.21.35h0Z"/>
  <path class="uuid-ea75d928-c903-4496-b585-627efb220dd3" d="M137.86,64.17c0-.17,0-.34,0-.51,0-.17-.03-.34-.07-.5-.03-.16-.08-.31-.15-.46-.07-.14-.15-.27-.26-.38-.11-.11-.25-.2-.39-.26-.17-.06-.36-.09-.54-.09-.26-.01-.52.05-.74.19-.18.12-.33.28-.43.48-.11.22-.18.46-.21.7-.04.26-.06.52-.06.78,0,.28.02.56.06.83.04.24.11.47.23.69.1.2.24.36.43.48.22.12.47.18.72.17.25,0,.5-.05.72-.17.18-.11.33-.28.43-.47.11-.21.19-.44.22-.68.03-.27.05-.53.04-.8ZM137.3,65.37c-.07.17-.18.31-.32.43-.16.12-.35.18-.55.17-.18,0-.35-.04-.5-.13-.14-.09-.25-.21-.33-.36-.09-.18-.14-.37-.17-.57-.03-.25-.05-.49-.05-.74,0-.23.02-.46.05-.69.02-.21.07-.41.15-.6.07-.17.18-.32.32-.43.15-.11.33-.16.52-.15.19,0,.39.04.55.15.14.11.25.26.31.42.08.18.14.38.16.58v1.32c-.02.21-.07.41-.14.6Z"/>
  <path class="uuid-ea75d928-c903-4496-b585-627efb220dd3" d="M142.72,64.24v-.45c-.03-.14-.07-.27-.14-.4-.07-.11-.17-.21-.29-.28-.36-.15-.77-.13-1.11.05-.18.11-.33.26-.42.45-.03-.08-.07-.16-.11-.23-.05-.07-.11-.14-.18-.19-.07-.06-.16-.11-.25-.13-.12-.03-.24-.05-.37-.05-.2,0-.39.05-.57.14-.17.1-.3.24-.39.41h0v-.46h-.36v3.11h.36v-1.7c0-.07,0-.14,0-.21,0-.08,0-.15,0-.23.02-.07.04-.15.06-.22.03-.06.06-.12.1-.18.08-.11.19-.21.32-.27.12-.05.25-.08.38-.08.2-.03.39.04.53.19.1.16.15.34.14.53v2.15h.36v-1.89c0-.08,0-.15,0-.23.02-.07.04-.15.07-.22.02-.07.05-.13.1-.18.08-.12.19-.21.32-.27.12-.05.25-.08.38-.08.2-.03.39.05.53.19.1.16.15.34.14.53v2.15h.36l.04-1.95Z"/>
  <path class="uuid-ea75d928-c903-4496-b585-627efb220dd3" d="M147.72,64.24c0-.15,0-.3,0-.45-.02-.14-.07-.28-.14-.4-.07-.12-.17-.21-.29-.28-.16-.07-.33-.1-.51-.1-.21,0-.41.05-.59.15-.18.1-.33.26-.42.45-.03-.08-.07-.16-.12-.23-.05-.07-.11-.13-.17-.19-.08-.06-.17-.11-.26-.13-.12-.03-.24-.05-.37-.05-.2,0-.39.05-.56.14-.17.09-.31.23-.4.41h0v-.46h-.36v3.11h.36v-1.7c0-.07,0-.14,0-.21,0-.08,0-.15,0-.23.02-.07.04-.15.07-.22.02-.06.05-.13.09-.18.09-.12.2-.21.33-.27.12-.05.25-.08.38-.08.2-.03.39.05.53.19.1.16.14.34.13.53v2.15h.36v-1.68c0-.07,0-.14,0-.21,0-.15.04-.3.09-.45.03-.06.06-.12.1-.18.08-.11.19-.21.32-.27.12-.05.25-.08.38-.08.2-.03.39.05.53.19.1.16.15.34.14.53v2.15h.36l.02-1.95Z"/>
  <path class="uuid-e043368d-78b9-4f19-8dbc-3c58891406fa" d="M105.83,42.51v-.46c-.49-5.48-1.38-10.91-2.67-16.25-.22-1.09-.63-2.13-1.2-3.08-1.21-2-2.32-2.15-4-2.42l-1-.18c-8.19-1.18-16.65-.27-24.83.6-5.86.74-11.77,1.13-17.68,1.16-3.8-.06-7.63-.43-11.34-.78-3.19-.3-6.49-.61-9.74-.73-8.16-.29-14.63.84-19.79,3.47l-.18.09-.19-.06c-3.91-1.2-7.39-3.53-10-6.68-1.48-1.72-2.51-3.78-3-6-.51-2.29-.06-4.69,1.25-6.63C3.8,1.31,8.3.66,11.59.19c35.39.11,71,0,105.5-.07s70.11-.18,105.43-.07c23.61,0,38.65,3.24,51.91,11.17l.94.56-1.05.34c-54.41,17.51-110.9,27.71-168,30.31l-.49.08ZM88.42,18.6c2.91-.02,5.81.18,8.69.58l1,.17c1.74.28,3.25.52,4.7,2.89.63,1.05,1.08,2.19,1.33,3.39,1.24,5.21,2.1,10.5,2.57,15.84,56.49-2.64,112.38-12.71,166.23-29.96-12.86-7.42-27.59-10.46-50.44-10.46-35.31-.11-70.95,0-105.42.07s-70.12.18-105.43.06c-3.81.56-7.46,1.28-9.39,4-1.15,1.71-1.55,3.82-1.1,5.83.47,2.05,1.44,3.96,2.82,5.55,2.43,2.94,5.66,5.13,9.29,6.29,5.29-2.64,11.87-3.78,20.1-3.48,3.27.12,6.59.43,9.79.74,3.69.35,7.51.71,11.27.77,5.87-.03,11.74-.41,17.56-1.16,5.45-.67,10.94-1.06,16.43-1.16v.04Z"/>
  <path class="uuid-e043368d-78b9-4f19-8dbc-3c58891406fa" d="M78.16,19.24c-.68-6.1-.59-12.27.26-18.35l.75.11c-.85,6.02-.94,12.12-.27,18.16l-.74.08Z"/>
  <path class="uuid-e043368d-78b9-4f19-8dbc-3c58891406fa" d="M96.74,19.76c-1.58-.59-2.84-1.83-3.44-3.41-.5-1.62-.75-3.31-.75-5-.21-2.05-.03-4.12.52-6.11.64-2,2.65-4.4,4.78-5l.19.73c-1.82.48-3.67,2.69-4.26,4.46-.51,1.9-.67,3.88-.48,5.84,0,1.62.24,3.24.71,4.79.54,1.39,1.65,2.48,3.05,3l-.32.7Z"/>
  <g class="uuid-3e073643-da49-442f-9df6-2cde9ce20642">
    <path class="uuid-e043368d-78b9-4f19-8dbc-3c58891406fa" d="M119.81,37.29c-1.39,0-2.7-2.33-3-5.41-.17-1.34-.07-2.7.27-4,.36-1.17,1-1.86,1.68-1.94s1.44.47,2,1.54c1.2,2.45,1.5,5.24.85,7.88-.35,1.17-.95,1.86-1.67,1.94h-.13ZM118.81,26.42h-.08c-.5.05-1,.63-1.25,1.59-.32,1.24-.41,2.54-.25,3.81.34,3.1,1.61,5.08,2.62,5,.5-.05,1-.63,1.24-1.59.33-1.24.42-2.54.26-3.81h0c-.12-1.28-.48-2.53-1.06-3.67-.42-.87-.96-1.33-1.44-1.33h-.04Z"/>
  </g>
  <g class="uuid-3e073643-da49-442f-9df6-2cde9ce20642">
    <path class="uuid-e043368d-78b9-4f19-8dbc-3c58891406fa" d="M128.71,35.9c-.68,0-1.35-.55-1.91-1.55-.62-1.2-1-2.51-1.12-3.86-.17-1.34-.08-2.7.27-4,.35-1.17,1-1.86,1.67-1.94h.13c1.39,0,2.7,2.33,3,5.41.17,1.34.07,2.7-.27,4-.36,1.17-1,1.86-1.68,1.94h-.09ZM127.71,25.02h-.08c-.5,0-.95.63-1.24,1.59-.33,1.24-.42,2.54-.25,3.81.09,1.28.43,2.52,1,3.67.47.83,1,1.3,1.48,1.3h.08c.5,0,1-.63,1.25-1.59.33-1.24.41-2.54.25-3.81h0c-.24-3.02-1.47-4.97-2.45-4.97h-.04Z"/>
  </g>
  <g class="uuid-3e073643-da49-442f-9df6-2cde9ce20642">
    <path class="uuid-e043368d-78b9-4f19-8dbc-3c58891406fa" d="M137.34,35.06c-1.39,0-2.7-2.32-3-5.41s.51-5.8,2-5.95,2.82,2.22,3.16,5.4h0c.35,3.18-.51,5.8-1.94,5.95h-.22ZM136.34,24.19h-.08c-1,.11-1.83,2.31-1.5,5.41s1.6,5.08,2.62,5,1.83-2.31,1.5-5.41-1.52-5-2.5-5h-.04Z"/>
  </g>
  <g class="uuid-3e073643-da49-442f-9df6-2cde9ce20642">
    <path class="uuid-e043368d-78b9-4f19-8dbc-3c58891406fa" d="M145.96,33.67c-.68,0-1.35-.54-1.91-1.55-1.2-2.44-1.5-5.23-.85-7.87.36-1.18,1-1.87,1.67-2,1.44-.16,2.83,2.22,3.17,5.41.17,1.34.08,2.7-.27,4-.36,1.18-1,1.87-1.67,1.94l-.14.07ZM144.96,22.8h-.07c-.51.06-1,.64-1.25,1.59-.33,1.24-.42,2.54-.25,3.82.11,1.28.47,2.53,1.06,3.67.49.87,1.08,1.34,1.55,1.29s1-.64,1.25-1.59c.33-1.24.42-2.54.25-3.82-.28-3.02-1.51-4.96-2.5-4.96h-.04Z"/>
  </g>
  <g class="uuid-3e073643-da49-442f-9df6-2cde9ce20642">
    <path class="uuid-e043368d-78b9-4f19-8dbc-3c58891406fa" d="M154.31,32.56c-1.38,0-2.7-2.33-3-5.41-.17-1.34-.08-2.7.27-4,.36-1.17,1-1.86,1.67-1.94,1.44-.15,2.82,2.22,3.17,5.4h0c.17,1.34.07,2.7-.27,4-.36,1.17-1,1.86-1.67,1.94h-.17ZM153.31,21.68h-.08c-.5,0-1,.63-1.24,1.59-.33,1.24-.42,2.54-.25,3.81.33,3.1,1.62,5.08,2.61,5,.51,0,1-.63,1.25-1.59.33-1.24.41-2.54.25-3.81h0c-.28-3.05-1.52-5-2.5-5h-.04Z"/>
  </g>
  <g class="uuid-3e073643-da49-442f-9df6-2cde9ce20642">
    <path class="uuid-e043368d-78b9-4f19-8dbc-3c58891406fa" d="M162.66,31.44c-1.38,0-2.7-2.32-3-5.41-.17-1.34-.08-2.7.27-4,.35-1.17.95-1.86,1.67-1.94s1.45.47,2.05,1.54c.62,1.2,1,2.51,1.12,3.86h0c.17,1.34.08,2.7-.27,4-.36,1.18-.95,1.87-1.68,2l-.16-.05ZM161.66,20.57h-.08c-.5.05-1,.63-1.24,1.59-.33,1.24-.42,2.54-.26,3.81.34,3.1,1.61,5.07,2.62,5,.5-.05,1-.63,1.25-1.59.32-1.24.41-2.54.25-3.81-.11-1.28-.47-2.53-1.06-3.68-.42-.85-.98-1.32-1.44-1.32h-.04Z"/>
  </g>
  <g class="uuid-3e073643-da49-442f-9df6-2cde9ce20642">
    <path class="uuid-e043368d-78b9-4f19-8dbc-3c58891406fa" d="M171.01,30.33c-.68,0-1.35-.54-1.92-1.55-.62-1.2-1-2.51-1.12-3.86-.34-3.18.51-5.8,1.95-5.95s2.82,2.22,3.16,5.4c.17,1.34.08,2.7-.27,4-.35,1.18-1,1.87-1.67,1.94l-.13.02ZM170.01,19.46h-.08c-1,.11-1.83,2.31-1.5,5.41.11,1.28.47,2.53,1.06,3.67.49.87,1.08,1.34,1.56,1.29s1-.64,1.24-1.59c.33-1.24.42-2.54.26-3.82h0c-.29-3.02-1.52-4.91-2.5-4.91l-.04-.05Z"/>
  </g>
  <g class="uuid-3e073643-da49-442f-9df6-2cde9ce20642">
    <path class="uuid-e043368d-78b9-4f19-8dbc-3c58891406fa" d="M179.36,29.22c-1.39,0-2.7-2.33-3-5.41-.17-1.34-.08-2.7.27-4,.36-1.18.95-1.87,1.68-1.95s1.44.47,2,1.54c.62,1.21,1,2.52,1.12,3.87h0c.35,3.18-.51,5.8-1.94,5.95h-.13ZM178.36,18.35h-.08c-.5,0-1,.63-1.25,1.59-.32,1.24-.41,2.54-.25,3.81.33,3.1,1.61,5.08,2.62,5s1.83-2.3,1.5-5.4h0c-.12-1.28-.48-2.53-1.06-3.67-.43-.87-.96-1.33-1.44-1.33h-.04Z"/>
  </g>
  <g class="uuid-3e073643-da49-442f-9df6-2cde9ce20642">
    <path class="uuid-e043368d-78b9-4f19-8dbc-3c58891406fa" d="M188.16,28.04c-.82-.12-1.54-.63-1.92-1.37-1.43-2.32-1.99-5.07-1.59-7.76.24-1.2.77-1.94,1.48-2.09,1.41-.28,3,1.95,3.66,5.08h0c.29,1.31.33,2.67.11,4-.24,1.21-.77,2-1.48,2.1l-.26.04ZM186.38,17.3h-.22c-.49.1-.89.72-1.09,1.7-.37,2.56.16,5.17,1.51,7.38.56.82,1.16,1.24,1.67,1.14s.89-.73,1.09-1.71c.21-1.27.18-2.57-.11-3.82-.57-2.89-1.93-4.69-2.9-4.69h.05Z"/>
  </g>
  <g class="uuid-3e073643-da49-442f-9df6-2cde9ce20642">
    <path class="uuid-e043368d-78b9-4f19-8dbc-3c58891406fa" d="M196.48,26.89c-.56,0-1.19-.45-1.8-1.31-1.44-2.28-2.14-4.94-2-7.63.11-1.21.53-2,1.16-2.13,1.26-.34,2.83,1.78,3.67,4.93h0c.83,3.15.51,5.77-.74,6.11-.1.02-.19.03-.29.03ZM194.08,16.28h-.13c-.41.11-.7.74-.79,1.7-.12,2.57.55,5.12,1.93,7.29.56.79,1.13,1.19,1.53,1.08.81-.21,1.17-2.52.38-5.49h0c-.74-2.79-2.09-4.58-2.92-4.58Z"/>
  </g>
  <g class="uuid-3e073643-da49-442f-9df6-2cde9ce20642">
    <path class="uuid-e043368d-78b9-4f19-8dbc-3c58891406fa" d="M205.29,24.89c-1.2,0-2.59-2-3.35-4.8-.36-1.25-.49-2.56-.39-3.86.12-1.18.54-1.92,1.17-2.08,1.26-.33,2.81,1.71,3.63,4.77h0c.81,3.05.47,5.6-.78,5.94-.09.02-.19.03-.28.03ZM202.99,14.61h-.14c-.41.11-.7.71-.8,1.65-.09,1.24.03,2.48.37,3.68.77,2.87,2.22,4.62,3,4.41s1.18-2.45.42-5.33h0c-.68-2.69-2.02-4.41-2.85-4.41h0Z"/>
  </g>
  <g class="uuid-3e073643-da49-442f-9df6-2cde9ce20642">
    <path class="uuid-e043368d-78b9-4f19-8dbc-3c58891406fa" d="M213.46,23.19c-1.29,0-2.77-1.92-3.48-4.63-.78-2.93-.33-5.5,1-5.86.68-.18,1.46.22,2.18,1.14.76,1.03,1.31,2.2,1.62,3.44h0c.78,2.93.33,5.51-1,5.87-.1.03-.21.04-.32.04ZM211.32,13.19h-.19c-.93.25-1.42,2.42-.67,5.26s2.25,4.48,3.19,4.23,1.42-2.42.67-5.26h0c-.29-1.18-.81-2.28-1.53-3.26-.32-.53-.86-.89-1.47-1v.03Z"/>
  </g>
  <g class="uuid-3e073643-da49-442f-9df6-2cde9ce20642">
    <path class="uuid-e043368d-78b9-4f19-8dbc-3c58891406fa" d="M222.08,21.51c-1.28,0-2.76-1.92-3.48-4.62-.35-1.23-.45-2.53-.3-3.8.17-1.15.65-1.89,1.33-2.07,1.35-.36,3,1.66,3.79,4.58h0c.36,1.23.47,2.53.31,3.8-.18,1.15-.65,1.89-1.33,2.07-.1.03-.21.04-.32.04ZM219.95,11.51h-.19c-.48.13-.83.73-1,1.67-.14,1.2-.04,2.42.3,3.59.75,2.83,2.26,4.48,3.18,4.23.47-.13.82-.73,1-1.67.14-1.2.04-2.42-.3-3.59h0c-.7-2.65-2.06-4.23-2.99-4.23Z"/>
  </g>
  <g class="uuid-3e073643-da49-442f-9df6-2cde9ce20642">
    <path class="uuid-e043368d-78b9-4f19-8dbc-3c58891406fa" d="M229.95,19.36c-1.1,0-2.37-1.77-3-4.31-.73-2.74-.41-5,.74-5.34.59-.15,1.25.24,1.88,1.1.66.96,1.14,2.04,1.42,3.17h0c.72,2.74.4,5-.75,5.34-.09.03-.19.05-.29.04ZM227.9,10.18h-.12c-.73.2-1.07,2.19-.39,4.74.68,2.55,2,4.1,2.68,3.91s1.07-2.18.39-4.73h0c-.26-1.07-.71-2.09-1.33-3-.44-.59-.88-.92-1.23-.92h0Z"/>
  </g>
  <g class="uuid-3e073643-da49-442f-9df6-2cde9ce20642">
    <path class="uuid-e043368d-78b9-4f19-8dbc-3c58891406fa" d="M238.57,17.41c-.68-.11-1.28-.52-1.62-1.13-1.29-1.96-1.91-4.29-1.76-6.63.12-1.06.51-1.73,1.09-1.89s1.25.24,1.88,1.1c.65.96,1.13,2.04,1.41,3.17.33,1.12.44,2.29.35,3.46-.12,1.06-.51,1.73-1.09,1.89-.09.02-.17.03-.26.03ZM236.57,8.23h-.12c-.36.09-.63.64-.72,1.45-.09,1.1.02,2.22.33,3.28.26,1.07.71,2.09,1.33,3,.49.67,1,1,1.35.91s.63-.64.72-1.45c.09-1.1-.03-2.22-.33-3.28h0c-.26-1.07-.72-2.09-1.34-3-.47-.57-.92-.91-1.26-.91h.04Z"/>
  </g>
  <g class="uuid-3e073643-da49-442f-9df6-2cde9ce20642">
    <path class="uuid-e043368d-78b9-4f19-8dbc-3c58891406fa" d="M246.71,16.07c-1.17,0-2.53-1.77-3.19-4.26-.71-2.7-.31-5.06.93-5.39s2.75,1.53,3.47,4.22h0c.72,2.7.31,5.07-.92,5.39-.09.03-.19.04-.29.04ZM244.71,6.88h-.15c-.82.22-1.25,2.23-.57,4.78s2,4.09,2.86,3.87,1.25-2.23.57-4.78h0c-.62-2.37-1.87-3.87-2.69-3.87h-.02Z"/>
  </g>
  <g class="uuid-3e073643-da49-442f-9df6-2cde9ce20642">
    <path class="uuid-e043368d-78b9-4f19-8dbc-3c58891406fa" d="M254.93,13.73c-.64-.08-1.2-.45-1.54-1-.63-.82-1.08-1.77-1.32-2.77-.28-.97-.35-1.99-.23-3,.15-.94.56-1.55,1.13-1.7s1.23.17,1.83.91c.62.82,1.07,1.77,1.31,2.77h0c.28.97.36,1.99.23,3-.15,1-.55,1.55-1.13,1.7-.09.05-.18.08-.28.09ZM253.25,5.73h-.15c-.37.1-.65.57-.77,1.3-.21,1.93.31,3.86,1.45,5.43.46.57.94.84,1.3.74s.65-.57.77-1.3c.12-.95.04-1.92-.22-2.84h0c-.23-.93-.64-1.81-1.22-2.58-.26-.41-.68-.68-1.16-.76h0Z"/>
  </g>
  <g class="uuid-3e073643-da49-442f-9df6-2cde9ce20642">
    <path class="uuid-e043368d-78b9-4f19-8dbc-3c58891406fa" d="M16.45,13.21c-1.83,0-3.32-1.48-3.33-3.31s1.48-3.32,3.31-3.33c1.83,0,3.32,1.48,3.33,3.31,0,0,0,.01,0,.02,0,1.83-1.48,3.31-3.31,3.31ZM16.45,7.08c-1.56,0-2.82,1.25-2.83,2.81s1.25,2.82,2.81,2.83,2.82-1.25,2.83-2.81c0,0,0,0,0,0,0-1.55-1.26-2.81-2.81-2.82Z"/>
  </g>
  <g class="uuid-3e073643-da49-442f-9df6-2cde9ce20642">
    <path class="uuid-e043368d-78b9-4f19-8dbc-3c58891406fa" d="M40.1,13.21c-1.83,0-3.32-1.48-3.33-3.31s1.48-3.32,3.31-3.33c1.83,0,3.32,1.48,3.33,3.31,0,0,0,.01,0,.02,0,1.83-1.48,3.31-3.31,3.31ZM40.1,7.08c-1.56,0-2.82,1.25-2.83,2.81s1.25,2.82,2.81,2.83,2.82-1.25,2.83-2.81c0,0,0,0,0,0,0-1.55-1.26-2.81-2.81-2.82Z"/>
  </g>
  <g class="uuid-3e073643-da49-442f-9df6-2cde9ce20642">
    <path class="uuid-e043368d-78b9-4f19-8dbc-3c58891406fa" d="M63.16,13.21c-1.83,0-3.32-1.48-3.33-3.31s1.48-3.32,3.31-3.33c1.83,0,3.32,1.48,3.33,3.31,0,0,0,.01,0,.02,0,1.83-1.48,3.3-3.31,3.31ZM63.16,7.08c-1.56,0-2.82,1.25-2.83,2.81s1.25,2.82,2.81,2.83,2.82-1.25,2.83-2.81c0,0,0,0,0,0,0-1.55-1.26-2.81-2.81-2.82Z"/>
  </g>
</svg>