<?xml version="1.0" encoding="UTF-8"?>
<svg id="uuid-d591c350-5a33-4f02-87a4-a23cec5483bf" data-name="Layer_1" xmlns="http://www.w3.org/2000/svg" width="275.57" height="63.81" viewBox="0 0 275.57 63.81">
  <defs>
    <style>
      .uuid-0f7c718d-9cee-4817-a0be-7b2722eb12a6 {
        opacity: .6;
      }

      .uuid-0f7c718d-9cee-4817-a0be-7b2722eb12a6, .uuid-3fb28199-d1ed-46d5-9d89-1062fd6dd09f {
        isolation: isolate;
      }

      .uuid-0f7c718d-9cee-4817-a0be-7b2722eb12a6, .uuid-3fb28199-d1ed-46d5-9d89-1062fd6dd09f, .uuid-30351a21-5e0d-4fac-a45f-862bb5b3ee9a {
        fill: #273a5b;
      }

      .uuid-3fb28199-d1ed-46d5-9d89-1062fd6dd09f {
        opacity: .4;
      }
    </style>
  </defs>
  <path class="uuid-3fb28199-d1ed-46d5-9d89-1062fd6dd09f" d="M273.77,52.87h.26v-6h-.53v5.53c-7.32,0-36.79-.1-68.77-.2v.5c32.38.07,62.17.17,69.04.17Z"/>
  <path class="uuid-3fb28199-d1ed-46d5-9d89-1062fd6dd09f" d="M180.25,52.6v-.5c-30.59-.1-58.63-.18-68.78-.19v-6.38h-.5v6.88h.25c9.93,0,38.19.09,69.03.19Z"/>
  <path class="uuid-0f7c718d-9cee-4817-a0be-7b2722eb12a6" d="M183.36,50.8c.04-.12.11-.24.2-.34.08-.1.18-.18.29-.23.12-.06.25-.09.38-.09.13,0,.25.02.37.06.11.03.21.09.29.17.08.08.15.18.2.28.05.11.07.24.07.36,0,.15-.03.3-.09.43-.06.12-.15.22-.25.31-.11.1-.23.19-.36.26l-.43.25c-.15.1-.31.21-.46.33-.17.13-.33.27-.47.43-.12.14-.21.3-.26.48-.04.18-.06.37-.07.56h2.73v-.33h-2.36c0-.1.03-.19.06-.28.03-.08.07-.15.12-.22.06-.06.11-.13.18-.19l.2-.16c.11-.09.23-.16.35-.23l.4-.23.41-.25c.13-.09.24-.19.35-.3.1-.11.18-.24.24-.38.06-.16.09-.33.09-.5,0-.16-.03-.31-.08-.46-.06-.14-.14-.27-.25-.37-.12-.11-.26-.19-.41-.25-.18-.06-.37-.09-.56-.09-.19,0-.39.03-.57.09-.16.07-.31.17-.44.29-.12.12-.21.27-.27.43-.07.19-.1.38-.1.58h.41c0-.14.03-.28.09-.41Z"/>
  <path class="uuid-0f7c718d-9cee-4817-a0be-7b2722eb12a6" d="M187.64,54.03h.39v-4.24h-.31c-.02.15-.07.29-.15.42-.06.1-.14.19-.24.25-.11.06-.22.09-.34.11l-.44.05v.26h1.09v3.15Z"/>
  <path class="uuid-0f7c718d-9cee-4817-a0be-7b2722eb12a6" d="M189.5,52.8c.03.24.11.47.22.69.1.2.25.36.44.48.22.12.47.18.72.17.25,0,.49-.05.71-.17.19-.12.34-.28.44-.47.11-.21.18-.44.22-.68.04-.27.06-.54.06-.81v-.5c-.01-.17-.04-.34-.07-.51-.04-.16-.09-.31-.15-.46-.07-.14-.15-.26-.26-.37-.11-.11-.24-.2-.39-.26-.17-.06-.36-.09-.54-.09-.26-.01-.52.05-.74.18-.18.13-.34.29-.44.49-.1.22-.17.45-.21.69-.02.26-.02.53,0,.79-.02.28-.03.55,0,.83ZM189.87,51.33c.02-.21.08-.42.16-.61.07-.16.18-.31.32-.42.15-.11.33-.17.51-.16.2,0,.39.05.55.16.14.11.25.25.32.41.08.19.14.39.16.59v1.32c-.02.2-.08.4-.15.59-.06.17-.17.32-.31.44-.16.12-.35.18-.55.17-.18,0-.36-.04-.51-.14-.14-.08-.26-.21-.32-.36-.09-.18-.15-.37-.17-.57-.04-.24-.06-.49-.06-.74-.01-.23,0-.45,0-.68h.04Z"/>
  <path class="uuid-0f7c718d-9cee-4817-a0be-7b2722eb12a6" d="M192.89,54.03h.36v-1.89c0-.08,0-.15,0-.23.02-.08.04-.15.07-.22.02-.07.05-.13.1-.18.08-.12.19-.21.32-.27.12-.06.25-.09.38-.09.2-.02.39.05.53.19.1.16.15.34.14.53v2.16h.36v-1.68c0-.07,0-.14,0-.21,0-.08,0-.15,0-.23.01-.07.03-.15.06-.22.03-.06.06-.12.1-.18.09-.12.2-.21.33-.27.11-.06.24-.09.37-.09.2-.02.39.05.53.19.1.16.15.34.14.53v2.16h.36v-2c.01-.15.01-.31,0-.46-.02-.14-.07-.27-.14-.39-.06-.12-.16-.22-.28-.28-.16-.08-.34-.11-.52-.1-.21,0-.41.05-.59.14-.19.1-.33.27-.42.46-.03-.08-.07-.17-.12-.24-.05-.07-.1-.14-.17-.19-.08-.05-.17-.09-.26-.12-.12-.02-.25-.02-.37,0-.19,0-.39.05-.56.13-.17.1-.31.24-.4.42h0v-.47h-.36l.04,3.1Z"/>
  <path class="uuid-0f7c718d-9cee-4817-a0be-7b2722eb12a6" d="M197.89,54.03h.36v-1.68c0-.07,0-.14,0-.21,0-.08,0-.15,0-.23,0-.08.03-.15.06-.22.03-.06.06-.12.1-.18.08-.11.19-.21.32-.27.12-.06.25-.09.38-.09.2-.02.39.05.53.19.1.16.15.34.14.53v2.16h.36v-1.89c0-.08,0-.15,0-.23.02-.08.04-.15.07-.22.02-.07.05-.13.09-.18.09-.11.2-.21.33-.27.12-.06.25-.09.38-.09.2-.02.39.05.53.19.1.16.15.34.14.53v2.16h.36v-2.46c-.03-.14-.07-.27-.14-.39-.07-.12-.17-.22-.29-.28-.16-.07-.33-.11-.51-.1-.21,0-.41.05-.6.14-.18.11-.33.27-.42.46-.03-.08-.07-.16-.11-.24-.05-.07-.11-.13-.18-.19-.08-.05-.16-.09-.25-.12-.12-.02-.25-.02-.37,0-.2,0-.39.05-.57.13-.17.1-.3.24-.39.42h0v-.47h-.36l.04,3.1Z"/>
  <polygon class="uuid-3fb28199-d1ed-46d5-9d89-1062fd6dd09f" points="273.52 61.97 149.68 61.97 149.68 62.47 274.02 62.47 274.02 56.03 273.52 56.03 273.52 61.97"/>
  <polygon class="uuid-3fb28199-d1ed-46d5-9d89-1062fd6dd09f" points=".52 61.97 .52 55.84 .02 55.84 .02 62.09 .01 62.47 125.18 62.47 125.18 61.97 .52 61.97"/>
  <path class="uuid-0f7c718d-9cee-4817-a0be-7b2722eb12a6" d="M130.5,62.36h-.58v-2.83h-.35l-2,2.82v.33h1.93v1h.39v-1h.61v-.32ZM129.5,60.11v2.25h-1.56l1.56-2.25Z"/>
  <path class="uuid-0f7c718d-9cee-4817-a0be-7b2722eb12a6" d="M131.5,63.13c.03-.08.07-.16.13-.22.05-.07.11-.14.17-.2l.2-.16c.11-.09.23-.16.35-.23l.41-.23c.14-.07.27-.15.4-.24.13-.09.25-.19.35-.3.1-.12.18-.25.25-.39.06-.16.09-.33.09-.5,0-.15-.03-.31-.09-.45-.05-.14-.14-.27-.25-.38-.12-.1-.25-.19-.4-.25-.18-.06-.38-.09-.57-.09-.19,0-.38.03-.56.1-.17.06-.32.15-.44.28-.12.13-.21.28-.28.44-.07.18-.1.38-.1.57h.41c0-.14.01-.28.06-.41.04-.12.1-.24.19-.34.08-.09.18-.17.29-.23.12-.05.25-.08.38-.08.13,0,.25.01.37.05.11.04.2.1.29.17.09.08.15.17.2.28.11.25.11.54,0,.79-.06.12-.14.23-.24.32-.11.1-.23.18-.36.25l-.44.26c-.16.1-.31.21-.46.32-.17.13-.32.28-.46.44-.13.14-.22.3-.27.48-.04.18-.06.36-.06.55h2.77v-.32h-2.33c-.02-.09-.02-.19,0-.28Z"/>
  <path class="uuid-0f7c718d-9cee-4817-a0be-7b2722eb12a6" d="M137.2,61.69c0-.17,0-.34,0-.51,0-.17-.03-.34-.07-.5-.03-.16-.08-.31-.15-.46-.07-.14-.15-.27-.26-.38-.11-.11-.25-.2-.39-.26-.17-.06-.36-.09-.54-.09-.26-.01-.52.05-.74.19-.18.12-.33.28-.43.48-.11.22-.18.46-.21.7-.04.26-.06.52-.06.78,0,.28.02.56.06.83.04.24.11.47.23.69.1.2.24.36.43.48.22.12.47.18.72.17.25,0,.5-.05.72-.17.18-.11.33-.28.43-.47.11-.21.19-.44.22-.68.03-.27.05-.53.04-.8ZM136.64,62.89c-.07.17-.18.31-.32.43-.16.12-.35.18-.55.17-.18,0-.35-.04-.5-.13-.14-.09-.25-.21-.33-.36-.09-.18-.14-.37-.17-.57-.03-.25-.05-.49-.05-.74,0-.23.02-.46.05-.69.02-.21.07-.41.15-.6.07-.17.18-.32.32-.43.15-.11.33-.16.52-.15.19,0,.39.04.55.15.14.11.25.26.31.42.08.18.14.38.16.58v1.32c-.02.21-.07.41-.14.6Z"/>
  <path class="uuid-0f7c718d-9cee-4817-a0be-7b2722eb12a6" d="M142.06,61.76v-.45c-.03-.14-.07-.27-.14-.4-.07-.11-.17-.21-.29-.28-.36-.15-.77-.13-1.11.05-.18.11-.33.26-.42.45-.03-.08-.07-.16-.11-.23-.05-.07-.11-.14-.18-.19-.07-.06-.16-.11-.25-.13-.12-.03-.24-.05-.37-.05-.2,0-.39.05-.57.14-.17.1-.3.24-.39.41h0v-.46h-.36v3.11h.36v-1.7c0-.07,0-.14,0-.21,0-.08,0-.15,0-.23.02-.07.04-.15.06-.22.03-.06.06-.12.1-.18.08-.11.19-.21.32-.27.12-.05.25-.08.38-.08.2-.03.39.04.53.19.1.16.15.34.14.53v2.15h.36v-1.89c0-.08,0-.15,0-.23.02-.07.04-.15.07-.22.02-.07.05-.13.1-.18.08-.12.19-.21.32-.27.12-.05.25-.08.38-.08.2-.03.39.05.53.19.1.16.15.34.14.53v2.15h.36l.04-1.95Z"/>
  <path class="uuid-0f7c718d-9cee-4817-a0be-7b2722eb12a6" d="M147.06,61.76c0-.15,0-.3,0-.45-.02-.14-.07-.28-.14-.4-.07-.12-.17-.21-.29-.28-.16-.07-.33-.1-.51-.1-.21,0-.41.05-.59.15-.18.1-.33.26-.42.45-.03-.08-.07-.16-.12-.23-.05-.07-.11-.13-.17-.19-.08-.06-.17-.11-.26-.13-.12-.03-.24-.05-.37-.05-.2,0-.39.05-.56.14-.17.09-.31.23-.4.41h0v-.46h-.36v3.11h.36v-1.7c0-.07,0-.14,0-.21,0-.08,0-.15,0-.23.02-.07.04-.15.07-.22.02-.06.05-.13.09-.18.09-.12.2-.21.33-.27.12-.05.25-.08.38-.08.2-.03.39.05.53.19.1.16.14.34.13.53v2.15h.36v-1.68c0-.07,0-.14,0-.21,0-.15.04-.3.09-.45.03-.06.06-.12.1-.18.08-.11.19-.21.32-.27.12-.05.25-.08.38-.08.2-.03.39.05.53.19.1.16.15.34.14.53v2.15h.36l.02-1.95Z"/>
  <path class="uuid-30351a21-5e0d-4fac-a45f-862bb5b3ee9a" d="M114.04,40.11c-1.49,0-2.79-1.05-3.1-2.51-.51-2.47-1-5-1.5-7.65-1.18-6.11-6.52-10.52-12.74-10.53h-.07c-33.69.19-66.65,1.77-94.44,3.29-.66.04-1.24-.43-1.35-1.08-.09-.53-.17-1.07-.24-1.6C-.22,13.91-.2,7.71.65,1.59c.08-.63.61-1.11,1.25-1.12C39.51-.29,77.65-.13,115.27.94c53.23-1.41,106.48,2.31,159,11.1l1.3.22-1.12.7c-26.37,16.49-58.3,21.25-88.87,23.94-23.67,2.08-47.72,3.16-71.48,3.21h-.06ZM96.7,18.42c6.7.01,12.45,4.77,13.72,11.34.49,2.6,1,5.17,1.5,7.63.21,1,1.1,1.72,2.12,1.72h0c23.73-.05,47.75-1.13,71.39-3.21,30-2.64,61.32-7.27,87.3-23.09C220.7,4.19,167.97.55,115.25,1.94,77.62.87,39.5.71,1.91,1.47c-.14,0-.26.11-.28.25-.82,6.03-.82,12.15,0,18.18h0c.07.52.15,1,.23,1.57.03.15.16.25.31.25,27.81-1.53,60.78-3.11,94.49-3.3h.04Z"/>
  <rect class="uuid-30351a21-5e0d-4fac-a45f-862bb5b3ee9a" x="88.1" y="9.33" width="17.9" height="1" transform="translate(86.28 106.78) rotate(-89.44)"/>
  <path class="uuid-30351a21-5e0d-4fac-a45f-862bb5b3ee9a" d="M106,23.29c-.72-.86-1.57-1.59-2.52-2.18-.85-.55-1.65-1.19-2.36-1.91-1.92-2.26-2.5-5.37-1.54-8.17.97-2.69,2.75-5.01,5.1-6.63,2.02-1.38,4.18-2.56,6.44-3.52l.42.91c-2.2.93-4.3,2.07-6.27,3.42-2.19,1.49-3.86,3.63-4.77,6.12-.85,2.46-.35,5.19,1.33,7.19.67.67,1.41,1.27,2.2,1.78,1.04.65,1.97,1.46,2.75,2.41l-.78.58Z"/>
  <path class="uuid-30351a21-5e0d-4fac-a45f-862bb5b3ee9a" d="M4.29,22.15c-1.17-7.01-1.23-14.15-.19-21.18l1,.15c-1.04,6.94-.98,13.99.17,20.91l-.98.12Z"/>
</svg>