<?xml version="1.0" encoding="UTF-8"?>
<svg id="uuid-2a3fcea4-87aa-4c0e-b348-3fcefc5d2825" data-name="Layer_1" xmlns="http://www.w3.org/2000/svg" width="275.76" height="68.14" viewBox="0 0 275.76 68.14">
  <defs>
    <style>
      .uuid-1abd6563-9756-4043-a115-3b1d3c2dcc96 {
        opacity: .6;
      }

      .uuid-1abd6563-9756-4043-a115-3b1d3c2dcc96, .uuid-61c22f49-6a24-43e2-a31b-b396e6eba059 {
        isolation: isolate;
      }

      .uuid-1abd6563-9756-4043-a115-3b1d3c2dcc96, .uuid-61c22f49-6a24-43e2-a31b-b396e6eba059, .uuid-4b1c2b87-ac5d-451e-b7c5-a3649b1df094 {
        fill: #273a5b;
      }

      .uuid-4dbc52b7-81c6-41c2-94ca-9b5c32aeb75e {
        opacity: .25;
      }

      .uuid-61c22f49-6a24-43e2-a31b-b396e6eba059 {
        opacity: .4;
      }
    </style>
  </defs>
  <path class="uuid-61c22f49-6a24-43e2-a31b-b396e6eba059" d="M275.13,57.2h.26v-6h-.53v5.53l-70.66-.06v.5l70.93.03Z"/>
  <path class="uuid-61c22f49-6a24-43e2-a31b-b396e6eba059" d="M179.72,57.12v-.5l-70.67-.07v-6.38h-.5v6.88h.25l70.92.07Z"/>
  <path class="uuid-1abd6563-9756-4043-a115-3b1d3c2dcc96" d="M182.86,57.56l.17-.19.2-.16c.11-.09.23-.17.36-.23l.4-.23.4-.25c.26-.17.47-.4.6-.68.06-.16.09-.33.09-.5,0-.16-.03-.31-.09-.46-.05-.14-.13-.27-.24-.37-.12-.11-.26-.19-.41-.25-.18-.06-.38-.09-.57-.09-.19,0-.38.03-.56.09-.17.06-.32.16-.44.29-.12.12-.21.27-.28.43-.06.19-.09.38-.09.58h.41c0-.14,0-.28.05-.41.04-.12.1-.24.19-.34.08-.1.18-.18.3-.23.11-.06.24-.09.37-.09.13,0,.25.02.37.06.11.03.21.09.3.17.08.08.15.18.2.28.05.11.07.24.07.36,0,.15-.03.3-.09.43-.07.12-.15.22-.25.31-.11.1-.23.19-.36.26-.14.07-.28.16-.43.25l-.47.33c-.17.13-.32.27-.46.43-.12.14-.21.3-.26.48-.05.18-.07.37-.07.56h2.77v-.33h-2.36c0-.1.02-.19.05-.28.04-.08.08-.15.13-.22Z"/>
  <path class="uuid-1abd6563-9756-4043-a115-3b1d3c2dcc96" d="M187.04,54.57c-.06.11-.14.19-.25.25-.1.06-.22.1-.34.11l-.44.05v.26h1.1v3.12h.38v-4.24h-.3c-.02.16-.07.31-.15.45Z"/>
  <path class="uuid-1abd6563-9756-4043-a115-3b1d3c2dcc96" d="M191.64,55.36c-.03-.16-.08-.31-.15-.46-.12-.29-.36-.52-.65-.63-.17-.06-.36-.09-.54-.09-.26-.01-.52.05-.74.18-.18.13-.33.29-.43.49-.1.22-.17.45-.21.69-.04.26-.05.53-.05.79,0,.28.01.56.06.83.03.24.11.47.22.69.1.2.25.36.44.48.22.12.46.18.71.17.25,0,.5-.05.72-.17.18-.12.33-.28.44-.47.11-.21.18-.44.21-.68.05-.27.07-.54.06-.81v-.5c-.02-.17-.05-.34-.09-.51ZM191.31,56.98c-.02.2-.06.4-.14.59-.07.17-.17.32-.31.44-.16.12-.36.18-.56.17-.18,0-.35-.04-.5-.14-.14-.08-.26-.21-.33-.36-.09-.18-.14-.37-.16-.57-.04-.24-.06-.49-.06-.74,0-.23.02-.45.05-.68.02-.21.08-.42.16-.61.07-.16.17-.31.31-.42.15-.11.33-.16.52-.16.2,0,.39.05.55.16.14.11.25.25.32.41.08.19.13.39.15.59.02.22.02.45,0,.67.01.21.01.41,0,.62v.03Z"/>
  <path class="uuid-1abd6563-9756-4043-a115-3b1d3c2dcc96" d="M196.42,55.57c-.07-.12-.17-.22-.29-.28-.16-.08-.33-.11-.51-.1-.21,0-.41.05-.59.14-.19.1-.33.27-.42.46l-.12-.24c-.05-.07-.11-.13-.17-.19-.08-.05-.17-.09-.26-.12-.12-.02-.25-.02-.37,0-.19,0-.39.05-.56.13-.17.1-.31.24-.4.42h0v-.47h-.36v3.04h.36v-1.68c0-.07,0-.14,0-.21,0-.08,0-.15,0-.23.02-.08.04-.15.07-.22.02-.07.05-.13.09-.18.09-.12.2-.21.33-.27.11-.06.24-.09.37-.09.2-.02.39.05.53.19.1.16.15.34.14.53v2.16h.36v-2.12c.02-.08.04-.15.07-.22.03-.06.06-.12.1-.18.08-.11.19-.21.32-.27.12-.06.25-.09.38-.09.2-.02.39.05.53.19.1.16.15.34.14.53v2.16h.36v-2c.01-.15.01-.31,0-.46-.02-.11-.05-.23-.1-.33Z"/>
  <path class="uuid-1abd6563-9756-4043-a115-3b1d3c2dcc96" d="M201.42,55.57c-.06-.12-.16-.22-.28-.28-.16-.08-.34-.11-.52-.1-.21,0-.41.05-.59.14-.19.1-.33.27-.42.46-.03-.08-.07-.17-.12-.24-.05-.07-.1-.14-.17-.19-.08-.05-.17-.09-.26-.12-.12-.02-.25-.02-.37,0-.19,0-.39.05-.56.13-.17.1-.31.24-.4.42h0v-.47h-.36v3.04h.36v-1.89c0-.08,0-.15,0-.23.02-.08.04-.15.07-.22.02-.07.05-.13.1-.18.08-.12.19-.21.32-.27.12-.06.25-.09.38-.09.2-.02.39.05.53.19.1.16.15.34.14.53v2.16h.36v-1.68c0-.07,0-.14,0-.21,0-.08,0-.15,0-.23.02-.08.04-.15.07-.22.02-.07.05-.13.09-.18.09-.12.2-.21.33-.27.12-.06.25-.09.38-.09.19-.02.39.05.52.19.1.16.15.34.14.53v2.16h.36v-2c.01-.15.01-.31,0-.46-.01-.11-.05-.23-.1-.33Z"/>
  <polygon class="uuid-61c22f49-6a24-43e2-a31b-b396e6eba059" points="274.88 66.3 151.04 66.3 151.04 66.8 275.38 66.8 275.38 60.36 274.88 60.36 274.88 66.3"/>
  <polygon class="uuid-61c22f49-6a24-43e2-a31b-b396e6eba059" points="1.88 66.3 1.88 60.17 1.38 60.17 1.38 66.42 1.37 66.8 126.54 66.8 126.54 66.3 1.88 66.3"/>
  <path class="uuid-1abd6563-9756-4043-a115-3b1d3c2dcc96" d="M130.93,68.06h.39v-1h.54v-.32h-.58v-2.88h-.35l-2,2.82v.33h1.93l.07,1.05ZM129.37,66.69l1.56-2.25v2.25h-1.56Z"/>
  <path class="uuid-1abd6563-9756-4043-a115-3b1d3c2dcc96" d="M133.94,68.06h.38v-4.24h-.31c-.02.15-.06.3-.14.43-.06.1-.15.18-.25.24-.1.06-.22.1-.34.12l-.44.05v.25h1.1v3.15Z"/>
  <path class="uuid-1abd6563-9756-4043-a115-3b1d3c2dcc96" d="M135.98,67.49c.1.2.24.36.43.48.22.12.47.18.72.17.25,0,.5-.05.72-.17.18-.11.33-.28.43-.47.11-.21.19-.44.22-.68.04-.26.06-.53.06-.8,0-.17,0-.34,0-.51,0-.17-.03-.34-.07-.5-.03-.16-.08-.31-.15-.46-.07-.14-.15-.27-.26-.38-.11-.11-.25-.2-.39-.26-.17-.06-.36-.09-.54-.09-.26-.01-.52.05-.74.19-.18.12-.33.28-.43.48-.11.22-.18.46-.21.7-.04.26-.06.52-.06.78,0,.28.02.56.06.83.03.24.1.47.21.69ZM136.13,65.33c.02-.21.07-.41.15-.6.07-.17.18-.32.32-.43.15-.11.33-.16.52-.15.19,0,.39.04.55.15.14.11.25.26.31.42.08.18.14.38.16.58v1.32c-.02.21-.07.41-.14.6-.07.17-.18.31-.32.43-.16.12-.35.18-.55.17-.18,0-.35-.04-.5-.13-.14-.09-.25-.21-.33-.36-.09-.18-.14-.37-.17-.57-.03-.25-.05-.49-.05-.74,0-.22.02-.44.05-.66v-.03Z"/>
  <path class="uuid-1abd6563-9756-4043-a115-3b1d3c2dcc96" d="M139.54,66.36c0-.07,0-.14,0-.21,0-.08,0-.15,0-.23.02-.07.04-.15.06-.22.03-.06.06-.12.1-.18.08-.11.19-.21.32-.27.12-.05.25-.08.38-.08.2-.03.39.04.53.19.1.16.15.34.14.53v2.15h.36v-1.89c0-.08,0-.15,0-.23.02-.07.04-.15.07-.22.02-.07.05-.13.1-.18.08-.12.19-.21.32-.27.12-.05.25-.08.38-.08.2-.03.39.05.53.19.1.16.15.34.14.53v2.15h.36v-2.45c-.03-.14-.07-.27-.14-.4-.07-.11-.17-.21-.29-.28-.36-.15-.77-.13-1.11.05-.18.11-.33.26-.42.45-.03-.08-.07-.16-.11-.23-.05-.07-.11-.14-.18-.19-.07-.06-.16-.11-.25-.13-.12-.03-.24-.05-.37-.05-.2,0-.39.05-.57.14-.17.1-.3.24-.39.41h0v-.46h-.36v3.11h.36l.04-1.65Z"/>
  <path class="uuid-1abd6563-9756-4043-a115-3b1d3c2dcc96" d="M144.55,66.36c0-.07,0-.14,0-.21,0-.08,0-.15,0-.23.02-.07.04-.15.07-.22.02-.06.05-.13.09-.18.09-.12.2-.21.33-.27.12-.05.25-.08.38-.08.2-.03.39.05.53.19.1.16.14.34.13.53v2.15h.36v-1.68c0-.07,0-.14,0-.21,0-.15.04-.3.09-.45.03-.06.06-.12.1-.18.08-.11.19-.21.32-.27.12-.05.25-.08.38-.08.2-.03.39.05.53.19.1.16.15.34.14.53v2.15h.36v-2c0-.15,0-.3,0-.45-.02-.14-.07-.28-.14-.4-.07-.12-.17-.21-.29-.28-.16-.07-.33-.1-.51-.1-.21,0-.41.05-.59.15-.18.1-.33.26-.42.45-.03-.08-.07-.16-.12-.23-.05-.07-.11-.13-.17-.19-.08-.06-.17-.11-.26-.13-.12-.03-.24-.05-.37-.05-.2,0-.39.05-.56.14-.17.09-.31.23-.4.41h0v-.46h-.36v3.11h.36l.02-1.65Z"/>
  <path class="uuid-4b1c2b87-ac5d-451e-b7c5-a3649b1df094" d="M150.21,46.09c-13.76,0-27.49-.5-41.18-1.5h-.48v-.48c.38-4.87-.71-9.75-3.13-14-2.73-4.43-7.46-7.31-12-7.34h0L8.21,18.21c-3.88-.15-7.17-2.9-8-6.69-.23-1.07-.27-2.17-.12-3.26C.58,5.21,2.42,2.55,5.09,1.02,6.38.27,7.86-.08,9.35.02c24.34,1.55,50.62,2.63,80.33,3.3,31.29.7,63,1.74,94.25,3.08,33.11,1.43,62.8,3.37,90.92,12.79l.91.31-.77.57c-24.41,18-55.68,22.47-83.05,24.51-13.82,1-27.78,1.51-41.73,1.51ZM109.59,43.63c27.4,1.98,54.91,1.95,82.31-.08,26.93-2,57.66-6.41,81.74-23.75-27.72-9.12-57-11-89.72-12.44-31.24-1.34-62.95-2.38-94.24-3.08C59.96,3.61,33.68,2.53,9.31.97c-1.29-.09-2.57.2-3.69.84C3.2,3.19,1.53,5.6,1.1,8.36c-.13.97-.1,1.95.11,2.91.73,3.32,3.6,5.74,7,5.9l86.78,4.64v.06c4.72.75,8.86,3.58,11.28,7.71,2.45,4.26,3.61,9.14,3.32,14.05h0Z"/>
  <path class="uuid-4b1c2b87-ac5d-451e-b7c5-a3649b1df094" d="M74.03,21.45l-.26-1c2.14-.58,3.54-2.7,4.79-4.82l4.37-7.44c.48-.67.82-1.43,1-2.23.13-.69-.16-1.38-.73-1.78l.46-.88c.95.58,1.45,1.68,1.26,2.78-.18.94-.55,1.83-1.08,2.62l-4.38,7.43c-1.39,2.34-2.93,4.64-5.43,5.32Z"/>
  <path class="uuid-4b1c2b87-ac5d-451e-b7c5-a3649b1df094" d="M95.01,22.71c-.17,0-.33-.09-.42-.23-.52-.79-1.09-1.54-1.72-2.24-.14-.18-.14-.43,0-.61,2.52-3.86,4.87-7.88,7-12,.03-.06.08-.12.14-.16l4.63-3.63c.22-.17.53-.13.7.09.17.22.13.53-.08.7l-4.55,3.56c-2.06,4-4.34,7.86-6.77,11.62.56.66,1.08,1.35,1.56,2.07.15.23.09.54-.14.69-.09.09-.22.14-.35.14Z"/>
  <g class="uuid-4dbc52b7-81c6-41c2-94ca-9b5c32aeb75e">
    <path class="uuid-4b1c2b87-ac5d-451e-b7c5-a3649b1df094" d="M65.5,15.36c-1.74,0-3.15-1.41-3.15-3.15,0-1.74,1.41-3.15,3.15-3.15,1.74,0,3.15,1.41,3.15,3.15h0c0,1.74-1.41,3.14-3.15,3.15ZM65.5,9.56c-1.46,0-2.65,1.19-2.65,2.65,0,1.46,1.19,2.65,2.65,2.65,1.46,0,2.65-1.19,2.65-2.65h0c0-1.46-1.19-2.64-2.65-2.64h0Z"/>
  </g>
  <g class="uuid-4dbc52b7-81c6-41c2-94ca-9b5c32aeb75e">
    <path class="uuid-4b1c2b87-ac5d-451e-b7c5-a3649b1df094" d="M19.86,13.48c-1.74.02-3.16-1.38-3.18-3.12-.02-1.74,1.38-3.16,3.12-3.18,1.74-.02,3.16,1.38,3.18,3.12,0,.02,0,.04,0,.06-.02,1.71-1.41,3.1-3.12,3.12ZM19.86,7.68c-1.46-.02-2.66,1.16-2.68,2.62-.02,1.46,1.16,2.66,2.62,2.68,1.46.02,2.66-1.16,2.68-2.62.02-1.46-1.16-2.66-2.62-2.68,0,0,0,0,0,0Z"/>
  </g>
</svg>