<?xml version="1.0" encoding="UTF-8"?>
<svg id="uuid-6f8a50e8-4815-492b-85b1-d8f92d2dc93b" data-name="Layer_1" xmlns="http://www.w3.org/2000/svg" width="274.92" height="66.66" viewBox="0 0 274.92 66.66">
  <defs>
    <style>
      .uuid-1898407b-7cd8-46fc-af82-15e596e8f53d {
        opacity: .6;
      }

      .uuid-1898407b-7cd8-46fc-af82-15e596e8f53d, .uuid-89fe27fa-3169-4936-a188-d55d0108948c {
        isolation: isolate;
      }

      .uuid-1898407b-7cd8-46fc-af82-15e596e8f53d, .uuid-89fe27fa-3169-4936-a188-d55d0108948c, .uuid-cedb3e68-5488-4816-b797-399449406012 {
        fill: #273a5b;
      }

      .uuid-2fd2be31-df86-46b5-812c-72a9da36c149 {
        opacity: .25;
      }

      .uuid-89fe27fa-3169-4936-a188-d55d0108948c {
        opacity: .4;
      }
    </style>
  </defs>
  <path class="uuid-89fe27fa-3169-4936-a188-d55d0108948c" d="M274.03,55.71h.26v-6h-.53v5.53l-70.66-.06v.5l70.93.03Z"/>
  <path class="uuid-89fe27fa-3169-4936-a188-d55d0108948c" d="M178.62,55.63v-.5l-70.67-.07v-6.38h-.5v6.88h.25l70.92.07Z"/>
  <path class="uuid-1898407b-7cd8-46fc-af82-15e596e8f53d" d="M181.76,53.64c.04-.12.1-.24.19-.34.08-.1.18-.18.3-.23.11-.06.24-.09.37-.09.13,0,.25.02.37.06.11.03.21.09.3.17.08.08.15.18.2.28.05.11.07.24.07.36,0,.15-.03.3-.09.43-.07.12-.15.22-.25.31-.11.1-.23.19-.36.26-.14.07-.28.16-.43.25l-.47.33c-.17.13-.32.27-.46.43-.12.14-.21.3-.26.48-.05.18-.07.37-.07.56h2.77v-.33h-2.36c0-.1.02-.19.05-.28.04-.08.08-.15.13-.22l.17-.19.2-.16c.11-.09.23-.17.36-.23l.4-.23.4-.25c.26-.17.47-.4.6-.68.06-.16.09-.33.09-.5,0-.16-.03-.31-.09-.46-.05-.14-.13-.27-.24-.37-.12-.11-.26-.19-.41-.25-.18-.06-.38-.09-.57-.09-.19,0-.38.03-.56.09-.17.06-.32.16-.44.29-.12.12-.21.27-.28.43-.06.19-.09.38-.09.58h.41c0-.14,0-.28.05-.41Z"/>
  <path class="uuid-1898407b-7cd8-46fc-af82-15e596e8f53d" d="M184.49,55.64c.03.24.11.47.22.69.1.2.25.36.44.48.22.12.46.18.71.17.25,0,.5-.05.72-.17.18-.12.33-.28.44-.47.11-.21.18-.44.21-.68.05-.27.07-.54.06-.81v-.5c-.02-.17-.04-.34-.08-.51-.03-.16-.08-.31-.15-.46-.12-.29-.36-.52-.65-.63-.17-.06-.36-.09-.54-.09-.26-.01-.52.05-.74.18-.18.13-.33.29-.43.49-.1.22-.17.45-.21.69-.04.26-.05.53-.05.79,0,.28,0,.56.05.83ZM184.86,54.17c.02-.21.08-.42.16-.61.07-.16.17-.31.31-.42.15-.11.33-.16.52-.16.2,0,.39.05.55.16.14.11.25.25.32.41.08.19.13.39.15.59.02.22.02.45,0,.67.01.22.01.43,0,.65-.02.2-.06.4-.14.59-.07.17-.17.32-.31.44-.16.12-.36.18-.56.17-.18,0-.35-.04-.5-.14-.14-.08-.26-.21-.33-.36-.09-.18-.14-.37-.16-.57-.04-.24-.06-.49-.06-.74,0-.23.02-.45.05-.68h0Z"/>
  <path class="uuid-1898407b-7cd8-46fc-af82-15e596e8f53d" d="M187.83,55.64c.03.24.11.47.22.69.1.2.25.36.44.48.22.12.46.18.71.17.25,0,.5-.05.72-.17.18-.12.33-.28.44-.47.11-.21.18-.44.21-.68.05-.27.07-.54.06-.81v-.5c-.02-.17-.04-.34-.08-.51-.03-.16-.08-.31-.15-.46-.12-.29-.36-.52-.65-.63-.17-.06-.36-.09-.54-.09-.26-.01-.52.05-.74.18-.18.13-.33.29-.43.49-.1.22-.17.45-.21.69-.04.26-.05.53-.05.79,0,.28,0,.56.05.83ZM188.2,54.17c.02-.21.08-.42.16-.61.07-.16.17-.31.31-.42.15-.11.33-.16.52-.16.2,0,.39.05.55.16.14.11.25.25.32.41.08.19.13.39.15.59.02.22.02.45,0,.67.01.22.01.43,0,.65-.02.2-.06.4-.14.59-.07.17-.17.32-.31.44-.16.12-.36.18-.56.17-.18,0-.35-.04-.5-.14-.14-.08-.26-.21-.33-.36-.09-.18-.14-.37-.16-.57-.04-.24-.06-.49-.06-.74,0-.23.02-.45.05-.68Z"/>
  <path class="uuid-1898407b-7cd8-46fc-af82-15e596e8f53d" d="M191.26,56.87h.36v-1.68c0-.07,0-.14,0-.21,0-.08,0-.15,0-.23.02-.08.04-.15.07-.22.02-.07.05-.13.09-.18.09-.12.2-.21.33-.27.11-.06.24-.09.37-.09.2-.02.39.05.53.19.1.16.15.34.14.53v2.16h.36v-2.12c.02-.08.04-.15.07-.22.03-.06.06-.12.1-.18.08-.11.19-.21.32-.27.12-.06.25-.09.38-.09.2-.02.39.05.53.19.1.16.15.34.14.53v2.16h.36v-2c.01-.15.01-.31,0-.46-.02-.14-.07-.27-.14-.39-.07-.12-.17-.22-.29-.28-.16-.08-.33-.11-.51-.1-.21,0-.41.05-.59.14-.19.1-.33.27-.42.46l-.12-.24c-.05-.07-.11-.13-.17-.19-.08-.05-.17-.09-.26-.12-.12-.02-.25-.02-.37,0-.19,0-.39.05-.56.13-.17.1-.31.24-.4.42h0v-.47h-.36l.04,3.1Z"/>
  <path class="uuid-1898407b-7cd8-46fc-af82-15e596e8f53d" d="M196.26,56.87h.36v-1.89c0-.08,0-.15,0-.23.02-.08.04-.15.07-.22.02-.07.05-.13.1-.18.08-.12.19-.21.32-.27.12-.06.25-.09.38-.09.2-.02.39.05.53.19.1.16.15.34.14.53v2.16h.36v-1.68c0-.07,0-.14,0-.21,0-.08,0-.15,0-.23.02-.08.04-.15.07-.22.02-.07.05-.13.09-.18.09-.12.2-.21.33-.27.12-.06.25-.09.38-.09.19-.02.39.05.52.19.1.16.15.34.14.53v2.16h.36v-2c.01-.15.01-.31,0-.46-.02-.14-.07-.27-.14-.39-.06-.12-.16-.22-.28-.28-.16-.08-.34-.11-.52-.1-.21,0-.41.05-.59.14-.19.1-.33.27-.42.46-.03-.08-.07-.17-.12-.24-.05-.07-.1-.14-.17-.19-.08-.05-.17-.09-.26-.12-.12-.02-.25-.02-.37,0-.19,0-.39.05-.56.13-.17.1-.31.24-.4.42h0v-.47h-.36l.04,3.1Z"/>
  <polygon class="uuid-89fe27fa-3169-4936-a188-d55d0108948c" points=".78 64.81 .78 58.68 .28 58.68 .28 64.93 .27 65.31 125.44 65.31 125.44 64.81 .78 64.81"/>
  <polygon class="uuid-89fe27fa-3169-4936-a188-d55d0108948c" points="273.78 64.81 149.94 64.81 149.94 65.31 274.28 65.31 274.28 58.87 273.78 58.87 273.78 64.81"/>
  <path class="uuid-1898407b-7cd8-46fc-af82-15e596e8f53d" d="M130.76,65.2h-.58v-2.83h-.35l-2,2.82v.33h1.93v1h.39v-1h.61v-.32ZM129.76,62.95v2.25h-1.56l1.56-2.25Z"/>
  <path class="uuid-1898407b-7cd8-46fc-af82-15e596e8f53d" d="M134.12,64.53c0-.17,0-.34,0-.51,0-.17-.03-.34-.07-.5-.03-.16-.08-.31-.15-.46-.07-.14-.15-.27-.26-.38-.11-.11-.25-.2-.39-.26-.17-.06-.36-.09-.54-.09-.26-.01-.52.05-.74.19-.18.12-.33.28-.43.48-.11.22-.18.46-.21.7-.04.26-.06.52-.06.78,0,.28.02.56.06.83.04.24.11.47.23.69.1.2.24.36.43.48.45.23.99.23,1.44,0,.18-.11.33-.28.43-.47.11-.21.19-.44.22-.68.03-.27.05-.53.04-.8ZM133.56,65.73c-.07.17-.18.31-.32.43-.16.12-.35.18-.55.17-.18,0-.35-.04-.5-.13-.14-.09-.25-.21-.33-.36-.09-.18-.14-.37-.17-.57-.03-.25-.05-.49-.05-.74,0-.23.02-.46.05-.69.02-.21.07-.41.15-.6.07-.17.18-.32.32-.43.15-.11.33-.16.52-.15.19,0,.39.04.55.15.14.11.25.26.31.42.08.18.14.38.16.58v1.32c-.02.21-.07.41-.14.6Z"/>
  <path class="uuid-1898407b-7cd8-46fc-af82-15e596e8f53d" d="M137.46,64.53c0-.17,0-.34,0-.51,0-.17-.03-.34-.07-.5-.03-.16-.08-.31-.15-.46-.07-.14-.15-.27-.26-.38-.11-.11-.25-.2-.39-.26-.17-.06-.36-.09-.54-.09-.26-.01-.52.05-.74.19-.18.12-.33.28-.43.48-.11.22-.18.46-.21.7-.04.26-.06.52-.06.78,0,.28.02.56.06.83.04.24.11.47.23.69.1.2.24.36.43.48.22.12.47.18.72.17.25,0,.5-.05.72-.17.18-.11.33-.28.43-.47.11-.21.19-.44.22-.68.03-.27.05-.53.04-.8ZM136.9,65.73c-.07.17-.18.31-.32.43-.16.12-.35.18-.55.17-.18,0-.35-.04-.5-.13-.14-.09-.25-.21-.33-.36-.09-.18-.14-.37-.17-.57-.03-.25-.05-.49-.05-.74,0-.23.02-.46.05-.69.02-.21.07-.41.15-.6.07-.17.18-.32.32-.43.15-.11.33-.16.52-.15.19,0,.39.04.55.15.14.11.25.26.31.42.08.18.14.38.16.58v1.32c-.02.21-.07.41-.14.6Z"/>
  <path class="uuid-1898407b-7cd8-46fc-af82-15e596e8f53d" d="M142.32,64.6v-.45c-.03-.14-.07-.27-.14-.4-.07-.11-.17-.21-.29-.28-.36-.15-.77-.13-1.11.05-.18.11-.33.26-.42.45-.03-.08-.07-.16-.11-.23-.05-.07-.11-.14-.18-.19-.07-.06-.16-.11-.25-.13-.12-.03-.24-.05-.37-.05-.2,0-.39.05-.57.14-.17.1-.3.24-.39.41h0v-.46h-.36v3.11h.36v-1.7c0-.07,0-.14,0-.21,0-.08,0-.15,0-.23.02-.07.04-.15.06-.22.03-.06.06-.12.1-.18.08-.11.19-.21.32-.27.12-.05.25-.08.38-.08.2-.03.39.04.53.19.1.16.15.34.14.53v2.15h.36v-1.89c0-.08,0-.15,0-.23.02-.07.04-.15.07-.22.02-.07.05-.13.1-.18.08-.12.19-.21.32-.27.12-.05.25-.08.38-.08.2-.03.39.05.53.19.1.16.15.34.14.53v2.15h.36l.04-1.95Z"/>
  <path class="uuid-1898407b-7cd8-46fc-af82-15e596e8f53d" d="M147.32,64.6c0-.15,0-.3,0-.45-.02-.14-.07-.28-.14-.4-.07-.12-.17-.21-.29-.28-.16-.07-.33-.1-.51-.1-.21,0-.41.05-.59.15-.18.1-.33.26-.42.45-.03-.08-.07-.16-.12-.23-.05-.07-.11-.13-.17-.19-.08-.06-.17-.11-.26-.13-.12-.03-.24-.05-.37-.05-.2,0-.39.05-.56.14-.17.09-.31.23-.4.41h0v-.46h-.36v3.11h.36v-1.7c0-.07,0-.14,0-.21,0-.08,0-.15,0-.23.02-.07.04-.15.07-.22.02-.06.05-.13.09-.18.09-.12.2-.21.33-.27.12-.05.25-.08.38-.08.2-.03.39.05.53.19.1.16.14.34.13.53v2.15h.36v-1.68c0-.07,0-.14,0-.21,0-.15.04-.3.09-.45.03-.06.06-.12.1-.18.08-.11.19-.21.32-.27.12-.05.25-.08.38-.08.2-.03.39.05.53.19.1.16.15.34.14.53v2.15h.36l.02-1.95Z"/>
  <path class="uuid-cedb3e68-5488-4816-b797-399449406012" d="M124.29,43.41c-4.37,0-8.69,0-13-.06-1.75-.01-3.3-1.1-3.91-2.74l-7.25-19.51c-.43-1.16-1.44-2.01-2.65-2.25-4.85-1-13.33.29-22.31,1.62-9.77,1.44-20.85,3.07-29.53,2.21-2.08-.2-4.16-.54-6.18-.87-3.3-.63-6.64-.98-10-1.05-6.08,0-11.25,2.28-13.87,6l.17.11-.34.94c-6.51-2.36-10.73-5.26-13.26-9.14C-.74,14.24-1.09,7.12,3.4,3.37,6.21,1.03,10.1.6,13.53.37,24-.29,34.63.06,44.92.37c17.78.58,127.13,4.44,162.61,6,24.79,1.11,46.91,2.86,66.45,13l.94.49-1,.42c-23.92,10.2-50.94,16.79-82.61,20.17-22.37,2.42-45.18,2.96-67.02,2.96ZM93.29,17.5c1.5-.02,3,.1,4.47.37,1.55.31,2.83,1.4,3.39,2.88l7.25,19.51c.47,1.25,1.66,2.09,3,2.09,25.64.2,53.08,0,79.87-2.87,31.13-3.31,57.76-9.75,81.34-19.68-19.13-9.62-40.82-11.31-65.09-12.4C172.05,5.81,62.71,1.95,44.93,1.4c-10.27-.33-20.88-.68-31.3,0-3.27.21-7,.61-9.55,2.76C.01,7.56.37,14.07,3.08,18.16c2.28,3.49,6,6.16,11.79,8.38l-.13-.09c2.82-4.16,8.21-6.58,14.81-6.62h.21c3.36.09,6.7.45,10,1.07,2,.32,4.07.66,6.12.86,8.57.85,19.57-.78,29.29-2.21,6.94-1.11,13.27-2.05,18.11-2.05h0Z"/>
  <rect class="uuid-cedb3e68-5488-4816-b797-399449406012" x="88.43" y="2.46" width=".75" height="15.57" transform="translate(-.32 3.29) rotate(-2.12)"/>
  <path class="uuid-cedb3e68-5488-4816-b797-399449406012" d="M100.39,21.04c-1.43-5.09-1.9-10.39-1.4-15.65,0-.7.19-1.39.54-2,.42-.68,1.24-.99,2-.76l-.29.69c-.45-.12-.92.08-1.14.48-.27.5-.41,1.05-.42,1.61-.48,5.2,0,10.44,1.43,15.46l-.72.17Z"/>
  <g class="uuid-2fd2be31-df86-46b5-812c-72a9da36c149">
    <path class="uuid-cedb3e68-5488-4816-b797-399449406012" d="M74.41,13.87c-1.73,0-3.14-1.4-3.15-3.13,0-1.73,1.4-3.14,3.13-3.15s3.14,1.4,3.15,3.13c0,0,0,0,0,0,0,1.73-1.4,3.13-3.13,3.14ZM74.41,8.1c-1.46,0-2.64,1.17-2.65,2.63s1.17,2.64,2.63,2.65,2.64-1.17,2.65-2.63c0,0,0-.01,0-.02-.02-1.44-1.19-2.6-2.63-2.6v-.03Z"/>
  </g>
  <g class="uuid-2fd2be31-df86-46b5-812c-72a9da36c149">
    <path class="uuid-cedb3e68-5488-4816-b797-399449406012" d="M44.44,13.87c-1.73,0-3.14-1.4-3.15-3.13,0-1.73,1.4-3.14,3.13-3.15,1.73,0,3.14,1.4,3.15,3.13,0,0,0,0,0,0,0,1.73-1.4,3.13-3.13,3.14ZM44.44,8.1c-1.46,0-2.64,1.17-2.65,2.63,0,1.46,1.17,2.64,2.63,2.65,1.46,0,2.64-1.17,2.65-2.63,0,0,0-.01,0-.02-.02-1.44-1.19-2.6-2.63-2.6v-.03Z"/>
  </g>
  <g class="uuid-2fd2be31-df86-46b5-812c-72a9da36c149">
    <path class="uuid-cedb3e68-5488-4816-b797-399449406012" d="M14.47,13.87c-1.73,0-3.14-1.4-3.15-3.13,0-1.73,1.4-3.14,3.13-3.15,1.73,0,3.14,1.4,3.15,3.13,0,0,0,0,0,0,0,1.73-1.4,3.13-3.13,3.14ZM14.47,8.1c-1.46,0-2.64,1.17-2.65,2.63,0,1.46,1.17,2.64,2.63,2.65,1.46,0,2.64-1.17,2.65-2.63,0,0,0-.01,0-.02-.02-1.44-1.19-2.6-2.63-2.6v-.03Z"/>
  </g>
</svg>