<?xml version="1.0" encoding="UTF-8"?>
<svg id="uuid-30da5974-25ea-4e34-84da-cf307237c243" data-name="Layer_1" xmlns="http://www.w3.org/2000/svg" width="275.39" height="66.08" viewBox="0 0 275.39 66.08">
  <defs>
    <style>
      .uuid-7ca19496-c154-49e2-9a27-012b283e680d {
        opacity: .6;
      }

      .uuid-7ca19496-c154-49e2-9a27-012b283e680d, .uuid-e92f6700-b257-4734-9eec-da2adf977521 {
        isolation: isolate;
      }

      .uuid-7ca19496-c154-49e2-9a27-012b283e680d, .uuid-e92f6700-b257-4734-9eec-da2adf977521, .uuid-d634f406-49cb-4d2d-ac7e-d558ab1d2dba {
        fill: #273a5b;
      }

      .uuid-ecb058e7-c6c2-4708-9138-ace4bb1f9bd2 {
        opacity: .25;
      }

      .uuid-e92f6700-b257-4734-9eec-da2adf977521 {
        opacity: .4;
      }
    </style>
  </defs>
  <path class="uuid-e92f6700-b257-4734-9eec-da2adf977521" d="M274.85,55.13h.26v-6h-.53v5.53l-64.66-.06v.5l64.93.03Z"/>
  <path class="uuid-e92f6700-b257-4734-9eec-da2adf977521" d="M185.44,55.05v-.5l-64.67-.07v-6.38h-.5v6.88h.25l64.92.07Z"/>
  <path class="uuid-7ca19496-c154-49e2-9a27-012b283e680d" d="M188.58,53.06c.04-.12.1-.24.19-.34.08-.1.18-.18.3-.23.11-.06.24-.09.37-.09.13,0,.25.02.37.06.11.03.21.09.3.17.08.08.15.18.2.28.05.11.07.24.07.36,0,.15-.03.3-.09.43-.07.12-.15.22-.25.31-.11.1-.23.19-.36.26-.14.07-.28.16-.43.25l-.47.33c-.17.13-.32.27-.46.43-.12.14-.21.3-.26.48-.05.18-.07.37-.07.56h2.77v-.33h-2.36c0-.1.02-.19.05-.28.04-.08.08-.15.13-.22l.17-.19.2-.16c.11-.09.23-.17.36-.23l.4-.23.4-.25c.26-.17.47-.4.6-.68.06-.16.09-.33.09-.5,0-.16-.03-.31-.09-.46-.05-.14-.13-.27-.24-.37-.12-.11-.26-.19-.41-.25-.18-.06-.38-.09-.57-.09-.19,0-.38.03-.56.09-.17.06-.32.16-.44.29-.12.12-.21.27-.28.43-.06.19-.09.38-.09.58h.41c0-.14,0-.28.05-.41Z"/>
  <path class="uuid-7ca19496-c154-49e2-9a27-012b283e680d" d="M192.83,56.29h.38v-4.24h-.3c-.02.15-.07.29-.15.42-.06.11-.14.19-.25.25-.1.06-.22.1-.34.11l-.44.05v.26h1.1v3.15Z"/>
  <path class="uuid-7ca19496-c154-49e2-9a27-012b283e680d" d="M194.65,55.06c.03.24.11.47.22.69.1.2.25.36.44.48.22.12.46.18.71.17.25,0,.5-.05.72-.17.18-.12.33-.28.44-.47.11-.21.18-.44.21-.68.05-.27.07-.54.06-.81v-.5c-.02-.17-.04-.34-.08-.51-.03-.16-.08-.31-.15-.46-.12-.29-.36-.52-.65-.63-.17-.06-.36-.09-.54-.09-.26-.01-.52.05-.74.18-.18.13-.33.29-.43.49-.1.22-.17.45-.21.69-.04.26-.05.53-.05.79,0,.28,0,.56.05.83ZM195.02,53.59c.02-.21.08-.42.16-.61.07-.16.17-.31.31-.42.15-.11.33-.16.52-.16.2,0,.39.05.55.16.14.11.25.25.32.41.08.19.13.39.15.59.02.22.02.45,0,.67.01.22.01.43,0,.65-.02.2-.06.4-.14.59-.07.17-.17.32-.31.44-.16.12-.36.18-.56.17-.18,0-.35-.04-.5-.14-.14-.08-.26-.21-.33-.36-.09-.18-.14-.37-.16-.57-.04-.24-.06-.49-.06-.74,0-.23.02-.45.05-.68Z"/>
  <path class="uuid-7ca19496-c154-49e2-9a27-012b283e680d" d="M198.08,56.29h.36v-1.68c0-.07,0-.14,0-.21,0-.08,0-.15,0-.23.02-.08.04-.15.07-.22.02-.07.05-.13.09-.18.09-.12.2-.21.33-.27.11-.06.24-.09.37-.09.2-.02.39.05.53.19.1.16.15.34.14.53v2.16h.36v-2.12c.02-.08.04-.15.07-.22.03-.06.06-.12.1-.18.08-.11.19-.21.32-.27.12-.06.25-.09.38-.09.2-.02.39.05.53.19.1.16.15.34.14.53v2.16h.36v-2c.01-.15.01-.31,0-.46-.02-.14-.07-.27-.14-.39-.07-.12-.17-.22-.29-.28-.16-.08-.33-.11-.51-.1-.21,0-.41.05-.59.14-.19.1-.33.27-.42.46l-.12-.24c-.05-.07-.11-.13-.17-.19-.08-.05-.17-.09-.26-.12-.12-.02-.25-.02-.37,0-.19,0-.39.05-.56.13-.17.1-.31.24-.4.42h0v-.47h-.36l.04,3.1Z"/>
  <path class="uuid-7ca19496-c154-49e2-9a27-012b283e680d" d="M203.08,56.29h.36v-1.89c0-.08,0-.15,0-.23.02-.08.04-.15.07-.22.02-.07.05-.13.1-.18.08-.12.19-.21.32-.27.12-.06.25-.09.38-.09.2-.02.39.05.53.19.1.16.15.34.14.53v2.16h.36v-1.68c0-.07,0-.14,0-.21,0-.08,0-.15,0-.23.02-.08.04-.15.07-.22.02-.07.05-.13.09-.18.09-.12.2-.21.33-.27.12-.06.25-.09.38-.09.19-.02.39.05.52.19.1.16.15.34.14.53v2.16h.36v-2c.01-.15.01-.31,0-.46-.02-.14-.07-.27-.14-.39-.06-.12-.16-.22-.28-.28-.16-.08-.34-.11-.52-.1-.21,0-.41.05-.59.14-.19.1-.33.27-.42.46-.03-.08-.07-.17-.12-.24-.05-.07-.1-.14-.17-.19-.08-.05-.17-.09-.26-.12-.12-.02-.25-.02-.37,0-.19,0-.39.05-.56.13-.17.1-.31.24-.4.42h0v-.47h-.36l.04,3.1Z"/>
  <polygon class="uuid-e92f6700-b257-4734-9eec-da2adf977521" points="1.6 64.23 1.6 58.1 1.1 58.1 1.1 64.35 1.09 64.73 126.26 64.73 126.26 64.23 1.6 64.23"/>
  <polygon class="uuid-e92f6700-b257-4734-9eec-da2adf977521" points="274.6 64.23 150.76 64.23 150.76 64.73 275.1 64.73 275.1 58.29 274.6 58.29 274.6 64.23"/>
  <path class="uuid-7ca19496-c154-49e2-9a27-012b283e680d" d="M131.58,64.49c-.02-.11-.06-.21-.12-.3-.06-.1-.14-.19-.23-.26-.11-.08-.24-.15-.37-.19.18-.08.34-.2.45-.37.1-.17.16-.37.15-.57,0-.16-.03-.32-.1-.47-.06-.13-.15-.24-.26-.33-.11-.09-.24-.15-.38-.19-.15-.04-.31-.06-.47-.06-.17-.02-.34-.02-.51,0-.17.04-.32.12-.45.23-.13.12-.23.27-.31.43-.07.16-.1.34-.1.52h.38c0-.12.02-.25.07-.36.04-.11.11-.21.19-.29.08-.09.17-.15.28-.19.12-.04.24-.06.37-.06.12-.01.23-.01.35,0,.1.03.2.07.29.13.18.14.27.35.26.57,0,.14-.03.28-.09.4-.06.1-.14.19-.24.25-.12.07-.25.11-.39.13-.16.01-.33.01-.49,0v.32c.17-.02.35-.02.52,0,.15.01.3.06.43.13.26.14.41.41.41.7,0,.12-.01.25-.06.36-.06.11-.13.22-.22.31-.1.09-.21.16-.34.21-.14.06-.28.09-.43.08-.28.01-.55-.08-.76-.25-.21-.19-.31-.46-.29-.74h-.39c.02.21.07.42.14.62.12.32.4.56.74.63.21.04.42.06.63.06.2,0,.4-.04.59-.11.16-.06.3-.16.42-.28.12-.11.21-.25.27-.4.06-.16.09-.32.09-.49,0-.06-.02-.11-.03-.17Z"/>
  <path class="uuid-7ca19496-c154-49e2-9a27-012b283e680d" d="M134.88,64.67c0-.2-.03-.4-.09-.59-.06-.17-.16-.32-.29-.44-.12-.12-.26-.21-.42-.28-.16-.05-.33-.07-.5-.07h-.26c-.08,0-.15,0-.23,0l-.21.09-.23.13.26-1.42h1.78v-.33h-2.11l-.34,2.2h.31c.11-.14.25-.26.41-.34.16-.07.34-.1.51-.1.15,0,.3.02.44.08.12.05.24.13.33.22.09.1.16.21.21.34.05.14.08.29.08.44,0,.14-.03.28-.07.42-.04.12-.11.24-.2.34-.09.1-.2.18-.32.24-.14.05-.28.08-.43.08-.25,0-.5-.07-.7-.22-.2-.16-.32-.39-.35-.64h-.38c.01.19.06.38.15.55.07.15.18.28.32.37.14.1.29.17.46.2.18.05.37.07.56.06.17,0,.35-.03.51-.09.16-.06.3-.15.42-.27.13-.12.24-.28.3-.45.06-.17.09-.34.08-.52Z"/>
  <path class="uuid-7ca19496-c154-49e2-9a27-012b283e680d" d="M138.27,64.7c.02-.37-.1-.73-.35-1-.27-.25-.63-.38-1-.36-.14,0-.27.02-.4.06-.1.04-.2.09-.29.15-.08.06-.16.13-.23.21l-.19.24c0-.19,0-.41.07-.63.02-.22.08-.43.16-.63.08-.18.2-.34.35-.47.18-.13.39-.19.61-.18.2-.01.39.06.54.19.14.14.23.32.27.52h.39c-.02-.3-.16-.58-.39-.77-.24-.19-.54-.28-.85-.27-.27-.01-.54.06-.76.22-.2.14-.36.33-.47.55-.12.23-.2.48-.24.74-.04.26-.06.53-.06.79,0,.32.03.63.11.94.06.23.17.44.31.63.12.16.29.28.47.35.19.07.39.1.59.1.37.02.73-.11,1-.36.25-.28.38-.65.36-1.02ZM137.67,65.41c-.3.34-.79.44-1.2.24-.11-.06-.21-.14-.29-.24-.08-.1-.14-.22-.17-.34-.04-.12-.05-.24-.05-.36,0-.14.02-.28.06-.41.04-.12.11-.23.19-.33.08-.1.18-.18.3-.23.13-.05.26-.08.4-.08.27-.02.54.08.74.26.17.22.25.49.23.77.01.12.01.25,0,.37-.05.13-.12.25-.21.35h0Z"/>
  <path class="uuid-7ca19496-c154-49e2-9a27-012b283e680d" d="M143.14,64.02v-.45c-.03-.14-.07-.27-.14-.4-.07-.11-.17-.21-.29-.28-.36-.15-.77-.13-1.11.05-.18.11-.33.26-.42.45-.03-.08-.07-.16-.11-.23-.05-.07-.11-.14-.18-.19-.07-.06-.16-.11-.25-.13-.12-.03-.24-.05-.37-.05-.2,0-.39.05-.57.14-.17.1-.3.24-.39.41h0v-.46h-.36v3.11h.36v-1.7c0-.07,0-.14,0-.21,0-.08,0-.15,0-.23.02-.07.04-.15.06-.22.03-.06.06-.12.1-.18.08-.11.19-.21.32-.27.12-.05.25-.08.38-.08.2-.03.39.04.53.19.1.16.15.34.14.53v2.15h.36v-1.89c0-.08,0-.15,0-.23.02-.07.04-.15.07-.22.02-.07.05-.13.1-.18.08-.12.19-.21.32-.27.12-.05.25-.08.38-.08.2-.03.39.05.53.19.1.16.15.34.14.53v2.15h.36l.04-1.95Z"/>
  <path class="uuid-7ca19496-c154-49e2-9a27-012b283e680d" d="M148.14,64.02c0-.15,0-.3,0-.45-.02-.14-.07-.28-.14-.4-.07-.12-.17-.21-.29-.28-.16-.07-.33-.1-.51-.1-.21,0-.41.05-.59.15-.18.1-.33.26-.42.45-.03-.08-.07-.16-.12-.23-.05-.07-.11-.13-.17-.19-.08-.06-.17-.11-.26-.13-.12-.03-.24-.05-.37-.05-.2,0-.39.05-.56.14-.17.09-.31.23-.4.41h0v-.46h-.36v3.11h.36v-1.7c0-.07,0-.14,0-.21,0-.08,0-.15,0-.23.02-.07.04-.15.07-.22.02-.06.05-.13.09-.18.09-.12.2-.21.33-.27.12-.05.25-.08.38-.08.2-.03.39.05.53.19.1.16.14.34.13.53v2.15h.36v-1.68c0-.07,0-.14,0-.21,0-.15.04-.3.09-.45.03-.06.06-.12.1-.18.08-.11.19-.21.32-.27.12-.05.25-.08.38-.08.2-.03.39.05.53.19.1.16.15.34.14.53v2.15h.36l.02-1.95Z"/>
  <path class="uuid-d634f406-49cb-4d2d-ac7e-d558ab1d2dba" d="M119.7,42.29c-.27,0-.49-.21-.5-.48-.29-7.42-3.64-14.38-9.24-19.25-1.38-1.19-3.18-1.79-5-1.66-20.04,1.24-40.14,1.14-60.16-.31l-1.44-.11c-9.11-.67-18.52-1.36-27,1.85-.68.26-1.44.26-2.12,0-3.52-1.34-7.07-2.77-10.57-4.24l-.31-.13h0C.55,16.58-.73,13.29.42,10.38,1.51,7.61,2.71,4.84,3.96,2.15,4.57.84,5.88,0,7.33,0h0l138.09.61c42.81.19,87.07.39,129.59,10.31.2.04.35.21.38.41.03.2-.07.41-.25.51-20,11.51-43,17.09-60.85,20.67-31.18,6.25-62.88,9.53-94.68,9.8l.09-.02ZM105.45,19.89c1.9-.01,3.73.67,5.16,1.92,5.69,4.93,9.14,11.96,9.56,19.48,31.57-.31,63.04-3.58,94-9.78,17.42-3.49,39.83-8.91,59.44-19.93C231.61,1.97,187.83,1.78,145.49,1.58L7.41.97h0c-1.06,0-2.02.61-2.46,1.57-1.25,2.67-2.44,5.42-3.53,8.18-.95,2.43.12,5.18,2.46,6.32l.26.11c3.48,1.46,7,2.88,10.54,4.23.45.17.96.17,1.41,0,8.64-3.29,18.17-2.59,27.38-1.91l1.45.11c19.97,1.45,40.02,1.55,60,.32h.53Z"/>
  <path class="uuid-d634f406-49cb-4d2d-ac7e-d558ab1d2dba" d="M87.76,21.51l-.63-.77c1.36-1.13,2.62-2.38,3.75-3.74,1.9-5.6,4.1-11.1,6.57-16.47l.91.42c-2.48,5.37-4.67,10.86-6.57,16.46-.02.05-.04.11-.08.15-1.18,1.44-2.51,2.77-3.95,3.95Z"/>
  <path class="uuid-d634f406-49cb-4d2d-ac7e-d558ab1d2dba" d="M108.26,21.29c-.54-.05-1.04-.29-1.4-.69l-1.77-1.67c-1.28-1.21-1.71-3.07-1.08-4.71,1.74-4.55,3.67-9.1,5.74-13.5l.9.42c-2,4.39-4,8.91-5.7,13.44-.49,1.26-.16,2.69.82,3.62l1.81,1.69c.36.35.69.46.76.4l.68.73c-.21.19-.48.28-.76.27Z"/>
  <g class="uuid-ecb058e7-c6c2-4708-9138-ace4bb1f9bd2">
    <path class="uuid-d634f406-49cb-4d2d-ac7e-d558ab1d2dba" d="M68.76,12.92c-2.01,0-3.64-1.63-3.64-3.64,0-2.01,1.63-3.64,3.64-3.64s3.64,1.63,3.64,3.64c0,0,0,0,0,0,0,2.01-1.63,3.63-3.64,3.63ZM68.76,6.65c-1.46,0-2.64,1.18-2.64,2.64s1.18,2.64,2.64,2.64,2.64-1.18,2.64-2.64h0c0-1.46-1.18-2.64-2.64-2.64Z"/>
  </g>
  <g class="uuid-ecb058e7-c6c2-4708-9138-ace4bb1f9bd2">
    <path class="uuid-d634f406-49cb-4d2d-ac7e-d558ab1d2dba" d="M13.41,12.92c-2.01,0-3.64-1.63-3.64-3.64s1.63-3.64,3.64-3.64c2.01,0,3.64,1.63,3.64,3.64,0,0,0,0,0,0,0,2.01-1.63,3.63-3.64,3.63ZM13.41,6.65c-1.46,0-2.64,1.18-2.64,2.64s1.18,2.64,2.64,2.64,2.64-1.18,2.64-2.64h0c0-1.46-1.18-2.64-2.64-2.64Z"/>
  </g>
</svg>