<?xml version="1.0" encoding="UTF-8"?>
<svg id="uuid-f34952ca-8368-42da-b200-33afdc187858" data-name="Layer_1" xmlns="http://www.w3.org/2000/svg" width="275.5" height="60.69" viewBox="0 0 275.5 60.69">
  <defs>
    <style>
      .uuid-ad7d63f6-d36a-448a-8d91-99a65329d75f {
        opacity: .6;
      }

      .uuid-ad7d63f6-d36a-448a-8d91-99a65329d75f, .uuid-b5d9e358-255a-403b-8095-0585e949db24 {
        isolation: isolate;
      }

      .uuid-ad7d63f6-d36a-448a-8d91-99a65329d75f, .uuid-b5d9e358-255a-403b-8095-0585e949db24, .uuid-71c718ad-d5cf-415c-9bbf-0d58dfefe266 {
        fill: #273a5b;
      }

      .uuid-9ffe7bf1-3630-45c8-80a0-de01d544551a {
        opacity: .25;
      }

      .uuid-b5d9e358-255a-403b-8095-0585e949db24 {
        opacity: .4;
      }
    </style>
  </defs>
  <path class="uuid-b5d9e358-255a-403b-8095-0585e949db24" d="M178.38,49.66v-.5l-71.17-.07v-6.38h-.5v6.88h.25l71.42.07Z"/>
  <path class="uuid-b5d9e358-255a-403b-8095-0585e949db24" d="M274.29,49.74h.26v-6h-.53v5.53l-71.16-.06v.5l71.43.03Z"/>
  <path class="uuid-ad7d63f6-d36a-448a-8d91-99a65329d75f" d="M181.49,47.67c.04-.12.1-.24.19-.34.08-.1.18-.18.3-.23.11-.06.24-.09.37-.09.13,0,.25.02.37.06.11.03.21.09.3.17.08.08.15.18.2.28.05.11.07.24.07.36,0,.15-.03.3-.09.43-.07.12-.15.22-.25.31-.11.1-.23.19-.36.26-.14.07-.28.16-.43.25l-.47.33c-.17.13-.32.27-.46.43-.12.14-.21.3-.26.48-.05.18-.07.37-.07.56h2.77v-.33h-2.36c0-.1.02-.19.05-.28.04-.08.08-.15.13-.22l.17-.19.2-.16c.11-.09.23-.17.36-.23l.4-.23.4-.25c.26-.17.47-.4.6-.68.06-.16.09-.33.09-.5,0-.16-.03-.31-.09-.46-.05-.14-.13-.27-.24-.37-.12-.11-.26-.19-.41-.25-.18-.06-.38-.09-.57-.09-.19,0-.38.03-.56.09-.17.06-.32.16-.44.29-.12.12-.21.27-.28.43-.06.19-.09.38-.09.58h.41c0-.14,0-.28.05-.41Z"/>
  <path class="uuid-ad7d63f6-d36a-448a-8d91-99a65329d75f" d="M184.17,49.55v.35h1.93v1h.39v-1h.59v-.33h-.59v-2.82h-.35l-1.97,2.8ZM186.1,49.55h-1.55l1.55-2.24v2.24Z"/>
  <path class="uuid-ad7d63f6-d36a-448a-8d91-99a65329d75f" d="M187.59,49.67c.03.24.11.47.22.69.1.2.25.36.44.48.22.12.46.18.71.17.25,0,.5-.05.72-.17.18-.12.33-.28.44-.47.11-.21.18-.44.21-.68.05-.27.07-.54.06-.81v-.5c-.02-.17-.04-.34-.08-.51-.03-.16-.08-.31-.15-.46-.12-.29-.36-.52-.65-.63-.17-.06-.36-.09-.54-.09-.26-.01-.52.05-.74.18-.18.13-.33.29-.43.49-.1.22-.17.45-.21.69-.04.26-.05.53-.05.79,0,.28,0,.56.05.83ZM187.96,48.2c.02-.21.08-.42.16-.61.07-.16.17-.31.31-.42.15-.11.33-.16.52-.16.2,0,.39.05.55.16.14.11.25.25.32.41.08.19.13.39.15.59.02.22.02.45,0,.67.01.22.01.43,0,.65-.02.2-.06.4-.14.59-.07.17-.17.32-.31.44-.16.12-.36.18-.56.17-.18,0-.35-.04-.5-.14-.14-.08-.26-.21-.33-.36-.09-.18-.14-.37-.16-.57-.04-.24-.06-.49-.06-.74,0-.23.02-.45.05-.68Z"/>
  <path class="uuid-ad7d63f6-d36a-448a-8d91-99a65329d75f" d="M191.02,50.9h.36v-1.68c0-.07,0-.14,0-.21,0-.08,0-.15,0-.23.02-.08.04-.15.07-.22.02-.07.05-.13.09-.18.09-.12.2-.21.33-.27.11-.06.24-.09.37-.09.2-.02.39.05.53.19.1.16.15.34.14.53v2.16h.36v-2.12c.02-.08.04-.15.07-.22.03-.06.06-.12.1-.18.08-.11.19-.21.32-.27.12-.06.25-.09.38-.09.2-.02.39.05.53.19.1.16.15.34.14.53v2.16h.36v-2c.01-.15.01-.31,0-.46-.02-.14-.07-.27-.14-.39-.07-.12-.17-.22-.29-.28-.16-.08-.33-.11-.51-.1-.21,0-.41.05-.59.14-.19.1-.33.27-.42.46l-.12-.24s-.05-.09-.08-.13c-.08-.05-.17-.09-.26-.12-.12-.02-.25-.02-.37,0-.19,0-.39.05-.56.13-.17.1-.31.24-.4.42h0v-.47h-.41v3.04Z"/>
  <path class="uuid-ad7d63f6-d36a-448a-8d91-99a65329d75f" d="M196.02,50.9h.36v-1.89c0-.08,0-.15,0-.23.02-.08.04-.15.07-.22.02-.07.05-.13.1-.18.08-.12.19-.21.32-.27.12-.06.25-.09.38-.09.2-.02.39.05.53.19.1.16.15.34.14.53v2.16h.36v-1.68c0-.07,0-.14,0-.21,0-.08,0-.15,0-.23.02-.08.04-.15.07-.22.02-.07.05-.13.09-.18.09-.12.2-.21.33-.27.12-.06.25-.09.38-.09.19-.02.39.05.52.19.1.16.15.34.14.53v2.16h.36v-2c.01-.15.01-.31,0-.46-.02-.14-.07-.27-.14-.39-.06-.12-.16-.22-.28-.28-.16-.08-.34-.11-.52-.1-.21,0-.41.05-.59.14-.19.1-.33.27-.42.46-.03-.08-.07-.17-.12-.24-.02-.05-.05-.09-.08-.13-.08-.05-.17-.09-.26-.12-.12-.02-.25-.02-.37,0-.19,0-.39.05-.56.13-.17.1-.31.24-.4.42h0v-.47h-.41v3.04Z"/>
  <polygon class="uuid-b5d9e358-255a-403b-8095-0585e949db24" points="274.04 58.84 150.2 58.84 150.2 59.34 274.54 59.34 274.54 52.9 274.04 52.9 274.04 58.84"/>
  <polygon class="uuid-b5d9e358-255a-403b-8095-0585e949db24" points="1.04 58.84 1.04 52.71 .54 52.71 .54 58.96 .53 59.34 125.7 59.34 125.7 58.84 1.04 58.84"/>
  <path class="uuid-ad7d63f6-d36a-448a-8d91-99a65329d75f" d="M131.02,59.1c-.02-.11-.06-.21-.12-.3-.06-.1-.14-.19-.23-.26-.11-.08-.24-.15-.37-.19.18-.08.34-.2.45-.37.1-.17.16-.37.15-.57,0-.16-.03-.32-.1-.47-.06-.13-.15-.24-.26-.33-.11-.09-.24-.15-.38-.19-.15-.04-.31-.06-.47-.06-.17-.02-.34-.02-.51,0-.17.04-.32.12-.45.23-.13.12-.23.27-.31.43-.07.16-.1.34-.1.52h.38c0-.12.02-.25.07-.36.04-.11.11-.21.19-.29.08-.09.17-.15.28-.19.12-.04.24-.06.37-.06.12-.01.23-.01.35,0,.1.03.2.07.29.13.18.14.27.35.26.57,0,.14-.03.28-.09.4-.06.1-.14.19-.24.25-.12.07-.25.11-.39.13-.16.01-.33.01-.49,0v.32c.17-.02.35-.02.52,0,.15.01.3.06.43.13.26.14.41.41.41.7,0,.12-.01.25-.06.36-.06.11-.13.22-.22.31-.1.09-.21.16-.34.21-.14.06-.28.09-.43.08-.28.01-.55-.08-.76-.25-.21-.19-.31-.46-.29-.74h-.39c.02.21.07.42.14.62.12.32.4.56.74.63.21.04.42.06.63.06.2,0,.4-.04.59-.11.16-.06.3-.16.42-.28.12-.11.21-.25.27-.4.06-.16.09-.32.09-.49,0-.06-.02-.11-.03-.17Z"/>
  <path class="uuid-ad7d63f6-d36a-448a-8d91-99a65329d75f" d="M134.32,59.28c0-.2-.03-.4-.09-.59-.06-.17-.16-.32-.29-.44-.12-.12-.26-.21-.42-.28-.16-.05-.33-.07-.5-.07h-.26c-.08,0-.15,0-.23,0l-.21.09-.23.13.26-1.42h1.78v-.33h-2.11l-.34,2.2h.31c.11-.14.25-.26.41-.34.16-.07.34-.1.51-.1.15,0,.3.02.44.08.12.05.24.13.33.22.09.1.16.21.21.34.05.14.08.29.08.44,0,.14-.03.28-.07.42-.04.12-.11.24-.2.34-.09.1-.2.18-.32.24-.14.05-.28.08-.43.08-.25,0-.5-.07-.7-.22-.2-.16-.32-.39-.35-.64h-.38c.01.19.06.38.15.55.07.15.18.28.32.37.14.1.29.17.46.2.18.05.37.07.56.06.17,0,.35-.03.51-.09.16-.06.3-.15.42-.27.13-.12.24-.28.3-.45.06-.17.09-.34.08-.52Z"/>
  <path class="uuid-ad7d63f6-d36a-448a-8d91-99a65329d75f" d="M137.71,59.31c.02-.37-.1-.73-.35-1-.27-.25-.63-.38-1-.36-.14,0-.27.02-.4.06-.1.04-.2.09-.29.15-.08.06-.16.13-.23.21l-.19.24c0-.19,0-.41.07-.63.02-.22.08-.43.16-.63.08-.18.2-.34.35-.47.18-.13.39-.19.61-.18.2-.01.39.06.54.19.14.14.23.32.27.52h.39c-.02-.3-.16-.58-.39-.77-.24-.19-.54-.28-.85-.27-.27-.01-.54.06-.76.22-.2.14-.36.33-.47.55-.12.23-.2.48-.24.74-.04.26-.06.53-.06.79,0,.32.03.63.11.94.06.23.17.44.31.63.12.16.29.28.47.35.19.07.39.1.59.1.37.02.73-.11,1-.36.25-.28.38-.65.36-1.02ZM137.11,60.02c-.3.34-.79.44-1.2.24-.11-.06-.21-.14-.29-.24-.08-.1-.14-.22-.17-.34-.04-.12-.05-.24-.05-.36,0-.14.02-.28.06-.41.04-.12.11-.23.19-.33.08-.1.18-.18.3-.23.13-.05.26-.08.4-.08.27-.02.54.08.74.26.17.22.25.49.23.77.01.12.01.25,0,.37-.05.13-.12.25-.21.35h0Z"/>
  <path class="uuid-ad7d63f6-d36a-448a-8d91-99a65329d75f" d="M142.58,58.63v-.45c-.03-.14-.07-.27-.14-.4-.07-.11-.17-.21-.29-.28-.36-.15-.77-.13-1.11.05-.18.11-.33.26-.42.45-.03-.08-.07-.16-.11-.23-.05-.07-.11-.14-.18-.19-.07-.06-.16-.11-.25-.13-.12-.03-.24-.05-.37-.05-.2,0-.39.05-.57.14-.17.1-.3.24-.39.41h0v-.46h-.36v3.11h.36v-1.7c0-.07,0-.14,0-.21,0-.08,0-.15,0-.23.02-.07.04-.15.06-.22.03-.06.06-.12.1-.18.08-.11.19-.21.32-.27.12-.05.25-.08.38-.08.2-.03.39.04.53.19.1.16.15.34.14.53v2.15h.36v-1.89c0-.08,0-.15,0-.23.02-.07.04-.15.07-.22.02-.07.05-.13.1-.18.08-.12.19-.21.32-.27.12-.05.25-.08.38-.08.2-.03.39.05.53.19.1.16.15.34.14.53v2.15h.36l.04-1.95Z"/>
  <path class="uuid-ad7d63f6-d36a-448a-8d91-99a65329d75f" d="M147.58,58.63c0-.15,0-.3,0-.45-.02-.14-.07-.28-.14-.4-.07-.12-.17-.21-.29-.28-.16-.07-.33-.1-.51-.1-.21,0-.41.05-.59.15-.18.1-.33.26-.42.45-.03-.08-.07-.16-.12-.23-.05-.07-.11-.13-.17-.19-.08-.06-.17-.11-.26-.13-.12-.03-.24-.05-.37-.05-.2,0-.39.05-.56.14-.17.09-.31.23-.4.41h0v-.46h-.36v3.11h.36v-1.7c0-.07,0-.14,0-.21,0-.08,0-.15,0-.23.02-.07.04-.15.07-.22.02-.06.05-.13.09-.18.09-.12.2-.21.33-.27.12-.05.25-.08.38-.08.2-.03.39.05.53.19.1.16.14.34.13.53v2.15h.36v-1.68c0-.07,0-.14,0-.21,0-.15.04-.3.09-.45.03-.06.06-.12.1-.18.08-.11.19-.21.32-.27.12-.05.25-.08.38-.08.2-.03.39.05.53.19.1.16.15.34.14.53v2.15h.36l.02-1.95Z"/>
  <g class="uuid-9ffe7bf1-3630-45c8-80a0-de01d544551a">
    <polygon class="uuid-71c718ad-d5cf-415c-9bbf-0d58dfefe266" points="78.45 6.14 78.39 5.64 97.53 3.36 97.59 3.85 78.45 6.14"/>
  </g>
  <g class="uuid-9ffe7bf1-3630-45c8-80a0-de01d544551a">
    <rect class="uuid-71c718ad-d5cf-415c-9bbf-0d58dfefe266" x="87.92" y="5.44" width=".5" height="18.56" transform="translate(67.33 101.65) rotate(-86)"/>
  </g>
  <g class="uuid-9ffe7bf1-3630-45c8-80a0-de01d544551a">
    <path class="uuid-71c718ad-d5cf-415c-9bbf-0d58dfefe266" d="M.64,6.22v-.5c29-.32,53.11-.53,78.15-.17v.5c-25.04-.36-49.18-.15-78.15.17Z"/>
  </g>
  <g class="uuid-9ffe7bf1-3630-45c8-80a0-de01d544551a">
    <path class="uuid-71c718ad-d5cf-415c-9bbf-0d58dfefe266" d="M1.26,15.24v-.5c25.74-.49,51.86-.67,77.63-.52v.5c-25.78-.15-51.87.03-77.63.52Z"/>
  </g>
  <g class="uuid-9ffe7bf1-3630-45c8-80a0-de01d544551a">
    <path class="uuid-71c718ad-d5cf-415c-9bbf-0d58dfefe266" d="M48.51,12.99c-1.52,0-2.75-1.23-2.75-2.75s1.23-2.75,2.75-2.75,2.75,1.23,2.75,2.75-1.23,2.75-2.75,2.75h0ZM48.51,7.99c-1.24,0-2.25,1.01-2.25,2.25s1.01,2.25,2.25,2.25,2.25-1.01,2.25-2.25-1.01-2.25-2.25-2.25Z"/>
  </g>
  <path class="uuid-71c718ad-d5cf-415c-9bbf-0d58dfefe266" d="M106.8,37.34c-.13,0-.26-.05-.36-.14-.09-.1-.14-.23-.14-.36l-.09-17.35c0-.5-.21-.98-.57-1.33-.36-.35-.84-.55-1.34-.54L3.02,19.58c-.18,0-.35-.09-.44-.25C-.78,13.44-.86,6.22,2.35.25,2.44.09,2.61,0,2.79,0h0l93,.77c27.24.22,54.5.44,93.7.78l40.53,1.35c.28,0,29.42.4,45.23,14.33l.08.08c.14.11.2.3.16.47-.04.18-.17.32-.34.38-54.61,17.5-112.44,18.34-168.37,19.14l.02.04ZM104.33,16.62c.75,0,1.47.29,2,.82.54.53.85,1.25.87,2l.08,16.85c55.41-.79,112.67-1.67,166.73-18.81-15.65-13.15-43.71-13.58-43.99-13.58l-40.57-1.39c-39.19-.34-66.45-.56-93.69-.78L3.1.96C.23,6.48.31,13.08,3.31,18.53l101-1.95.02.04Z"/>
  <path class="uuid-71c718ad-d5cf-415c-9bbf-0d58dfefe266" d="M78.7,17.76l-.48-2.6s0-.07,0-.1c.11-3.25.06-6.55-.15-9.79.05-.63.06-1.37.07-2.08s0-1.5.06-2.08l1,.08c0,.55-.06,1.29-.06,2s0,1.49-.07,2.08c.21,3.19.26,6.49.15,9.76l.47,2.54-.99.19Z"/>
  <path class="uuid-71c718ad-d5cf-415c-9bbf-0d58dfefe266" d="M97.88,17.58c-.33-.65-.79-1.24-1.34-1.72-.11-.1-.17-.24-.17-.38l.14-11.49c0-.14.06-.27.17-.36l3-2.64.67.74-2.79,2.5-.13,11c.56.54,1.03,1.17,1.39,1.87l-.94.48Z"/>
</svg>