<?xml version="1.0" encoding="UTF-8"?>
<svg id="uuid-8e26d76f-7e74-417a-85c5-ca5ca8870523" data-name="Layer_1" xmlns="http://www.w3.org/2000/svg" width="275.53" height="64.04" viewBox="0 0 275.53 64.04">
  <defs>
    <style>
      .uuid-62c70303-c174-4d8b-a546-04aaf1d6337e {
        opacity: .6;
      }

      .uuid-62c70303-c174-4d8b-a546-04aaf1d6337e, .uuid-46b3142e-94e0-4fd3-a54f-75732206f929 {
        isolation: isolate;
      }

      .uuid-62c70303-c174-4d8b-a546-04aaf1d6337e, .uuid-46b3142e-94e0-4fd3-a54f-75732206f929, .uuid-b0bef6db-2f6d-424d-a95b-d44de96f4dc8 {
        fill: #273a5b;
      }

      .uuid-c9d9b539-1511-4c2e-a1a2-a420746e7e75 {
        opacity: .25;
      }

      .uuid-46b3142e-94e0-4fd3-a54f-75732206f929 {
        opacity: .4;
      }
    </style>
  </defs>
  <path class="uuid-46b3142e-94e0-4fd3-a54f-75732206f929" d="M183.37,53.01v-.5l-66.17-.07v-6.38h-.5v6.88h.25l66.42.07Z"/>
  <path class="uuid-46b3142e-94e0-4fd3-a54f-75732206f929" d="M274.28,53.09h.26v-6h-.53v5.53l-66.16-.06v.5l66.43.03Z"/>
  <path class="uuid-62c70303-c174-4d8b-a546-04aaf1d6337e" d="M186.48,51.02c.04-.12.1-.24.19-.34.08-.1.18-.18.3-.23.11-.06.24-.09.37-.09.13,0,.25.02.37.06.11.03.21.09.3.17.08.08.15.18.2.28.05.11.07.24.07.36,0,.15-.03.3-.09.43-.07.12-.15.22-.25.31-.11.1-.23.19-.36.26-.14.07-.28.16-.43.25l-.47.33c-.17.13-.32.27-.46.43-.12.14-.21.3-.26.48-.05.18-.07.37-.07.56h2.77v-.33h-2.36c0-.1.02-.19.05-.28.04-.08.08-.15.13-.22l.17-.19.2-.16c.11-.09.23-.17.36-.23l.4-.23.4-.25c.26-.17.47-.4.6-.68.06-.16.09-.33.09-.5,0-.16-.03-.31-.09-.46-.05-.14-.13-.27-.24-.37-.12-.11-.26-.19-.41-.25-.18-.06-.38-.09-.57-.09-.19,0-.38.03-.56.09-.17.06-.32.16-.44.29-.12.12-.21.27-.28.43-.06.19-.09.38-.09.58h.41c0-.14,0-.28.05-.41Z"/>
  <path class="uuid-62c70303-c174-4d8b-a546-04aaf1d6337e" d="M189.24,53.02c.03.24.11.47.22.69.1.2.25.36.44.48.22.12.46.18.71.17.25,0,.5-.05.72-.17.18-.12.33-.28.44-.47.11-.21.18-.44.21-.68.03-.26.04-.53.03-.79v-.5c-.02-.17-.04-.34-.08-.51-.03-.16-.08-.31-.15-.46-.12-.29-.36-.52-.65-.63-.17-.06-.36-.09-.54-.09-.26-.01-.52.05-.74.18-.18.13-.33.29-.43.49-.1.22-.17.45-.21.69-.04.26-.05.53-.05.79,0,.27.03.54.08.81ZM189.61,51.55c.02-.21.08-.42.16-.61.07-.16.17-.31.31-.42.15-.11.33-.16.52-.16.2,0,.39.05.55.16.14.11.25.25.32.41.08.19.13.39.15.59.02.22.02.45,0,.67.01.22.01.43,0,.65-.02.2-.06.4-.14.59-.07.17-.17.32-.31.44-.16.12-.36.18-.56.17-.18,0-.35-.04-.5-.14-.14-.08-.26-.21-.33-.36-.09-.18-.14-.37-.16-.57-.04-.24-.06-.49-.06-.74,0-.23.02-.45.05-.68h0Z"/>
  <path class="uuid-62c70303-c174-4d8b-a546-04aaf1d6337e" d="M193.08,50.9c.04-.11.11-.21.19-.29.08-.08.18-.14.29-.18.11-.05.24-.07.36-.07.12-.02.23-.02.35,0,.1.03.2.08.29.14.08.06.14.13.19.22.05.11.08.23.07.35.01.14-.02.28-.09.4-.06.1-.14.19-.24.25-.12.06-.25.1-.39.12-.16.02-.33.02-.49,0v.41c.17-.01.35-.01.52,0,.15.02.3.07.44.14.12.06.22.15.28.27.09.13.13.28.12.43.01.12,0,.25-.06.36-.06.11-.13.22-.22.31-.1.09-.22.16-.34.21-.14.05-.28.08-.43.08-.27.01-.54-.08-.75-.26-.21-.18-.32-.45-.3-.73h-.38c.01.21.06.42.13.62.06.16.16.29.29.4.13.11.28.18.45.22.21.05.42.08.64.07.2,0,.39-.04.58-.11.16-.07.3-.16.43-.28.11-.12.2-.25.26-.4.06-.16.09-.33.09-.5,0-.1,0-.2,0-.3-.02-.1-.06-.21-.11-.3-.07-.09-.15-.16-.24-.23-.12-.08-.24-.14-.38-.18.19-.08.35-.21.46-.38.1-.17.14-.37.14-.57,0-.16-.03-.32-.1-.46-.06-.13-.15-.24-.26-.33-.11-.09-.24-.15-.37-.19-.16-.05-.32-.07-.48-.06-.17-.02-.34-.02-.51,0-.17.04-.32.12-.45.24-.13.12-.24.27-.31.43-.07.17-.1.34-.1.52h.36c0-.13.03-.25.07-.37Z"/>
  <path class="uuid-62c70303-c174-4d8b-a546-04aaf1d6337e" d="M196.01,54.25h.36v-1.68c0-.07,0-.14,0-.21,0-.08,0-.15,0-.23.02-.08.04-.15.07-.22.02-.07.05-.13.09-.18.09-.12.2-.21.33-.27.11-.06.24-.09.37-.09.2-.02.39.05.53.19.1.16.15.34.14.53v2.16h.36v-2.12c.02-.08.04-.15.07-.22.03-.06.06-.12.1-.18.08-.11.19-.21.32-.27.12-.06.25-.09.38-.09.2-.02.39.05.53.19.1.16.15.34.14.53v2.16h.36v-2c.01-.15.01-.31,0-.46-.02-.14-.07-.27-.14-.39-.07-.12-.17-.22-.29-.28-.16-.08-.33-.11-.51-.1-.21,0-.41.05-.59.14-.19.1-.33.27-.42.46l-.12-.24s-.05-.09-.08-.13c-.08-.05-.17-.09-.26-.12-.12-.02-.25-.02-.37,0-.19,0-.39.05-.56.13-.17.1-.31.24-.4.42h0v-.47h-.41v3.04Z"/>
  <path class="uuid-62c70303-c174-4d8b-a546-04aaf1d6337e" d="M201.01,54.25h.36v-1.89c0-.08,0-.15,0-.23.02-.08.04-.15.07-.22.02-.07.05-.13.1-.18.08-.12.19-.21.32-.27.12-.06.25-.09.38-.09.2-.02.39.05.53.19.1.16.15.34.14.53v2.16h.36v-1.68c0-.07,0-.14,0-.21,0-.08,0-.15,0-.23.02-.08.04-.15.07-.22.02-.07.05-.13.09-.18.09-.12.2-.21.33-.27.12-.06.25-.09.38-.09.19-.02.39.05.52.19.1.16.15.34.14.53v2.16h.36v-2c.01-.15.01-.31,0-.46-.02-.14-.07-.27-.14-.39-.06-.12-.16-.22-.28-.28-.16-.08-.34-.11-.52-.1-.21,0-.41.05-.59.14-.19.1-.33.27-.42.46-.03-.08-.07-.17-.12-.24-.02-.05-.05-.09-.08-.13-.08-.05-.17-.09-.26-.12-.12-.02-.25-.02-.37,0-.19,0-.39.05-.56.13-.17.1-.31.24-.4.42h0v-.47h-.41v3.04Z"/>
  <polygon class="uuid-46b3142e-94e0-4fd3-a54f-75732206f929" points="1.03 62.19 1.03 56.06 .53 56.06 .53 62.31 .52 62.69 125.69 62.69 125.69 62.19 1.03 62.19"/>
  <polygon class="uuid-46b3142e-94e0-4fd3-a54f-75732206f929" points="274.03 62.19 150.19 62.19 150.19 62.69 274.53 62.69 274.53 56.25 274.03 56.25 274.03 62.19"/>
  <path class="uuid-62c70303-c174-4d8b-a546-04aaf1d6337e" d="M131.01,62.58h-.58v-2.83h-.35l-2,2.82v.33h1.93v1h.39v-1h.61v-.32ZM130.01,60.33v2.25h-1.56l1.56-2.25Z"/>
  <path class="uuid-62c70303-c174-4d8b-a546-04aaf1d6337e" d="M132.01,63.35c.03-.08.07-.16.13-.22.05-.07.11-.14.17-.2l.2-.16c.11-.09.23-.16.35-.23l.41-.23c.14-.07.27-.15.4-.24.13-.09.25-.19.35-.3.1-.12.18-.25.25-.39.06-.16.09-.33.09-.5,0-.15-.03-.31-.09-.45-.05-.14-.14-.27-.25-.38-.12-.1-.25-.19-.4-.25-.18-.06-.38-.09-.57-.09-.19,0-.38.03-.56.1-.17.06-.32.15-.44.28-.12.13-.21.28-.28.44-.07.18-.1.38-.1.57h.41c0-.14.01-.28.06-.41.04-.12.1-.24.19-.34.08-.09.18-.17.29-.23.12-.05.25-.08.38-.08.13,0,.25.01.37.05.11.04.2.1.29.17.09.08.15.17.2.28.11.25.11.54,0,.79-.06.12-.14.23-.24.32-.11.1-.23.18-.36.25l-.44.26c-.16.1-.31.21-.46.32-.17.13-.32.28-.46.44-.13.14-.22.3-.27.48-.04.18-.06.36-.06.55h2.77v-.32h-2.33c-.02-.09-.02-.19,0-.28Z"/>
  <path class="uuid-62c70303-c174-4d8b-a546-04aaf1d6337e" d="M137.71,61.91c0-.17,0-.34,0-.51,0-.17-.03-.34-.07-.5-.03-.16-.08-.31-.15-.46-.07-.14-.15-.27-.26-.38-.11-.11-.25-.2-.39-.26-.17-.06-.36-.09-.54-.09-.26-.01-.52.05-.74.19-.18.12-.33.28-.43.48-.11.22-.18.46-.21.7-.04.26-.06.52-.06.78,0,.28.02.56.06.83.04.24.11.47.23.69.1.2.24.36.43.48.22.12.47.18.72.17.25,0,.5-.05.72-.17.18-.11.33-.28.43-.47.11-.21.19-.44.22-.68.03-.27.05-.53.04-.8ZM137.15,63.11c-.07.17-.18.31-.32.43-.16.12-.35.18-.55.17-.18,0-.35-.04-.5-.13-.14-.09-.25-.21-.33-.36-.09-.18-.14-.37-.17-.57-.03-.25-.05-.49-.05-.74,0-.23.02-.46.05-.69.02-.21.07-.41.15-.6.07-.17.18-.32.32-.43.15-.11.33-.16.52-.15.19,0,.39.04.55.15.14.11.25.26.31.42.08.18.14.38.16.58v1.32c-.02.21-.07.41-.14.6Z"/>
  <path class="uuid-62c70303-c174-4d8b-a546-04aaf1d6337e" d="M142.57,61.98v-.45c-.03-.14-.07-.27-.14-.4-.07-.11-.17-.21-.29-.28-.36-.15-.77-.13-1.11.05-.18.11-.33.26-.42.45-.03-.08-.07-.16-.11-.23-.05-.07-.11-.14-.18-.19-.07-.06-.16-.11-.25-.13-.12-.03-.24-.05-.37-.05-.2,0-.39.05-.57.14-.17.1-.3.24-.39.41h0v-.46h-.36v3.11h.36v-1.7c0-.07,0-.14,0-.21,0-.08,0-.15,0-.23.02-.07.04-.15.06-.22.03-.06.06-.12.1-.18.08-.11.19-.21.32-.27.12-.05.25-.08.38-.08.2-.03.39.04.53.19.1.16.15.34.14.53v2.15h.36v-1.89c0-.08,0-.15,0-.23.02-.07.04-.15.07-.22.02-.07.05-.13.1-.18.08-.12.19-.21.32-.27.12-.05.25-.08.38-.08.2-.03.39.05.53.19.1.16.15.34.14.53v2.15h.36l.04-1.95Z"/>
  <path class="uuid-62c70303-c174-4d8b-a546-04aaf1d6337e" d="M147.57,61.98c0-.15,0-.3,0-.45-.02-.14-.07-.28-.14-.4-.07-.12-.17-.21-.29-.28-.16-.07-.33-.1-.51-.1-.21,0-.41.05-.59.15-.18.1-.33.26-.42.45-.03-.08-.07-.16-.12-.23-.05-.07-.11-.13-.17-.19-.08-.06-.17-.11-.26-.13-.12-.03-.24-.05-.37-.05-.2,0-.39.05-.56.14-.17.09-.31.23-.4.41h0v-.46h-.36v3.11h.36v-1.7c0-.07,0-.14,0-.21,0-.08,0-.15,0-.23.02-.07.04-.15.07-.22.02-.06.05-.13.09-.18.09-.12.2-.21.33-.27.12-.05.25-.08.38-.08.2-.03.39.05.53.19.1.16.14.34.13.53v2.15h.36v-1.68c0-.07,0-.14,0-.21,0-.15.04-.3.09-.45.03-.06.06-.12.1-.18.08-.11.19-.21.32-.27.12-.05.25-.08.38-.08.2-.03.39.05.53.19.1.16.15.34.14.53v2.15h.36l.02-1.95Z"/>
  <path class="uuid-b0bef6db-2f6d-424d-a95b-d44de96f4dc8" d="M117.01,40.52c-.12,0-.24-.04-.33-.12-.1-.1-.16-.22-.17-.36l-.72-21.48c-.02-.41-.36-.72-.77-.71-.02,0-.05,0-.07,0-37.45,5.62-75.38,7.43-113.2,5.39-.48-.02-.87-.37-.95-.84C-.4,15.43-.25,8.28,1.27,1.35c.1-.47.52-.81,1-.8,40.41-.08,76.49-.18,112.57-.27S186.84.08,227.24,0c.3,0,31.08-.52,47,9.15h0c.36.22.72.44,1.07.67.15.11.23.28.22.46-.01.18-.13.35-.3.42-51.53,22.23-110.64,26.44-158.14,29.82h-.08ZM115.01,16.85c.4,0,.79.14,1.1.4.38.32.61.78.63,1.28l.71,21c47.06-3.35,105.45-7.57,156.43-29.34l-.25-.15h0C257.98.53,227.5,1.04,227.19,1.04c-40.36.08-76.39.18-112.42.28S42.62,1.51,2.2,1.59c-1.47,6.8-1.61,13.81-.42,20.66,37.75,2.04,75.61.24,113-5.37l.23-.03Z"/>
  <path class="uuid-b0bef6db-2f6d-424d-a95b-d44de96f4dc8" d="M4.32,23.04c-.99-7.18-1.05-14.46-.16-21.66l1,.12c-.87,7.11-.82,14.3.16,21.4l-1,.14Z"/>
  <path class="uuid-b0bef6db-2f6d-424d-a95b-d44de96f4dc8" d="M94.01,19.89c-.27-6.31-.25-12.71.05-19l1,.05c-.3,6.27-.32,12.64-.05,18.92l-1,.03Z"/>
  <rect class="uuid-b0bef6db-2f6d-424d-a95b-d44de96f4dc8" x="99.85" y="9.14" width="17.34" height="1" transform="translate(96.67 117.94) rotate(-88.83)"/>
  <path class="uuid-b0bef6db-2f6d-424d-a95b-d44de96f4dc8" d="M107.91,18.85c-4-.92-7.27-3.8-8.69-7.65-.64-1.58-.71-3.33-.21-4.95.63-1.52,1.75-2.78,3.17-3.6,1.96-1.26,4.21-2.01,6.53-2.18l.07,1c-2.15.15-4.23.83-6.05,2-1.24.71-2.22,1.8-2.79,3.11-.42,1.4-.35,2.9.19,4.25,1.31,3.54,4.32,6.17,8,7l-.22,1.02Z"/>
  <g class="uuid-c9d9b539-1511-4c2e-a1a2-a420746e7e75">
    <path class="uuid-b0bef6db-2f6d-424d-a95b-d44de96f4dc8" d="M48.01,13.47c-1.61,0-2.91-1.3-2.91-2.91,0-1.61,1.3-2.91,2.91-2.91,1.61,0,2.91,1.3,2.91,2.91,0,0,0,0,0,0,0,1.6-1.3,2.9-2.9,2.9,0,0,0,0-.01,0ZM48.01,8.66c-1.05,0-1.91.86-1.91,1.91s.86,1.91,1.91,1.91,1.91-.86,1.91-1.91-.86-1.91-1.91-1.91h0Z"/>
  </g>
</svg>