<?xml version="1.0" encoding="UTF-8"?>
<svg id="uuid-6c12f49e-45d1-434c-8583-2e4b119b3ae8" data-name="Layer_1" xmlns="http://www.w3.org/2000/svg" width="275.96" height="67.28" viewBox="0 0 275.96 67.28">
  <defs>
    <style>
      .uuid-73d0924e-016b-424b-b9bf-db647cf9673d {
        opacity: .6;
      }

      .uuid-73d0924e-016b-424b-b9bf-db647cf9673d, .uuid-f47f2cc0-ca59-4f0c-b716-d97b3faaa4de {
        isolation: isolate;
      }

      .uuid-73d0924e-016b-424b-b9bf-db647cf9673d, .uuid-f47f2cc0-ca59-4f0c-b716-d97b3faaa4de, .uuid-610983aa-eea2-4fc0-9647-3fd85d300b40 {
        fill: #273a5b;
      }

      .uuid-ea527472-2f3a-42dc-b373-0a279fb4da88 {
        fill: none;
      }

      .uuid-f47f2cc0-ca59-4f0c-b716-d97b3faaa4de {
        opacity: .25;
      }
    </style>
  </defs>
  <path class="uuid-ea527472-2f3a-42dc-b373-0a279fb4da88" d="M17.78,28.36c20.37-3.91,41.07-5.88,61.82-5.87,9.8,0,19.59.44,29.37,1.32,2.23.2,4.43.68,6.55,1.42l10.44-23C85.7,3.23,45.48,4.85,5.53,7.09l-4.56.26c3.61,6.24,7.4,12.54,11.31,18.66,1.18,1.84,3.36,2.77,5.5,2.35ZM57.78,8.16c2.8,0,5.07,2.26,5.08,5.06s-2.26,5.07-5.06,5.08c-2.8,0-5.07-2.26-5.08-5.06,0,0,0,0,0,0,0-2.8,2.26-5.06,5.06-5.07Z"/>
  <path class="uuid-ea527472-2f3a-42dc-b373-0a279fb4da88" d="M57.78,17.3c2.25,0,4.07-1.81,4.08-4.06,0-2.25-1.81-4.07-4.06-4.08s-4.07,1.81-4.08,4.06c0,0,0,0,0,0,0,2.24,1.82,4.06,4.06,4.07Z"/>
  <path class="uuid-ea527472-2f3a-42dc-b373-0a279fb4da88" d="M116.45,25.57c3,1.15,5.77,2.84,8.15,5,.66.61,1.3,1.26,1.89,1.92l.07.09c.65,1.32,1.08,2.74,1.28,4.2v.24c.18,1.43.59,2.83,1.2,4.14.18.35.4.69.65,1,.5.58,1.23.93,2,.95,32.5,1.29,65.47-1.22,97.36-3.65,14.46-1.1,29.41-2.24,43.29-7.24,2.14-10.14,2.97-20.51,2.46-30.86-49-.66-98.43-.37-147.77.84l-10.58,23.37Z"/>
  <path class="uuid-f47f2cc0-ca59-4f0c-b716-d97b3faaa4de" d="M128.97,55.68v-6.38h-.5v6.88h.25l60.92.07v-.5l-60.67-.07Z"/>
  <path class="uuid-f47f2cc0-ca59-4f0c-b716-d97b3faaa4de" d="M275.3,50.3h-.52v5.53l-60.66-.06v.5l60.91.06h.26v-6.03Z"/>
  <path class="uuid-73d0924e-016b-424b-b9bf-db647cf9673d" d="M194.07,53.28h-.29c-.02.15-.07.29-.15.42-.06.11-.14.19-.25.25-.1.06-.22.1-.34.11l-.44.05v.26h1.1v3.12h.38v-4.21Z"/>
  <path class="uuid-73d0924e-016b-424b-b9bf-db647cf9673d" d="M196.97,55.8c.15-.37.32-.72.52-1.06.22-.38.48-.74.78-1.06v-.36h-2.7v.38h2.21c-.22.27-.41.55-.59.85-.2.32-.37.66-.52,1-.15.32-.28.66-.38,1-.1.32-.16.66-.18,1h.42c.02-.26.06-.51.12-.76.07-.34.18-.67.32-.99Z"/>
  <path class="uuid-73d0924e-016b-424b-b9bf-db647cf9673d" d="M200.78,53.28h-.3c-.02.15-.07.29-.15.42-.06.11-.14.19-.25.25-.1.06-.22.1-.34.11l-.44.05v.26h1.1v3.12h.38v-4.21Z"/>
  <path class="uuid-73d0924e-016b-424b-b9bf-db647cf9673d" d="M206.51,55.55c.01-.15.01-.31,0-.46-.02-.14-.07-.27-.14-.39-.07-.12-.17-.22-.29-.28-.16-.08-.33-.11-.51-.1-.21,0-.41.05-.59.14-.19.1-.33.27-.42.46l-.12-.24c-.05-.07-.11-.13-.17-.19-.08-.05-.17-.09-.26-.12-.12-.02-.25-.02-.37,0-.19,0-.39.05-.56.13-.17.1-.31.24-.4.42h0v-.47h-.36v3.04h.36v-1.68c0-.07,0-.14,0-.21,0-.08,0-.15,0-.23.02-.08.04-.15.07-.22.02-.07.05-.13.09-.18.09-.12.2-.21.33-.27.11-.06.24-.09.37-.09.2-.02.39.05.53.19.1.16.15.34.14.53v2.16h.36v-2.12c.02-.08.04-.15.07-.22.03-.06.06-.12.1-.18.08-.11.19-.21.32-.27.12-.06.25-.09.38-.09.2-.02.39.05.53.19.1.16.15.34.14.53v2.16h.36l.04-1.94Z"/>
  <path class="uuid-73d0924e-016b-424b-b9bf-db647cf9673d" d="M211.51,55.55c.01-.15.01-.31,0-.46-.02-.14-.07-.27-.14-.39-.06-.12-.16-.22-.28-.28-.16-.08-.34-.11-.52-.1-.21,0-.41.05-.59.14-.19.1-.33.27-.42.46-.03-.08-.07-.17-.12-.24-.05-.07-.1-.14-.17-.19-.08-.05-.17-.09-.26-.12-.12-.02-.25-.02-.37,0-.19,0-.39.05-.56.13-.17.1-.31.24-.4.42h0v-.47h-.36v3.04h.36v-1.89c0-.08,0-.15,0-.23.02-.08.04-.15.07-.22.02-.07.05-.13.1-.18.08-.12.19-.21.32-.27.12-.06.25-.09.38-.09.2-.02.39.05.53.19.1.16.15.34.14.53v2.16h.36v-1.68c0-.07,0-.14,0-.21,0-.08,0-.15,0-.23.02-.08.04-.15.07-.22.02-.07.05-.13.09-.18.09-.12.2-.21.33-.27.12-.06.25-.09.38-.09.19-.02.39.05.52.19.1.16.15.34.14.53v2.16h.36l.04-1.94Z"/>
  <polygon class="uuid-f47f2cc0-ca59-4f0c-b716-d97b3faaa4de" points="274.8 65.43 150.96 65.43 150.96 65.93 275.3 65.93 275.3 59.49 274.8 59.49 274.8 65.43"/>
  <polygon class="uuid-f47f2cc0-ca59-4f0c-b716-d97b3faaa4de" points="1.8 65.43 1.8 59.3 1.3 59.3 1.3 65.93 126.46 65.93 126.46 65.43 1.8 65.43"/>
  <path class="uuid-73d0924e-016b-424b-b9bf-db647cf9673d" d="M131.11,66.66c-.1.09-.21.16-.34.21-.14.06-.28.08-.43.08-.28.01-.55-.08-.76-.25-.21-.19-.31-.46-.29-.74h-.39c.02.21.07.42.14.62.06.16.16.3.28.41.13.11.29.19.46.22.21.04.42.06.63.06.2,0,.4-.04.58-.11.16-.06.31-.16.43-.28.12-.11.21-.25.27-.4.06-.16.09-.32.09-.49v-.3c-.02-.11-.06-.21-.12-.3-.06-.1-.14-.19-.23-.26-.11-.08-.24-.15-.37-.19.18-.08.34-.2.45-.37.1-.17.16-.37.15-.57,0-.16-.03-.32-.1-.47-.06-.13-.15-.24-.26-.33-.11-.09-.24-.15-.38-.19-.15-.04-.31-.06-.47-.06-.17-.02-.34-.02-.51,0-.17.04-.32.12-.45.23-.13.12-.23.27-.31.43-.07.16-.1.34-.1.52h.38c0-.12.02-.25.07-.36.04-.11.1-.2.18-.29.08-.08.18-.15.29-.19.12-.04.24-.06.37-.06.12-.01.23-.01.35,0,.1.03.2.07.29.13.18.14.27.35.26.57,0,.14-.03.28-.09.4-.06.11-.14.19-.25.25-.11.07-.24.12-.38.13-.16.01-.33.01-.49,0v.32c.17-.02.35-.02.52,0,.15.01.3.06.43.13.26.14.41.41.41.7,0,.12-.01.25-.06.36-.05.16-.14.31-.25.44Z"/>
  <path class="uuid-73d0924e-016b-424b-b9bf-db647cf9673d" d="M134.19,67.19h.39v-1h.58v-.32h-.58v-2.88h-.35l-2,2.82v.33h1.93l.03,1.05ZM132.63,65.82l1.56-2.25v2.25h-1.56Z"/>
  <path class="uuid-73d0924e-016b-424b-b9bf-db647cf9673d" d="M135.9,66.62c.1.2.24.36.43.48.45.23.99.23,1.44,0,.18-.11.33-.28.43-.47.11-.21.19-.44.22-.68.04-.26.06-.53.06-.8,0-.17,0-.34,0-.51,0-.17-.03-.34-.07-.5-.03-.16-.08-.31-.15-.46-.07-.14-.15-.27-.26-.38-.11-.11-.25-.2-.39-.26-.17-.06-.36-.09-.54-.09-.26-.01-.52.05-.74.19-.18.12-.33.28-.43.48-.11.22-.18.46-.21.7-.04.26-.06.52-.06.78,0,.28.02.56.06.83.03.24.1.47.21.69ZM136.05,64.46c.02-.21.07-.41.15-.6.07-.17.18-.32.32-.43.15-.11.33-.16.52-.15.19,0,.38.04.54.15.15.11.26.25.32.42.08.18.14.38.16.58v1.32c-.02.21-.07.41-.14.6-.07.17-.18.31-.32.43-.16.12-.35.18-.55.17-.18,0-.36-.04-.51-.13-.13-.09-.24-.22-.32-.36-.09-.18-.14-.37-.17-.57-.03-.25-.05-.49-.05-.74,0-.22.02-.44.05-.66v-.03Z"/>
  <path class="uuid-73d0924e-016b-424b-b9bf-db647cf9673d" d="M139.46,65.49c0-.07,0-.14,0-.21,0-.15.04-.3.09-.45.03-.06.06-.12.1-.18.08-.11.19-.21.32-.27.12-.05.25-.08.38-.08.2-.03.39.04.53.19.1.16.15.34.14.53v2.15h.36v-1.89c0-.08,0-.15,0-.23.02-.07.04-.15.07-.22.02-.06.05-.13.09-.18.09-.11.2-.21.33-.27.12-.05.25-.08.38-.08.2-.03.39.05.53.19.1.16.15.34.14.53v2.15h.36v-2.45c-.03-.14-.07-.27-.14-.4-.07-.11-.17-.21-.29-.28-.36-.15-.77-.13-1.11.05-.18.11-.33.26-.42.45-.03-.08-.07-.16-.11-.23-.05-.07-.11-.14-.18-.19-.07-.06-.16-.11-.25-.13-.12-.03-.24-.05-.37-.05-.2,0-.39.05-.57.14-.17.1-.3.24-.39.41h0v-.46h-.36v3.11h.36v-1.65Z"/>
  <path class="uuid-73d0924e-016b-424b-b9bf-db647cf9673d" d="M144.47,65.49c0-.07,0-.14,0-.21,0-.08,0-.15,0-.23.02-.07.04-.15.07-.22.02-.06.05-.13.09-.18.09-.12.2-.21.33-.27.12-.05.25-.08.38-.08.19-.03.39.05.52.19.1.16.15.34.14.53v2.15h.36v-1.68c0-.07,0-.14,0-.21,0-.15.04-.3.09-.45.03-.06.06-.12.1-.18.08-.11.19-.21.32-.27.12-.05.25-.08.38-.08.2-.03.39.05.53.19.1.16.15.34.14.53v2.15h.36v-2c0-.15,0-.3,0-.45-.02-.14-.07-.28-.14-.4-.07-.12-.17-.21-.29-.28-.16-.07-.33-.1-.51-.1-.21,0-.41.05-.59.15-.18.1-.33.26-.42.45-.03-.08-.07-.16-.12-.23-.05-.07-.11-.13-.17-.19-.08-.06-.17-.1-.26-.13-.12-.03-.24-.05-.37-.05-.2,0-.39.05-.56.14-.17.09-.31.23-.4.41h0v-.46h-.36v3.11h.36l.02-1.65Z"/>
  <path class="uuid-610983aa-eea2-4fc0-9647-3fd85d300b40" d="M17.98,29.34c29.94-5.75,60.54-7.29,90.9-4.55,5.6.47,10.89,2.78,15.05,6.55.62.57,1.22,1.18,1.78,1.81.58,1.21.96,2.51,1.14,3.84l.05.24c.2,1.54.64,3.04,1.3,4.44.22.4.48.77.77,1.12.68.8,1.67,1.27,2.72,1.3,6.1.24,12.22.36,18.36.35,26.54,0,53.19-2,79.12-4,14.62-1.11,29.73-2.26,43.81-7.4l.26-.09.06-.27c2.22-10.47,3.05-21.18,2.48-31.86v-.47h-.46C185.72-.87,94.93,1.06,5.47,6.07l-4.57.26c-.32.03-.62.21-.78.49-.16.29-.16.64,0,.93,3.58,6.33,7.38,12.65,11.3,18.78,1.4,2.2,4,3.32,6.56,2.81ZM274.84,1.34c.51,10.35-.32,20.72-2.46,30.86-13.88,5-28.83,6.14-43.29,7.24-31.89,2.43-64.86,4.94-97.36,3.65-.77-.02-1.5-.37-2-.95-.25-.31-.47-.65-.65-1-.61-1.31-1.02-2.71-1.2-4.14v-.24c-.2-1.46-.63-2.88-1.28-4.2l-.07-.09c-.59-.66-1.23-1.31-1.89-1.92-2.38-2.16-5.15-3.85-8.15-5l10.62-23.39c49.3-1.19,98.67-1.48,147.73-.82ZM5.53,7.07c40-2.24,80.17-3.86,120.43-4.86l-10.44,23c-2.12-.74-4.32-1.22-6.55-1.42-9.78-.87-19.57-1.3-29.37-1.3-20.75,0-41.45,1.96-61.82,5.87-2.15.42-4.33-.52-5.51-2.37C8.36,19.87,4.57,13.57.96,7.33l4.57-.26Z"/>
  <path class="uuid-f47f2cc0-ca59-4f0c-b716-d97b3faaa4de" d="M57.78,18.3c2.8,0,5.07-2.26,5.08-5.06s-2.26-5.07-5.06-5.08c-2.8,0-5.07,2.26-5.08,5.06,0,0,0,0,0,0,0,2.79,2.27,5.06,5.06,5.07ZM57.78,9.16c2.25,0,4.07,1.81,4.08,4.06,0,2.25-1.81,4.07-4.06,4.08s-4.07-1.81-4.08-4.06c0,0,0,0,0,0,0-2.24,1.82-4.06,4.06-4.07Z"/>
</svg>