<?xml version="1.0" encoding="UTF-8"?>
<svg id="uuid-9a4111c5-476b-4077-8656-974cfd18ba24" data-name="Layer_1" xmlns="http://www.w3.org/2000/svg" width="275.95" height="61.36" viewBox="0 0 275.95 61.36">
  <defs>
    <style>
      .uuid-53419677-7c43-4387-b136-87a6e9ac0501 {
        opacity: .6;
      }

      .uuid-53419677-7c43-4387-b136-87a6e9ac0501, .uuid-82ffdd48-be7e-465e-886a-9a19f9a02438 {
        isolation: isolate;
      }

      .uuid-53419677-7c43-4387-b136-87a6e9ac0501, .uuid-82ffdd48-be7e-465e-886a-9a19f9a02438, .uuid-d0f4bf3f-c4c4-4b95-9134-a7b1a74f9ef0 {
        fill: #273a5b;
      }

      .uuid-b3893e34-6139-423a-be38-0b91f502a859 {
        fill: none;
      }

      .uuid-82ffdd48-be7e-465e-886a-9a19f9a02438 {
        opacity: .25;
      }
    </style>
  </defs>
  <path class="uuid-b3893e34-6139-423a-be38-0b91f502a859" d="M78.59,2.11l20-.2v-.23c0-.19-.07-.37-.2-.51-.13-.13-.31-.21-.5-.21h0l-19.32.07.02,1.08Z"/>
  <polygon class="uuid-b3893e34-6139-423a-be38-0b91f502a859" points="98.61 2.41 78.6 2.61 78.59 14.34 98.46 14.1 98.61 2.41"/>
  <path class="uuid-b3893e34-6139-423a-be38-0b91f502a859" d="M77.59,2.62L1.28,3.37c-.2,4-.28,7.94-.23,11.9l76.53-.92V2.62Z"/>
  <path class="uuid-b3893e34-6139-423a-be38-0b91f502a859" d="M77.59,2.12v-1.08L2.73,1.31c-.38.01-.74.17-1,.45h0c-.22.25-.36.57-.38.9v.21l76.24-.75Z"/>
  <path class="uuid-b3893e34-6139-423a-be38-0b91f502a859" d="M77.59,17.57v-2.74L1.06,15.74v1.13c.02.98.83,1.77,1.81,1.75,0,0,0,0,0,0l74.72-1.05Z"/>
  <path class="uuid-b3893e34-6139-423a-be38-0b91f502a859" d="M78.59,14.84v2.73l19.57-.28c.14,0,.26-.12.26-.26v-2.45l-19.83.26Z"/>
  <path class="uuid-82ffdd48-be7e-465e-886a-9a19f9a02438" d="M275.11,44.38h-.52v5.53l-72.66-.06v.5l72.91.06h.26v-6.03Z"/>
  <path class="uuid-82ffdd48-be7e-465e-886a-9a19f9a02438" d="M104.78,49.76v-6.38h-.5v6.88h.25l72.92.07v-.5l-72.67-.07Z"/>
  <path class="uuid-53419677-7c43-4387-b136-87a6e9ac0501" d="M180.43,50.99c.04-.08.08-.15.13-.22l.17-.19.2-.16c.11-.09.23-.17.36-.23l.4-.23.4-.25c.26-.17.47-.4.6-.68.06-.16.09-.33.09-.5,0-.16-.03-.31-.09-.46-.05-.14-.13-.27-.24-.37-.12-.11-.26-.19-.41-.25-.18-.06-.38-.09-.57-.09-.19,0-.38.03-.56.09-.17.06-.32.16-.44.29-.12.12-.21.27-.28.43-.06.19-.09.38-.09.58h.41c0-.14,0-.28.05-.41.04-.12.1-.24.19-.34.08-.1.18-.18.3-.23.11-.06.24-.09.37-.09.13,0,.25.02.37.06.11.03.21.09.3.17.08.08.15.18.2.28.05.11.07.24.07.36,0,.15-.03.3-.09.43-.07.12-.15.22-.25.31-.11.1-.23.19-.36.26-.14.07-.28.16-.43.25l-.47.33c-.17.13-.32.27-.46.43-.12.14-.21.3-.26.48-.05.18-.07.37-.07.56h2.77v-.33h-2.36c0-.1.02-.19.05-.28Z"/>
  <path class="uuid-53419677-7c43-4387-b136-87a6e9ac0501" d="M186.15,50.22h-.56v-2.82h-.35l-2,2.82v.35h1.93v1h.42v-1h.59l-.03-.35ZM185.15,47.98v2.24h-1.56l1.56-2.24Z"/>
  <path class="uuid-53419677-7c43-4387-b136-87a6e9ac0501" d="M188.59,47.36h-.3c-.02.15-.07.29-.15.42-.06.11-.14.19-.25.25-.1.06-.22.1-.34.11l-.44.05v.26h1.1v3.12h.38v-4.21Z"/>
  <path class="uuid-53419677-7c43-4387-b136-87a6e9ac0501" d="M194.32,49.63c.01-.15.01-.31,0-.46-.02-.14-.07-.27-.14-.39-.07-.12-.17-.22-.29-.28-.16-.08-.33-.11-.51-.1-.21,0-.41.05-.59.14-.19.1-.33.27-.42.46,0-.09-.08-.16-.12-.24-.05-.07-.11-.13-.17-.19-.08-.05-.17-.09-.26-.12-.12-.02-.25-.02-.37,0-.19,0-.39.05-.56.13-.17.1-.31.24-.4.42h0v-.47h-.36v3.04h.36v-1.68c0-.07,0-.14,0-.21,0-.08,0-.15,0-.23.02-.08.04-.15.07-.22.02-.07.05-.13.09-.18.09-.12.2-.21.33-.27.11-.06.24-.09.37-.09.2-.02.39.05.53.19.1.16.15.34.14.53v2.16h.36v-2.12c.02-.08.04-.15.07-.22.03-.06.06-.12.1-.18.08-.11.19-.21.32-.27.12-.06.25-.09.38-.09.2-.02.39.05.53.19.1.16.15.34.14.53v2.16h.36l.04-1.94Z"/>
  <path class="uuid-53419677-7c43-4387-b136-87a6e9ac0501" d="M199.32,49.63c.01-.15.01-.31,0-.46-.02-.14-.07-.27-.14-.39-.06-.12-.16-.22-.28-.28-.16-.08-.34-.11-.52-.1-.21,0-.41.05-.59.14-.19.1-.33.27-.42.46-.03-.08-.07-.17-.12-.24-.05-.07-.1-.14-.17-.19-.08-.05-.17-.09-.26-.12-.12-.02-.25-.02-.37,0-.19,0-.39.05-.56.13-.17.1-.31.24-.4.42h0v-.47h-.36v3.04h.36v-1.89c0-.08,0-.15,0-.23.02-.08.04-.15.07-.22.02-.07.05-.13.1-.18.08-.12.19-.21.32-.27.12-.06.25-.09.38-.09.2-.02.39.05.53.19.1.16.15.34.14.53v2.16h.36v-1.68c0-.07,0-.14,0-.21,0-.08,0-.15,0-.23.02-.08.04-.15.07-.22.02-.07.05-.13.09-.18.09-.12.2-.21.33-.27.12-.06.25-.09.38-.09.19-.02.39.05.52.19.1.16.15.34.14.53v2.16h.36l.04-1.94Z"/>
  <polygon class="uuid-82ffdd48-be7e-465e-886a-9a19f9a02438" points="274.61 59.51 150.77 59.51 150.77 60.01 275.11 60.01 275.11 53.57 274.61 53.57 274.61 59.51"/>
  <polygon class="uuid-82ffdd48-be7e-465e-886a-9a19f9a02438" points="1.61 59.51 1.61 53.38 1.11 53.38 1.11 59.63 1.1 60.01 126.27 60.01 126.27 59.51 1.61 59.51"/>
  <path class="uuid-53419677-7c43-4387-b136-87a6e9ac0501" d="M131.59,59.9h-.58v-2.83h-.35l-2,2.82v.33h1.94v1h.39v-1h.6v-.32ZM130.59,57.65v2.25h-1.56l1.56-2.25Z"/>
  <path class="uuid-53419677-7c43-4387-b136-87a6e9ac0501" d="M134.94,59.98c.02-.37-.11-.72-.35-1-.27-.25-.63-.38-1-.36-.14,0-.27.02-.4.06-.11.04-.21.09-.3.15-.08.06-.15.13-.22.21l-.19.24c0-.19,0-.41.07-.63.02-.22.08-.43.16-.63.08-.18.2-.34.35-.47.18-.13.39-.19.61-.18.2-.01.39.06.54.19.14.14.23.32.27.52h.39c-.02-.3-.16-.58-.39-.77-.24-.19-.54-.28-.85-.27-.27-.01-.54.06-.76.22-.2.14-.36.33-.47.55-.12.23-.2.48-.24.74-.04.26-.07.53-.07.79,0,.32.03.63.12.94.06.23.17.44.31.63.12.16.28.28.47.35.19.07.39.1.59.1.37.02.73-.11,1-.36.25-.28.38-.65.36-1.02ZM134.34,60.69c-.3.34-.79.44-1.2.24-.12-.05-.21-.14-.29-.24-.08-.1-.14-.22-.17-.34-.04-.12-.06-.24-.06-.36,0-.14.03-.28.07-.41.04-.12.11-.23.19-.33.08-.1.18-.18.3-.23.13-.05.26-.08.4-.08.27-.02.54.08.74.26.17.22.25.49.23.77.01.12.01.25,0,.37-.05.13-.12.25-.21.35h0Z"/>
  <path class="uuid-53419677-7c43-4387-b136-87a6e9ac0501" d="M137.39,57.03h-.31c-.02.15-.07.3-.14.43-.06.1-.15.18-.25.24-.1.06-.22.1-.34.12l-.44.05v.25h1.09v3.15h.39v-4.24Z"/>
  <path class="uuid-53419677-7c43-4387-b136-87a6e9ac0501" d="M143.15,59.3v-.45c-.03-.14-.07-.27-.14-.4-.07-.11-.17-.21-.29-.28-.36-.15-.77-.13-1.11.05-.18.11-.33.26-.42.45-.03-.08-.07-.16-.11-.23-.05-.07-.11-.14-.18-.19-.07-.06-.16-.11-.25-.13-.12-.03-.24-.05-.37-.05-.2,0-.39.05-.57.14-.17.1-.3.24-.39.41h0v-.46h-.36v3.11h.36v-1.7c0-.07,0-.14,0-.21,0-.15.04-.3.09-.45.03-.06.06-.12.1-.18.08-.11.19-.21.32-.27.12-.05.25-.08.38-.08.2-.03.39.04.53.19.1.16.15.34.14.53v2.15h.36v-1.89c0-.08,0-.15,0-.23.02-.07.04-.15.07-.22.02-.06.05-.13.09-.18.09-.11.2-.21.33-.27.12-.05.25-.08.38-.08.2-.03.39.05.53.19.1.16.15.34.14.53v2.15h.36v-1.95Z"/>
  <path class="uuid-53419677-7c43-4387-b136-87a6e9ac0501" d="M148.15,59.3c0-.15,0-.3,0-.45-.02-.14-.07-.28-.14-.4-.07-.12-.17-.21-.29-.28-.16-.07-.33-.1-.51-.1-.21,0-.41.05-.59.15-.18.1-.33.26-.42.45-.03-.08-.07-.16-.12-.23-.05-.07-.11-.13-.17-.19-.08-.06-.17-.1-.26-.13-.12-.03-.24-.05-.37-.05-.2,0-.39.05-.56.14-.17.09-.31.23-.4.41h0v-.46h-.36v3.11h.36v-1.7c0-.07,0-.14,0-.21,0-.08,0-.15,0-.23.02-.07.04-.15.07-.22.02-.06.05-.13.09-.18.09-.12.2-.21.33-.27.12-.05.25-.08.38-.08.19-.03.39.05.52.19.1.16.15.34.14.53v2.15h.36v-1.68c0-.07,0-.14,0-.21,0-.15.04-.3.09-.45.03-.06.06-.12.1-.18.08-.11.19-.21.32-.27.12-.05.25-.08.38-.08.2-.03.39.05.53.19.1.16.15.34.14.53v2.15h.36l.02-1.95Z"/>
  <path class="uuid-d0f4bf3f-c4c4-4b95-9134-a7b1a74f9ef0" d="M2.9,19.65l95.27-1.34c.69,0,1.24-.55,1.25-1.24v-3.25l4.44.13c1.44.04,2.56,1.24,2.52,2.68,0,.05,0,.09,0,.14l-1.74,20.23h5.2c55.38,0,110.61-5.69,164.82-17l1.3-.27-1.15-.66c-26.35-14.94-58.07-14.85-86.06-14.77-15,0-29.8.06-44.59.07s-29.57,0-44.59.06v1c15,0,29.81,0,44.59-.06s29.58,0,44.6-.07c27.44-.08,58.5-.17,84.38,14-55.06,11.42-111.17,17.03-167.41,16.75l1.65-19.15c.17-1.98-1.29-3.73-3.27-3.9-.07,0-.14,0-.21-.01l-4.45-.13.14-11.13c.01-.46-.16-.9-.49-1.22C98.77.18,98.33,0,97.88,0h0L2.71.35c-.67,0-1.3.28-1.76.77-.39.41-.63.95-.66,1.52C.03,7.39-.05,12.21.04,16.96c.04,1.52,1.27,2.73,2.79,2.73l.07-.04ZM98.16,17.31l-19.57.26v-2.75l19.86-.24v2.45c.01.14-.09.27-.24.28-.02,0-.04,0-.05,0ZM1.29,3.37l76.31-.75v11.73L1.07,15.27c-.06-3.96.02-7.95.22-11.9ZM78.59,2.57l20-.2-.15,11.69-19.87.24.02-11.73ZM97.91.92h0c.19,0,.37.08.5.21.13.14.21.32.2.51v.23l-20,.2V.99l19.3-.07ZM1.69,1.72h0c.26-.28.62-.44,1-.45l74.86-.27v1.08L1.26,2.83v-.21c.05-.33.2-.63.44-.86v-.04ZM1.06,16.86v-1.13l76.53-.91v2.75L2.88,18.62c-.97.02-1.78-.75-1.81-1.72v-.04Z"/>
</svg>