<?xml version="1.0" encoding="UTF-8"?>
<svg id="uuid-4fc613bc-45a3-432c-bc2f-84bbf3be56fc" data-name="Layer_1" xmlns="http://www.w3.org/2000/svg" width="275.42" height="62.44" viewBox="0 0 275.42 62.44">
  <defs>
    <style>
      .uuid-08ad8737-26a0-4dc1-8f69-5c9e2fa4c0c2 {
        opacity: .6;
      }

      .uuid-08ad8737-26a0-4dc1-8f69-5c9e2fa4c0c2, .uuid-279c08ee-ebb6-4ee3-b0c9-d88f673e645c {
        isolation: isolate;
      }

      .uuid-08ad8737-26a0-4dc1-8f69-5c9e2fa4c0c2, .uuid-279c08ee-ebb6-4ee3-b0c9-d88f673e645c, .uuid-d5b4e301-54c3-4853-8381-a57aed643bb7 {
        fill: #273a5b;
      }

      .uuid-fe3f6866-3b63-46f3-8df4-48939d745868 {
        fill: none;
      }

      .uuid-279c08ee-ebb6-4ee3-b0c9-d88f673e645c {
        opacity: .25;
      }
    </style>
  </defs>
  <path class="uuid-fe3f6866-3b63-46f3-8df4-48939d745868" d="M109.98,1.45c-4.78-.09-9.56-.16-14.35-.19l.54,15.79h.38c1.19,0,2.37.09,3.54.28,4.61.79,8.78,3.21,11.75,6.82-1.69-7.44-2.32-15.08-1.86-22.7Z"/>
  <path class="uuid-fe3f6866-3b63-46f3-8df4-48939d745868" d="M113.44,26.34c.43.79.77,1.64,1,2.51l2,7.24c.21.74.87,1.25,1.64,1.27,20.08.2,40.4-.55,60.41-2.25,30.38-2.56,65.25-7.71,94.08-26.26C223.17,2.14,173.28-.27,123.46,1.65h-2c-3.48-.1-7-.16-10.44-.23-.52,8.38.3,16.79,2.42,24.92Z"/>
  <path class="uuid-fe3f6866-3b63-46f3-8df4-48939d745868" d="M2.78,26.11c3.78.09,7.55-.27,11.25-1.07,4.35-.71,8.74-1.14,13.15-1.29,18.67,1.69,37.49.24,55.68-4.28l1.53-.39c3.53-1.01,7.16-1.68,10.82-2l-.54-15.83c-28.38-.18-56.89.55-85.09,2.21-.84.05-1.57.6-1.84,1.4L1.14,23.65c-.26.71-.06,1.5.51,2,.32.27.71.44,1.13.46Z"/>
  <path class="uuid-279c08ee-ebb6-4ee3-b0c9-d88f673e645c" d="M274.5,45.46h-.52v5.53l-66.66-.06v.5l66.91.06h.26v-6.03Z"/>
  <path class="uuid-279c08ee-ebb6-4ee3-b0c9-d88f673e645c" d="M116.17,50.84v-6.38h-.5v6.88h.25l66.92.07v-.5l-66.67-.07Z"/>
  <path class="uuid-08ad8737-26a0-4dc1-8f69-5c9e2fa4c0c2" d="M185.82,52.07c.04-.08.08-.15.13-.22l.17-.19.2-.16c.11-.09.23-.17.36-.23l.4-.23.4-.25c.26-.17.47-.4.6-.68.06-.16.09-.33.09-.5,0-.16-.03-.31-.09-.46-.05-.14-.13-.27-.24-.37-.12-.11-.26-.19-.41-.25-.18-.06-.38-.09-.57-.09-.19,0-.38.03-.56.09-.17.06-.32.16-.44.29-.12.12-.21.27-.28.43-.06.19-.09.38-.09.58h.41c0-.14,0-.28.05-.41.04-.12.1-.24.19-.34.08-.1.18-.18.3-.23.11-.06.24-.09.37-.09.13,0,.25.02.37.06.11.03.21.09.3.17.08.08.15.18.2.28.05.11.07.24.07.36,0,.15-.03.3-.09.43-.07.12-.15.22-.25.31-.11.1-.23.19-.36.26-.14.07-.28.16-.43.25l-.47.33c-.17.13-.32.27-.46.43-.12.14-.21.3-.26.48-.05.18-.07.37-.07.56h2.77v-.33h-2.36c0-.1.02-.19.05-.28Z"/>
  <path class="uuid-08ad8737-26a0-4dc1-8f69-5c9e2fa4c0c2" d="M191.51,50.65v-.5c-.02-.17-.04-.34-.08-.51-.03-.16-.08-.31-.15-.46-.12-.29-.36-.52-.65-.63-.17-.06-.36-.09-.54-.09-.26-.01-.52.05-.74.18-.18.13-.33.29-.43.49-.1.22-.17.45-.21.69-.04.26-.05.53-.05.79,0,.28.01.56.06.83.03.24.11.47.22.69.1.2.25.36.44.48.22.12.46.18.71.17.25,0,.5-.05.72-.17.18-.12.33-.28.44-.47.11-.21.18-.44.21-.68.04-.27.06-.54.05-.81ZM190.95,51.85c-.07.17-.17.32-.31.44-.16.12-.36.18-.56.17-.18,0-.35-.04-.5-.14-.14-.08-.26-.21-.33-.36-.09-.18-.14-.37-.16-.57-.04-.24-.06-.49-.06-.74-.02-.23-.02-.45,0-.68.02-.21.08-.42.16-.61.07-.16.17-.31.31-.42.15-.11.33-.16.52-.16.2,0,.39.05.55.16.14.11.25.25.32.41.08.19.13.39.15.59.02.22.02.45,0,.67.01.22.01.43,0,.65,0,.19-.01.38-.06.57l-.03.02Z"/>
  <path class="uuid-08ad8737-26a0-4dc1-8f69-5c9e2fa4c0c2" d="M192.5,52.07c.04-.08.08-.15.13-.22l.17-.19.2-.16c.11-.09.23-.17.36-.23l.4-.23.4-.25c.26-.17.47-.4.6-.68.06-.16.09-.33.09-.5,0-.16-.03-.31-.09-.46-.05-.14-.13-.27-.24-.37-.12-.11-.26-.19-.41-.25-.18-.06-.38-.09-.57-.09-.19,0-.38.03-.56.09-.17.06-.32.16-.44.29-.12.12-.21.27-.28.43-.06.19-.09.38-.09.58h.41c0-.14,0-.28.05-.41.04-.12.1-.24.19-.34.08-.1.18-.18.3-.23.12-.06.25-.09.38-.09.12,0,.24.02.36.06.11.03.21.09.3.17.08.08.15.18.2.28.05.11.07.24.07.36,0,.15-.03.3-.09.43-.07.12-.15.22-.25.31-.11.1-.23.19-.36.26-.14.07-.28.16-.43.25l-.47.33c-.17.13-.32.27-.46.43-.12.14-.21.3-.26.48-.05.18-.07.37-.07.56h2.77v-.33h-2.36c0-.1.02-.19.05-.28Z"/>
  <path class="uuid-08ad8737-26a0-4dc1-8f69-5c9e2fa4c0c2" d="M199.71,50.71c.01-.15.01-.31,0-.46-.02-.14-.07-.27-.14-.39-.07-.12-.17-.22-.29-.28-.16-.08-.33-.11-.51-.1-.21,0-.41.05-.59.14-.19.1-.33.27-.42.46,0-.09-.08-.16-.12-.24-.05-.07-.11-.13-.17-.19-.08-.05-.17-.09-.26-.12-.12-.02-.25-.02-.37,0-.19,0-.39.05-.56.13-.17.1-.31.24-.4.42h0v-.47h-.36v3.04h.36v-1.68c0-.07,0-.14,0-.21,0-.08,0-.15,0-.23.02-.08.04-.15.07-.22.02-.07.05-.13.09-.18.09-.12.2-.21.33-.27.11-.06.24-.09.37-.09.2-.02.39.05.53.19.1.16.15.34.14.53v2.16h.36v-2.12c.02-.08.04-.15.07-.22.03-.06.06-.12.1-.18.08-.11.19-.21.32-.27.12-.06.25-.09.38-.09.2-.02.39.05.53.19.1.16.15.34.14.53v2.16h.36l.04-1.94Z"/>
  <path class="uuid-08ad8737-26a0-4dc1-8f69-5c9e2fa4c0c2" d="M204.71,50.71c.01-.15.01-.31,0-.46-.02-.14-.07-.27-.14-.39-.06-.12-.16-.22-.28-.28-.16-.08-.34-.11-.52-.1-.21,0-.41.05-.59.14-.19.1-.33.27-.42.46-.03-.08-.07-.17-.12-.24-.05-.07-.1-.14-.17-.19-.08-.05-.17-.09-.26-.12-.12-.02-.25-.02-.37,0-.19,0-.39.05-.56.13-.17.1-.31.24-.4.42h0v-.47h-.36v3.04h.36v-1.89c0-.08,0-.15,0-.23.02-.08.04-.15.07-.22.02-.07.05-.13.1-.18.08-.12.19-.21.32-.27.12-.06.25-.09.38-.09.2-.02.39.05.53.19.1.16.15.34.14.53v2.16h.36v-1.68c0-.07,0-.14,0-.21,0-.08,0-.15,0-.23.02-.08.04-.15.07-.22.02-.07.05-.13.09-.18.09-.12.2-.21.33-.27.12-.06.25-.09.38-.09.19-.02.39.05.52.19.1.16.15.34.14.53v2.16h.36l.04-1.94Z"/>
  <polygon class="uuid-279c08ee-ebb6-4ee3-b0c9-d88f673e645c" points="274 60.59 150.16 60.59 150.16 61.09 274.5 61.09 274.5 54.65 274 54.65 274 60.59"/>
  <polygon class="uuid-279c08ee-ebb6-4ee3-b0c9-d88f673e645c" points="1 60.59 1 54.46 .5 54.46 .5 60.71 .49 61.09 125.66 61.09 125.66 60.59 1 60.59"/>
  <path class="uuid-08ad8737-26a0-4dc1-8f69-5c9e2fa4c0c2" d="M130.98,60.85c-.02-.11-.06-.21-.12-.3-.06-.1-.14-.19-.23-.26-.11-.08-.24-.15-.37-.19.18-.08.34-.2.45-.37.1-.17.16-.37.15-.57,0-.16-.03-.32-.1-.47-.06-.13-.15-.24-.26-.33-.11-.09-.24-.15-.38-.19-.15-.04-.31-.06-.47-.06-.17-.02-.34-.02-.51,0-.17.04-.32.12-.45.23-.13.12-.23.27-.31.43-.07.16-.1.34-.1.52h.38c0-.12.02-.25.07-.36.04-.11.11-.21.19-.29.08-.09.17-.15.28-.19.12-.04.24-.06.37-.06.12-.01.23-.01.35,0,.1.03.2.07.29.13.18.14.27.35.26.57,0,.14-.03.28-.09.4-.06.1-.14.19-.24.25-.12.07-.25.11-.39.13-.16.01-.33.01-.49,0v.32c.17-.02.35-.02.52,0,.15.01.3.06.43.13.26.14.41.41.41.7,0,.12-.01.25-.06.36-.06.11-.13.22-.22.31-.1.09-.21.16-.34.21-.14.06-.28.09-.43.08-.28.01-.55-.08-.76-.25-.21-.19-.31-.46-.29-.74h-.39c.02.21.07.42.14.62.12.32.4.56.74.63.21.04.42.06.63.06.2,0,.4-.04.59-.11.16-.06.3-.16.42-.28.12-.11.21-.25.27-.4.06-.16.09-.32.09-.49,0-.06-.02-.11-.03-.17Z"/>
  <path class="uuid-08ad8737-26a0-4dc1-8f69-5c9e2fa4c0c2" d="M134.12,60.5c-.14-.19-.33-.33-.55-.41.18-.08.33-.21.44-.38.09-.17.14-.37.13-.56,0-.31-.14-.61-.39-.79-.12-.09-.26-.15-.41-.19-.16-.04-.32-.06-.48-.06-.16,0-.32.02-.47.07-.14.05-.27.13-.38.22-.11.1-.19.21-.26.34-.07.13-.1.27-.1.41-.01.1-.01.21,0,.31.02.09.05.17.1.24.05.07.12.13.19.18.08.07.17.13.26.19-.22.08-.41.23-.54.43-.13.2-.2.44-.2.68,0,.19.04.38.12.55.08.15.19.29.32.39.13.1.27.18.42.24.15.05.31.07.47.07.21,0,.41-.03.61-.08.17-.05.33-.13.47-.25.13-.11.24-.24.31-.4.07-.18.1-.36.1-.55.02-.23-.04-.46-.16-.65ZM132.12,59.5c-.06-.1-.09-.22-.08-.34,0-.11.02-.23.06-.33.04-.09.11-.18.19-.24.08-.07.17-.12.27-.15.11-.02.23-.02.34,0,.23-.02.46.04.65.17.14.13.22.32.21.51,0,.13-.02.26-.06.38-.07.19-.23.34-.43.4-.11.03-.22.05-.33.05-.12,0-.23-.02-.34-.05-.1-.03-.2-.07-.29-.13-.08-.06-.14-.14-.19-.23v-.04ZM133.86,61.5c-.05.11-.12.22-.21.3-.09.09-.2.16-.32.2-.12.05-.26.07-.39.07-.15,0-.29-.02-.43-.07-.12-.05-.23-.11-.33-.2-.09-.08-.16-.18-.21-.29-.06-.11-.09-.24-.08-.37,0-.14.02-.28.08-.41.05-.11.12-.2.21-.28.1-.07.21-.13.33-.16.13-.04.27-.05.41-.05.13,0,.26.01.39.05.12.03.23.09.33.16.09.08.16.17.21.28.06.12.09.26.08.39,0,.14-.01.29-.07.42v-.04Z"/>
  <path class="uuid-08ad8737-26a0-4dc1-8f69-5c9e2fa4c0c2" d="M137.67,61.06c.02-.37-.1-.73-.35-1-.27-.25-.63-.38-1-.36-.14,0-.27.02-.4.06-.1.04-.2.09-.29.15-.08.06-.16.13-.23.21l-.19.24c0-.19,0-.41.07-.63.02-.22.08-.43.16-.63.08-.18.2-.34.35-.47.18-.13.39-.19.61-.18.2-.01.39.06.54.19.14.14.23.32.27.52h.39c-.02-.3-.16-.58-.39-.77-.24-.19-.54-.28-.85-.27-.27-.01-.54.06-.76.22-.2.14-.36.33-.47.55-.12.23-.2.48-.24.74-.04.26-.06.53-.06.79,0,.32.03.63.11.94.06.23.17.44.31.63.12.16.29.28.47.35.19.07.39.1.59.1.37.02.73-.11,1-.36.25-.28.38-.65.36-1.02ZM137.07,61.77c-.3.34-.79.44-1.2.24-.11-.06-.21-.14-.29-.24-.08-.1-.14-.22-.17-.34-.04-.12-.05-.24-.05-.36,0-.14.02-.28.06-.41.04-.12.11-.23.19-.33.08-.1.18-.18.3-.23.13-.05.26-.08.4-.08.27-.02.54.08.74.26.17.22.25.49.23.77.01.12.01.25,0,.37-.05.13-.12.25-.21.35h0Z"/>
  <path class="uuid-08ad8737-26a0-4dc1-8f69-5c9e2fa4c0c2" d="M142.54,60.38v-.45c-.03-.14-.07-.27-.14-.4-.07-.11-.17-.21-.29-.28-.36-.15-.77-.13-1.11.05-.18.11-.33.26-.42.45-.03-.08-.07-.16-.11-.23-.05-.07-.11-.14-.18-.19-.07-.06-.16-.11-.25-.13-.12-.03-.24-.05-.37-.05-.2,0-.39.05-.57.14-.17.1-.3.24-.39.41h0v-.46h-.36v3.11h.36v-1.7c0-.07,0-.14,0-.21,0-.08,0-.15,0-.23.02-.07.04-.15.06-.22.03-.06.06-.12.1-.18.08-.11.19-.21.32-.27.12-.05.25-.08.38-.08.2-.03.39.04.53.19.1.16.15.34.14.53v2.15h.36v-1.89c0-.08,0-.15,0-.23.02-.07.04-.15.07-.22.02-.07.05-.13.1-.18.08-.12.19-.21.32-.27.12-.05.25-.08.38-.08.2-.03.39.05.53.19.1.16.15.34.14.53v2.15h.36l.04-1.95Z"/>
  <path class="uuid-08ad8737-26a0-4dc1-8f69-5c9e2fa4c0c2" d="M147.54,60.38c0-.15,0-.3,0-.45-.02-.14-.07-.28-.14-.4-.07-.12-.17-.21-.29-.28-.16-.07-.33-.1-.51-.1-.21,0-.41.05-.59.15-.18.1-.33.26-.42.45-.03-.08-.07-.16-.12-.23-.05-.07-.11-.13-.17-.19-.08-.06-.17-.11-.26-.13-.12-.03-.24-.05-.37-.05-.2,0-.39.05-.56.14-.17.09-.31.23-.4.41h0v-.46h-.36v3.11h.36v-1.7c0-.07,0-.14,0-.21,0-.08,0-.15,0-.23.02-.07.04-.15.07-.22.02-.06.05-.13.09-.18.09-.12.2-.21.33-.27.12-.05.25-.08.38-.08.2-.03.39.05.53.19.1.16.14.34.13.53v2.15h.36v-1.68c0-.07,0-.14,0-.21,0-.15.04-.3.09-.45.03-.06.06-.12.1-.18.08-.11.19-.21.32-.27.12-.05.25-.08.38-.08.2-.03.39.05.53.19.1.16.15.34.14.53v2.15h.36l.02-1.95Z"/>
  <path class="uuid-d5b4e301-54c3-4853-8381-a57aed643bb7" d="M2.72,27.1c3.86.1,7.72-.26,11.49-1.08,4.28-.69,8.6-1.12,12.94-1.27,18.78,1.7,37.7.24,56-4.31l1.54-.39c5-1.27,10.26-2.59,15.33-1.75,4.84.84,9.15,3.56,12,7.57.69.98,1.2,2.08,1.52,3.24l2,7.25c.33,1.16,1.38,1.98,2.59,2h6.44c18,0,36.16-.77,54.06-2.28,30.91-2.61,66.44-7.88,95.68-27.15l1.11-.73-1.32-.18C224.19,1.16,173.77-1.3,123.42.65h-1.94C84.31-.35,46.64.23,9.48,2.41c-1.24.08-2.31.89-2.73,2.06L.16,23.29c-.38,1.08-.07,2.29.79,3.05.48.46,1.11.73,1.77.76ZM100.13,17.32c-1.17-.19-2.35-.29-3.54-.28h-.38l-.54-15.79c4.79.04,9.58.1,14.35.19-.46,7.61.17,15.25,1.86,22.69-2.98-3.6-7.14-6.02-11.75-6.81h0ZM123.46,1.65c49.82-1.92,99.72.49,149.12,7.2-28.83,18.55-63.7,23.7-94.08,26.26-20,1.7-40.33,2.45-60.41,2.25-.77-.02-1.43-.53-1.64-1.27l-2-7.24c-.23-.87-.57-1.72-1-2.51-2.13-8.11-2.97-16.5-2.47-24.87,3.48.07,7,.13,10.44.23.7.02,1.37,0,2.04-.05ZM1.14,23.65L7.74,4.83c.27-.8,1-1.35,1.84-1.4,28.2-1.66,56.71-2.39,85.09-2.21l.54,15.83c-3.66.32-7.29.99-10.82,2l-1.53.39c-18.19,4.53-37.01,5.99-55.68,4.31-4.41.15-8.8.58-13.15,1.29-3.7.8-7.47,1.16-11.25,1.07-.42-.03-.82-.19-1.13-.47-.56-.5-.76-1.28-.51-1.99Z"/>
</svg>