<?xml version="1.0" encoding="UTF-8"?>
<svg id="uuid-fe2561a3-3ca3-4311-baef-dc1d9050fd0d" data-name="Layer_1" xmlns="http://www.w3.org/2000/svg" width="275.8" height="64.53" viewBox="0 0 275.8 64.53">
  <defs>
    <style>
      .uuid-099cf353-2e7e-450c-a60f-b6cf452ea110 {
        opacity: .6;
      }

      .uuid-099cf353-2e7e-450c-a60f-b6cf452ea110, .uuid-a99b5c57-3f6d-4730-9d5a-c7ebbdd0d207 {
        isolation: isolate;
      }

      .uuid-099cf353-2e7e-450c-a60f-b6cf452ea110, .uuid-a99b5c57-3f6d-4730-9d5a-c7ebbdd0d207, .uuid-699cbd04-01fe-4b43-89a0-cc489cc6b7da {
        fill: #273a5b;
      }

      .uuid-94825bbf-28d9-4815-934b-159bbf97cc69 {
        fill: none;
      }

      .uuid-a99b5c57-3f6d-4730-9d5a-c7ebbdd0d207 {
        opacity: .25;
      }
    </style>
  </defs>
  <path class="uuid-94825bbf-28d9-4815-934b-159bbf97cc69" d="M163.22,34.91c2.3,0,4.17-2.43,4.17-5.41s-1.87-5.42-4.17-5.42-4.17,2.43-4.17,5.42,1.87,5.41,4.17,5.41Z"/>
  <path class="uuid-94825bbf-28d9-4815-934b-159bbf97cc69" d="M150.76,35.74c2.29,0,4.16-2.43,4.16-5.41s-1.87-5.42-4.16-5.42-4.17,2.43-4.17,5.42,1.87,5.41,4.17,5.41Z"/>
  <path class="uuid-94825bbf-28d9-4815-934b-159bbf97cc69" d="M187.04,32.74c2.29,0,4.16-2.43,4.16-5.42s-1.87-5.41-4.16-5.41-4.17,2.43-4.17,5.41,1.87,5.42,4.17,5.42Z"/>
  <path class="uuid-94825bbf-28d9-4815-934b-159bbf97cc69" d="M174.53,33.8c2.3,0,4.17-2.43,4.17-5.41s-1.87-5.41-4.17-5.41-4.16,2.42-4.16,5.41,1.91,5.41,4.16,5.41Z"/>
  <path class="uuid-94825bbf-28d9-4815-934b-159bbf97cc69" d="M1.83,21.74s.1.01.15,0h2.3c-.96-6.87-.91-13.84.16-20.69h-2.23c-.2,0-.37.15-.41.35-1.02,6.65-1.07,13.42-.15,20.09.02.11.08.2.18.25Z"/>
  <path class="uuid-94825bbf-28d9-4815-934b-159bbf97cc69" d="M102.72,20.14c1.74-.06,3.49-.09,5.23-.15h.15c2.5,0,4.53,2.03,4.53,4.53,0,.04,0,.09,0,.13l-.35,12.45c0,1.66,1.33,3,2.99,3.01.08,0,.17,0,.25,0,12.93-1.25,26.12-1.85,38.89-2.42,12.56-.56,25.56-1.15,38.28-2.36,34.39-3.29,60-10.92,80.56-24C237.92,3.48,201.18,3.09,165.64,2.71l-62.29.12-.63,17.31ZM233.72,14.42c2.05,0,3.72,2.17,3.72,4.83s-1.67,4.83-3.72,4.83-3.73-2.16-3.73-4.83,1.66-4.83,3.71-4.83h.02ZM222.09,16.91c2,0,3.72,2.17,3.72,4.83s-1.67,4.84-3.72,4.84-3.73-2.17-3.73-4.84,1.65-4.83,3.71-4.83h.02ZM210.46,19.13c2,0,3.72,2.16,3.72,4.83s-1.67,4.83-3.72,4.83-3.73-2.17-3.73-4.83,1.65-4.83,3.71-4.83h.02ZM198.83,19.96c2.2,0,4,2.54,4,5.66s-1.8,5.66-4,5.66-4-2.54-4-5.66,1.77-5.66,3.98-5.66h.02ZM187.06,21.62c2.43,0,4.41,2.54,4.41,5.66s-2,5.67-4.41,5.67-4.42-2.55-4.42-5.67,1.96-5.66,4.4-5.66h.02ZM174.53,22.74c2.44,0,4.42,2.54,4.42,5.66s-2,5.66-4.42,5.66-4.41-2.54-4.41-5.66,2.02-5.66,4.41-5.66ZM163.18,23.84c2.43,0,4.42,2.54,4.42,5.67s-2,5.66-4.42,5.66-4.42-2.54-4.42-5.66,2.02-5.68,4.46-5.68h-.04ZM150.72,24.67c2.43,0,4.41,2.54,4.41,5.67s-2,5.66-4.41,5.66-4.42-2.54-4.42-5.66,2.02-5.68,4.46-5.68h-.04ZM138.81,25.5c2.43,0,4.42,2.55,4.42,5.67s-2,5.66-4.42,5.66-4.42-2.54-4.42-5.66,2.02-5.68,4.46-5.68h-.04ZM125.81,26.34c2.44,0,4.42,2.54,4.42,5.66s-2,5.66-4.42,5.66-4.42-2.54-4.42-5.66,2.01-5.67,4.44-5.67h-.02Z"/>
  <path class="uuid-94825bbf-28d9-4815-934b-159bbf97cc69" d="M125.83,37.4c2.3,0,4.17-2.43,4.17-5.41s-1.87-5.41-4.17-5.41-4.17,2.42-4.17,5.41,1.87,5.41,4.17,5.41Z"/>
  <ellipse class="uuid-94825bbf-28d9-4815-934b-159bbf97cc69" cx="138.85" cy="31.16" rx="4.17" ry="5.41"/>
  <path class="uuid-94825bbf-28d9-4815-934b-159bbf97cc69" d="M86.66,2.55L5.45,1.06c-1.09,6.85-1.14,13.82-.16,20.68,26.93-.06,54.11-.44,81.13-1.13l.24-18.06Z"/>
  <path class="uuid-94825bbf-28d9-4815-934b-159bbf97cc69" d="M102.35,2.84l-14.69-.27-.24,18c4.78-.12,9.55-.25,14.3-.4l.63-17.33Z"/>
  <path class="uuid-94825bbf-28d9-4815-934b-159bbf97cc69" d="M233.7,23.83c1.92,0,3.47-2.05,3.47-4.58s-1.55-4.58-3.47-4.58-3.48,2-3.48,4.58,1.56,4.58,3.48,4.58Z"/>
  <path class="uuid-94825bbf-28d9-4815-934b-159bbf97cc69" d="M222.07,26.33c1.91,0,3.47-2.06,3.47-4.59s-1.56-4.58-3.47-4.58-3.48,2.06-3.48,4.58,1.56,4.59,3.48,4.59Z"/>
  <path class="uuid-94825bbf-28d9-4815-934b-159bbf97cc69" d="M210.44,28.54c1.91,0,3.47-2.05,3.47-4.58s-1.56-4.58-3.47-4.58-3.48,2.05-3.48,4.58,1.57,4.58,3.48,4.58Z"/>
  <path class="uuid-94825bbf-28d9-4815-934b-159bbf97cc69" d="M198.81,31.03c2.06,0,3.75-2.43,3.75-5.41s-1.69-5.41-3.75-5.41-3.76,2.42-3.76,5.41,1.69,5.41,3.76,5.41Z"/>
  <path class="uuid-a99b5c57-3f6d-4730-9d5a-c7ebbdd0d207" d="M111.72,52.93v-6.38h-.5v6.88h.25l69.42.07v-.5l-69.17-.07Z"/>
  <path class="uuid-a99b5c57-3f6d-4730-9d5a-c7ebbdd0d207" d="M275.05,47.55h-.52v5.53l-69.16-.06v.5l69.41.06h.26v-6.03Z"/>
  <path class="uuid-099cf353-2e7e-450c-a60f-b6cf452ea110" d="M183.87,54.16c.04-.08.08-.15.13-.22l.17-.19.2-.16c.11-.09.23-.17.36-.23l.4-.23.4-.25c.26-.17.47-.4.6-.68.06-.16.09-.33.09-.5,0-.16-.03-.31-.09-.46-.05-.14-.13-.27-.24-.37-.12-.11-.26-.19-.41-.25-.18-.06-.38-.09-.57-.09-.19,0-.38.03-.56.09-.17.06-.32.16-.44.29-.12.12-.21.27-.28.43-.06.19-.09.38-.09.58h.41c0-.14,0-.28.05-.41.04-.12.1-.24.19-.34.08-.1.18-.18.3-.23.11-.06.24-.09.37-.09.13,0,.25.02.37.06.11.03.21.09.3.17.08.08.15.18.2.28.05.11.07.24.07.36,0,.15-.03.3-.09.43-.07.12-.15.22-.25.31-.11.1-.23.19-.36.26-.14.07-.28.16-.43.25l-.47.33c-.17.13-.32.27-.46.43-.12.14-.21.3-.26.48-.05.18-.07.37-.07.56h2.77v-.33h-2.36c0-.1.02-.19.05-.28Z"/>
  <path class="uuid-099cf353-2e7e-450c-a60f-b6cf452ea110" d="M189.53,52.74v-.5c-.02-.17-.04-.34-.08-.51-.03-.16-.08-.31-.15-.46-.12-.29-.36-.52-.65-.63-.17-.06-.36-.09-.54-.09-.26-.01-.52.05-.74.18-.18.13-.33.29-.43.49-.1.22-.17.45-.21.69-.04.26-.05.53-.05.79,0,.28.01.56.06.83.03.24.11.47.22.69.1.2.25.36.44.48.22.12.46.18.71.17.25,0,.5-.05.72-.17.18-.12.33-.28.44-.47.11-.21.18-.44.21-.68.04-.27.06-.54.05-.81ZM188.97,53.94c-.07.17-.17.32-.31.44-.16.12-.36.18-.56.17-.18,0-.35-.04-.5-.14-.14-.08-.26-.21-.33-.36-.09-.18-.14-.37-.16-.57-.04-.24-.06-.49-.06-.74-.02-.23-.02-.45,0-.68.02-.21.08-.42.16-.61.07-.16.17-.31.31-.42.15-.11.33-.16.52-.16.2,0,.39.05.55.16.14.11.25.25.32.41.08.19.13.39.15.59.02.22.02.45,0,.67.01.22.01.43,0,.65,0,.19-.01.38-.06.57l-.03.02Z"/>
  <path class="uuid-099cf353-2e7e-450c-a60f-b6cf452ea110" d="M192.85,53.26c-.02-.1-.06-.21-.11-.3-.06-.08-.13-.15-.21-.22-.12-.08-.24-.14-.38-.18.19-.08.35-.21.46-.38.1-.17.14-.37.14-.57,0-.16-.03-.32-.1-.46-.06-.13-.15-.24-.26-.33-.11-.09-.24-.15-.37-.19-.16-.05-.32-.07-.48-.06-.17-.02-.34-.02-.51,0-.17.04-.32.12-.45.24-.13.12-.24.27-.31.43-.07.17-.1.34-.1.52h.36c0-.13.03-.25.07-.37.04-.11.11-.21.19-.29.08-.08.18-.14.29-.18.11-.05.24-.07.36-.07.12-.02.23-.02.35,0,.1.03.2.08.29.14.08.06.14.13.19.22.05.11.08.23.07.35.01.14-.02.28-.09.4-.06.1-.14.19-.24.25-.12.06-.25.1-.39.12-.16.02-.33.02-.49,0v.41c.17-.01.35-.01.52,0,.15.02.3.07.44.14.12.06.22.15.28.27.09.13.13.28.12.43.01.12,0,.25-.06.36-.06.11-.13.22-.22.31-.1.09-.22.16-.34.21-.14.05-.28.08-.43.08-.27.01-.54-.08-.75-.26-.21-.18-.32-.45-.3-.73h-.38c.01.21.06.42.13.62.06.16.16.29.29.4.13.11.28.18.45.22.21.05.42.08.64.07.2,0,.39-.04.58-.11.16-.07.3-.16.43-.28.11-.12.2-.25.26-.4.06-.16.09-.33.09-.5,0-.1,0-.21-.03-.31Z"/>
  <path class="uuid-099cf353-2e7e-450c-a60f-b6cf452ea110" d="M197.76,52.8c.01-.15.01-.31,0-.46-.02-.14-.07-.27-.14-.39-.07-.12-.17-.22-.29-.28-.16-.08-.33-.11-.51-.1-.21,0-.41.05-.59.14-.19.1-.33.27-.42.46,0-.09-.08-.16-.12-.24-.05-.07-.1-.13-.16-.19-.08-.05-.17-.09-.26-.12-.12-.02-.25-.02-.37,0-.19,0-.39.05-.56.13-.17.1-.31.24-.4.42h0v-.47h-.41v3.04h.36v-1.68c0-.07,0-.14,0-.21,0-.08,0-.15,0-.23.02-.08.04-.15.07-.22.02-.07.05-.13.09-.18.09-.12.2-.21.33-.27.11-.06.24-.09.37-.09.2-.02.39.05.53.19.1.16.15.34.14.53v2.16h.36v-2.12c.02-.08.04-.15.07-.22.03-.06.06-.12.1-.18.08-.11.19-.21.32-.27.12-.06.25-.09.38-.09.2-.02.39.05.53.19.1.16.15.34.14.53v2.16h.36l.08-1.94Z"/>
  <path class="uuid-099cf353-2e7e-450c-a60f-b6cf452ea110" d="M202.76,52.8c.01-.15.01-.31,0-.46-.02-.14-.07-.27-.14-.39-.06-.12-.16-.22-.28-.28-.16-.08-.34-.11-.52-.1-.21,0-.41.05-.59.14-.19.1-.33.27-.42.46-.03-.08-.07-.17-.12-.24-.04-.07-.1-.14-.16-.19-.08-.05-.17-.09-.26-.12-.12-.02-.25-.02-.37,0-.19,0-.39.05-.56.13-.17.1-.31.24-.4.42h0v-.47h-.41v3.04h.36v-1.89c0-.08,0-.15,0-.23.02-.08.04-.15.07-.22.02-.07.05-.13.1-.18.08-.12.19-.21.32-.27.12-.06.25-.09.38-.09.2-.02.39.05.53.19.1.16.15.34.14.53v2.16h.36v-1.68c0-.07,0-.14,0-.21,0-.08,0-.15,0-.23.02-.08.04-.15.07-.22.02-.07.05-.13.09-.18.09-.12.2-.21.33-.27.12-.06.25-.09.38-.09.19-.02.39.05.52.19.1.16.15.34.14.53v2.16h.36l.08-1.94Z"/>
  <polygon class="uuid-a99b5c57-3f6d-4730-9d5a-c7ebbdd0d207" points="274.55 62.68 150.71 62.68 150.71 63.18 275.05 63.18 275.05 56.74 274.55 56.74 274.55 62.68"/>
  <polygon class="uuid-a99b5c57-3f6d-4730-9d5a-c7ebbdd0d207" points="1.55 62.68 1.55 56.55 1.05 56.55 1.05 62.8 1.04 63.18 126.21 63.18 126.21 62.68 1.55 62.68"/>
  <path class="uuid-099cf353-2e7e-450c-a60f-b6cf452ea110" d="M131.53,62.94c-.02-.11-.06-.21-.12-.3-.06-.1-.14-.19-.23-.26-.11-.08-.24-.15-.37-.19.18-.08.34-.2.45-.37.1-.17.16-.37.15-.57,0-.16-.03-.32-.1-.47-.06-.13-.15-.24-.26-.33-.11-.09-.24-.15-.38-.19-.15-.04-.31-.06-.47-.06-.17-.02-.34-.02-.51,0-.17.04-.32.12-.45.23-.13.12-.23.27-.31.43-.07.16-.1.34-.1.52h.38c0-.12.02-.25.07-.36.04-.11.11-.21.19-.29.08-.09.17-.15.28-.19.12-.04.24-.06.37-.06.12-.01.23-.01.35,0,.1.03.2.07.29.13.18.14.27.35.26.57,0,.14-.03.28-.09.4-.06.1-.14.19-.24.25-.12.07-.25.11-.39.13-.16.01-.33.01-.49,0v.32c.17-.02.35-.02.52,0,.15.01.3.06.43.13.26.14.41.41.41.7,0,.12-.01.25-.06.36-.06.11-.13.22-.22.31-.1.09-.21.16-.34.21-.14.06-.28.09-.43.08-.28.01-.55-.08-.76-.25-.21-.19-.31-.46-.29-.74h-.39c.02.21.07.42.14.62.12.32.4.56.74.63.21.04.42.06.63.06.2,0,.4-.04.59-.11.16-.06.3-.16.42-.28.12-.11.21-.25.27-.4.06-.16.09-.32.09-.49,0-.06-.02-.11-.03-.17Z"/>
  <path class="uuid-099cf353-2e7e-450c-a60f-b6cf452ea110" d="M134.83,63.12c0-.2-.03-.4-.09-.59-.06-.17-.16-.32-.29-.44-.12-.12-.26-.21-.42-.28-.16-.05-.33-.07-.5-.07h-.26c-.08,0-.15,0-.23,0l-.21.09-.23.13.26-1.42h1.78v-.33h-2.11l-.34,2.2h.31c.11-.14.25-.26.41-.34.16-.07.34-.1.51-.1.15,0,.3.02.44.08.12.05.24.13.33.22.09.1.16.21.21.34.05.14.08.29.08.44,0,.14-.03.28-.07.42-.04.12-.11.24-.2.34-.09.1-.2.18-.32.24-.14.05-.28.08-.43.08-.25,0-.5-.07-.7-.22-.2-.16-.32-.39-.35-.64h-.38c.01.19.06.38.15.55.07.15.18.28.32.37.14.1.29.17.46.2.18.05.37.07.56.06.17,0,.35-.03.51-.09.16-.06.3-.15.42-.27.13-.12.24-.28.3-.45.06-.17.09-.34.08-.52Z"/>
  <path class="uuid-099cf353-2e7e-450c-a60f-b6cf452ea110" d="M138.22,63.15c.02-.37-.1-.73-.35-1-.27-.25-.63-.38-1-.36-.14,0-.27.02-.4.06-.1.04-.2.09-.29.15-.08.06-.16.13-.23.21l-.19.24c0-.19,0-.41.07-.63.02-.22.08-.43.16-.63.08-.18.2-.34.35-.47.18-.13.39-.19.61-.18.2-.01.39.06.54.19.14.14.23.32.27.52h.39c-.02-.3-.16-.58-.39-.77-.24-.19-.54-.28-.85-.27-.27-.01-.54.06-.76.22-.2.14-.36.33-.47.55-.12.23-.2.48-.24.74-.04.26-.06.53-.06.79,0,.32.03.63.11.94.06.23.17.44.31.63.12.16.29.28.47.35.19.07.39.1.59.1.37.02.73-.11,1-.36.25-.28.38-.65.36-1.02ZM137.62,63.86c-.3.34-.79.44-1.2.24-.11-.06-.21-.14-.29-.24-.08-.1-.14-.22-.17-.34-.04-.12-.05-.24-.05-.36,0-.14.02-.28.06-.41.04-.12.11-.23.19-.33.08-.1.18-.18.3-.23.13-.05.26-.08.4-.08.27-.02.54.08.74.26.17.22.25.49.23.77.01.12.01.25,0,.37-.05.13-.12.25-.21.35h0Z"/>
  <path class="uuid-099cf353-2e7e-450c-a60f-b6cf452ea110" d="M143.09,62.47v-.45c-.03-.14-.07-.27-.14-.4-.07-.11-.17-.21-.29-.28-.36-.15-.77-.13-1.11.05-.18.11-.33.26-.42.45-.03-.08-.07-.16-.11-.23-.05-.07-.11-.14-.18-.19-.07-.06-.16-.11-.25-.13-.12-.03-.24-.05-.37-.05-.2,0-.39.05-.57.14-.17.1-.3.24-.39.41h0v-.46h-.36v3.11h.36v-1.7c0-.07,0-.14,0-.21,0-.08,0-.15,0-.23.02-.07.04-.15.06-.22.03-.06.06-.12.1-.18.08-.11.19-.21.32-.27.12-.05.25-.08.38-.08.2-.03.39.04.53.19.1.16.15.34.14.53v2.15h.36v-1.89c0-.08,0-.15,0-.23.02-.07.04-.15.07-.22.02-.07.05-.13.1-.18.08-.12.19-.21.32-.27.12-.05.25-.08.38-.08.2-.03.39.05.53.19.1.16.15.34.14.53v2.15h.36l.04-1.95Z"/>
  <path class="uuid-099cf353-2e7e-450c-a60f-b6cf452ea110" d="M148.09,62.47c0-.15,0-.3,0-.45-.02-.14-.07-.28-.14-.4-.07-.12-.17-.21-.29-.28-.16-.07-.33-.1-.51-.1-.21,0-.41.05-.59.15-.18.1-.33.26-.42.45-.03-.08-.07-.16-.12-.23-.05-.07-.11-.13-.17-.19-.08-.06-.17-.11-.26-.13-.12-.03-.24-.05-.37-.05-.2,0-.39.05-.56.14-.17.09-.31.23-.4.41h0v-.46h-.36v3.11h.36v-1.7c0-.07,0-.14,0-.21,0-.08,0-.15,0-.23.02-.07.04-.15.07-.22.02-.06.05-.13.09-.18.09-.12.2-.21.33-.27.12-.05.25-.08.38-.08.2-.03.39.05.53.19.1.16.14.34.13.53v2.15h.36v-1.68c0-.07,0-.14,0-.21,0-.15.04-.3.09-.45.03-.06.06-.12.1-.18.08-.11.19-.21.32-.27.12-.05.25-.08.38-.08.2-.03.39.05.53.19.1.16.15.34.14.53v2.15h.36l.02-1.95Z"/>
  <path class="uuid-699cbd04-01fe-4b43-89a0-cc489cc6b7da" d="M1.4,22.6h0c.18.11.38.16.59.14,35.17-.05,70.83-.63,106-1.75,1.95-.06,3.59,1.47,3.65,3.43,0,.07,0,.14,0,.21l-.35,12.44c-.04,2.21,1.72,4.03,3.93,4.07,0,0,.01,0,.02,0h.38c12.91-1.26,26.09-1.85,38.84-2.42,12.58-.56,25.59-1.15,38.34-2.37,35.12-3.35,61.18-11.23,82-24.79l1-.64-1.15-.26C238.86,2.54,201.65,2.15,165.65,1.76l-62.38.12L2.22,0h0C1.52,0,.93.51.82,1.2-.22,7.95-.27,14.81.66,21.58c.06.44.34.83.74,1.02ZM5.45,1.06l81.21,1.49-.24,18c-27,.69-54.2,1.07-81.13,1.13-.97-6.84-.92-13.79.16-20.62ZM87.66,2.57l14.69.27-.63,17.32c-4.76.15-9.53.28-14.3.4l.24-17.99ZM273.25,11.35c-20.52,13.07-46.17,20.7-80.56,24-12.72,1.21-25.72,1.8-38.28,2.36-12.77.57-26,1.17-38.89,2.42-1.65.13-3.1-1.1-3.23-2.75,0-.08,0-.17,0-.25l.35-12.45c.07-2.5-1.9-4.59-4.4-4.66-.04,0-.09,0-.13,0h-.15c-1.74.06-3.49.09-5.23.15l.63-17.28,62.29-.12c35.54.35,72.28.74,107.61,8.58ZM1.79,1.35c.04-.2.21-.34.41-.35h2.23c-1.07,6.87-1.12,13.86-.15,20.74H1.98s-.1.01-.15,0c-.1-.05-.17-.15-.19-.26-.92-6.68-.87-13.46.15-20.13h0Z"/>
  <path class="uuid-a99b5c57-3f6d-4730-9d5a-c7ebbdd0d207" d="M125.83,37.65c2.44,0,4.42-2.54,4.42-5.66s-2-5.66-4.42-5.66-4.42,2.54-4.42,5.66,1.99,5.66,4.42,5.66ZM125.83,26.58c2.3,0,4.17,2.42,4.17,5.41s-1.87,5.41-4.17,5.41-4.17-2.43-4.17-5.41,1.87-5.41,4.17-5.41Z"/>
  <path class="uuid-a99b5c57-3f6d-4730-9d5a-c7ebbdd0d207" d="M138.85,36.82c2.43,0,4.42-2.54,4.42-5.66s-2-5.67-4.42-5.67-4.42,2.55-4.42,5.67,1.98,5.66,4.42,5.66ZM138.85,25.74c2.3,0,4.17,2.43,4.17,5.42s-1.87,5.41-4.17,5.41-4.17-2.43-4.17-5.41,1.85-5.42,4.17-5.42Z"/>
  <path class="uuid-a99b5c57-3f6d-4730-9d5a-c7ebbdd0d207" d="M150.76,35.99c2.43,0,4.41-2.54,4.41-5.66s-2-5.67-4.41-5.67-4.42,2.54-4.42,5.67,1.98,5.66,4.42,5.66ZM150.76,24.91c2.29,0,4.16,2.43,4.16,5.42s-1.87,5.41-4.16,5.41-4.17-2.43-4.17-5.41,1.87-5.42,4.17-5.42Z"/>
  <path class="uuid-a99b5c57-3f6d-4730-9d5a-c7ebbdd0d207" d="M163.22,35.16c2.43,0,4.42-2.54,4.42-5.66s-2-5.67-4.42-5.67-4.42,2.54-4.42,5.67,1.98,5.66,4.42,5.66ZM163.22,24.08c2.3,0,4.17,2.43,4.17,5.42s-1.87,5.41-4.17,5.41-4.17-2.43-4.17-5.41,1.87-5.42,4.17-5.42Z"/>
  <path class="uuid-a99b5c57-3f6d-4730-9d5a-c7ebbdd0d207" d="M174.53,34.05c2.44,0,4.42-2.54,4.42-5.66s-2-5.66-4.42-5.66-4.41,2.54-4.41,5.66,2.02,5.66,4.41,5.66ZM174.53,22.98c2.3,0,4.17,2.42,4.17,5.41s-1.87,5.41-4.17,5.41-4.16-2.43-4.16-5.41,1.91-5.41,4.16-5.41h0Z"/>
  <path class="uuid-a99b5c57-3f6d-4730-9d5a-c7ebbdd0d207" d="M187.04,32.95c2.43,0,4.41-2.55,4.41-5.67s-2-5.66-4.41-5.66-4.42,2.54-4.42,5.66,1.98,5.67,4.42,5.67ZM187.04,21.87c2.29,0,4.16,2.43,4.16,5.41s-1.87,5.46-4.16,5.46-4.17-2.43-4.17-5.42,1.87-5.45,4.17-5.45Z"/>
  <path class="uuid-a99b5c57-3f6d-4730-9d5a-c7ebbdd0d207" d="M198.81,31.28c2.2,0,4-2.54,4-5.66s-1.8-5.66-4-5.66-4,2.54-4,5.66,1.79,5.66,4,5.66ZM198.81,20.21c2.06,0,3.75,2.42,3.75,5.41s-1.69,5.41-3.75,5.41-3.76-2.43-3.76-5.41,1.69-5.41,3.76-5.41Z"/>
  <path class="uuid-a99b5c57-3f6d-4730-9d5a-c7ebbdd0d207" d="M210.44,28.79c2,0,3.72-2.17,3.72-4.83s-1.67-4.83-3.72-4.83-3.73,2.16-3.73,4.83,1.67,4.83,3.73,4.83ZM210.44,19.38c1.91,0,3.47,2.05,3.47,4.58s-1.56,4.58-3.47,4.58-3.48-2.05-3.48-4.58,1.57-4.58,3.48-4.58Z"/>
  <path class="uuid-a99b5c57-3f6d-4730-9d5a-c7ebbdd0d207" d="M222.07,26.58c2,0,3.72-2.17,3.72-4.84s-1.67-4.83-3.72-4.83-3.73,2.17-3.73,4.83,1.67,4.84,3.73,4.84ZM222.07,17.16c1.91,0,3.47,2.06,3.47,4.58s-1.56,4.59-3.47,4.59-3.48-2.06-3.48-4.59,1.56-4.58,3.48-4.58Z"/>
  <path class="uuid-a99b5c57-3f6d-4730-9d5a-c7ebbdd0d207" d="M233.7,24.08c2.05,0,3.72-2.16,3.72-4.83s-1.67-4.83-3.72-4.83-3.73,2.17-3.73,4.83,1.68,4.83,3.73,4.83ZM233.7,14.67c1.92,0,3.47,2,3.47,4.58s-1.55,4.58-3.47,4.58-3.48-2.05-3.48-4.58,1.56-4.58,3.48-4.58Z"/>
</svg>