<?xml version="1.0" encoding="UTF-8"?>
<svg id="uuid-e0a7c699-5f19-4e00-9eb3-ceb5b6811446" data-name="Layer_1" xmlns="http://www.w3.org/2000/svg" width="275.62" height="69.29" viewBox="0 0 275.62 69.29">
  <defs>
    <style>
      .uuid-a329c9e8-2d74-43c6-8290-a85a84b8cb5a {
        opacity: .6;
      }

      .uuid-a329c9e8-2d74-43c6-8290-a85a84b8cb5a, .uuid-b3e08f58-99b1-47ea-8fe9-4e51e1bbfe72 {
        isolation: isolate;
      }

      .uuid-a329c9e8-2d74-43c6-8290-a85a84b8cb5a, .uuid-b3e08f58-99b1-47ea-8fe9-4e51e1bbfe72, .uuid-d1e395d7-9c7a-4125-8f48-8c1df3d68544 {
        fill: #273a5b;
      }

      .uuid-ea8bd611-3b19-4bc8-b3a7-ca30516c109b {
        fill: none;
      }

      .uuid-b3e08f58-99b1-47ea-8fe9-4e51e1bbfe72 {
        opacity: .25;
      }
    </style>
  </defs>
  <path class="uuid-ea8bd611-3b19-4bc8-b3a7-ca30516c109b" d="M83.91,16.75c-.31-4.44-.03-8.91.83-13.28C58.74,2.77,32.83,1.99,7,1.12c-1.25,1.68-2.06,3.65-2.37,5.72-.35,2.42-.35,4.88,0,7.3.19,2.64.97,5.21,2.29,7.51,22.68-.42,45.56-.64,68.37-.64h9.18c-.28-1.41-.46-2.83-.56-4.26Z"/>
  <path class="uuid-ea8bd611-3b19-4bc8-b3a7-ca30516c109b" d="M99.68,18.5c-1.54-2.02-2.44-4.46-2.56-7-.17-1.87.22-3.75,1.13-5.39.47-.84,1.11-1.58,1.87-2.18l-14.37-.43c-.86,4.34-1.15,8.77-.84,13.18.09,1.46.29,2.92.58,4.36h1.65s0-.08,0-.12l.5-.07c0,.06,0,.13,0,.19,5.09,0,10.18.03,15.25.09-1.23-.66-2.32-1.55-3.21-2.63Z"/>
  <path class="uuid-ea8bd611-3b19-4bc8-b3a7-ca30516c109b" d="M5.76,21.67c-1.2-2.3-1.92-4.82-2.12-7.41-.36-2.52-.36-5.07,0-7.59.32-2,1.06-3.9,2.17-5.59l-2.14-.07c-1.28,1.71-2.12,3.71-2.43,5.83-.35,2.42-.35,4.88,0,7.3.19,2.67.98,5.25,2.31,7.57l2.21-.04Z"/>
  <path class="uuid-ea8bd611-3b19-4bc8-b3a7-ca30516c109b" d="M99.11,6.58c-.81,1.47-1.16,3.15-1,4.82.11,2.33.93,4.58,2.35,6.43,1.38,1.77,3.39,2.96,5.61,3.32h3c1.99.02,3.61,1.6,3.66,3.59.17,6.46.24,13,.21,19.44,31.51-1,64.07-2.08,96.18-7.44,27.72-4.62,48.08-11.79,64.07-22.57l.12-.08c-30.84-7.84-68-7.92-68.42-7.92-34.07-.61-68.38-1.36-102.69-2.25-1.34.45-2.44,1.41-3.09,2.66Z"/>
  <path class="uuid-b3e08f58-99b1-47ea-8fe9-4e51e1bbfe72" d="M112.67,57.5v-6h-.5v6.49h.25l68.92.06v-.5l-68.67-.05Z"/>
  <path class="uuid-b3e08f58-99b1-47ea-8fe9-4e51e1bbfe72" d="M275,52.5h-.52v5.19l-68.66-.06v.5l68.91.06h.26v-5.69h0Z"/>
  <path class="uuid-a329c9e8-2d74-43c6-8290-a85a84b8cb5a" d="M184.32,58.92c.04-.08.08-.15.13-.22l.17-.19.2-.16c.11-.09.23-.17.36-.23l.4-.23.4-.25c.26-.17.47-.4.6-.68.06-.16.09-.33.09-.5,0-.16-.03-.31-.09-.46-.05-.14-.13-.27-.24-.37-.12-.11-.26-.19-.41-.25-.18-.06-.38-.09-.57-.09-.19,0-.38.03-.56.09-.17.06-.32.16-.44.29-.12.12-.21.27-.28.43-.06.19-.09.38-.09.58h.41c0-.14,0-.28.05-.41.04-.12.1-.24.19-.34.08-.1.18-.18.3-.23.11-.06.24-.09.37-.09.13,0,.25.02.37.06.11.03.21.09.3.17.08.08.15.18.2.28.05.11.07.24.07.36,0,.15-.03.3-.09.43-.07.12-.15.22-.25.31-.11.1-.23.19-.36.26-.14.07-.28.16-.43.25l-.47.33c-.17.13-.32.27-.46.43-.12.14-.21.3-.26.48-.05.18-.07.37-.07.56h2.77v-.33h-2.36c0-.1.02-.19.05-.28Z"/>
  <path class="uuid-a329c9e8-2d74-43c6-8290-a85a84b8cb5a" d="M190.01,57.5v-.5c-.02-.17-.04-.34-.08-.51-.03-.16-.08-.31-.15-.46-.12-.29-.36-.52-.65-.63-.17-.06-.36-.09-.54-.09-.26-.01-.52.05-.74.18-.18.13-.33.29-.43.49-.1.22-.17.45-.21.69-.04.26-.05.53-.05.79,0,.28.01.56.06.83.03.24.11.47.22.69.1.2.25.36.44.48.22.12.46.18.71.17.25,0,.5-.05.72-.17.18-.12.33-.28.44-.47.11-.21.18-.44.21-.68.04-.27.06-.54.05-.81ZM189.45,58.7c-.07.17-.17.32-.31.44-.16.12-.36.18-.56.17-.18,0-.35-.04-.5-.14-.14-.08-.26-.21-.33-.36-.09-.18-.14-.37-.16-.57-.04-.24-.06-.49-.06-.74-.02-.23-.02-.45,0-.68.02-.21.08-.42.16-.61.07-.16.17-.31.31-.42.15-.11.33-.16.52-.16.2,0,.39.05.55.16.14.11.25.25.32.41.08.19.13.39.15.59.02.22.02.45,0,.67.01.22.01.43,0,.65,0,.19-.01.38-.06.57l-.03.02Z"/>
  <path class="uuid-a329c9e8-2d74-43c6-8290-a85a84b8cb5a" d="M193.3,58.02c-.02-.1-.06-.21-.11-.3-.07-.1-.14-.18-.23-.26-.12-.08-.24-.14-.38-.18.19-.08.35-.21.46-.38.1-.17.14-.37.14-.57,0-.16-.03-.32-.1-.46-.06-.13-.15-.24-.26-.33-.11-.09-.24-.15-.37-.19-.16-.05-.32-.07-.48-.06-.17-.02-.34-.02-.51,0-.17.04-.32.12-.45.24-.13.12-.24.27-.31.43-.07.17-.1.34-.1.52h.38c0-.13.03-.25.07-.37.04-.11.11-.21.19-.29.08-.08.18-.14.29-.18.11-.05.24-.07.36-.07.12-.02.23-.02.35,0,.1.03.2.08.29.14.08.06.14.13.19.22.05.11.08.23.07.35.01.14-.02.28-.09.4-.06.1-.14.19-.24.25-.12.06-.25.1-.39.12-.16.02-.33.02-.49,0v.45c.17-.01.35-.01.52,0,.15.02.3.07.44.14.12.06.22.15.28.27.09.13.13.28.12.43.01.12,0,.25-.06.36-.06.11-.13.22-.22.31-.1.09-.22.16-.34.21-.14.05-.28.08-.43.08-.27.01-.54-.08-.75-.26-.21-.18-.32-.45-.3-.73h-.36c.01.21.06.42.13.62.06.16.16.29.29.4.13.11.28.18.45.22.21.05.42.08.64.07.2,0,.39-.04.58-.11.16-.07.3-.16.43-.28.11-.12.2-.25.26-.4.06-.16.09-.33.09-.5,0-.1-.02-.21-.05-.31Z"/>
  <path class="uuid-a329c9e8-2d74-43c6-8290-a85a84b8cb5a" d="M198.21,57.56c.01-.15.01-.31,0-.46-.02-.14-.07-.27-.14-.39-.07-.12-.17-.22-.29-.28-.16-.08-.33-.11-.51-.1-.21,0-.41.05-.59.14-.19.1-.33.27-.42.46,0-.09-.08-.16-.12-.24-.05-.07-.11-.13-.17-.19-.08-.05-.17-.09-.26-.12-.12-.02-.25-.02-.37,0-.19,0-.39.05-.56.13-.17.1-.31.24-.4.42h0v-.47h-.36v3.04h.36v-1.68c0-.07,0-.14,0-.21,0-.08,0-.15,0-.23.02-.08.04-.15.07-.22.02-.07.05-.13.09-.18.09-.12.2-.21.33-.27.11-.06.24-.09.37-.09.2-.02.39.05.53.19.1.16.15.34.14.53v2.16h.36v-2.12c.02-.08.04-.15.07-.22.03-.06.06-.12.1-.18.08-.11.19-.21.32-.27.12-.06.25-.09.38-.09.2-.02.39.05.53.19.1.16.15.34.14.53v2.16h.36l.04-1.94Z"/>
  <path class="uuid-a329c9e8-2d74-43c6-8290-a85a84b8cb5a" d="M203.21,57.56c.01-.15.01-.31,0-.46-.02-.14-.07-.27-.14-.39-.06-.12-.16-.22-.28-.28-.16-.08-.34-.11-.52-.1-.21,0-.41.05-.59.14-.19.1-.33.27-.42.46-.03-.08-.07-.17-.12-.24-.05-.07-.1-.14-.17-.19-.08-.05-.17-.09-.26-.12-.12-.02-.25-.02-.37,0-.19,0-.39.05-.56.13-.17.1-.31.24-.4.42h0v-.47h-.36v3.04h.36v-1.89c0-.08,0-.15,0-.23.02-.08.04-.15.07-.22.02-.07.05-.13.1-.18.08-.12.19-.21.32-.27.12-.06.25-.09.38-.09.2-.02.39.05.53.19.1.16.15.34.14.53v2.16h.36v-1.68c0-.07,0-.14,0-.21,0-.08,0-.15,0-.23.02-.08.04-.15.07-.22.02-.07.05-.13.09-.18.09-.12.2-.21.33-.27.12-.06.25-.09.38-.09.19-.02.39.05.52.19.1.16.15.34.14.53v2.16h.36l.04-1.94Z"/>
  <polygon class="uuid-b3e08f58-99b1-47ea-8fe9-4e51e1bbfe72" points="1.5 67.44 1.5 61.31 1 61.31 1 67.56 .99 67.94 126.16 67.94 126.16 67.44 1.5 67.44"/>
  <polygon class="uuid-b3e08f58-99b1-47ea-8fe9-4e51e1bbfe72" points="274.5 67.44 150.66 67.44 150.66 67.94 275 67.94 275 61.5 274.5 61.5 274.5 67.44"/>
  <path class="uuid-a329c9e8-2d74-43c6-8290-a85a84b8cb5a" d="M131.48,67.7c-.02-.11-.06-.21-.12-.3-.06-.1-.14-.19-.23-.26-.11-.08-.24-.15-.37-.19.18-.08.34-.2.45-.37.1-.17.16-.37.15-.57,0-.16-.03-.32-.1-.47-.06-.13-.15-.24-.26-.33-.11-.09-.24-.15-.38-.19-.15-.04-.31-.06-.47-.06-.17-.02-.34-.02-.51,0-.17.04-.32.12-.45.23-.13.12-.23.27-.31.43-.07.16-.1.34-.1.52h.38c0-.12.02-.25.07-.36.04-.11.11-.21.19-.29.08-.09.17-.15.28-.19.12-.04.24-.06.37-.06.12-.01.23-.01.35,0,.1.03.2.07.29.13.18.14.27.35.26.57,0,.14-.03.28-.09.4-.06.1-.14.19-.24.25-.12.07-.25.11-.39.13-.16.01-.33.01-.49,0v.32c.17-.02.35-.02.52,0,.15.01.3.06.43.13.26.14.41.41.41.7,0,.12-.01.25-.06.36-.06.11-.13.22-.22.31-.1.09-.21.16-.34.21-.14.06-.28.09-.43.08-.28.01-.55-.08-.76-.25-.21-.19-.31-.46-.29-.74h-.39c.02.21.07.42.14.62.12.32.4.56.74.63.21.04.42.06.63.06.2,0,.4-.04.59-.11.16-.06.3-.16.42-.28.12-.11.21-.25.27-.4.06-.16.09-.32.09-.49,0-.06-.02-.11-.03-.17Z"/>
  <path class="uuid-a329c9e8-2d74-43c6-8290-a85a84b8cb5a" d="M134.78,67.88c0-.2-.03-.4-.09-.59-.06-.17-.16-.32-.29-.44-.12-.12-.26-.21-.42-.28-.16-.05-.33-.07-.5-.07h-.26c-.08,0-.15,0-.23,0l-.21.09-.23.13.26-1.42h1.78v-.33h-2.11l-.34,2.2h.31c.11-.14.25-.26.41-.34.16-.07.34-.1.51-.1.15,0,.3.02.44.08.12.05.24.13.33.22.09.1.16.21.21.34.05.14.08.29.08.44,0,.14-.03.28-.07.42-.04.12-.11.24-.2.34-.09.1-.2.18-.32.24-.14.05-.28.08-.43.08-.25,0-.5-.07-.7-.22-.2-.16-.32-.39-.35-.64h-.38c.01.19.06.38.15.55.07.15.18.28.32.37.14.1.29.17.46.2.18.05.37.07.56.06.17,0,.35-.03.51-.09.16-.06.3-.15.42-.27.13-.12.24-.28.3-.45.06-.17.09-.34.08-.52Z"/>
  <path class="uuid-a329c9e8-2d74-43c6-8290-a85a84b8cb5a" d="M138.17,67.91c.02-.37-.1-.73-.35-1-.27-.25-.63-.38-1-.36-.14,0-.27.02-.4.06-.1.04-.2.09-.29.15-.08.06-.16.13-.23.21l-.19.24c0-.19,0-.41.07-.63.02-.22.08-.43.16-.63.08-.18.2-.34.35-.47.18-.13.39-.19.61-.18.2-.01.39.06.54.19.14.14.23.32.27.52h.39c-.02-.3-.16-.58-.39-.77-.24-.19-.54-.28-.85-.27-.27-.01-.54.06-.76.22-.2.14-.36.33-.47.55-.12.23-.2.48-.24.74-.04.26-.06.53-.06.79,0,.32.03.63.11.94.06.23.17.44.31.63.12.16.29.28.47.35.19.07.39.1.59.1.37.02.73-.11,1-.36.25-.28.38-.65.36-1.02ZM137.57,68.62c-.3.34-.79.44-1.2.24-.11-.06-.21-.14-.29-.24-.08-.1-.14-.22-.17-.34-.04-.12-.05-.24-.05-.36,0-.14.02-.28.06-.41.04-.12.11-.23.19-.33.08-.1.18-.18.3-.23.13-.05.26-.08.4-.08.27-.02.54.08.74.26.17.22.25.49.23.77.01.12.01.25,0,.37-.05.13-.12.25-.21.35h0Z"/>
  <path class="uuid-a329c9e8-2d74-43c6-8290-a85a84b8cb5a" d="M143.04,67.23v-.45c-.03-.14-.07-.27-.14-.4-.07-.11-.17-.21-.29-.28-.36-.15-.77-.13-1.11.05-.18.11-.33.26-.42.45-.03-.08-.07-.16-.11-.23-.05-.07-.11-.14-.18-.19-.07-.06-.16-.11-.25-.13-.12-.03-.24-.05-.37-.05-.2,0-.39.05-.57.14-.17.1-.3.24-.39.41h0v-.46h-.36v3.11h.36v-1.7c0-.07,0-.14,0-.21,0-.08,0-.15,0-.23.02-.07.04-.15.06-.22.03-.06.06-.12.1-.18.08-.11.19-.21.32-.27.12-.05.25-.08.38-.08.2-.03.39.04.53.19.1.16.15.34.14.53v2.15h.36v-1.89c0-.08,0-.15,0-.23.02-.07.04-.15.07-.22.02-.07.05-.13.1-.18.08-.12.19-.21.32-.27.12-.05.25-.08.38-.08.2-.03.39.05.53.19.1.16.15.34.14.53v2.15h.36l.04-1.95Z"/>
  <path class="uuid-a329c9e8-2d74-43c6-8290-a85a84b8cb5a" d="M148.04,67.23c0-.15,0-.3,0-.45-.02-.14-.07-.28-.14-.4-.07-.12-.17-.21-.29-.28-.16-.07-.33-.1-.51-.1-.21,0-.41.05-.59.15-.18.1-.33.26-.42.45-.03-.08-.07-.16-.12-.23-.05-.07-.11-.13-.17-.19-.08-.06-.17-.11-.26-.13-.12-.03-.24-.05-.37-.05-.2,0-.39.05-.56.14-.17.09-.31.23-.4.41h0v-.46h-.36v3.11h.36v-1.7c0-.07,0-.14,0-.21,0-.08,0-.15,0-.23.02-.07.04-.15.07-.22.02-.06.05-.13.09-.18.09-.12.2-.21.33-.27.12-.05.25-.08.38-.08.2-.03.39.05.53.19.1.16.14.34.13.53v2.15h.36v-1.68c0-.07,0-.14,0-.21,0-.15.04-.3.09-.45.03-.06.06-.12.1-.18.08-.11.19-.21.32-.27.12-.05.25-.08.38-.08.2-.03.39.05.53.19.1.16.15.34.14.53v2.15h.36l.02-1.95Z"/>
  <path class="uuid-d1e395d7-9c7a-4125-8f48-8c1df3d68544" d="M3.04,22.72h.26c34.07-.66,68.61-.84,102.72-.56h3.02c1.45,0,2.64,1.17,2.67,2.62.17,6.62.24,13.32.21,19.92v.52h.52c31.69-1,64.47-2.07,96.82-7.46,17.54-2.93,43.3-8.46,64.47-22.73l1-.71.89-.62-1.05-.27c-31.14-8.14-69.28-8.23-69.73-8.23h0C138.05,4,70.29,2.25,3.48,0h-.25l-.16.19C1.59,2.07.63,4.31.27,6.68-.09,9.2-.09,11.75.27,14.27c.27,2.32.84,5.7,2.64,8.24l.13.21ZM75.29,21.01c-22.81,0-45.69.22-68.37.64-1.32-2.3-2.1-4.87-2.29-7.51-.35-2.42-.35-4.88,0-7.3.31-2.07,1.12-4.04,2.37-5.72,25.81.86,51.72,1.64,77.74,2.35-.86,4.37-1.14,8.84-.83,13.28.09,1.44.28,2.87.56,4.28l-9.18-.02ZM87.65,21.01c0-.06,0-.13,0-.19l-.5.07s0,.08,0,.12h-1.67c-.29-1.44-.49-2.9-.58-4.36-.31-4.41-.02-8.84.84-13.18l14.37.39c-.76.6-1.4,1.34-1.87,2.18-.91,1.64-1.3,3.52-1.13,5.39.12,2.54,1.02,4.98,2.56,7,.88,1.1,1.98,2.01,3.22,2.68-5.07-.03-10.15-.05-15.24-.07v-.03ZM273.29,14.08l-.12.08c-16,10.78-36.35,17.95-64.07,22.57-32.11,5.36-64.67,6.43-96.18,7.44,0-6.45,0-13-.21-19.44-.05-1.99-1.67-3.57-3.66-3.59h-3c-2.22-.36-4.23-1.55-5.61-3.32-1.42-1.85-2.24-4.1-2.35-6.43-.16-1.67.19-3.35,1-4.82.64-1.24,1.74-2.19,3.07-2.64,34.31.89,68.62,1.64,102.69,2.25.4,0,37.63.09,68.44,7.93v-.03ZM1.29,6.81c.31-2.12,1.15-4.12,2.43-5.83l2.14.07c-1.11,1.69-1.85,3.59-2.17,5.59-.36,2.52-.36,5.07,0,7.59.2,2.59.92,5.11,2.12,7.41h-2.21c-1.33-2.32-2.12-4.9-2.31-7.57-.36-2.4-.38-4.83-.05-7.23l.05-.03Z"/>
</svg>