<?xml version="1.0" encoding="UTF-8"?>
<svg id="uuid-19132a80-8ca8-40f3-b1c7-ba1759f6b3c8" data-name="Layer_1" xmlns="http://www.w3.org/2000/svg" width="274.81" height="63.98" viewBox="0 0 274.81 63.98">
  <defs>
    <style>
      .uuid-2e954659-4ca1-4af8-b9a6-a77e2a36a3c5 {
        opacity: .6;
      }

      .uuid-2e954659-4ca1-4af8-b9a6-a77e2a36a3c5, .uuid-3456847a-3959-4e12-b5b1-e52f39cb7956, .uuid-a06c1105-9f24-4a3d-8473-4b93d5dffef5 {
        isolation: isolate;
      }

      .uuid-2e954659-4ca1-4af8-b9a6-a77e2a36a3c5, .uuid-3456847a-3959-4e12-b5b1-e52f39cb7956, .uuid-a06c1105-9f24-4a3d-8473-4b93d5dffef5, .uuid-1b8b6af9-5312-4235-8430-b63344ddd684 {
        fill: #273a5b;
      }

      .uuid-76c121a6-5755-400f-b963-9539c323d3ec {
        fill: none;
      }

      .uuid-3456847a-3959-4e12-b5b1-e52f39cb7956 {
        opacity: .25;
      }

      .uuid-a06c1105-9f24-4a3d-8473-4b93d5dffef5 {
        opacity: .4;
      }
    </style>
  </defs>
  <path class="uuid-76c121a6-5755-400f-b963-9539c323d3ec" d="M94.83,4.79c-.8,1.27-1.26,2.72-1.32,4.22-.21,2.22-.11,4.45.31,6.64.12.86.42,1.68.87,2.42.32.47.78.82,1.31,1l4.84-.5h.16c.87.01,1.56.72,1.55,1.59,0,.01,0,.02,0,.03l-.74,18.46c22.68-1.35,45.65-2.89,68.28-4.59,32.22-2.41,72.26-5.41,102.75-17.57-6.26-4.85-14.34-8.19-24-9.95-9.05-1.64-18.4-1.74-27.45-1.83-9.67-.11-21.76-.18-33.45-.26-21.57-.13-43.87-.27-51.87-.58l-39.24-.83c-.82.38-1.52.99-2,1.75Z"/>
  <path class="uuid-76c121a6-5755-400f-b963-9539c323d3ec" d="M94.03,4.2c.3-.44.63-.85,1-1.23l-13.07-.28-.24,17.82,12.68-1.3c-.19-.18-.36-.37-.51-.58-.52-.85-.87-1.81-1-2.8-.44-2.28-.55-4.61-.33-6.92.07-1.67.57-3.3,1.47-4.71Z"/>
  <path class="uuid-76c121a6-5755-400f-b963-9539c323d3ec" d="M70.24,14.71c1.6,0,2.89-1.29,2.89-2.89s-1.29-2.89-2.89-2.89-2.89,1.29-2.89,2.89h0c0,1.59,1.3,2.88,2.89,2.89Z"/>
  <path class="uuid-76c121a6-5755-400f-b963-9539c323d3ec" d="M7.2,17.61c.52.45,1.07.89,1.64,1.3,2.35,1.66,4.89,3.05,7.55,4.15.69.27,1.44.27,2.13,0,5.03-1.58,10.3-2.26,15.56-2,3.35.07,6.74.35,10,.63,2.76.24,5.61.48,8.41.59,8.76.34,17.64-.57,26.23-1.46l2-.2.28-18L3.88.99c-1.24-.04-2.33.8-2.62,2-.5,2.49-.27,5.07.67,7.43,1.14,2.8,2.95,5.27,5.27,7.19ZM70.2,8.19c2.01,0,3.64,1.63,3.64,3.64s-1.63,3.64-3.64,3.64c-2.01,0-3.64-1.63-3.64-3.64,0,0,0,0,0,0,0-2.01,1.64-3.64,3.65-3.63.01,0,.02,0,.03,0h-.04ZM43.03,8.19c2.01,0,3.64,1.63,3.64,3.64s-1.63,3.64-3.64,3.64c-2.01,0-3.64-1.63-3.64-3.64,0,0,0,0,0,0,0-2.01,1.64-3.64,3.65-3.63.01,0,.02,0,.03,0h-.04ZM14.77,8.19c2.01,0,3.64,1.62,3.65,3.63,0,2.01-1.62,3.64-3.63,3.65-2.01,0-3.64-1.62-3.65-3.63,0,0,0-.01,0-.02,0-2.01,1.64-3.64,3.65-3.63,0,0,.01,0,.02,0h-.04Z"/>
  <circle class="uuid-76c121a6-5755-400f-b963-9539c323d3ec" cx="43.07" cy="11.82" r="2.89"/>
  <circle class="uuid-76c121a6-5755-400f-b963-9539c323d3ec" cx="14.81" cy="11.82" r="2.89"/>
  <path class="uuid-1b8b6af9-5312-4235-8430-b63344ddd684" d="M6.51,18.37c.54.46,1.11.92,1.7,1.35,2.42,1.7,5.01,3.12,7.74,4.26.91.38,1.93.41,2.86.07,4.91-1.56,10.06-2.24,15.21-2,3.32.07,6.69.35,10,.63,2.77.23,5.64.48,8.47.59,8.82.34,17.74-.57,26.36-1.46l22.1-2.3c.16-.03.32.03.44.14.12.11.18.27.17.43l-.79,19.57h.56c22.86-1.35,46-2.91,68.85-4.62,32.57-2.44,73.11-5.48,103.85-18l.78-.32-.66-.53c-6.49-5.25-14.94-8.84-25.13-10.69-9.13-1.66-18.53-1.76-27.62-1.85-9.67-.11-21.76-.18-33.45-.26-21.56-.13-43.85-.27-51.85-.58L3.9,0h0C2.18-.05.67,1.11.28,2.78-.26,5.46-.01,8.24,1,10.78c1.18,2.95,3.08,5.55,5.51,7.59ZM92.81,15.84c.13.99.48,1.95,1,2.8.15.21.32.4.51.58l-12.6,1.29.28-17.83,13.07.28c-.37.38-.7.79-1,1.23-.91,1.41-1.43,3.04-1.51,4.72-.23,2.31-.14,4.65.29,6.93h-.04ZM187.9,4.42c11.69.08,23.78.15,33.45.26,9.05.09,18.4.19,27.45,1.83,9.67,1.76,17.75,5.1,24,9.95-30.49,12.16-70.53,15.16-102.75,17.57-22.63,1.7-45.6,3.24-68.28,4.59l.74-18.46c.04-.87-.62-1.6-1.49-1.65,0,0,0,0-.01,0h-.16l-4.84.5c-.53-.18-.99-.53-1.31-1-.45-.74-.75-1.56-.87-2.42-.42-2.19-.52-4.42-.31-6.64.06-1.5.51-2.95,1.31-4.22.48-.78,1.17-1.39,2-1.78l39.24.83c8,.37,30.3.51,51.87.64h-.04ZM1.22,3.02c.29-1.2,1.38-2.04,2.62-2l77.12,1.63-.28,18-2,.2c-8.59.89-17.47,1.8-26.23,1.46-2.8-.11-5.65-.35-8.41-.59-3.28-.28-6.67-.56-10-.63-5.26-.26-10.53.42-15.56,2-.69.27-1.44.27-2.13,0-2.66-1.1-5.2-2.49-7.55-4.15-.57-.41-1.12-.85-1.64-1.3-2.32-1.92-4.13-4.38-5.27-7.16-.93-2.37-1.15-4.96-.63-7.46h-.04Z"/>
  <path class="uuid-3456847a-3959-4e12-b5b1-e52f39cb7956" d="M70.24,15.51c2.01,0,3.64-1.63,3.64-3.64s-1.63-3.64-3.64-3.64-3.64,1.63-3.64,3.64h0c0,2.01,1.63,3.63,3.64,3.64ZM70.24,8.99c1.6,0,2.89,1.29,2.89,2.89s-1.29,2.89-2.89,2.89c-1.6,0-2.89-1.29-2.89-2.89,0,0,0,0,0,0-.02-1.6,1.25-2.91,2.85-2.93.01,0,.03,0,.04,0v.05Z"/>
  <path class="uuid-3456847a-3959-4e12-b5b1-e52f39cb7956" d="M43.07,15.51c2.01,0,3.64-1.63,3.64-3.64s-1.63-3.64-3.64-3.64-3.64,1.63-3.64,3.64h0c0,2.01,1.63,3.64,3.64,3.64ZM43.07,8.99c1.6,0,2.89,1.29,2.89,2.89s-1.29,2.89-2.89,2.89c-1.6,0-2.89-1.29-2.89-2.89,0,0,0,0,0,0-.03-1.59,1.24-2.9,2.83-2.93.02,0,.04,0,.06,0v.05Z"/>
  <path class="uuid-3456847a-3959-4e12-b5b1-e52f39cb7956" d="M14.81,15.51c2.01,0,3.64-1.62,3.65-3.63,0-2.01-1.62-3.64-3.63-3.65-2.01,0-3.64,1.62-3.65,3.63,0,0,0,0,0,0,0,2.01,1.62,3.63,3.63,3.64ZM14.81,8.99c1.6,0,2.89,1.28,2.9,2.88,0,1.6-1.28,2.89-2.88,2.9-1.6,0-2.89-1.28-2.9-2.88,0,0,0-.01,0-.02-.02-1.6,1.25-2.91,2.85-2.93.01,0,.02,0,.03,0v.05Z"/>
  <path class="uuid-a06c1105-9f24-4a3d-8473-4b93d5dffef5" d="M101.51,52.39v-6.38h-.5v6.88h.25l71.6.06v-.5l-71.35-.06Z"/>
  <path class="uuid-a06c1105-9f24-4a3d-8473-4b93d5dffef5" d="M274.09,47.01h-.5v5.53l-76.2-.07v.5l76.45.07h.25v-6.03Z"/>
  <path class="uuid-2e954659-4ca1-4af8-b9a6-a77e2a36a3c5" d="M175.89,53.62c.03-.08.07-.16.13-.22.05-.07.11-.13.17-.19l.2-.17c.11-.08.23-.16.36-.22l.4-.23.4-.25c.13-.09.25-.19.35-.3.1-.11.18-.24.25-.38.06-.16.09-.33.09-.5,0-.16-.03-.31-.09-.46-.05-.14-.13-.27-.24-.37-.12-.11-.26-.2-.41-.26-.18-.06-.38-.09-.57-.09-.19,0-.38.03-.56.1-.16.06-.32.16-.44.28-.12.13-.21.28-.28.44-.06.18-.1.38-.1.57h.41c0-.14.02-.28.06-.41.04-.12.11-.23.19-.33.08-.1.18-.18.3-.24.12-.05.24-.08.37-.08.12-.02.25-.02.37,0,.11.04.21.1.3.18.08.08.15.17.19.27.05.12.08.24.08.37,0,.15-.03.3-.09.43-.07.12-.15.22-.25.31-.11.1-.23.18-.36.25l-.43.26-.47.33c-.17.13-.32.27-.46.43-.13.14-.22.3-.26.48-.05.18-.07.36-.07.55h2.77v-.32h-2.36c0-.08.02-.16.05-.23Z"/>
  <path class="uuid-2e954659-4ca1-4af8-b9a6-a77e2a36a3c5" d="M180.68,49.98h-.31c-.01.15-.06.3-.14.43-.06.1-.15.19-.25.25-.11.05-.22.09-.34.11l-.44.05v.25h1.1v3.15h.38v-4.24Z"/>
  <path class="uuid-2e954659-4ca1-4af8-b9a6-a77e2a36a3c5" d="M184.92,52.18c0-.17,0-.34,0-.51,0-.17-.03-.34-.07-.5-.03-.16-.08-.31-.15-.46-.06-.14-.15-.27-.26-.38-.11-.11-.24-.2-.39-.26-.17-.06-.36-.09-.54-.09-.26-.01-.52.05-.74.19-.18.13-.33.29-.43.49-.11.22-.18.45-.21.69-.04.26-.06.53-.06.79,0,.28.02.56.06.83.04.24.12.47.23.69.1.2.25.36.44.47.21.13.46.19.71.18.25.01.5-.05.72-.18.19-.12.34-.28.44-.47.11-.21.18-.44.21-.68.03-.27.05-.53.04-.8ZM184.36,53.38c-.07.17-.17.32-.31.43-.16.12-.36.18-.56.17-.18,0-.35-.04-.5-.13-.14-.08-.26-.21-.33-.36-.09-.18-.14-.37-.17-.57-.02-.25-.02-.49,0-.74-.02-.23-.02-.46,0-.69.03-.21.08-.41.15-.6.07-.17.18-.31.32-.42.15-.11.33-.17.52-.16.2,0,.39.05.55.16.14.1.25.25.31.41.08.18.14.38.16.58.01.23.01.45,0,.68.01.22.01.43,0,.65-.02.2-.06.4-.14.59Z"/>
  <path class="uuid-2e954659-4ca1-4af8-b9a6-a77e2a36a3c5" d="M189.78,52.26c.01-.15.01-.31,0-.46-.02-.14-.07-.28-.14-.4-.07-.11-.17-.21-.29-.27-.16-.08-.33-.12-.51-.11-.21,0-.42.05-.6.15-.18.11-.33.27-.42.46-.03-.08-.07-.16-.11-.24-.05-.07-.11-.13-.17-.19-.08-.06-.17-.1-.26-.13-.12-.03-.24-.05-.37-.05-.2,0-.39.05-.57.14-.17.1-.3.24-.39.42h0v-.47h-.44v3.11h.36v-1.71c0-.07,0-.14,0-.21-.01-.08-.01-.15,0-.23.02-.08.04-.15.06-.23.03-.06.06-.12.1-.18.08-.11.19-.21.32-.27.12-.05.25-.08.38-.08.2-.02.39.05.53.19.1.16.15.34.14.53v2.15h.36v-2.11c.02-.08.04-.15.07-.23.02-.07.06-.13.1-.18.08-.12.19-.21.32-.27.12-.05.25-.08.38-.08.2-.02.39.05.53.19.1.16.15.34.14.53v2.15h.36l.12-1.92Z"/>
  <path class="uuid-2e954659-4ca1-4af8-b9a6-a77e2a36a3c5" d="M194.78,52.26c.01-.15.01-.31,0-.46-.02-.14-.07-.28-.14-.4-.07-.12-.17-.21-.29-.27-.16-.08-.33-.12-.51-.11-.21,0-.41.05-.59.15-.19.1-.33.27-.42.46-.03-.09-.07-.17-.12-.24-.05-.07-.1-.14-.17-.19-.08-.06-.17-.11-.26-.13-.12-.03-.24-.05-.37-.05-.2,0-.39.05-.56.14-.17.1-.31.24-.4.42h0v-.47h-.44v3.11h.36v-1.92c0-.08,0-.15,0-.23.02-.08.04-.15.07-.23.02-.06.05-.12.09-.18.09-.12.2-.21.33-.27.12-.05.25-.08.38-.08.2-.02.39.05.53.19.1.16.14.34.13.53v2.15h.37v-1.67c0-.07,0-.14,0-.21-.01-.08-.01-.15,0-.23.02-.08.04-.15.06-.23.03-.06.06-.12.1-.18.08-.11.19-.21.32-.27.12-.05.25-.08.38-.08.2-.02.39.05.53.19.1.16.15.34.14.53v2.15h.36l.12-1.92Z"/>
  <polygon class="uuid-a06c1105-9f24-4a3d-8473-4b93d5dffef5" points="273.53 62.14 149.69 62.14 149.69 62.64 274.03 62.64 274.03 56.19 273.53 56.19 273.53 62.14"/>
  <polygon class="uuid-a06c1105-9f24-4a3d-8473-4b93d5dffef5" points=".53 62.14 .53 56.01 .03 56.01 .03 62.64 125.19 62.64 125.19 62.14 .53 62.14"/>
  <path class="uuid-2e954659-4ca1-4af8-b9a6-a77e2a36a3c5" d="M130.51,62.51h-.58v-2.83h-.35l-2,2.82v.33h1.94v1h.39v-1h.6v-.32ZM129.51,60.26v2.25h-1.56l1.56-2.25Z"/>
  <path class="uuid-2e954659-4ca1-4af8-b9a6-a77e2a36a3c5" d="M131.51,63.3c.03-.08.07-.16.13-.23l.17-.19.2-.16c.11-.09.23-.16.35-.23l.41-.23c.14-.08.27-.15.4-.24.13-.09.25-.19.35-.31.1-.11.18-.24.24-.38.07-.16.1-.33.09-.5,0-.16-.02-.31-.08-.46-.05-.14-.14-.27-.25-.37-.12-.1-.25-.19-.4-.25-.18-.06-.38-.09-.57-.09-.19,0-.38.03-.56.09-.17.06-.32.16-.44.29-.12.13-.22.28-.28.44-.07.18-.1.38-.1.57h.41c0-.14.01-.28.06-.41.04-.12.1-.24.19-.34.08-.09.18-.17.29-.23.12-.06.25-.09.38-.09.13,0,.25.02.37.06.11.03.21.09.29.17.09.08.15.17.2.28.05.12.07.24.07.37,0,.15-.03.29-.09.42-.06.12-.14.22-.24.31-.11.1-.23.19-.36.26l-.44.26c-.16.1-.31.21-.46.32-.17.13-.32.27-.46.43-.12.14-.22.3-.27.48-.04.18-.06.37-.06.56h2.77v-.33h-2.31c-.02-.09-.02-.18,0-.27Z"/>
  <path class="uuid-2e954659-4ca1-4af8-b9a6-a77e2a36a3c5" d="M137.21,61.85c0-.17,0-.33,0-.5,0-.17-.03-.34-.07-.51-.03-.16-.08-.31-.15-.45-.07-.14-.15-.27-.26-.38-.11-.11-.25-.2-.39-.26-.17-.06-.36-.09-.54-.09-.26-.01-.52.05-.74.19-.19.12-.33.28-.43.48-.11.22-.18.45-.21.69-.04.26-.06.53-.06.79,0,.28.02.56.06.83.04.24.12.47.23.69.1.19.25.36.43.48.45.23.99.23,1.44,0,.18-.12.33-.28.43-.47.11-.21.19-.44.22-.68.03-.27.05-.54.04-.81ZM136.65,63.06c-.07.16-.18.31-.32.43-.16.12-.35.18-.55.17-.18,0-.36-.04-.51-.14-.14-.09-.25-.21-.32-.36-.09-.18-.15-.37-.17-.57-.03-.25-.05-.49-.05-.74,0-.23.02-.45.05-.68.02-.21.07-.41.15-.6.07-.17.18-.32.32-.43.15-.11.33-.17.52-.16.19,0,.38.05.54.16.14.1.25.25.32.41.08.19.14.39.16.59v1.32c-.02.21-.07.41-.14.6Z"/>
  <path class="uuid-2e954659-4ca1-4af8-b9a6-a77e2a36a3c5" d="M142.07,61.93v-.46c-.03-.14-.07-.27-.14-.39-.07-.12-.17-.22-.29-.28-.16-.07-.33-.1-.51-.1-.21,0-.41.05-.6.14-.18.11-.32.27-.42.46-.03-.08-.07-.16-.11-.23-.05-.08-.11-.14-.18-.2-.08-.05-.16-.09-.25-.12-.12-.03-.24-.05-.37-.05-.2,0-.39.05-.57.14-.17.09-.31.24-.39.41h0v-.47h-.36v3.12h.36v-1.68c0-.07,0-.14,0-.21,0-.08,0-.15,0-.23,0-.08.03-.15.06-.22.03-.06.06-.12.1-.18.08-.11.19-.21.32-.27.12-.06.25-.09.38-.09.2-.02.4.05.53.2.1.15.15.34.14.52v2.16h.36v-1.89c0-.08,0-.15,0-.23.02-.08.04-.15.07-.22.02-.07.05-.13.09-.18.09-.11.2-.21.33-.27.12-.06.25-.09.38-.09.2-.02.4.05.53.2.1.15.15.34.14.52v2.16h.36l.04-1.97Z"/>
  <path class="uuid-2e954659-4ca1-4af8-b9a6-a77e2a36a3c5" d="M147.07,61.93c0-.15,0-.31,0-.46-.02-.14-.07-.27-.14-.39-.07-.12-.17-.22-.29-.28-.16-.07-.33-.1-.51-.1-.21,0-.41.05-.59.14-.18.11-.33.27-.42.46-.03-.08-.07-.16-.12-.23-.05-.07-.11-.14-.17-.2-.08-.05-.17-.09-.26-.12-.12-.03-.24-.05-.37-.05-.2,0-.39.05-.56.14-.18.09-.32.23-.4.41h0v-.47h-.36v3.12h.36v-1.68c0-.07,0-.14,0-.21,0-.08,0-.15,0-.23.02-.08.04-.15.07-.22.02-.07.05-.13.09-.18.09-.12.2-.21.33-.27.12-.06.25-.09.38-.09.2-.02.39.05.52.2.1.15.15.34.14.52v2.16h.36v-1.68c0-.07,0-.14,0-.21,0-.08,0-.15,0-.23,0-.08.03-.15.06-.22.03-.06.06-.12.1-.18.08-.11.19-.21.32-.27.12-.06.25-.09.38-.09.2-.02.4.05.53.2.1.15.15.34.14.52v2.16h.36l.05-1.97Z"/>
</svg>