<?xml version="1.0" encoding="UTF-8"?>
<svg id="uuid-92f9ea1f-d4aa-47ee-874e-802dc4ed8e4a" data-name="Layer_1" xmlns="http://www.w3.org/2000/svg" width="275.47" height="75.56" viewBox="0 0 275.47 75.56">
  <defs>
    <style>
      .uuid-8d7304c4-afb2-4f1f-8ebc-1ef01aa50dc4 {
        opacity: .6;
      }

      .uuid-8d7304c4-afb2-4f1f-8ebc-1ef01aa50dc4, .uuid-29ad936d-ff1d-4010-9757-692677bcd894 {
        isolation: isolate;
      }

      .uuid-8d7304c4-afb2-4f1f-8ebc-1ef01aa50dc4, .uuid-29ad936d-ff1d-4010-9757-692677bcd894, .uuid-ce509e14-1606-42eb-bfbd-83af6929282c {
        fill: #273a5b;
      }

      .uuid-174609f4-0b84-42fc-92c2-09d88a254a45 {
        fill: none;
      }

      .uuid-29ad936d-ff1d-4010-9757-692677bcd894 {
        opacity: .4;
      }
    </style>
  </defs>
  <path class="uuid-174609f4-0b84-42fc-92c2-09d88a254a45" d="M112.07,30c-1.06,2.64-2.36,5.29-4.67,6.8-.39.25-.81.46-1.24.63l2.08,12.77c33.46-.47,71.34-1,108.52-4.37,18.68-1.7,40-4.45,56.71-15.77-23.8-10.65-50.75-13.38-76.33-15.25-27.58-2-53.16-3.27-78.19-3.84,0,.13,0,.25-.08.38-1.23,3.72-2.54,7.46-3.9,11.11-.93,2.5-1.9,5.04-2.9,7.54Z"/>
  <path class="uuid-174609f4-0b84-42fc-92c2-09d88a254a45" d="M5.55,24.16c1.35,2.6,4.39,3.83,7.17,2.9,10-3.42,21.33-2.58,29-1.65,2.74.33,5.52.73,8.22,1.13,8.8,1.27,17.91,2.6,26.83,1.65,1.1-.12,2.2-.27,3.31-.42,2.97-.52,5.99-.71,9-.57,4.3.36,9.45,2.47,11.08,7.33.61.91,1.47,1.64,2.47,2.08.34.13.7.21,1.06.24-1.14-8-4.3-18.63-12.82-24.71-6.18-4.4-14.18-5.58-21.9-6.2-10.47-.84-20.98-.95-31.46-.33-10.38.61-22.31,2.07-32.1,8.21-.12.07-.27.04-.35-.08-.06-.12-.03-.26.08-.34C15.03,7.2,27.04,5.73,37.48,5.11c10.5-.62,21.04-.51,31.53.33,7.79.63,15.87,1.82,22.15,6.3,8.7,6.19,11.89,17.06,13,25.13.98-.04,1.92-.36,2.73-.9,2.08-1.37,3.29-3.85,4.29-6.34s2-5,2.89-7.51c1.35-3.65,2.66-7.38,3.89-11.08.27-.8.14-1.69-.35-2.38-.49-.7-1.29-1.13-2.15-1.14-11.4-.21-22.9-1.77-34-3.27l-2.86-.39c-14.26-1.91-28.2-3.55-42-2.59-12.39.86-23.33,3.79-32.51,8.71-2.52,1.34-3.5,4.46-2.2,7l3.66,7.18ZM8.65,24.06c5.84-3.45,13.38-5,22.42-4.5,4.83.33,9.65.91,14.42,1.73,2.76.43,5.61.87,8.42,1.21,11.06,1.31,22.25,1.1,33.25-.65.13-.02.26.08.28.21.02.13-.06.26-.19.28,0,0,0,0,0,0-11.05,1.76-22.28,1.98-33.39.65-2.82-.33-5.67-.78-8.43-1.2-4.76-.82-9.56-1.39-14.38-1.71-8.93-.46-16.38,1-22.14,4.43-.04,0-.08,0-.12,0-.09,0-.17-.04-.22-.12-.05-.11-.01-.24.09-.31v-.02Z"/>
  <path class="uuid-29ad936d-ff1d-4010-9757-692677bcd894" d="M274.66,64.61h.25v-6h-.5v5.47l-72.1-.06v.5l72.35.09Z"/>
  <path class="uuid-29ad936d-ff1d-4010-9757-692677bcd894" d="M107.57,63.96v-6.38h-.5v6.88h.25l71.36.06v-.5l-71.11-.06Z"/>
  <path class="uuid-8d7304c4-afb2-4f1f-8ebc-1ef01aa50dc4" d="M181.69,62.53c.08-.24.25-.45.47-.57.11-.05.24-.08.36-.08.12-.02.23-.02.35,0,.11.04.21.1.29.18.08.08.14.17.19.27.05.12.07.24.07.37,0,.15-.03.3-.09.43-.06.12-.14.22-.23.31-.11.09-.23.18-.35.25l-.42.26-.45.33c-.16.13-.31.27-.44.43-.13.14-.22.3-.26.48-.04.18-.06.36-.06.55h2.67v-.32h-2.3c0-.09,0-.19,0-.28.03-.08.07-.16.13-.22.05-.07.1-.13.16-.19l.2-.17c.11-.08.22-.16.34-.22l.39-.23c.13-.08.26-.16.38-.25.12-.09.24-.19.34-.3.1-.11.18-.24.24-.38.06-.16.09-.33.09-.5,0-.16-.03-.31-.09-.46-.05-.14-.13-.27-.23-.37-.12-.11-.25-.2-.4-.26-.17-.06-.36-.09-.54-.09-.19,0-.38.03-.55.1-.16.06-.3.16-.42.28-.12.13-.21.28-.27.44-.06.18-.09.38-.09.57h.39c.03-.13.07-.25.13-.36Z"/>
  <path class="uuid-8d7304c4-afb2-4f1f-8ebc-1ef01aa50dc4" d="M184.34,64.54c.03.24.11.47.22.69.09.19.24.36.42.47.21.13.45.19.69.18.24.01.48-.05.69-.18.18-.11.33-.28.42-.47.11-.21.18-.44.21-.68.04-.26.06-.53.06-.8,0-.17,0-.34,0-.51,0-.17-.03-.34-.07-.5-.03-.16-.08-.31-.14-.46-.06-.14-.15-.27-.25-.38-.11-.11-.24-.2-.38-.26-.17-.06-.34-.09-.52-.09-.25-.01-.5.05-.71.19-.18.13-.32.29-.42.49-.11.22-.17.45-.2.69-.02.26-.02.53,0,.79-.03.28-.03.55-.02.83ZM184.7,63.06c.03-.21.08-.41.15-.6.07-.16.18-.31.31-.42.14-.11.32-.17.5-.16.19,0,.38.05.53.16.13.11.24.25.3.41.08.18.14.38.16.58v1.33c-.02.2-.07.4-.14.59-.06.17-.17.32-.31.43-.15.12-.34.18-.53.17-.17,0-.34-.04-.49-.13-.14-.09-.24-.21-.31-.36-.08-.18-.13-.37-.16-.57-.04-.24-.05-.49-.05-.74,0-.22.01-.45.04-.67v-.02Z"/>
  <path class="uuid-8d7304c4-afb2-4f1f-8ebc-1ef01aa50dc4" d="M187.56,64.54c.03.24.11.47.22.69.09.19.24.36.42.47.21.13.45.19.69.18.24.01.48-.05.69-.18.18-.11.33-.28.42-.47.11-.21.18-.44.21-.68.04-.26.06-.53.06-.8,0-.17,0-.34,0-.51,0-.17-.03-.34-.07-.5-.03-.16-.08-.31-.14-.46-.06-.14-.15-.27-.25-.38-.11-.11-.24-.2-.38-.26-.17-.06-.34-.09-.52-.09-.25-.01-.5.05-.71.19-.18.13-.32.29-.42.49-.11.22-.17.45-.2.69-.02.26-.02.53,0,.79-.03.28-.03.55-.02.83ZM187.92,63.06c.03-.21.08-.41.15-.6.07-.16.18-.31.31-.42.14-.11.32-.17.5-.16.19,0,.38.05.53.16.13.11.24.25.3.41.08.18.14.38.16.58v1.33c-.02.2-.07.4-.14.59-.06.17-.17.32-.31.43-.15.12-.34.18-.53.17-.17,0-.34-.04-.49-.13-.14-.09-.24-.21-.31-.36-.08-.18-.13-.37-.16-.57-.04-.24-.05-.49-.05-.74,0-.22.01-.45.04-.67v-.02Z"/>
  <path class="uuid-8d7304c4-afb2-4f1f-8ebc-1ef01aa50dc4" d="M190.87,65.79h.35v-1.71c0-.07,0-.14,0-.21,0-.08,0-.15,0-.23.02-.08.04-.15.06-.23.03-.06.06-.12.09-.18.16-.22.41-.35.68-.35.19-.02.38.05.51.19.1.16.15.34.14.53v2.15h.34v-1.67c0-.07,0-.14,0-.21-.01-.08-.01-.15,0-.23.01-.08.03-.16.06-.23.02-.06.05-.12.09-.18.08-.12.19-.21.32-.27.11-.05.24-.08.36-.08.19-.02.38.05.51.19.1.16.14.34.13.53v2.15h.35v-2c.01-.15.01-.31,0-.46-.02-.14-.06-.27-.13-.4-.07-.11-.16-.21-.28-.27-.15-.08-.32-.12-.49-.11-.2,0-.4.05-.58.15-.18.11-.31.27-.4.46-.03-.08-.07-.16-.11-.24-.05-.07-.11-.13-.17-.19-.07-.06-.16-.11-.25-.13-.11-.03-.23-.05-.35-.05-.19,0-.38.05-.55.14-.16.1-.3.25-.38.42h0v-.47h-.35l.05,3.19Z"/>
  <path class="uuid-8d7304c4-afb2-4f1f-8ebc-1ef01aa50dc4" d="M195.69,65.79h.35v-2.15c.02-.08.04-.15.07-.23.02-.06.05-.12.09-.18.08-.11.19-.21.31-.27.12-.05.24-.08.37-.08.19-.02.38.05.51.19.09.16.14.34.13.53v2.15h.35v-1.67c0-.07,0-.14,0-.21,0-.08,0-.15,0-.23.02-.08.04-.15.06-.23.03-.06.06-.12.1-.18.08-.12.18-.21.31-.27.11-.05.24-.08.36-.08.19-.02.38.05.51.19.1.16.15.34.14.53v2.15h.35v-2.46c-.02-.14-.07-.28-.14-.4-.06-.11-.16-.21-.27-.27-.15-.08-.33-.12-.5-.11-.2,0-.4.05-.57.15-.18.11-.33.27-.41.46-.03-.08-.07-.16-.11-.24-.04-.07-.1-.14-.17-.19-.07-.06-.16-.11-.25-.13-.11-.03-.23-.05-.35-.05-.19,0-.38.05-.54.14-.17.1-.3.24-.39.42h0v-.47h-.35l.04,3.19Z"/>
  <polygon class="uuid-29ad936d-ff1d-4010-9757-692677bcd894" points=".51 73.71 .51 67.58 .01 67.58 .01 73.83 0 74.21 126.17 74.21 126.17 73.71 .51 73.71"/>
  <polygon class="uuid-29ad936d-ff1d-4010-9757-692677bcd894" points="274.51 73.71 150.67 73.71 150.67 74.21 275.01 74.21 275.01 67.76 274.51 67.76 274.51 73.71"/>
  <path class="uuid-8d7304c4-afb2-4f1f-8ebc-1ef01aa50dc4" d="M131.49,73.96c-.02-.11-.06-.21-.12-.3-.06-.1-.14-.19-.23-.26-.11-.08-.24-.14-.37-.18.18-.08.34-.2.45-.37.1-.18.16-.38.15-.58,0-.16-.03-.32-.1-.46-.06-.13-.15-.24-.26-.33-.11-.09-.24-.15-.38-.19-.15-.04-.31-.06-.47-.06-.17-.02-.34-.02-.51,0-.17.03-.33.11-.45.23-.13.12-.24.27-.31.43-.07.16-.1.34-.1.52h.38c0-.13.03-.25.07-.37.04-.1.1-.2.18-.28.08-.08.18-.15.29-.19.12-.05.24-.07.37-.07.12,0,.24.02.35.05.1.03.2.07.29.13.18.14.27.35.26.57,0,.14-.03.28-.09.4-.06.1-.15.19-.25.25-.12.07-.25.11-.38.12-.16.02-.33.02-.49,0v.31c.17-.01.35-.01.52,0,.15.02.3.07.43.14.12.06.22.15.29.27.08.13.12.28.12.43,0,.12-.01.25-.06.36-.06.11-.13.22-.22.31-.1.09-.22.16-.34.21-.14.05-.28.08-.43.08-.28,0-.55-.08-.76-.26-.21-.18-.31-.45-.29-.73h-.39c.02.21.07.42.14.62.06.15.16.29.28.4.13.11.29.19.46.22.21.05.42.08.63.07.2,0,.4-.04.58-.11.16-.06.31-.16.43-.28.12-.11.21-.25.27-.4.06-.16.09-.32.09-.49-.03,0-.03-.09-.03-.21Z"/>
  <path class="uuid-8d7304c4-afb2-4f1f-8ebc-1ef01aa50dc4" d="M134.84,74.17c.02-.37-.11-.72-.35-1-.27-.25-.63-.38-1-.36-.13,0-.27.02-.4.05-.1.04-.2.09-.3.15-.08.07-.15.14-.22.22l-.19.24c0-.2,0-.41.07-.64.03-.21.08-.42.16-.62.08-.18.2-.34.35-.47.17-.14.39-.2.61-.19.2-.01.4.06.54.2.14.14.23.32.27.52h.39c-.02-.3-.16-.58-.39-.78-.25-.18-.55-.27-.85-.26-.27-.01-.53.06-.76.21-.2.15-.36.34-.47.56-.12.23-.2.48-.24.74-.04.26-.07.53-.07.79,0,.32.03.63.12.94.06.23.17.44.31.63.12.16.28.28.47.34.19.08.39.12.59.11.37.03.73-.11,1-.37.25-.27.38-.64.36-1.01ZM134.24,74.88c-.08.11-.18.19-.3.25-.29.13-.61.13-.9,0-.12-.06-.22-.14-.29-.25-.08-.1-.14-.21-.17-.33-.04-.12-.06-.24-.06-.36,0-.14.02-.28.07-.41.04-.12.1-.24.19-.33.08-.1.18-.18.3-.23.12-.06.26-.09.4-.09.27-.02.54.08.74.27.17.22.25.49.23.76.02.13.02.25,0,.38-.05.13-.12.24-.21.34Z"/>
  <path class="uuid-8d7304c4-afb2-4f1f-8ebc-1ef01aa50dc4" d="M138.18,74.17c.02-.37-.11-.72-.35-1-.27-.25-.63-.38-1-.36-.13,0-.27.02-.4.05-.1.04-.2.09-.3.15l-.22.22-.19.24c0-.2,0-.41.07-.64.03-.21.08-.42.16-.62.08-.18.2-.34.35-.47.17-.14.39-.2.61-.19.2-.01.4.06.54.2.14.14.23.32.27.52h.39c-.02-.3-.16-.58-.39-.78-.25-.18-.55-.27-.85-.26-.27-.01-.53.06-.76.21-.2.15-.36.34-.47.56-.12.23-.2.48-.24.74-.04.26-.06.53-.06.79,0,.32.03.63.11.94.06.23.17.44.31.63.12.16.28.28.47.34.19.08.39.12.59.11.37.03.73-.11,1-.37.25-.27.38-.64.36-1.01ZM137.58,74.88c-.08.11-.18.19-.3.25-.29.13-.61.13-.9,0-.12-.06-.22-.14-.29-.25-.08-.1-.14-.21-.17-.33-.04-.12-.06-.24-.06-.36,0-.14.02-.28.07-.41.04-.12.1-.24.19-.33.08-.1.18-.18.3-.23.12-.06.26-.09.4-.09.27-.02.54.08.74.27.17.22.25.49.23.76.02.13.02.25,0,.38-.05.13-.12.24-.21.34Z"/>
  <path class="uuid-8d7304c4-afb2-4f1f-8ebc-1ef01aa50dc4" d="M143.05,73.5v-.46c-.03-.14-.07-.27-.14-.39-.07-.12-.17-.22-.29-.28-.16-.07-.33-.1-.51-.1-.21,0-.41.05-.6.14-.18.11-.32.27-.42.46-.03-.08-.07-.16-.11-.23-.05-.08-.11-.14-.18-.2-.08-.05-.16-.09-.25-.12-.12-.03-.24-.05-.37-.05-.2,0-.39.05-.57.14-.17.09-.31.24-.39.41h0v-.47h-.36v3.12h.36v-1.68c0-.07,0-.14,0-.21,0-.08,0-.15,0-.23,0-.08.03-.15.06-.22.03-.06.06-.12.1-.18.08-.11.19-.21.32-.27.12-.06.25-.09.38-.09.2-.02.4.05.53.2.1.15.15.34.14.52v2.16h.36v-1.89c0-.08,0-.15,0-.23.02-.08.04-.15.07-.22.02-.07.05-.13.09-.18.09-.11.2-.21.33-.27.12-.06.25-.09.38-.09.2-.02.4.05.53.2.1.15.15.34.14.52v2.16h.36l.04-1.97Z"/>
  <path class="uuid-8d7304c4-afb2-4f1f-8ebc-1ef01aa50dc4" d="M148.05,73.5c0-.15,0-.31,0-.46-.02-.14-.07-.27-.14-.39-.07-.12-.17-.22-.29-.28-.16-.07-.33-.1-.51-.1-.21,0-.41.05-.59.14-.18.11-.33.27-.42.46-.03-.08-.07-.16-.12-.23-.05-.07-.11-.14-.17-.2-.08-.05-.17-.09-.26-.12-.12-.03-.24-.05-.37-.05-.2,0-.39.05-.56.14-.18.09-.32.23-.4.41h0v-.47h-.36v3.12h.36v-1.68c0-.07,0-.14,0-.21,0-.08,0-.15,0-.23.02-.08.04-.15.07-.22.02-.07.05-.13.09-.18.09-.12.2-.21.33-.27.12-.06.25-.09.38-.09.2-.02.39.05.52.2.1.15.15.34.14.52v2.16h.36v-1.68c0-.07,0-.14,0-.21,0-.08,0-.15,0-.23,0-.08.03-.15.06-.22.03-.06.06-.12.1-.18.08-.11.19-.21.32-.27.12-.06.25-.09.38-.09.2-.02.4.05.53.2.1.15.15.34.14.52v2.16h.36l.05-1.97Z"/>
  <path class="uuid-ce509e14-1606-42eb-bfbd-83af6929282c" d="M4.66,24.62c1.59,3.03,5.14,4.46,8.39,3.39,9.83-3.36,21-2.53,28.51-1.61,2.73.33,5.5.73,8.19,1.12,8.87,1.29,18,2.62,27.08,1.66,1.12-.11,2.23-.27,3.34-.42,2.89-.5,5.82-.69,8.75-.56,4,.33,8.79,2.27,10.24,6.72l.07.15c.74,1.08,1.76,1.94,2.95,2.48.57.21,1.18.32,1.79.32.41,0,.83-.06,1.23-.15l2.19,13.49h.43c33.59-.46,71.65-1,109-4.38,19.07-1.73,40.85-4.57,57.93-16.44l.72-.5-.8-.37c-24.15-11-51.52-13.8-77.49-15.7-27.57-2-53.15-3.27-78.18-3.84-.03-.68-.26-1.34-.65-1.89-.67-.97-1.77-1.55-2.95-1.56-11.33-.21-22.81-1.76-33.9-3.26l-2.87-.39C64.32.96,50.32-.68,36.46.28,23.92,1.15,12.85,4.12,3.54,9.11.57,10.72-.59,14.39.92,17.41l3.74,7.21ZM118.87,11.35c0-.13.05-.25.08-.38,25,.57,50.61,1.82,78.19,3.84,25.58,1.87,52.53,4.6,76.33,15.25-16.76,11.32-38,14.07-56.71,15.77-37.18,3.37-75.06,3.9-108.52,4.37l-2.08-12.77c.43-.17.85-.38,1.24-.63,2.31-1.51,3.61-4.16,4.67-6.8s2-5,2.9-7.54c1.36-3.65,2.67-7.38,3.9-11.11ZM4.04,9.98C13.22,5.06,24.16,2.13,36.55,1.27c13.78-1,27.72.68,42,2.59l2.86.39c11.13,1.5,22.63,3.06,34,3.27.86.01,1.66.44,2.15,1.14.49.69.62,1.58.35,2.38-1.23,3.7-2.54,7.43-3.89,11.08-.92,2.49-1.9,5-2.89,7.51s-2.21,5-4.29,6.34c-.81.54-1.75.86-2.73.9-1.15-8.07-4.34-18.94-13-25.13-6.28-4.48-14.36-5.67-22.15-6.3-10.5-.85-21.04-.97-31.56-.36-10.44.62-22.45,2.09-32.34,8.29-.11.08-.14.22-.08.34.08.12.23.15.35.08C15.12,7.65,27.05,6.19,37.43,5.58c10.48-.62,20.99-.51,31.46.33,7.72.62,15.72,1.8,21.9,6.2,8.52,6.08,11.68,16.75,12.82,24.71-.36-.03-.72-.11-1.06-.24-1-.44-1.86-1.17-2.47-2.08-1.63-4.86-6.78-7-11.08-7.33-3.01-.14-6.03.05-9,.57-1.11.15-2.21.3-3.31.42-8.92.95-18-.38-26.83-1.65-2.7-.4-5.48-.8-8.22-1.13-7.63-.93-18.93-1.77-29,1.65-2.78.93-5.82-.3-7.17-2.9l-3.71-7.22c-1.24-2.55-.23-5.62,2.28-6.93Z"/>
  <path class="uuid-ce509e14-1606-42eb-bfbd-83af6929282c" d="M8.78,24.52s.08,0,.12,0c5.76-3.4,13.21-4.89,22.14-4.43,4.84.32,9.67.88,14.45,1.7,2.76.42,5.61.87,8.43,1.2,11.11,1.33,22.34,1.11,33.39-.65.13-.02.22-.14.2-.27,0,0,0,0,0,0-.02-.13-.15-.23-.28-.21-11,1.75-22.19,1.96-33.25.65-2.81-.34-5.66-.78-8.42-1.21-4.78-.82-9.61-1.4-14.45-1.73-9-.46-16.58,1.05-22.42,4.5-.12.07-.16.22-.09.34.04.07.1.11.18.12Z"/>
</svg>