<?xml version="1.0" encoding="UTF-8"?>
<svg id="uuid-958c0258-8f1a-4bad-a374-6a18db087b85" data-name="Layer_1" xmlns="http://www.w3.org/2000/svg" width="275.2" height="67.35" viewBox="0 0 275.2 67.35">
  <defs>
    <style>
      .uuid-2a5a932f-a6a6-4a6a-9630-c4196c1d8fb1 {
        opacity: .6;
      }

      .uuid-2a5a932f-a6a6-4a6a-9630-c4196c1d8fb1, .uuid-f66a84ad-07f0-40d2-9701-00acf073b2de {
        isolation: isolate;
      }

      .uuid-2a5a932f-a6a6-4a6a-9630-c4196c1d8fb1, .uuid-f66a84ad-07f0-40d2-9701-00acf073b2de, .uuid-5077d419-6846-4e04-8b45-62cc64487021 {
        fill: #273a5b;
      }

      .uuid-6e09d331-7d0c-42ff-aefa-724f397e50e8 {
        fill: none;
      }

      .uuid-f66a84ad-07f0-40d2-9701-00acf073b2de {
        opacity: .4;
      }
    </style>
  </defs>
  <path class="uuid-6e09d331-7d0c-42ff-aefa-724f397e50e8" d="M2.96,18.3l98.2,3.13c.76.04,1.48-.35,1.87-1,3.12-5.33,7.51-13.9,9.25-17.34.34-.69.05-1.52-.64-1.86-.19-.09-.39-.14-.6-.14h0L11.04,1.61c-.54,0-1.05.27-1.35.73C6.84,6.63,4.06,11.07,1.41,15.53c-.32.57-.32,1.27,0,1.84.32.56.91.92,1.55.93Z"/>
  <path class="uuid-6e09d331-7d0c-42ff-aefa-724f397e50e8" d="M113.17,3.51c-1.75,3.45-6.14,12.05-9.27,17.39-.06.09-.13.18-.21.27h.05c3.7,6.31,5.97,13.36,6.65,20.65.07.68.66,1.19,1.35,1.17,31.17-1.06,62.24-3.92,93.08-8.56,27.45-4.13,49.73-9.28,69.31-21,.03-.02.05-.05.05-.09,0,0,0-.07-.07-.08C239.37,1.62,202.26,2.12,166.36,2.59l-53.11.71c-.02.07-.05.14-.08.21Z"/>
  <path class="uuid-f66a84ad-07f0-40d2-9701-00acf073b2de" d="M274.75,56.41h.25v-6.03h-.51v5.5h-70.26v.5l70.52.03Z"/>
  <path class="uuid-f66a84ad-07f0-40d2-9701-00acf073b2de" d="M110.32,55.76v-6.38h-.5v6.88h.38l70.39.06v-.5l-70.27-.06Z"/>
  <path class="uuid-2a5a932f-a6a6-4a6a-9630-c4196c1d8fb1" d="M183.6,54.33c.04-.12.11-.23.19-.33.07-.1.17-.18.28-.24.12-.05.24-.08.37-.08.12-.02.23-.02.35,0,.1.04.2.1.28.18.08.08.15.17.2.27.05.12.07.24.07.37,0,.15-.03.3-.09.43-.06.12-.14.22-.24.31-.11.1-.22.18-.35.25l-.41.26-.45.33c-.16.13-.32.27-.45.43-.12.14-.21.3-.25.48-.04.18-.06.36-.07.55h2.68v-.32h-2.28c0-.1.02-.19.05-.28.03-.08.07-.15.12-.22.05-.07.11-.13.17-.19l.19-.17.34-.22.39-.23.39-.25c.12-.09.24-.19.34-.3.1-.11.18-.24.24-.38.05-.16.08-.33.08-.5,0-.16-.03-.31-.08-.46-.05-.14-.13-.27-.24-.37-.11-.11-.24-.2-.39-.26-.18-.06-.36-.09-.55-.09-.18,0-.37.03-.54.1-.16.06-.3.16-.42.28-.12.13-.21.28-.27.44-.07.18-.1.38-.09.57h.39c0-.12.01-.24.05-.36Z"/>
  <path class="uuid-2a5a932f-a6a6-4a6a-9630-c4196c1d8fb1" d="M186.26,56.34c.03.24.1.47.21.69.1.19.25.36.43.47.21.13.45.19.69.18.24.01.48-.05.69-.18.18-.11.33-.28.42-.47.11-.21.18-.44.21-.68.04-.26.06-.53.06-.8v-.51c-.01-.17-.04-.33-.07-.5-.03-.16-.08-.31-.14-.46-.07-.14-.15-.26-.25-.38-.11-.11-.24-.19-.38-.26-.17-.06-.34-.09-.52-.09-.25-.01-.51.05-.72.19-.18.13-.32.3-.41.49-.11.22-.18.45-.21.69-.02.26-.02.53,0,.79-.02.28-.03.55,0,.83ZM186.62,54.86c.02-.21.07-.41.15-.6.06-.16.17-.31.31-.42.14-.11.32-.17.5-.16.19,0,.37.05.52.16.14.1.25.25.31.41.08.18.13.38.15.58v1.33c-.02.2-.06.4-.14.59-.06.17-.16.32-.3.43-.15.12-.34.18-.53.17-.17,0-.34-.04-.49-.13-.14-.09-.25-.21-.31-.36-.09-.18-.14-.37-.17-.57-.02-.25-.02-.49,0-.74-.01-.22-.02-.45,0-.67v-.02Z"/>
  <path class="uuid-2a5a932f-a6a6-4a6a-9630-c4196c1d8fb1" d="M189.49,56.34c.03.24.1.47.21.69.1.19.25.36.43.47.21.13.45.19.69.18.24.01.48-.05.69-.18.18-.11.33-.28.42-.47.11-.21.18-.44.21-.68.04-.26.06-.53.06-.8v-.51c-.01-.17-.04-.33-.07-.5-.03-.16-.08-.31-.15-.46-.06-.14-.14-.27-.24-.38-.11-.11-.24-.19-.38-.26-.17-.06-.34-.09-.52-.09-.25-.01-.51.05-.72.19-.18.13-.32.3-.41.49-.11.22-.18.45-.21.69-.02.26-.02.53,0,.79-.02.28-.03.55,0,.83ZM189.85,54.86c.02-.21.07-.41.15-.6.06-.16.17-.31.31-.42.14-.11.32-.17.5-.16.19,0,.37.05.52.16.14.1.25.25.31.41.08.18.13.38.15.58v1.33c-.02.2-.06.4-.14.59-.06.17-.16.32-.3.43-.15.12-.34.18-.53.17-.17,0-.34-.04-.49-.13-.14-.09-.25-.21-.31-.36-.09-.18-.14-.37-.17-.57-.02-.25-.02-.49,0-.74-.02-.22-.02-.45,0-.67v-.02Z"/>
  <path class="uuid-2a5a932f-a6a6-4a6a-9630-c4196c1d8fb1" d="M192.79,57.59h.34v-1.71c0-.07,0-.14,0-.21,0-.08,0-.15,0-.23.02-.08.04-.15.07-.23.02-.06.05-.12.09-.18.08-.11.19-.21.31-.27.12-.05.24-.08.37-.08.19-.02.38.05.51.19.1.16.14.34.13.53v2.15h.35v-1.88c0-.08,0-.15,0-.23.02-.08.04-.15.07-.23.02-.06.05-.12.09-.18.08-.12.18-.21.31-.27.12-.05.24-.08.37-.08.19-.02.38.05.51.19.09.16.14.34.13.53v2.15h.35v-2c.01-.15.01-.31,0-.46-.02-.14-.06-.27-.13-.4-.07-.11-.17-.2-.28-.27-.15-.08-.33-.12-.5-.11-.2,0-.4.05-.57.15-.18.11-.33.27-.41.46-.02-.09-.06-.17-.11-.24-.04-.07-.1-.14-.16-.19-.07-.06-.16-.11-.25-.13-.12-.03-.24-.05-.36-.05-.19,0-.37.05-.54.14-.17.1-.3.24-.38.42h0v-.47h-.34l.03,3.19Z"/>
  <path class="uuid-2a5a932f-a6a6-4a6a-9630-c4196c1d8fb1" d="M197.61,57.59h.35v-1.71c0-.07,0-.14,0-.21,0-.08,0-.15,0-.23.02-.08.04-.15.06-.23.03-.06.06-.12.1-.18.08-.12.18-.21.31-.27.11-.05.24-.08.36-.08.19-.02.38.05.51.19.1.16.15.34.14.53v2.15h.34v-1.67c0-.07,0-.14,0-.21-.01-.08-.01-.15,0-.23.01-.08.03-.16.06-.23.02-.06.05-.12.09-.18.08-.12.19-.21.32-.27.11-.05.24-.08.36-.08.19-.02.38.05.51.19.1.16.14.34.13.53v2.15h.35v-2c.01-.15.01-.31,0-.46-.02-.14-.06-.27-.13-.4-.07-.11-.16-.21-.28-.27-.15-.08-.32-.12-.49-.11-.2,0-.4.05-.58.15-.18.11-.31.27-.4.46-.03-.08-.07-.16-.11-.24-.05-.07-.11-.13-.17-.19-.07-.06-.16-.11-.25-.13-.11-.03-.23-.05-.35-.05-.19,0-.38.05-.55.14-.16.1-.3.25-.38.42h0v-.47h-.35l.05,3.19Z"/>
  <polygon class="uuid-f66a84ad-07f0-40d2-9701-00acf073b2de" points="274.51 65.51 150.67 65.51 150.67 66.01 275.01 66.01 275.01 59.56 274.51 59.56 274.51 65.51"/>
  <polygon class="uuid-f66a84ad-07f0-40d2-9701-00acf073b2de" points=".51 65.51 .51 59.38 .01 59.38 .01 65.63 0 66.01 126.17 66.01 126.17 65.51 .51 65.51"/>
  <path class="uuid-2a5a932f-a6a6-4a6a-9630-c4196c1d8fb1" d="M131.49,65.76c-.02-.11-.06-.21-.12-.3-.06-.1-.14-.19-.23-.26-.11-.08-.24-.14-.37-.18.18-.08.34-.2.45-.37.1-.18.16-.38.15-.58,0-.16-.03-.32-.1-.46-.06-.13-.15-.24-.26-.33-.11-.09-.24-.15-.38-.19-.15-.04-.31-.06-.47-.06-.17-.02-.34-.02-.51,0-.17.03-.33.11-.45.23-.13.12-.24.27-.31.43-.07.16-.1.34-.1.52h.38c0-.13.03-.25.07-.37.04-.1.11-.2.19-.28.08-.09.17-.15.28-.19.12-.05.24-.07.37-.07.12,0,.24.02.35.05.1.03.2.07.29.13.18.14.27.35.26.57,0,.14-.03.28-.09.4-.06.1-.14.19-.24.25-.12.07-.25.11-.39.12-.16.02-.33.02-.49,0v.31c.17-.01.35-.01.52,0,.15.02.3.07.43.14.12.06.22.15.29.27.08.13.12.28.12.43,0,.12-.01.25-.06.36-.06.11-.13.22-.22.31-.1.09-.22.16-.34.21-.14.05-.28.08-.43.08-.28,0-.55-.08-.76-.26-.21-.18-.31-.45-.29-.73h-.39c.02.21.07.42.14.62.06.15.16.29.28.4.13.11.29.18.46.22.21.05.42.07.63.07.2,0,.4-.04.59-.11.16-.07.3-.16.42-.28.12-.11.21-.25.27-.4.06-.16.09-.32.09-.49,0-.07-.02-.14-.03-.21Z"/>
  <path class="uuid-2a5a932f-a6a6-4a6a-9630-c4196c1d8fb1" d="M134.84,65.97c.02-.37-.1-.73-.35-1-.27-.25-.63-.38-1-.36-.25-.02-.49.05-.69.2-.08.07-.16.14-.23.22l-.19.24c0-.2,0-.41.07-.64.03-.21.08-.42.16-.62.08-.18.2-.34.35-.47.17-.14.39-.2.61-.19.2-.01.4.06.54.2.14.14.23.32.27.52h.39c-.02-.3-.16-.58-.39-.78-.25-.18-.55-.27-.85-.26-.27-.01-.53.06-.76.21-.2.15-.36.34-.47.56-.12.23-.2.48-.24.74-.04.26-.06.53-.06.79,0,.32.03.63.11.94.06.23.17.44.31.63.12.16.28.28.47.34.19.08.39.12.59.11.37.03.73-.11,1-.37.25-.27.38-.64.36-1.01ZM134.24,66.68c-.08.11-.18.19-.3.25-.29.13-.61.13-.9,0-.12-.06-.22-.14-.29-.25-.08-.1-.14-.21-.17-.33-.04-.12-.05-.24-.05-.36,0-.14.02-.28.06-.41.04-.12.1-.24.19-.33.08-.1.18-.18.3-.23.12-.06.26-.09.4-.09.27-.02.54.08.74.27.17.22.25.49.23.76.02.13.02.25,0,.38-.05.13-.12.24-.21.34Z"/>
  <path class="uuid-2a5a932f-a6a6-4a6a-9630-c4196c1d8fb1" d="M136.84,65.55c.15-.36.33-.72.53-1.06.22-.38.48-.73.77-1.06v-.36h-2.65v.39h2.24c-.22.26-.42.54-.59.84-.38.63-.69,1.3-.9,2-.1.33-.16.66-.19,1h.42c.03-.26.07-.51.12-.76.06-.33.15-.67.25-.99Z"/>
  <path class="uuid-2a5a932f-a6a6-4a6a-9630-c4196c1d8fb1" d="M143.05,65.3v-.46c-.03-.14-.07-.27-.14-.39-.07-.12-.17-.22-.29-.28-.16-.07-.33-.1-.51-.1-.21,0-.41.05-.6.14-.18.11-.32.27-.42.46-.03-.08-.07-.16-.11-.23-.05-.08-.11-.14-.18-.2-.08-.05-.16-.09-.25-.12-.12-.03-.24-.05-.37-.05-.2,0-.39.05-.57.14-.17.09-.31.24-.39.41h0v-.47h-.36v3.12h.36v-1.68c0-.07,0-.14,0-.21,0-.08,0-.15,0-.23.01-.07.03-.15.06-.22.03-.06.06-.12.1-.18.08-.11.19-.21.32-.27.12-.06.25-.09.38-.09.2-.02.4.05.53.2.1.15.15.34.14.52v2.16h.36v-1.89c0-.08,0-.15,0-.23.02-.08.04-.15.07-.22.02-.07.05-.13.1-.18.08-.12.19-.21.32-.27.12-.06.25-.09.38-.09.2-.02.4.05.53.2.1.15.15.34.14.52v2.16h.36l.04-1.97Z"/>
  <path class="uuid-2a5a932f-a6a6-4a6a-9630-c4196c1d8fb1" d="M148.05,65.3c0-.15,0-.31,0-.46-.02-.14-.07-.27-.14-.39-.07-.12-.17-.22-.29-.28-.16-.07-.33-.1-.51-.1-.21,0-.41.05-.59.14-.18.11-.33.27-.42.46-.03-.08-.07-.16-.12-.23-.05-.07-.11-.14-.17-.2-.08-.05-.17-.09-.26-.12-.12-.03-.24-.05-.37-.05-.2,0-.39.05-.56.14-.18.09-.32.23-.4.41h0v-.47h-.36v3.12h.36v-1.68c0-.07,0-.14,0-.21,0-.08,0-.15,0-.23.02-.08.04-.15.07-.22.02-.07.05-.13.09-.18.09-.12.2-.21.33-.27.12-.06.25-.09.38-.09.2-.02.4.05.53.2.1.16.14.34.13.52v2.16h.36v-1.68c0-.07,0-.14,0-.21,0-.08,0-.15,0-.23,0-.08.03-.15.06-.22.03-.06.06-.12.1-.18.08-.11.19-.21.32-.27.12-.06.25-.09.38-.09.2-.02.4.05.53.2.1.15.15.34.14.52v2.16h.36l.05-1.97Z"/>
  <path class="uuid-5077d419-6846-4e04-8b45-62cc64487021" d="M2.93,19.3l98.2,3.13h.1c.63,0,1.25-.21,1.76-.58,3.56,6.12,5.74,12.95,6.4,20,.11,1.18,1.11,2.09,2.3,2.08h.08c31.21-1.06,62.32-3.92,93.2-8.57,27.56-4.15,50-9.33,69.68-21.12.53-.3.7-.98.4-1.5-.14-.24-.36-.41-.62-.5C239.53.55,202.33,1.04,166.35,1.52l-52.93.71c-.03-.39-.15-.77-.35-1.1-.43-.7-1.18-1.12-2-1.13h0L11.07.52c-.88,0-1.69.44-2.18,1.17C6.04,6,3.24,10.46.59,14.93c-.8,1.37-.34,3.13,1.02,3.93.41.24.88.38,1.36.39l-.04.05ZM166.36,2.57c35.9-.47,73-1,107.75,10.67.05,0,.06,0,.07.08,0,.04-.02.07-.05.09-19.58,11.71-41.86,16.86-69.31,21-30.84,4.64-61.91,7.5-93.08,8.56-.69.02-1.28-.49-1.35-1.17-.68-7.29-2.95-14.34-6.65-20.65h-.05c.08-.09.15-.18.21-.27,3.13-5.34,7.52-13.94,9.27-17.39.03-.07.06-.15.08-.23l53.11-.69ZM1.41,15.49C4.06,11.03,6.84,6.59,9.69,2.3c.3-.46.81-.73,1.35-.73l100-.52h0c.77,0,1.39.63,1.38,1.4,0,.21-.05.41-.14.6-1.74,3.44-6.13,12-9.25,17.34-.39.65-1.11,1.04-1.87,1L2.96,18.26c-.67-.02-1.27-.4-1.57-1-.29-.56-.28-1.22.02-1.77Z"/>
</svg>