<?xml version="1.0" encoding="UTF-8"?>
<svg id="uuid-bf863a8c-fc9f-4a7c-bbe3-0496d44fde48" data-name="Layer_1" xmlns="http://www.w3.org/2000/svg" width="274.99" height="65.22" viewBox="0 0 274.99 65.22">
  <defs>
    <style>
      .uuid-89ea998a-3b57-4f28-8766-1e4119adb9a1 {
        opacity: .6;
      }

      .uuid-89ea998a-3b57-4f28-8766-1e4119adb9a1, .uuid-03ecc165-9f17-48b5-a2fa-d5d04dcb8d52 {
        isolation: isolate;
      }

      .uuid-89ea998a-3b57-4f28-8766-1e4119adb9a1, .uuid-03ecc165-9f17-48b5-a2fa-d5d04dcb8d52, .uuid-b20906b5-8e3f-4710-8889-feffa8568797 {
        fill: #273a5b;
      }

      .uuid-ee9cbf3c-6754-435f-bcba-273b12565b91 {
        fill: none;
      }

      .uuid-03ecc165-9f17-48b5-a2fa-d5d04dcb8d52 {
        opacity: .25;
      }
    </style>
  </defs>
  <path class="uuid-ee9cbf3c-6754-435f-bcba-273b12565b91" d="M83.66,13.44c1.42,0,2.58-1.16,2.58-2.58s-1.16-2.58-2.58-2.58c-1.42,0-2.58,1.16-2.58,2.58s1.16,2.58,2.58,2.58h0Z"/>
  <path class="uuid-ee9cbf3c-6754-435f-bcba-273b12565b91" d="M94.29,19.6c1.45-.14,2.52-1.43,2.38-2.88,0-.08-.02-.17-.04-.25.22-3.6.14-7.22-.21-10.81-8.7-.28-17.38-1.06-26-2.32-9.39-1.19-19.08-2.42-28.66-2.33-11.77.12-23.56,2.29-34.76,4.68-1.29,5.75-1.65,11.67-1.07,17.54.05,1.32.39,2.61,1,3.78l.06.11c.45.9,1.17,1.63,2.06,2.09,4.44-.72,8.84-1.81,13.15-2.89,3.8-.95,7.74-1.93,11.65-2.64,10.78-2,21.88-2,32.61-2h17.11c4.02-.66,9.05-1.59,10.72-2.08ZM19.51,15.6c-1.7,0-3.08-1.38-3.08-3.08,0-1.7,1.38-3.08,3.08-3.08,1.7,0,3.08,1.38,3.08,3.08,0,0,0,0,0,0-.01,1.7-1.4,3.07-3.1,3.06h0,.02ZM51.16,12.78c-1.7,0-3.08-1.38-3.08-3.08,0-1.7,1.38-3.08,3.08-3.08,1.7,0,3.08,1.38,3.08,3.08,0,1.7-1.38,3.07-3.08,3.07h0ZM83.66,7.78c1.7,0,3.08,1.38,3.08,3.08,0,1.7-1.38,3.08-3.08,3.08-1.7,0-3.08-1.38-3.08-3.08,0,0,0,0,0,0-.01-1.7,1.36-3.09,3.06-3.1,0,0,.01,0,.02,0v.03Z"/>
  <path class="uuid-ee9cbf3c-6754-435f-bcba-273b12565b91" d="M51.16,7.12c-1.42,0-2.58,1.16-2.58,2.58,0,1.42,1.16,2.58,2.58,2.58,1.42,0,2.58-1.16,2.58-2.58,0,0,0,0,0,0,0-1.42-1.16-2.57-2.58-2.57Z"/>
  <path class="uuid-ee9cbf3c-6754-435f-bcba-273b12565b91" d="M111.49,5.53h-.25c-1.92,7.17-2.62,14.6-2.08,22h-.27c.11.2.2.41.28.63l3.89,12.06h0c.09.27.34.46.63.46,26.55,0,54,0,81.47-3.36,30.48-3.76,55.93-11.16,77.76-22.62C213.03,5.86,159.95,5.06,111.49,5.53Z"/>
  <path class="uuid-ee9cbf3c-6754-435f-bcba-273b12565b91" d="M110.21,5.54l-9.06.09h-3.72c.35,3.61.41,7.23.2,10.85.04,1.04-.29,2.07-.92,2.9-.6.57-1.34.96-2.14,1.13-.94.27-2.89.68-5.12,1.1h5.11c2.72-.12,5.44.18,8.07.88,2.16.64,4.06,1.94,5.45,3.71-.36-6.96.36-13.92,2.13-20.66Z"/>
  <path class="uuid-ee9cbf3c-6754-435f-bcba-273b12565b91" d="M6.15,27.63l-.06-.1c-.69-1.3-1.07-2.73-1.13-4.2-.57-5.82-.24-11.69,1-17.41l-2.4.52c-.91.2-1.59.97-1.68,1.9-.57,7.2-.75,14.43-.53,21.65,2.08-.07,4.16-.26,6.22-.56-.57-.52-1.05-1.13-1.42-1.8Z"/>
  <path class="uuid-ee9cbf3c-6754-435f-bcba-273b12565b91" d="M19.49,9.94c-1.42,0-2.58,1.16-2.58,2.58,0,1.42,1.16,2.58,2.58,2.58,1.42,0,2.58-1.16,2.58-2.58,0-1.42-1.16-2.57-2.58-2.58Z"/>
  <path class="uuid-03ecc165-9f17-48b5-a2fa-d5d04dcb8d52" d="M274.01,48.25h-.52v5.53l-68.16-.06v.5l68.41.06h.26v-6.03Z"/>
  <path class="uuid-03ecc165-9f17-48b5-a2fa-d5d04dcb8d52" d="M112.68,53.63v-6.38h-.5v6.88h.25l68.42.07v-.5l-68.17-.07Z"/>
  <path class="uuid-89ea998a-3b57-4f28-8766-1e4119adb9a1" d="M183.83,54.86c.04-.08.08-.15.13-.22l.17-.19.2-.16c.11-.09.23-.17.36-.23l.4-.23.4-.25c.26-.17.47-.4.6-.68.06-.16.09-.33.09-.5,0-.16-.03-.31-.09-.46-.05-.14-.13-.27-.24-.37-.12-.11-.26-.19-.41-.25-.18-.06-.38-.09-.57-.09-.19,0-.38.03-.56.09-.17.06-.32.16-.44.29-.12.12-.21.27-.28.43-.06.19-.09.38-.09.58h.41c0-.14,0-.28.05-.41.04-.12.1-.24.19-.34.08-.1.18-.18.3-.23.11-.06.24-.09.37-.09.13,0,.25.02.37.06.11.03.21.09.3.17.08.08.15.18.2.28.05.11.07.24.07.36,0,.15-.03.3-.09.43-.07.12-.15.22-.25.31-.11.1-.23.19-.36.26-.14.07-.28.16-.43.25l-.47.33c-.17.13-.32.27-.46.43-.12.14-.21.3-.26.48-.05.18-.07.37-.07.56h2.77v-.33h-2.36c0-.1.02-.19.05-.28Z"/>
  <path class="uuid-89ea998a-3b57-4f28-8766-1e4119adb9a1" d="M189.49,53.44v-.5c-.02-.17-.04-.34-.08-.51-.03-.16-.08-.31-.15-.46-.12-.29-.36-.52-.65-.63-.17-.06-.36-.09-.54-.09-.26-.01-.52.05-.74.18-.18.13-.33.29-.43.49-.1.22-.17.45-.21.69-.04.26-.05.53-.05.79,0,.28.01.56.06.83.03.24.11.47.22.69.1.2.25.36.44.48.22.12.46.18.71.17.25,0,.5-.05.72-.17.18-.12.33-.28.44-.47.11-.21.18-.44.21-.68.04-.27.06-.54.05-.81ZM188.93,54.64c-.07.17-.17.32-.31.44-.16.12-.36.18-.56.17-.18,0-.35-.04-.5-.14-.14-.08-.26-.21-.33-.36-.09-.18-.14-.37-.16-.57-.04-.24-.06-.49-.06-.74-.02-.23-.02-.45,0-.68.02-.21.08-.42.16-.61.07-.16.17-.31.31-.42.15-.11.33-.16.52-.16.2,0,.39.05.55.16.14.11.25.25.32.41.08.19.13.39.15.59.02.22.02.45,0,.67.01.22.01.43,0,.65,0,.19-.01.38-.06.57l-.03.02Z"/>
  <path class="uuid-89ea998a-3b57-4f28-8766-1e4119adb9a1" d="M192.86,53.44v-.5c-.02-.17-.04-.34-.08-.51-.03-.16-.08-.31-.15-.46-.12-.29-.36-.52-.65-.63-.17-.06-.36-.09-.54-.09-.26-.01-.52.05-.74.18-.18.13-.33.29-.43.49-.1.22-.17.45-.21.69-.04.26-.05.53-.05.79,0,.28.01.56.06.83.03.24.11.47.22.69.1.2.25.36.44.48.22.12.46.18.71.17.25,0,.5-.05.72-.17.18-.12.33-.28.44-.47.11-.21.18-.44.21-.68.04-.27.06-.54.05-.81ZM192.3,54.64c-.07.17-.17.32-.31.44-.16.12-.36.18-.56.17-.18,0-.35-.04-.5-.14-.14-.08-.26-.21-.33-.36-.09-.18-.14-.37-.16-.57-.04-.24-.06-.49-.06-.74,0-.23.02-.45.05-.68.02-.21.08-.42.16-.61.07-.16.17-.31.31-.42.15-.11.33-.16.52-.16.2,0,.39.05.55.16.14.11.25.25.32.41.08.19.13.39.15.59.02.22.02.45,0,.67.01.22.01.43,0,.65-.02.2-.07.39-.14.57v.02Z"/>
  <path class="uuid-89ea998a-3b57-4f28-8766-1e4119adb9a1" d="M197.72,53.5c.01-.15.01-.31,0-.46-.02-.14-.07-.27-.14-.39-.07-.12-.17-.22-.29-.28-.16-.08-.33-.11-.51-.1-.21,0-.41.05-.59.14-.19.1-.33.27-.42.46,0-.09-.08-.16-.12-.24-.05-.07-.1-.13-.16-.19-.08-.05-.17-.09-.26-.12-.12-.02-.25-.02-.37,0-.19,0-.39.05-.56.13-.17.1-.31.24-.4.42h0v-.47h-.41v3.04h.36v-1.68c0-.07,0-.14,0-.21,0-.08,0-.15,0-.23.02-.08.04-.15.07-.22.02-.07.05-.13.09-.18.09-.12.2-.21.33-.27.11-.06.24-.09.37-.09.2-.02.39.05.53.19.1.16.15.34.14.53v2.16h.36v-2.12c.02-.08.04-.15.07-.22.03-.06.06-.12.1-.18.08-.11.19-.21.32-.27.12-.06.25-.09.38-.09.2-.02.39.05.53.19.1.16.15.34.14.53v2.16h.36l.08-1.94Z"/>
  <path class="uuid-89ea998a-3b57-4f28-8766-1e4119adb9a1" d="M202.72,53.5c.01-.15.01-.31,0-.46-.02-.14-.07-.27-.14-.39-.06-.12-.16-.22-.28-.28-.16-.08-.34-.11-.52-.1-.21,0-.41.05-.59.14-.19.1-.33.27-.42.46-.03-.08-.07-.17-.12-.24-.04-.07-.1-.14-.16-.19-.08-.05-.17-.09-.26-.12-.12-.02-.25-.02-.37,0-.19,0-.39.05-.56.13-.17.1-.31.24-.4.42h0v-.47h-.41v3.04h.36v-1.89c0-.08,0-.15,0-.23.02-.08.04-.15.07-.22.02-.07.05-.13.1-.18.08-.12.19-.21.32-.27.12-.06.25-.09.38-.09.2-.02.39.05.53.19.1.16.15.34.14.53v2.16h.36v-1.68c0-.07,0-.14,0-.21,0-.08,0-.15,0-.23.02-.08.04-.15.07-.22.02-.07.05-.13.09-.18.09-.12.2-.21.33-.27.12-.06.25-.09.38-.09.19-.02.39.05.52.19.1.16.15.34.14.53v2.16h.36l.08-1.94Z"/>
  <polygon class="uuid-03ecc165-9f17-48b5-a2fa-d5d04dcb8d52" points="273.51 63.38 149.67 63.38 149.67 63.88 274.01 63.88 274.01 57.44 273.51 57.44 273.51 63.38"/>
  <polygon class="uuid-03ecc165-9f17-48b5-a2fa-d5d04dcb8d52" points=".51 63.38 .51 57.25 .01 57.25 .01 63.5 0 63.88 125.17 63.88 125.17 63.38 .51 63.38"/>
  <path class="uuid-89ea998a-3b57-4f28-8766-1e4119adb9a1" d="M130.49,63.77h-.58v-2.83h-.35l-2,2.82v.33h1.93v1h.39v-1h.61v-.32ZM129.49,61.52v2.25h-1.56l1.56-2.25Z"/>
  <path class="uuid-89ea998a-3b57-4f28-8766-1e4119adb9a1" d="M132.95,60.9h-.31c-.02.15-.06.3-.14.43-.06.1-.15.18-.25.24-.1.06-.22.1-.34.12l-.44.05v.25h1.1v3.15h.38v-4.24Z"/>
  <path class="uuid-89ea998a-3b57-4f28-8766-1e4119adb9a1" d="M137.19,63.1c0-.17,0-.34,0-.51,0-.17-.03-.34-.07-.5-.03-.16-.08-.31-.15-.46-.07-.14-.15-.27-.26-.38-.11-.11-.25-.2-.39-.26-.17-.06-.36-.09-.54-.09-.26-.01-.52.05-.74.19-.18.12-.33.28-.43.48-.11.22-.18.46-.21.7-.04.26-.06.52-.06.78,0,.28.02.56.06.83.04.24.11.47.23.69.1.2.24.36.43.48.22.12.47.18.72.17.25,0,.5-.05.72-.17.18-.11.33-.28.43-.47.11-.21.19-.44.22-.68.03-.27.05-.53.04-.8ZM136.63,64.3c-.07.17-.18.31-.32.43-.16.12-.35.18-.55.17-.18,0-.35-.04-.5-.13-.14-.09-.25-.21-.33-.36-.09-.18-.14-.37-.17-.57-.03-.25-.05-.49-.05-.74,0-.23.02-.46.05-.69.02-.21.07-.41.15-.6.07-.17.18-.32.32-.43.15-.11.33-.16.52-.15.19,0,.39.04.55.15.14.11.25.26.31.42.08.18.14.38.16.58v1.32c-.02.21-.07.41-.14.6Z"/>
  <path class="uuid-89ea998a-3b57-4f28-8766-1e4119adb9a1" d="M142.05,63.17v-.45c-.03-.14-.07-.27-.14-.4-.07-.11-.17-.21-.29-.28-.36-.15-.77-.13-1.11.05-.18.11-.33.26-.42.45-.03-.08-.07-.16-.11-.23-.05-.07-.11-.14-.18-.19-.07-.06-.16-.11-.25-.13-.12-.03-.24-.05-.37-.05-.2,0-.39.05-.57.14-.17.1-.3.24-.39.41h0v-.46h-.36v3.11h.36v-1.7c0-.07,0-.14,0-.21,0-.08,0-.15,0-.23.02-.07.04-.15.06-.22.03-.06.06-.12.1-.18.08-.11.19-.21.32-.27.12-.05.25-.08.38-.08.2-.03.39.04.53.19.1.16.15.34.14.53v2.15h.36v-1.89c0-.08,0-.15,0-.23.02-.07.04-.15.07-.22.02-.07.05-.13.1-.18.08-.12.19-.21.32-.27.12-.05.25-.08.38-.08.2-.03.39.05.53.19.1.16.15.34.14.53v2.15h.36l.04-1.95Z"/>
  <path class="uuid-89ea998a-3b57-4f28-8766-1e4119adb9a1" d="M147.05,63.17c0-.15,0-.3,0-.45-.02-.14-.07-.28-.14-.4-.07-.12-.17-.21-.29-.28-.16-.07-.33-.1-.51-.1-.21,0-.41.05-.59.15-.18.1-.33.26-.42.45-.03-.08-.07-.16-.12-.23-.05-.07-.11-.13-.17-.19-.08-.06-.17-.11-.26-.13-.12-.03-.24-.05-.37-.05-.2,0-.39.05-.56.14-.17.09-.31.23-.4.41h0v-.46h-.36v3.11h.36v-1.7c0-.07,0-.14,0-.21,0-.08,0-.15,0-.23.02-.07.04-.15.07-.22.02-.06.05-.13.09-.18.09-.12.2-.21.33-.27.12-.05.25-.08.38-.08.2-.03.39.05.53.19.1.16.14.34.13.53v2.15h.36v-1.68c0-.07,0-.14,0-.21,0-.15.04-.3.09-.45.03-.06.06-.12.1-.18.08-.11.19-.21.32-.27.12-.05.25-.08.38-.08.2-.03.39.05.53.19.1.16.15.34.14.53v2.15h.36l.02-1.95Z"/>
  <path class="uuid-b20906b5-8e3f-4710-8889-feffa8568797" d="M274.56,14.01C213.99,4.87,160.39,4.01,111.48,4.53l-10.35.1c-10.16.32-20.53-1-30.57-2.28C61.14,1.15,51.39-.09,41.77,0,28.69.15,15.61,2.78,3.33,5.46c-1.35.29-2.34,1.43-2.45,2.8C.3,15.49.12,22.76.34,30.02c0,.27.12.53.32.72.2.19.47.29.74.27,7.15-.24,14.22-2,21.06-3.72,3.79-.94,7.71-1.92,11.59-2.63,10.69-1.94,21.74-2,32.44-2h27.52c2.79-.15,5.59.13,8.3.83,2.64.7,4.82,2.57,5.9,5.08l3.88,12c.22.69.86,1.16,1.58,1.16h4.18c24.3,0,51.4-.17,77.41-3.37,31.23-3.83,57.23-11.49,79.47-23.42.19-.1.29-.31.25-.52-.03-.22-.2-.38-.42-.41ZM1.34,30.01c-.22-7.22-.04-14.45.53-21.65.09-.93.77-1.7,1.68-1.9l2.4-.52c-1.24,5.72-1.57,11.59-1,17.41.06,1.47.44,2.9,1.13,4.2l.06.1c.37.67.85,1.28,1.41,1.8-2.06.29-4.13.47-6.21.54v.02ZM66.48,21.71c-10.73,0-21.83,0-32.61,2-3.91.71-7.85,1.69-11.65,2.64-4.31,1.08-8.71,2.17-13.15,2.89-.89-.46-1.61-1.19-2.06-2.09l-.06-.11c-.61-1.17-.95-2.46-1-3.78-.58-5.87-.22-11.79,1.07-17.54C18.22,3.33,30.02,1.16,41.78,1.04c9.58-.09,19.27,1.14,28.66,2.33,8.62,1.26,17.3,2.04,26,2.32.35,3.59.43,7.21.21,10.81.28,1.43-.66,2.82-2.09,3.09-.08.02-.17.03-.25.04-1.67.49-6.7,1.42-10.7,2.06l-17.13.02ZM102.63,22.55c-2.63-.7-5.35-1-8.07-.88h-5.07c2.23-.42,4.18-.83,5.12-1.1.8-.17,1.54-.56,2.14-1.13.63-.83.96-1.86.92-2.9.21-3.62.15-7.24-.2-10.85h3.72l9.06-.09c-1.78,6.75-2.49,13.73-2.13,20.7-1.39-1.8-3.31-3.12-5.49-3.77v.02ZM195.16,37.44c-27.46,3.38-54.92,3.37-81.47,3.36-.29,0-.54-.19-.63-.46h0l-3.89-12.06c-.08-.22-.17-.43-.28-.63h.27c-.54-7.4.16-14.83,2.08-22h.25c48.46-.47,101.54.33,161.43,9.24-21.83,11.34-47.28,18.74-77.76,22.55Z"/>
  <path class="uuid-03ecc165-9f17-48b5-a2fa-d5d04dcb8d52" d="M83.66,13.9c1.7,0,3.08-1.38,3.08-3.08s-1.38-3.08-3.08-3.08c-1.7,0-3.08,1.38-3.08,3.08s1.38,3.08,3.08,3.08h0ZM83.66,8.25c1.42,0,2.58,1.16,2.58,2.58,0,1.42-1.16,2.58-2.58,2.58-1.42,0-2.58-1.16-2.58-2.58,0,0,0,0,0,0,0-1.42,1.15-2.57,2.57-2.57,0,0,0,0,.01,0Z"/>
  <path class="uuid-03ecc165-9f17-48b5-a2fa-d5d04dcb8d52" d="M51.16,6.62c-1.7,0-3.08,1.38-3.08,3.08,0,1.7,1.38,3.08,3.08,3.08,1.7,0,3.08-1.38,3.08-3.08,0,0,0,0,0,0,0-1.7-1.38-3.07-3.08-3.07ZM51.16,12.27c-1.42,0-2.58-1.16-2.58-2.58,0-1.42,1.16-2.58,2.58-2.58,1.42,0,2.58,1.16,2.58,2.58,0,1.42-1.16,2.57-2.58,2.58Z"/>
  <path class="uuid-03ecc165-9f17-48b5-a2fa-d5d04dcb8d52" d="M19.49,9.44c-1.7,0-3.08,1.38-3.08,3.08,0,1.7,1.38,3.08,3.08,3.08,1.7,0,3.08-1.38,3.08-3.08s-1.38-3.08-3.08-3.08h0ZM19.49,15.09c-1.42,0-2.58-1.16-2.58-2.58,0-1.42,1.16-2.58,2.58-2.58,1.42,0,2.58,1.16,2.58,2.58,0,0,0,0,0,0,0,1.42-1.16,2.57-2.58,2.57Z"/>
</svg>