<?xml version="1.0" encoding="UTF-8"?>
<svg id="uuid-3d719d64-3cd0-4943-99d9-1ec7e268b6e1" data-name="Layer_1" xmlns="http://www.w3.org/2000/svg" width="275.12" height="64.62" viewBox="0 0 275.12 64.62">
  <defs>
    <style>
      .uuid-46b43dc2-c4f7-429b-90dc-f6f67fcd28d9 {
        opacity: .6;
      }

      .uuid-46b43dc2-c4f7-429b-90dc-f6f67fcd28d9, .uuid-e62a0e50-0617-4da9-bf76-3e8992bcfb80 {
        isolation: isolate;
      }

      .uuid-46b43dc2-c4f7-429b-90dc-f6f67fcd28d9, .uuid-e62a0e50-0617-4da9-bf76-3e8992bcfb80, .uuid-3f422131-bfe9-4c6a-9780-9298bfc5a3f4 {
        fill: #273a5b;
      }

      .uuid-e866c84a-f7d2-4163-a3f0-098229e85f1b {
        fill: none;
      }

      .uuid-e62a0e50-0617-4da9-bf76-3e8992bcfb80 {
        opacity: .25;
      }
    </style>
  </defs>
  <path class="uuid-e866c84a-f7d2-4163-a3f0-098229e85f1b" d="M47.81,7.49c-1.1,0-2,.9-2,2s.9,2,2,2,2-.9,2-2-.9-2-2-2Z"/>
  <path class="uuid-e866c84a-f7d2-4163-a3f0-098229e85f1b" d="M94.41,3.36C68.08,1.63,40.92-.14,14.22,2.01c-3.48.28-6.82.69-9.38,2.6C.61,7.74.25,14.14,2.35,18.51h0c.17.34.36.68.57,1,3.27,5.35,9.39,7.86,13.95,9,.12.03.24,0,.33-.09,2.99-2.74,6.71-4.56,10.71-5.24,4.45-.86,9-.68,13.48-.51l2.36.09c12.07.39,24.14-.57,36-2.86l1.49-.29c3.01-.68,6.08-1.1,9.16-1.27h.65c.94,0,1.88.06,2.82.17.39-4.99.56-10.1.54-15.15ZM15.83,13.1c-1.66,0-3-1.34-3-3s1.34-3,3-3,3,1.34,3,3h0c0,1.66-1.34,3-3,3,0,0,0,0,0,0ZM47.83,12.54c-1.66,0-3-1.34-3-3s1.34-3,3-3,3,1.34,3,3c0,1.66-1.34,3-3,3,0,0-.01,0-.02,0h.02ZM79.53,12.54c-1.66,0-3-1.34-3-3s1.34-3,3-3,3,1.34,3,3c0,1.66-1.34,3-3,3-.01,0-.03,0-.04,0h.04Z"/>
  <path class="uuid-e866c84a-f7d2-4163-a3f0-098229e85f1b" d="M15.83,8.05c-1.1,0-2,.9-2,2,0,1.1.9,2,2,2s2-.9,2-2h0c0-1.1-.9-2-2-2Z"/>
  <path class="uuid-e866c84a-f7d2-4163-a3f0-098229e85f1b" d="M79.49,7.49c-1.1,0-2,.9-2,2s.9,2,2,2,2-.9,2-2-.9-2-2-2Z"/>
  <path class="uuid-e866c84a-f7d2-4163-a3f0-098229e85f1b" d="M107.77,3.21c-6.38,0-10.73.12-12.36.15,0,5.11-.15,10.27-.51,15.37,2.14.35,4.19,1.15,6,2.34,3.02,2.24,5.23,5.4,6.31,9,.76,2.36,1.28,4.78,1.56,7.24.2,1.55,1.52,2.7,3.08,2.71h3.79c-6.27-11.2-9.02-24.03-7.87-36.81Z"/>
  <path class="uuid-e866c84a-f7d2-4163-a3f0-098229e85f1b" d="M108.77,3.2c-1.15,12.78,1.64,25.61,8,36.76,24.36-.1,49-1,73.31-2.7,13.63-1,29.47-2.28,44.83-5.84,13.64-3.04,26.53-8.79,37.91-16.89C234.69,3.44,143.8,2.95,108.77,3.2Z"/>
  <path class="uuid-e62a0e50-0617-4da9-bf76-3e8992bcfb80" d="M274.01,47.75h-.52v5.29l-70.16-.06v.5l70.41.06h.26v-5.79h0Z"/>
  <path class="uuid-e62a0e50-0617-4da9-bf76-3e8992bcfb80" d="M108.68,52.89v-6.05h-.5v6.6h.25l70.42.07v-.5l-70.17-.12Z"/>
  <path class="uuid-46b43dc2-c4f7-429b-90dc-f6f67fcd28d9" d="M181.83,54.26c.04-.08.08-.15.13-.22l.17-.19.2-.16c.11-.09.23-.17.36-.23l.4-.23.4-.25c.26-.17.47-.4.6-.68.06-.16.09-.33.09-.5,0-.16-.03-.31-.09-.46-.05-.14-.13-.27-.24-.37-.12-.11-.26-.19-.41-.25-.18-.06-.38-.09-.57-.09-.19,0-.38.03-.56.09-.17.06-.32.16-.44.29-.12.12-.21.27-.28.43-.06.19-.09.38-.09.58h.41c0-.14,0-.28.05-.41.04-.12.1-.24.19-.34.08-.1.18-.18.3-.23.11-.06.24-.09.37-.09.13,0,.25.02.37.06.11.03.21.09.3.17.08.08.15.18.2.28.05.11.07.24.07.36,0,.15-.03.3-.09.43-.07.12-.15.22-.25.31-.11.1-.23.19-.36.26-.14.07-.28.16-.43.25l-.47.33c-.17.13-.32.27-.46.43-.12.14-.21.3-.26.48-.05.18-.07.37-.07.56h2.77v-.33h-2.36c0-.1.02-.19.05-.28Z"/>
  <path class="uuid-46b43dc2-c4f7-429b-90dc-f6f67fcd28d9" d="M187.49,52.84v-.5c-.02-.17-.04-.34-.08-.51-.03-.16-.08-.31-.15-.46-.12-.29-.36-.52-.65-.63-.17-.06-.36-.09-.54-.09-.26-.01-.52.05-.74.18-.18.13-.33.29-.43.49-.1.22-.17.45-.21.69-.04.26-.05.53-.05.79,0,.28.01.56.06.83.03.24.11.47.22.69.1.2.25.36.44.48.22.12.46.18.71.17.25,0,.5-.05.72-.17.18-.12.33-.28.44-.47.11-.21.18-.44.21-.68.04-.27.06-.54.05-.81ZM186.93,54.04c-.07.17-.17.32-.31.44-.16.12-.36.18-.56.17-.18,0-.35-.04-.5-.14-.14-.08-.26-.21-.33-.36-.09-.18-.14-.37-.16-.57-.04-.24-.06-.49-.06-.74-.02-.23-.02-.45,0-.68.02-.21.08-.42.16-.61.07-.16.17-.31.31-.42.15-.11.33-.16.52-.16.2,0,.39.05.55.16.14.11.25.25.32.41.08.19.13.39.15.59.02.22.02.45,0,.67.01.22.01.43,0,.65,0,.19-.01.38-.06.57l-.03.02Z"/>
  <path class="uuid-46b43dc2-c4f7-429b-90dc-f6f67fcd28d9" d="M190.86,52.84v-.5c-.02-.17-.04-.34-.08-.51-.03-.16-.08-.31-.15-.46-.12-.29-.36-.52-.65-.63-.17-.06-.36-.09-.54-.09-.26-.01-.52.05-.74.18-.18.13-.33.29-.43.49-.1.22-.17.45-.21.69-.04.26-.05.53-.05.79,0,.28.01.56.06.83.03.24.11.47.22.69.1.2.25.36.44.48.22.12.46.18.71.17.25,0,.5-.05.72-.17.18-.12.33-.28.44-.47.11-.21.18-.44.21-.68.04-.27.06-.54.05-.81ZM190.3,54.04c-.07.17-.17.32-.31.44-.16.12-.36.18-.56.17-.18,0-.35-.04-.5-.14-.14-.08-.26-.21-.33-.36-.09-.18-.14-.37-.16-.57-.04-.24-.06-.49-.06-.74,0-.23.02-.45.05-.68.02-.21.08-.42.16-.61.07-.16.17-.31.31-.42.15-.11.33-.16.52-.16.2,0,.39.05.55.16.14.11.25.25.32.41.08.19.13.39.15.59.02.22.02.45,0,.67.01.22.01.43,0,.65-.02.2-.07.39-.14.57v.02Z"/>
  <path class="uuid-46b43dc2-c4f7-429b-90dc-f6f67fcd28d9" d="M195.72,52.9c.01-.15.01-.31,0-.46-.02-.14-.07-.27-.14-.39-.07-.12-.17-.22-.29-.28-.16-.08-.33-.11-.51-.1-.21,0-.41.05-.59.14-.19.1-.33.27-.42.46,0-.09-.08-.16-.12-.24-.05-.07-.1-.13-.16-.19-.08-.05-.17-.09-.26-.12-.12-.02-.25-.02-.37,0-.19,0-.39.05-.56.13-.17.1-.31.24-.4.42h0v-.47h-.41v3.04h.36v-1.68c0-.07,0-.14,0-.21,0-.08,0-.15,0-.23.02-.08.04-.15.07-.22.02-.07.05-.13.09-.18.09-.12.2-.21.33-.27.11-.06.24-.09.37-.09.2-.02.39.05.53.19.1.16.15.34.14.53v2.16h.36v-2.12c.02-.08.04-.15.07-.22.03-.06.06-.12.1-.18.08-.11.19-.21.32-.27.12-.06.25-.09.38-.09.2-.02.39.05.53.19.1.16.15.34.14.53v2.16h.36l.08-1.94Z"/>
  <path class="uuid-46b43dc2-c4f7-429b-90dc-f6f67fcd28d9" d="M200.72,52.9c.01-.15.01-.31,0-.46-.02-.14-.07-.27-.14-.39-.06-.12-.16-.22-.28-.28-.16-.08-.34-.11-.52-.1-.21,0-.41.05-.59.14-.19.1-.33.27-.42.46-.03-.08-.07-.17-.12-.24-.04-.07-.1-.14-.16-.19-.08-.05-.17-.09-.26-.12-.12-.02-.25-.02-.37,0-.19,0-.39.05-.56.13-.17.1-.31.24-.4.42h0v-.47h-.41v3.04h.36v-1.89c0-.08,0-.15,0-.23.02-.08.04-.15.07-.22.02-.07.05-.13.1-.18.08-.12.19-.21.32-.27.12-.06.25-.09.38-.09.2-.02.39.05.53.19.1.16.15.34.14.53v2.16h.36v-1.68c0-.07,0-.14,0-.21,0-.08,0-.15,0-.23.02-.08.04-.15.07-.22.02-.07.05-.13.09-.18.09-.12.2-.21.33-.27.12-.06.25-.09.38-.09.19-.02.39.05.52.19.1.16.15.34.14.53v2.16h.36l.08-1.94Z"/>
  <polygon class="uuid-e62a0e50-0617-4da9-bf76-3e8992bcfb80" points=".51 62.78 .51 56.65 .01 56.65 .01 62.9 0 63.28 125.17 63.28 125.17 62.78 .51 62.78"/>
  <polygon class="uuid-e62a0e50-0617-4da9-bf76-3e8992bcfb80" points="273.51 62.78 149.67 62.78 149.67 63.28 274.01 63.28 274.01 56.84 273.51 56.84 273.51 62.78"/>
  <path class="uuid-46b43dc2-c4f7-429b-90dc-f6f67fcd28d9" d="M130.49,63.17h-.58v-2.83h-.35l-2,2.82v.33h1.93v1h.39v-1h.61v-.32ZM129.49,60.92v2.25h-1.56l1.56-2.25Z"/>
  <path class="uuid-46b43dc2-c4f7-429b-90dc-f6f67fcd28d9" d="M133.85,62.5c0-.17,0-.34,0-.51,0-.17-.03-.34-.07-.5-.03-.16-.08-.31-.15-.46-.07-.14-.15-.27-.26-.38-.11-.11-.25-.2-.39-.26-.17-.06-.36-.09-.54-.09-.26-.01-.52.05-.74.19-.18.12-.33.28-.43.48-.11.22-.18.46-.21.7-.04.26-.06.52-.06.78,0,.28.02.56.06.83.04.24.11.47.23.69.1.2.24.36.43.48.45.23.99.23,1.44,0,.18-.11.33-.28.43-.47.11-.21.19-.44.22-.68.03-.27.05-.53.04-.8ZM133.29,63.7c-.07.17-.18.31-.32.43-.16.12-.35.18-.55.17-.18,0-.35-.04-.5-.13-.14-.09-.25-.21-.33-.36-.09-.18-.14-.37-.17-.57-.03-.25-.05-.49-.05-.74,0-.23.02-.46.05-.69.02-.21.07-.41.15-.6.07-.17.18-.32.32-.43.15-.11.33-.16.52-.15.19,0,.39.04.55.15.14.11.25.26.31.42.08.18.14.38.16.58v1.32c-.02.21-.07.41-.14.6Z"/>
  <path class="uuid-46b43dc2-c4f7-429b-90dc-f6f67fcd28d9" d="M137.19,62.5c0-.17,0-.34,0-.51,0-.17-.03-.34-.07-.5-.03-.16-.08-.31-.15-.46-.07-.14-.15-.27-.26-.38-.11-.11-.25-.2-.39-.26-.17-.06-.36-.09-.54-.09-.26-.01-.52.05-.74.19-.18.12-.33.28-.43.48-.11.22-.18.46-.21.7-.04.26-.06.52-.06.78,0,.28.02.56.06.83.04.24.11.47.23.69.1.2.24.36.43.48.22.12.47.18.72.17.25,0,.5-.05.72-.17.18-.11.33-.28.43-.47.11-.21.19-.44.22-.68.03-.27.05-.53.04-.8ZM136.63,63.7c-.07.17-.18.31-.32.43-.16.12-.35.18-.55.17-.18,0-.35-.04-.5-.13-.14-.09-.25-.21-.33-.36-.09-.18-.14-.37-.17-.57-.03-.25-.05-.49-.05-.74,0-.23.02-.46.05-.69.02-.21.07-.41.15-.6.07-.17.18-.32.32-.43.15-.11.33-.16.52-.15.19,0,.39.04.55.15.14.11.25.26.31.42.08.18.14.38.16.58v1.32c-.02.21-.07.41-.14.6Z"/>
  <path class="uuid-46b43dc2-c4f7-429b-90dc-f6f67fcd28d9" d="M142.05,62.57v-.45c-.03-.14-.07-.27-.14-.4-.07-.11-.17-.21-.29-.28-.36-.15-.77-.13-1.11.05-.18.11-.33.26-.42.45-.03-.08-.07-.16-.11-.23-.05-.07-.11-.14-.18-.19-.07-.06-.16-.11-.25-.13-.12-.03-.24-.05-.37-.05-.2,0-.39.05-.57.14-.17.1-.3.24-.39.41h0v-.46h-.36v3.11h.36v-1.7c0-.07,0-.14,0-.21,0-.08,0-.15,0-.23.02-.07.04-.15.06-.22.03-.06.06-.12.1-.18.08-.11.19-.21.32-.27.12-.05.25-.08.38-.08.2-.03.39.04.53.19.1.16.15.34.14.53v2.15h.36v-1.89c0-.08,0-.15,0-.23.02-.07.04-.15.07-.22.02-.07.05-.13.1-.18.08-.12.19-.21.32-.27.12-.05.25-.08.38-.08.2-.03.39.05.53.19.1.16.15.34.14.53v2.15h.36l.04-1.95Z"/>
  <path class="uuid-46b43dc2-c4f7-429b-90dc-f6f67fcd28d9" d="M147.05,62.57c0-.15,0-.3,0-.45-.02-.14-.07-.28-.14-.4-.07-.12-.17-.21-.29-.28-.16-.07-.33-.1-.51-.1-.21,0-.41.05-.59.15-.18.1-.33.26-.42.45-.03-.08-.07-.16-.12-.23-.05-.07-.11-.13-.17-.19-.08-.06-.17-.11-.26-.13-.12-.03-.24-.05-.37-.05-.2,0-.39.05-.56.14-.17.09-.31.23-.4.41h0v-.46h-.36v3.11h.36v-1.7c0-.07,0-.14,0-.21,0-.08,0-.15,0-.23.02-.07.04-.15.07-.22.02-.06.05-.13.09-.18.09-.12.2-.21.33-.27.12-.05.25-.08.38-.08.2-.03.39.05.53.19.1.16.14.34.13.53v2.15h.36v-1.68c0-.07,0-.14,0-.21,0-.15.04-.3.09-.45.03-.06.06-.12.1-.18.08-.11.19-.21.32-.27.12-.05.25-.08.38-.08.2-.03.39.05.53.19.1.16.15.34.14.53v2.15h.36l.02-1.95Z"/>
  <path class="uuid-3f422131-bfe9-4c6a-9780-9298bfc5a3f4" d="M274.13,13.84C227.28-.34,95.98,2.33,94.7,2.36,68.3.62,41-1.17,14.14.99c-3.63.3-7.12.73-9.9,2.79C-.58,7.36-.76,14.25,1.45,18.92c.18.39.39.77.62,1.14,3.44,5.64,9.81,8.26,14.55,9.47.45.12.94-.01,1.27-.34,2.86-2.61,6.4-4.34,10.21-5,4.33-.84,8.87-.66,13.25-.49l2.37.09c12.16.39,24.32-.58,36.26-2.87l1.49-.3c2.96-.66,5.97-1.08,9-1.25,7.27-.79,14.02,3.88,15.82,10.97.74,2.3,1.25,4.66,1.52,7.06.27,2.04,2.01,3.56,4.07,3.57h1.09c25.66,0,51.63-.92,77.22-2.72,13.67-1,29.55-2.29,45-5.86,14.1-3.16,27.4-9.16,39.1-17.65l.83-.59-.99-.31ZM90.49,18.41c-3.08.17-6.15.59-9.16,1.27l-1.49.29c-11.86,2.29-23.93,3.25-36,2.86l-2.36-.09c-4.44-.17-9-.35-13.48.51-4,.68-7.72,2.5-10.71,5.24-.09.09-.21.12-.33.09-4.56-1.16-10.68-3.67-13.95-9-.21-.32-.4-.66-.57-1h0C.34,14.21.7,7.81,4.93,4.68c2.56-1.91,5.9-2.32,9.38-2.6,26.7-2.15,53.86-.38,80.19,1.35,0,5-.15,10.16-.5,15.21-.94-.11-1.88-.17-2.82-.17l-.69-.06ZM111.93,39.97c-1.56,0-2.88-1.16-3.08-2.71-.28-2.46-.8-4.88-1.56-7.24-1.08-3.6-3.29-6.76-6.31-9-1.81-1.19-3.86-1.99-6-2.34.36-5.1.53-10.26.51-15.37,1.63,0,6-.1,12.36-.15-1.13,12.77,1.63,25.57,7.9,36.75-1.34.05-2.61.07-3.87.06h.05ZM235,31.42c-15.36,3.56-31.2,4.88-44.83,5.84-24.29,1.71-48.95,2.6-73.31,2.7-6.36-11.15-9.15-23.98-8-36.76,35-.25,125.92.24,164.09,11.33-11.41,8.11-24.33,13.86-38,16.89h.05Z"/>
  <path class="uuid-e62a0e50-0617-4da9-bf76-3e8992bcfb80" d="M79.49,6.49c-1.66,0-3,1.34-3,3s1.34,3,3,3,3-1.34,3-3-1.34-3-3-3ZM79.49,11.49c-1.1,0-2-.9-2-2s.9-2,2-2,2,.9,2,2c.03,1.1-.85,2.02-1.95,2.05-.02,0-.03,0-.05,0v-.05Z"/>
  <path class="uuid-e62a0e50-0617-4da9-bf76-3e8992bcfb80" d="M47.81,6.49c-1.66,0-3,1.34-3,3s1.34,3,3,3,3-1.34,3-3-1.34-3-3-3ZM47.81,11.49c-1.1,0-2-.9-2-2s.9-2,2-2,2,.9,2,2c.03,1.1-.85,2.02-1.95,2.05-.02,0-.03,0-.05,0v-.05Z"/>
  <path class="uuid-e62a0e50-0617-4da9-bf76-3e8992bcfb80" d="M15.83,7.05c-1.66,0-3,1.34-3,3,0,1.66,1.34,3,3,3s3-1.34,3-3h0c0-1.66-1.34-3-3-3ZM15.83,12.1c-1.1,0-2-.9-2-2,0-1.1.9-2,2-2s2,.9,2,2h0c0,1.1-.9,2-2,2Z"/>
</svg>