<?xml version="1.0" encoding="UTF-8"?>
<svg id="uuid-1d080328-6e39-46ca-b4bb-0e8b66205a16" data-name="Layer_1" xmlns="http://www.w3.org/2000/svg" width="274.37" height="63.45" viewBox="0 0 274.37 63.45">
  <defs>
    <style>
      .uuid-82a4c4c0-89c7-4409-bdb2-2ca40ca05599 {
        opacity: .6;
      }

      .uuid-82a4c4c0-89c7-4409-bdb2-2ca40ca05599, .uuid-f9e07a15-9991-458a-9d4f-f9665e00dd6d {
        isolation: isolate;
      }

      .uuid-82a4c4c0-89c7-4409-bdb2-2ca40ca05599, .uuid-f9e07a15-9991-458a-9d4f-f9665e00dd6d, .uuid-4e2d8df8-8c76-42ef-b38a-17734856d50f {
        fill: #273a5b;
      }

      .uuid-32068aab-33c9-4058-8527-3679ee1114ab {
        fill: none;
      }

      .uuid-f9e07a15-9991-458a-9d4f-f9665e00dd6d {
        opacity: .25;
      }
    </style>
  </defs>
  <path class="uuid-32068aab-33c9-4058-8527-3679ee1114ab" d="M93.48,2.03c-.73,5.2-1.38,10.5-1.95,15.77.84-.23,1.7-.4,2.56-.51,3.7-.46,7,.5,9.07,2.62l.23.26c3.46,5.68,6.17,11.79,8.07,18.16h6c-2.05-1.51-3.66-3.54-4.65-5.89-1.13-2.82-1.91-5.76-2.33-8.76-1.08-5.24-1.76-10.56-2.05-15.9-.15-1.65.11-3.31.76-4.84.28-.55.66-1.05,1.13-1.46-5,.12-10.18.25-15.47.4l-2.13.07.76.08Z"/>
  <path class="uuid-32068aab-33c9-4058-8527-3679ee1114ab" d="M66.3,14.97c1.41,0,2.56-1.15,2.56-2.56,0-1.41-1.15-2.56-2.56-2.56-1.41,0-2.56,1.15-2.56,2.56h0c0,1.41,1.15,2.56,2.56,2.56Z"/>
  <path class="uuid-32068aab-33c9-4058-8527-3679ee1114ab" d="M113.29,1.43c-.15-.02-.31-.02-.46,0h-.09c-1.18.16-2.2.92-2.7,2-.57,1.38-.79,2.88-.65,4.36.27,5.3.94,10.56,2,15.76.41,2.92,1.17,5.78,2.25,8.53,1.08,2.69,3.08,4.9,5.64,6.25h0c30.65-.18,61.55-1.89,92-5.1,11.11-1.17,22.89-2.62,33.85-6.28,11.68-3.9,21.22-10,27.67-17.78-29.31-3.78-59.14-6.29-88.69-7.47-22.79-.9-45.42-.82-70.83-.27h0Z"/>
  <circle class="uuid-32068aab-33c9-4058-8527-3679ee1114ab" cx="37.79" cy="13.12" r="2.56"/>
  <path class="uuid-32068aab-33c9-4058-8527-3679ee1114ab" d="M23.62,24.72c9.44,0,18.19-.06,26.74-.27,12.61-.31,23.93-.86,34.69-4.52l1.87-.66c1.17-.42,2.36-.84,3.57-1.2.58-5.36,1.24-10.76,2-16.06v-.09c-19.32.6-38.83,2-58,4.07l-2.07.23c-7.68.85-15.62,1.74-23.43,1.29-1.09-.07-2.16.32-2.94,1.09-3.04,3.02-4.83,7.09-5,11.37-.01.26.12.51.35.64,6.06,3.76,13.65,4.05,22.22,4.11ZM66.3,9.36c1.69,0,3.06,1.37,3.06,3.06,0,1.69-1.37,3.06-3.06,3.06-1.69,0-3.06-1.37-3.06-3.06,0-.02,0-.04,0-.06.03-1.67,1.39-3,3.06-3ZM37.79,10.06c1.69,0,3.06,1.37,3.06,3.06,0,1.69-1.37,3.06-3.06,3.06s-3.06-1.37-3.06-3.06h0c0-1.69,1.37-3.06,3.06-3.06Z"/>
  <path class="uuid-f9e07a15-9991-458a-9d4f-f9665e00dd6d" d="M273.85,51.84l-69.66-.06v.5l69.91.06h.26v-5.75h-.51v5.25Z"/>
  <path class="uuid-f9e07a15-9991-458a-9d4f-f9665e00dd6d" d="M110.04,51.66v-6h-.5v6.57h.25l69.92.06v-.5l-69.67-.13Z"/>
  <path class="uuid-82a4c4c0-89c7-4409-bdb2-2ca40ca05599" d="M182.69,53.08c.04-.08.08-.15.13-.22l.17-.19.2-.16c.11-.09.23-.17.36-.23l.4-.23.4-.25c.26-.17.47-.4.6-.68.06-.16.09-.33.09-.5,0-.16-.03-.31-.09-.46-.05-.14-.13-.27-.24-.37-.12-.11-.26-.19-.41-.25-.18-.06-.38-.09-.57-.09-.19,0-.38.03-.56.09-.17.06-.32.16-.44.29-.12.12-.21.27-.28.43-.06.19-.09.38-.09.58h.41c0-.14,0-.28.05-.41.04-.12.1-.24.19-.34.08-.1.18-.18.3-.23.11-.06.24-.09.37-.09.13,0,.25.02.37.06.11.03.21.09.3.17.08.08.15.18.2.28.05.11.07.24.07.36,0,.15-.03.3-.09.43-.07.12-.15.22-.25.31-.11.1-.23.19-.36.26-.14.07-.28.16-.43.25l-.47.33c-.17.13-.32.27-.46.43-.12.14-.21.3-.26.48-.05.18-.07.37-.07.56h2.77v-.33h-2.36c0-.1.02-.19.05-.28Z"/>
  <path class="uuid-82a4c4c0-89c7-4409-bdb2-2ca40ca05599" d="M188.38,51.66v-.5c-.02-.17-.04-.34-.08-.51-.03-.16-.08-.31-.15-.46-.12-.29-.36-.52-.65-.63-.17-.06-.36-.09-.54-.09-.26-.01-.52.05-.74.18-.18.13-.33.29-.43.49-.1.22-.17.45-.21.69-.04.26-.05.53-.05.79,0,.28.01.56.06.83.03.24.11.47.22.69.1.2.25.36.44.48.22.12.46.18.71.17.25,0,.5-.05.72-.17.18-.12.33-.28.44-.47.11-.21.18-.44.21-.68.04-.27.06-.54.05-.81ZM187.82,52.86c-.07.17-.17.32-.31.44-.16.12-.36.18-.56.17-.18,0-.35-.04-.5-.14-.14-.08-.26-.21-.33-.36-.09-.18-.14-.37-.16-.57-.04-.24-.06-.49-.06-.74-.02-.23-.02-.45,0-.68.02-.21.08-.42.16-.61.07-.16.17-.31.31-.42.15-.11.33-.16.52-.16.2,0,.39.05.55.16.14.11.25.25.32.41.08.19.13.39.15.59.02.22.02.45,0,.67.01.22.01.43,0,.65,0,.19-.01.38-.06.57l-.03.02Z"/>
  <path class="uuid-82a4c4c0-89c7-4409-bdb2-2ca40ca05599" d="M191.72,51.66v-.5c-.02-.17-.04-.34-.08-.51-.03-.16-.08-.31-.15-.46-.12-.29-.36-.52-.65-.63-.17-.06-.36-.09-.54-.09-.26-.01-.52.05-.74.18-.18.13-.33.29-.43.49-.1.22-.17.45-.21.69-.04.26-.05.53-.05.79,0,.28.01.56.06.83.03.24.11.47.22.69.1.2.25.36.44.48.22.12.46.18.71.17.25,0,.5-.05.72-.17.18-.12.33-.28.44-.47.11-.21.18-.44.21-.68.04-.27.06-.54.05-.81ZM191.16,52.86c-.07.17-.17.32-.31.44-.16.12-.36.18-.56.17-.18,0-.35-.04-.5-.14-.14-.08-.26-.21-.33-.36-.09-.18-.14-.37-.16-.57-.04-.24-.06-.49-.06-.74,0-.23.02-.45.05-.68.02-.21.08-.42.16-.61.07-.16.17-.31.31-.42.15-.11.33-.16.52-.16.2,0,.39.05.55.16.14.11.25.25.32.41.08.19.13.39.15.59.02.22.02.45,0,.67.01.22.01.43,0,.65-.02.2-.07.39-.14.57v.02Z"/>
  <path class="uuid-82a4c4c0-89c7-4409-bdb2-2ca40ca05599" d="M196.58,51.72c.01-.15.01-.31,0-.46-.02-.14-.07-.27-.14-.39-.07-.12-.17-.22-.29-.28-.16-.08-.33-.11-.51-.1-.21,0-.41.05-.59.14-.19.1-.33.27-.42.46,0-.09-.08-.16-.12-.24-.05-.07-.11-.13-.17-.19-.08-.05-.17-.09-.26-.12-.12-.02-.25-.02-.37,0-.19,0-.39.05-.56.13-.17.1-.31.24-.4.42h0v-.47h-.36v3.04h.36v-1.68c0-.07,0-.14,0-.21,0-.08,0-.15,0-.23.02-.08.04-.15.07-.22.02-.07.05-.13.09-.18.09-.12.2-.21.33-.27.11-.06.24-.09.37-.09.2-.02.39.05.53.19.1.16.15.34.14.53v2.16h.36v-2.12c.02-.08.04-.15.07-.22.03-.06.06-.12.1-.18.08-.11.19-.21.32-.27.12-.06.25-.09.38-.09.2-.02.39.05.53.19.1.16.15.34.14.53v2.16h.36l.04-1.94Z"/>
  <path class="uuid-82a4c4c0-89c7-4409-bdb2-2ca40ca05599" d="M201.58,51.72c.01-.15.01-.31,0-.46-.02-.14-.07-.27-.14-.39-.06-.12-.16-.22-.28-.28-.16-.08-.34-.11-.52-.1-.21,0-.41.05-.59.14-.19.1-.33.27-.42.46-.03-.08-.07-.17-.12-.24-.05-.07-.1-.14-.17-.19-.08-.05-.17-.09-.26-.12-.12-.02-.25-.02-.37,0-.19,0-.39.05-.56.13-.17.1-.31.24-.4.42h0v-.47h-.36v3.04h.36v-1.89c0-.08,0-.15,0-.23.02-.08.04-.15.07-.22.02-.07.05-.13.1-.18.08-.12.19-.21.32-.27.12-.06.25-.09.38-.09.2-.02.39.05.53.19.1.16.15.34.14.53v2.16h.36v-1.68c0-.07,0-.14,0-.21,0-.08,0-.15,0-.23.02-.08.04-.15.07-.22.02-.07.05-.13.09-.18.09-.12.2-.21.33-.27.12-.06.25-.09.38-.09.19-.02.39.05.52.19.1.16.15.34.14.53v2.16h.36l.04-1.94Z"/>
  <polygon class="uuid-f9e07a15-9991-458a-9d4f-f9665e00dd6d" points="273.87 61.6 150.03 61.6 150.03 62.1 274.37 62.1 274.37 55.66 273.87 55.66 273.87 61.6"/>
  <polygon class="uuid-f9e07a15-9991-458a-9d4f-f9665e00dd6d" points=".87 61.6 .87 55.47 .37 55.47 .37 61.72 .36 62.1 125.53 62.1 125.53 61.6 .87 61.6"/>
  <path class="uuid-82a4c4c0-89c7-4409-bdb2-2ca40ca05599" d="M130.85,61.86c-.02-.11-.06-.21-.12-.3-.06-.1-.14-.19-.23-.26-.11-.08-.24-.15-.37-.19.18-.08.34-.2.45-.37.1-.17.16-.37.15-.57,0-.16-.03-.32-.1-.47-.06-.13-.15-.24-.26-.33-.11-.09-.24-.15-.38-.19-.15-.04-.31-.06-.47-.06-.17-.02-.34-.02-.51,0-.17.04-.32.12-.45.23-.13.12-.23.27-.31.43-.07.16-.1.34-.1.52h.38c0-.12.02-.25.07-.36.04-.11.11-.21.19-.29.08-.09.17-.15.28-.19.12-.04.24-.06.37-.06.12-.01.23-.01.35,0,.1.03.2.07.29.13.18.14.27.35.26.57,0,.14-.03.28-.09.4-.06.1-.14.19-.24.25-.12.07-.25.11-.39.13-.16.01-.33.01-.49,0v.32c.17-.02.35-.02.52,0,.15.01.3.06.43.13.26.14.41.41.41.7,0,.12-.01.25-.06.36-.06.11-.13.22-.22.31-.1.09-.21.16-.34.21-.14.06-.28.09-.43.08-.28.01-.55-.08-.76-.25-.21-.19-.31-.46-.29-.74h-.39c.02.21.07.42.14.62.12.32.4.56.74.63.21.04.42.06.63.06.2,0,.4-.04.59-.11.16-.06.3-.16.42-.28.12-.11.21-.25.27-.4.06-.16.09-.32.09-.49,0-.06-.02-.11-.03-.17Z"/>
  <path class="uuid-82a4c4c0-89c7-4409-bdb2-2ca40ca05599" d="M134.21,61.26c0-.28-.03-.56-.08-.83-.03-.24-.11-.47-.24-.68-.11-.19-.26-.35-.45-.46-.22-.12-.47-.18-.72-.17-.2,0-.41.03-.6.1-.16.07-.31.17-.43.3-.12.13-.2.28-.25.44-.05.18-.08.37-.08.56,0,.19.03.38.09.56.06.16.15.31.27.43.11.12.25.22.41.28.17.07.35.1.54.1.23,0,.46-.06.66-.17.2-.12.36-.29.48-.49h0c0,.19,0,.39-.05.61-.03.21-.09.42-.17.61-.08.18-.2.34-.35.47-.17.13-.39.2-.61.19-.41.03-.78-.28-.82-.69h-.39c.02.16.06.31.12.45.07.12.16.23.27.32.11.08.24.14.38.18.15.05.3.07.46.06.21,0,.43-.04.62-.13.2-.1.36-.24.49-.42.15-.21.25-.44.32-.68.09-.31.13-.62.13-.94ZM133.61,60.91c-.04.12-.1.24-.19.34-.08.1-.18.18-.3.23-.13.05-.26.08-.4.08-.27.02-.53-.08-.72-.27-.19-.21-.28-.48-.26-.76-.02-.28.07-.56.25-.78.18-.21.45-.32.73-.3.27-.01.53.1.7.3.17.21.26.48.25.76,0,.14-.02.27-.06.4Z"/>
  <path class="uuid-82a4c4c0-89c7-4409-bdb2-2ca40ca05599" d="M137.55,61.32c0-.17,0-.34,0-.51,0-.17-.03-.34-.07-.5-.03-.16-.08-.31-.15-.46-.07-.14-.15-.27-.26-.38-.11-.11-.25-.2-.39-.26-.17-.06-.36-.09-.54-.09-.26-.01-.52.05-.74.19-.18.12-.33.28-.43.48-.11.22-.18.46-.21.7-.04.26-.06.52-.06.78,0,.28.02.56.06.83.04.24.11.47.23.69.1.2.24.36.43.48.22.12.47.18.72.17.25,0,.5-.05.72-.17.18-.11.33-.28.43-.47.11-.21.19-.44.22-.68.03-.27.05-.53.04-.8ZM136.99,62.52c-.07.17-.18.31-.32.43-.16.12-.35.18-.55.17-.18,0-.35-.04-.5-.13-.14-.09-.25-.21-.33-.36-.09-.18-.14-.37-.17-.57-.03-.25-.05-.49-.05-.74,0-.23.02-.46.05-.69.02-.21.07-.41.15-.6.07-.17.18-.32.32-.43.15-.11.33-.16.52-.15.19,0,.39.04.55.15.14.11.25.26.31.42.08.18.14.38.16.58v1.32c-.02.21-.07.41-.14.6Z"/>
  <path class="uuid-82a4c4c0-89c7-4409-bdb2-2ca40ca05599" d="M142.41,61.39v-.45c-.03-.14-.07-.27-.14-.4-.07-.11-.17-.21-.29-.28-.36-.15-.77-.13-1.11.05-.18.11-.33.26-.42.45-.03-.08-.07-.16-.11-.23-.05-.07-.11-.14-.18-.19-.07-.06-.16-.11-.25-.13-.12-.03-.24-.05-.37-.05-.2,0-.39.05-.57.14-.17.1-.3.24-.39.41h0v-.46h-.36v3.11h.36v-1.7c0-.07,0-.14,0-.21,0-.08,0-.15,0-.23.02-.07.04-.15.06-.22.03-.06.06-.12.1-.18.08-.11.19-.21.32-.27.12-.05.25-.08.38-.08.2-.03.39.04.53.19.1.16.15.34.14.53v2.15h.36v-1.89c0-.08,0-.15,0-.23.02-.07.04-.15.07-.22.02-.07.05-.13.1-.18.08-.12.19-.21.32-.27.12-.05.25-.08.38-.08.2-.03.39.05.53.19.1.16.15.34.14.53v2.15h.36l.04-1.95Z"/>
  <path class="uuid-82a4c4c0-89c7-4409-bdb2-2ca40ca05599" d="M147.41,61.39c0-.15,0-.3,0-.45-.02-.14-.07-.28-.14-.4-.07-.12-.17-.21-.29-.28-.16-.07-.33-.1-.51-.1-.21,0-.41.05-.59.15-.18.1-.33.26-.42.45-.03-.08-.07-.16-.12-.23-.05-.07-.11-.13-.17-.19-.08-.06-.17-.11-.26-.13-.12-.03-.24-.05-.37-.05-.2,0-.39.05-.56.14-.17.09-.31.23-.4.41h0v-.46h-.36v3.11h.36v-1.7c0-.07,0-.14,0-.21,0-.08,0-.15,0-.23.02-.07.04-.15.07-.22.02-.06.05-.13.09-.18.09-.12.2-.21.33-.27.12-.05.25-.08.38-.08.2-.03.39.05.53.19.1.16.14.34.13.53v2.15h.36v-1.68c0-.07,0-.14,0-.21,0-.15.04-.3.09-.45.03-.06.06-.12.1-.18.08-.11.19-.21.32-.27.12-.05.25-.08.38-.08.2-.03.39.05.53.19.1.16.15.34.14.53v2.15h.36l.02-1.95Z"/>
  <path class="uuid-4e2d8df8-8c76-42ef-b38a-17734856d50f" d="M.85,21.47c6.31,3.89,14,4.23,22.77,4.25,9.44,0,18.2-.06,26.76-.27,12.7-.31,24.09-.87,35-4.58l1.88-.66c2.25-.9,4.6-1.55,7-1.93,3.4-.41,6.39.43,8.23,2.33l.12.13c3.45,5.7,6.14,11.83,8,18.23l.11.35h2.92c32.65,0,65.29-1.72,97.76-5.14,11.17-1.18,23-2.64,34.07-6.34,12.26-4.09,22.21-10.62,28.77-18.89l-.39-.29v-.38c-29.64-3.85-59.82-6.41-89.71-7.6-22.94-.91-45.71-.82-71.32-.27h-.12c-5.83.12-11.8.28-17.95.45-20.11.55-40.44,2-60.43,4.15l-2.07.22c-7.64.85-15.54,1.73-23.26,1.29-1.38-.09-2.73.41-3.71,1.38C2.08,11.1.19,15.38,0,19.9c-.02.64.3,1.24.85,1.57ZM184.13,1.66c29.55,1.18,59.38,3.69,88.69,7.47-6.45,7.74-16,13.88-27.67,17.78-11,3.66-22.74,5.11-33.85,6.28-30.44,3.21-61.34,4.92-92,5.1h0c-2.56-1.35-4.56-3.56-5.64-6.25-1.08-2.75-1.84-5.61-2.25-8.53-1.06-5.2-1.73-10.46-2-15.76-.14-1.48.08-2.98.65-4.36.5-1.08,1.52-1.84,2.7-2h.09c.15-.02.31-.02.46,0h0c25.4-.55,48.03-.63,70.82.27ZM94.81,1.85c5.29-.15,10.43-.28,15.47-.4-.47.41-.85.91-1.13,1.46-.65,1.53-.91,3.19-.76,4.84.29,5.34.97,10.66,2.05,15.9.42,3,1.2,5.94,2.33,8.76.99,2.35,2.6,4.38,4.65,5.89h-6c-1.9-6.37-4.61-12.48-8.07-18.16l-.23-.26c-2.06-2.12-5.37-3.08-9.07-2.62-.86.11-1.72.28-2.56.51.57-5.27,1.22-10.57,1.95-15.77l-.8-.11,2.17-.04ZM6.02,8.6c.78-.77,1.85-1.16,2.94-1.09,7.81.45,15.75-.44,23.43-1.29l2.07-.23c19.19-2.11,38.7-3.47,58-4.07v.09c-.74,5.3-1.4,10.7-2,16.06-1.21.36-2.4.78-3.57,1.2l-1.87.66c-10.76,3.66-22.08,4.21-34.69,4.52-8.55.21-17.3.3-26.74.27-8.57,0-16.16-.35-22.24-4.11-.23-.13-.36-.38-.35-.64.18-4.29,1.97-8.35,5.02-11.37Z"/>
  <path class="uuid-f9e07a15-9991-458a-9d4f-f9665e00dd6d" d="M66.3,15.47c1.69,0,3.06-1.37,3.06-3.06,0-1.69-1.37-3.06-3.06-3.06-1.69,0-3.06,1.37-3.06,3.06h0c0,1.69,1.37,3.06,3.06,3.06ZM66.3,9.86c1.41,0,2.56,1.15,2.56,2.56s-1.15,2.56-2.56,2.56c-1.41,0-2.56-1.15-2.56-2.56,0,0,0,0,0,0,0-1.41,1.14-2.55,2.55-2.55,0,0,0,0,.01,0Z"/>
  <path class="uuid-f9e07a15-9991-458a-9d4f-f9665e00dd6d" d="M37.79,16.17c1.69,0,3.06-1.37,3.06-3.06,0-1.69-1.37-3.06-3.06-3.06-1.69,0-3.06,1.37-3.06,3.06,0,.02,0,.04,0,.06.03,1.67,1.39,3,3.06,3ZM37.79,10.56c1.41,0,2.56,1.15,2.56,2.56,0,1.41-1.15,2.56-2.56,2.56s-2.56-1.15-2.56-2.56h0c0-1.41,1.15-2.56,2.56-2.56Z"/>
</svg>