<?xml version="1.0" encoding="UTF-8"?>
<svg id="uuid-900833b8-7049-45c7-b04b-30d38adbd8b1" data-name="Layer_1" xmlns="http://www.w3.org/2000/svg" width="274.4" height="61.4" viewBox="0 0 274.4 61.4">
  <defs>
    <style>
      .uuid-01b1d0d8-c8e7-4a24-a6e4-0ee577d44084 {
        opacity: .6;
      }

      .uuid-01b1d0d8-c8e7-4a24-a6e4-0ee577d44084, .uuid-3f875e89-7d8d-485a-8efc-86f8c4294f03 {
        isolation: isolate;
      }

      .uuid-01b1d0d8-c8e7-4a24-a6e4-0ee577d44084, .uuid-3f875e89-7d8d-485a-8efc-86f8c4294f03, .uuid-d6353505-7ae3-44ea-99c3-5c9a24167f74 {
        fill: #273a5b;
      }

      .uuid-af0921d7-8600-4949-ba39-157350ee682c {
        fill: none;
      }

      .uuid-3f875e89-7d8d-485a-8efc-86f8c4294f03 {
        opacity: .25;
      }
    </style>
  </defs>
  <circle class="uuid-af0921d7-8600-4949-ba39-157350ee682c" cx="22.36" cy="10.39" r="2.47"/>
  <path class="uuid-af0921d7-8600-4949-ba39-157350ee682c" d="M13.45,26.12c4.73-3.59,11.18-5.54,19.18-5.79,3.9-.13,7.85.13,11.67.38,2.77.18,5.63.37,8.44.41,6.79-.05,13.57-.51,20.3-1.39,3.8-.42,7.73-.85,11.61-1.11,1.3-.09,2.65-.17,4-.17,3.31-.14,6.61.55,9.59,2,.31.17.6.36.9.55,2.69-6.26,4.2-12.96,4.48-19.77-13.09,0-26.52-.08-40-.08H13.46C8.67.4,3.98,2.94,1.98,7.36c-1.76,4.25-1.12,9.12,1.67,12.78,2.42,3.13,5.91,5.25,9.8,5.98ZM85,6.92c1.92,0,3.47,1.55,3.47,3.47s-1.55,3.47-3.47,3.47-3.47-1.55-3.47-3.47c0-1.91,1.54-3.46,3.45-3.47,0,0,.01,0,.02,0ZM53.82,6.92c1.92,0,3.47,1.54,3.48,3.46s-1.54,3.47-3.46,3.48-3.47-1.54-3.48-3.46c0,0,0,0,0,0,0-1.91,1.55-3.46,3.46-3.47ZM22.36,6.92c1.92,0,3.47,1.56,3.46,3.48,0,1.92-1.56,3.47-3.48,3.46-1.91,0-3.46-1.56-3.46-3.47,0-1.92,1.55-3.47,3.47-3.47,0,0,0,0,.01,0Z"/>
  <circle class="uuid-af0921d7-8600-4949-ba39-157350ee682c" cx="85" cy="10.39" r="2.47"/>
  <path class="uuid-af0921d7-8600-4949-ba39-157350ee682c" d="M100.01,21.62c5.05,3.77,7.29,10.47,9.26,16.51,25.31-.34,54-.72,81.77-4,21.36-2.51,40.16-6.46,57.45-12.06,7.93-2.56,15.7-5.56,23.29-9-18.1-8.61-38.76-10-58.39-10.64-17.09-.57-34.45-.69-51.24-.81-17.58-.12-37.12-.25-57.5-.32-.28,7-1.85,13.89-4.64,20.32Z"/>
  <circle class="uuid-af0921d7-8600-4949-ba39-157350ee682c" cx="53.82" cy="10.39" r="2.47"/>
  <path class="uuid-3f875e89-7d8d-485a-8efc-86f8c4294f03" d="M273.88,49.96l-70.16-.06v.5l70.41.06h.26v-6h-.51v5.5Z"/>
  <path class="uuid-3f875e89-7d8d-485a-8efc-86f8c4294f03" d="M109.07,49.81v-6.38h-.5v6.88h.25l70.42.07v-.5l-70.17-.07Z"/>
  <path class="uuid-01b1d0d8-c8e7-4a24-a6e4-0ee577d44084" d="M182.22,51.04c.04-.08.08-.15.13-.22l.17-.19.2-.16c.11-.09.23-.17.36-.23l.4-.23.4-.25c.26-.17.47-.4.6-.68.06-.16.09-.33.09-.5,0-.16-.03-.31-.09-.46-.05-.14-.13-.27-.24-.37-.12-.11-.26-.19-.41-.25-.18-.06-.38-.09-.57-.09-.19,0-.38.03-.56.09-.17.06-.32.16-.44.29-.12.12-.21.27-.28.43-.06.19-.09.38-.09.58h.41c0-.14,0-.28.05-.41.04-.12.1-.24.19-.34.08-.1.18-.18.3-.23.11-.06.24-.09.37-.09.13,0,.25.02.37.06.11.03.21.09.3.17.08.08.15.18.2.28.05.11.07.24.07.36,0,.15-.03.3-.09.43-.07.12-.15.22-.25.31-.11.1-.23.19-.36.26-.14.07-.28.16-.43.25l-.47.33c-.17.13-.32.27-.46.43-.12.14-.21.3-.26.48-.05.18-.07.37-.07.56h2.77v-.33h-2.36c0-.1.02-.19.05-.28Z"/>
  <path class="uuid-01b1d0d8-c8e7-4a24-a6e4-0ee577d44084" d="M187.88,49.62v-.5c-.02-.17-.04-.34-.08-.51-.03-.16-.08-.31-.15-.46-.12-.29-.36-.52-.65-.63-.17-.06-.36-.09-.54-.09-.26-.01-.52.05-.74.18-.18.13-.33.29-.43.49-.1.22-.17.45-.21.69-.04.26-.05.53-.05.79,0,.28.01.56.06.83.03.24.11.47.22.69.1.2.25.36.44.48.22.12.46.18.71.17.25,0,.5-.05.72-.17.18-.12.33-.28.44-.47.11-.21.18-.44.21-.68.04-.27.06-.54.05-.81ZM187.32,50.82c-.07.17-.17.32-.31.44-.16.12-.36.18-.56.17-.18,0-.35-.04-.5-.14-.14-.08-.26-.21-.33-.36-.09-.18-.14-.37-.16-.57-.04-.24-.06-.49-.06-.74-.02-.23-.02-.45,0-.68.02-.21.08-.42.16-.61.07-.16.17-.31.31-.42.15-.11.33-.16.52-.16.2,0,.39.05.55.16.14.11.25.25.32.41.08.19.13.39.15.59.02.22.02.45,0,.67.01.22.01.43,0,.65,0,.19-.01.38-.06.57l-.03.02Z"/>
  <path class="uuid-01b1d0d8-c8e7-4a24-a6e4-0ee577d44084" d="M191.25,49.62v-.5c-.02-.17-.04-.34-.08-.51-.03-.16-.08-.31-.15-.46-.12-.29-.36-.52-.65-.63-.17-.06-.36-.09-.54-.09-.26-.01-.52.05-.74.18-.18.13-.33.29-.43.49-.1.22-.17.45-.21.69-.04.26-.05.53-.05.79,0,.28.01.56.06.83.03.24.11.47.22.69.1.2.25.36.44.48.22.12.46.18.71.17.25,0,.5-.05.72-.17.18-.12.33-.28.44-.47.11-.21.18-.44.21-.68.04-.27.06-.54.05-.81ZM190.69,50.82c-.07.17-.17.32-.31.44-.16.12-.36.18-.56.17-.18,0-.35-.04-.5-.14-.14-.08-.26-.21-.33-.36-.09-.18-.14-.37-.16-.57-.04-.24-.06-.49-.06-.74,0-.23.02-.45.05-.68.02-.21.08-.42.16-.61.07-.16.17-.31.31-.42.15-.11.33-.16.52-.16.2,0,.39.05.55.16.14.11.25.25.32.41.08.19.13.39.15.59.02.22.02.45,0,.67.01.22.01.43,0,.65-.02.2-.07.39-.14.57v.02Z"/>
  <path class="uuid-01b1d0d8-c8e7-4a24-a6e4-0ee577d44084" d="M196.11,49.68c.01-.15.01-.31,0-.46-.02-.14-.07-.27-.14-.39-.07-.12-.17-.22-.29-.28-.16-.08-.33-.11-.51-.1-.21,0-.41.05-.59.14-.19.1-.33.27-.42.46,0-.09-.08-.16-.12-.24-.05-.07-.1-.13-.16-.19-.08-.05-.17-.09-.26-.12-.12-.02-.25-.02-.37,0-.19,0-.39.05-.56.13-.17.1-.31.24-.4.42h0v-.47h-.41v3.04h.36v-1.68c0-.07,0-.14,0-.21,0-.08,0-.15,0-.23.02-.08.04-.15.07-.22.02-.07.05-.13.09-.18.09-.12.2-.21.33-.27.11-.06.24-.09.37-.09.2-.02.39.05.53.19.1.16.15.34.14.53v2.16h.36v-2.12c.02-.08.04-.15.07-.22.03-.06.06-.12.1-.18.08-.11.19-.21.32-.27.12-.06.25-.09.38-.09.2-.02.39.05.53.19.1.16.15.34.14.53v2.16h.36l.08-1.94Z"/>
  <path class="uuid-01b1d0d8-c8e7-4a24-a6e4-0ee577d44084" d="M201.11,49.68c.01-.15.01-.31,0-.46-.02-.14-.07-.27-.14-.39-.06-.12-.16-.22-.28-.28-.16-.08-.34-.11-.52-.1-.21,0-.41.05-.59.14-.19.1-.33.27-.42.46-.03-.08-.07-.17-.12-.24-.04-.07-.1-.14-.16-.19-.08-.05-.17-.09-.26-.12-.12-.02-.25-.02-.37,0-.19,0-.39.05-.56.13-.17.1-.31.24-.4.42h0v-.47h-.41v3.04h.36v-1.89c0-.08,0-.15,0-.23.02-.08.04-.15.07-.22.02-.07.05-.13.1-.18.08-.12.19-.21.32-.27.12-.06.25-.09.38-.09.2-.02.39.05.53.19.1.16.15.34.14.53v2.16h.36v-1.68c0-.07,0-.14,0-.21,0-.08,0-.15,0-.23.02-.08.04-.15.07-.22.02-.07.05-.13.09-.18.09-.12.2-.21.33-.27.12-.06.25-.09.38-.09.19-.02.39.05.52.19.1.16.15.34.14.53v2.16h.36l.08-1.94Z"/>
  <polygon class="uuid-3f875e89-7d8d-485a-8efc-86f8c4294f03" points=".9 59.56 .9 53.43 .4 53.43 .4 59.68 .39 60.06 125.56 60.06 125.56 59.56 .9 59.56"/>
  <polygon class="uuid-3f875e89-7d8d-485a-8efc-86f8c4294f03" points="273.9 59.56 150.06 59.56 150.06 60.06 274.4 60.06 274.4 53.62 273.9 53.62 273.9 59.56"/>
  <path class="uuid-01b1d0d8-c8e7-4a24-a6e4-0ee577d44084" d="M130.88,59.82c-.02-.11-.06-.21-.12-.3-.06-.1-.14-.19-.23-.26-.11-.08-.24-.15-.37-.19.18-.08.34-.2.45-.37.1-.17.16-.37.15-.57,0-.16-.03-.32-.1-.47-.06-.13-.15-.24-.26-.33-.11-.09-.24-.15-.38-.19-.15-.04-.31-.06-.47-.06-.17-.02-.34-.02-.51,0-.17.04-.32.12-.45.23-.13.12-.23.27-.31.43-.07.16-.1.34-.1.52h.38c0-.12.02-.25.07-.36.04-.11.11-.21.19-.29.08-.09.17-.15.28-.19.12-.04.24-.06.37-.06.12-.01.23-.01.35,0,.1.03.2.07.29.13.18.14.27.35.26.57,0,.14-.03.28-.09.4-.06.1-.14.19-.24.25-.12.07-.25.11-.39.13-.16.01-.33.01-.49,0v.32c.17-.02.35-.02.52,0,.15.01.3.06.43.13.26.14.41.41.41.7,0,.12-.01.25-.06.36-.06.11-.13.22-.22.31-.1.09-.21.16-.34.21-.14.06-.28.09-.43.08-.28.01-.55-.08-.76-.25-.21-.19-.31-.46-.29-.74h-.39c.02.21.07.42.14.62.12.32.4.56.74.63.21.04.42.06.63.06.2,0,.4-.04.59-.11.16-.06.3-.16.42-.28.12-.11.21-.25.27-.4.06-.16.09-.32.09-.49,0-.06-.02-.11-.03-.17Z"/>
  <path class="uuid-01b1d0d8-c8e7-4a24-a6e4-0ee577d44084" d="M134.02,59.47c-.14-.19-.33-.33-.55-.41.18-.08.33-.21.44-.38.09-.17.14-.37.13-.56,0-.31-.14-.61-.39-.79-.12-.09-.26-.15-.41-.19-.16-.04-.32-.06-.48-.06-.16,0-.32.02-.47.07-.14.05-.27.13-.38.22-.11.1-.19.21-.26.34-.07.13-.1.27-.1.41-.01.1-.01.21,0,.31.02.09.05.17.1.24.05.07.12.13.19.18.08.07.17.13.26.19-.22.08-.41.23-.54.43-.13.2-.2.44-.2.68,0,.19.04.38.12.55.08.15.19.29.32.39.13.1.27.18.42.24.15.05.31.07.47.07.21,0,.41-.03.61-.08.17-.05.33-.13.47-.25.13-.11.24-.24.31-.4.07-.18.1-.36.1-.55.02-.23-.04-.46-.16-.65ZM132.02,58.47c-.06-.1-.09-.22-.08-.34,0-.11.02-.23.06-.33.04-.09.11-.18.19-.24.08-.07.17-.12.27-.15.11-.02.23-.02.34,0,.23-.02.46.04.65.17.14.13.22.32.21.51,0,.13-.02.26-.06.38-.07.19-.23.34-.43.4-.11.03-.22.05-.33.05-.12,0-.23-.02-.34-.05-.1-.03-.2-.07-.29-.13-.08-.06-.14-.14-.19-.23v-.04ZM133.76,60.47c-.05.11-.12.22-.21.3-.09.09-.2.16-.32.2-.12.05-.26.07-.39.07-.15,0-.29-.02-.43-.07-.12-.05-.23-.11-.33-.2-.09-.08-.16-.18-.21-.29-.06-.11-.09-.24-.08-.37,0-.14.02-.28.08-.41.05-.11.12-.2.21-.28.1-.07.21-.13.33-.16.13-.04.27-.05.41-.05.13,0,.26.01.39.05.12.03.23.09.33.16.09.08.16.17.21.28.06.12.09.26.08.39,0,.14-.01.29-.07.42v-.04Z"/>
  <path class="uuid-01b1d0d8-c8e7-4a24-a6e4-0ee577d44084" d="M137.58,59.28c0-.17,0-.34,0-.51,0-.17-.03-.34-.07-.5-.03-.16-.08-.31-.15-.46-.07-.14-.15-.27-.26-.38-.11-.11-.25-.2-.39-.26-.17-.06-.36-.09-.54-.09-.26-.01-.52.05-.74.19-.18.12-.33.28-.43.48-.11.22-.18.46-.21.7-.04.26-.06.52-.06.78,0,.28.02.56.06.83.04.24.11.47.23.69.1.2.24.36.43.48.22.12.47.18.72.17.25,0,.5-.05.72-.17.18-.11.33-.28.43-.47.11-.21.19-.44.22-.68.03-.27.05-.53.04-.8ZM137.02,60.48c-.07.17-.18.31-.32.43-.16.12-.35.18-.55.17-.18,0-.35-.04-.5-.13-.14-.09-.25-.21-.33-.36-.09-.18-.14-.37-.17-.57-.03-.25-.05-.49-.05-.74,0-.23.02-.46.05-.69.02-.21.07-.41.15-.6.07-.17.18-.32.32-.43.15-.11.33-.16.52-.15.19,0,.39.04.55.15.14.11.25.26.31.42.08.18.14.38.16.58v1.32c-.02.21-.07.41-.14.6Z"/>
  <path class="uuid-01b1d0d8-c8e7-4a24-a6e4-0ee577d44084" d="M142.44,59.35v-.45c-.03-.14-.07-.27-.14-.4-.07-.11-.17-.21-.29-.28-.36-.15-.77-.13-1.11.05-.18.11-.33.26-.42.45-.03-.08-.07-.16-.11-.23-.05-.07-.11-.14-.18-.19-.07-.06-.16-.11-.25-.13-.12-.03-.24-.05-.37-.05-.2,0-.39.05-.57.14-.17.1-.3.24-.39.41h0v-.46h-.36v3.11h.36v-1.7c0-.07,0-.14,0-.21,0-.08,0-.15,0-.23.02-.07.04-.15.06-.22.03-.06.06-.12.1-.18.08-.11.19-.21.32-.27.12-.05.25-.08.38-.08.2-.03.39.04.53.19.1.16.15.34.14.53v2.15h.36v-1.89c0-.08,0-.15,0-.23.02-.07.04-.15.07-.22.02-.07.05-.13.1-.18.08-.12.19-.21.32-.27.12-.05.25-.08.38-.08.2-.03.39.05.53.19.1.16.15.34.14.53v2.15h.36l.04-1.95Z"/>
  <path class="uuid-01b1d0d8-c8e7-4a24-a6e4-0ee577d44084" d="M147.44,59.35c0-.15,0-.3,0-.45-.02-.14-.07-.28-.14-.4-.07-.12-.17-.21-.29-.28-.16-.07-.33-.1-.51-.1-.21,0-.41.05-.59.15-.18.1-.33.26-.42.45-.03-.08-.07-.16-.12-.23-.05-.07-.11-.13-.17-.19-.08-.06-.17-.11-.26-.13-.12-.03-.24-.05-.37-.05-.2,0-.39.05-.56.14-.17.09-.31.23-.4.41h0v-.46h-.36v3.11h.36v-1.7c0-.07,0-.14,0-.21,0-.08,0-.15,0-.23.02-.07.04-.15.07-.22.02-.06.05-.13.09-.18.09-.12.2-.21.33-.27.12-.05.25-.08.38-.08.2-.03.39.05.53.19.1.16.14.34.13.53v2.15h.36v-1.68c0-.07,0-.14,0-.21,0-.15.04-.3.09-.45.03-.06.06-.12.1-.18.08-.11.19-.21.32-.27.12-.05.25-.08.38-.08.2-.03.39.05.53.19.1.16.15.34.14.53v2.15h.36l.02-1.95Z"/>
  <path class="uuid-d6353505-7ae3-44ea-99c3-5c9a24167f74" d="M13.49,27.14h.22l.18-.13c4.57-3.55,10.88-5.48,18.77-5.72,3.85-.13,7.78.13,11.58.38,2.78.18,5.65.37,8.48.41,6.83-.05,13.65-.52,20.43-1.4,3.79-.41,7.71-.84,11.57-1.11,4.22-.29,9.07-.42,13.07,1.75,6,3.28,8.47,10.73,10.6,17.3l.16.46h.33c25.42-.33,54.23-.71,82.24-4,21.43-2.53,40.28-6.49,57.64-12.11,8.3-2.68,16.44-5.85,24.37-9.49l.95-.44-.94-.46c-18.51-9.12-39.67-10.54-59.76-11.21-17.1-.57-34.47-.69-51.26-.81-29.15-.2-63.64-.41-98.51-.41H13.56C8.34-.69,3.2,2.1,1.07,6.94c-1.92,4.6-1.23,9.88,1.81,13.83,2.62,3.37,6.41,5.64,10.61,6.37ZM213.39,2.4c19.63.66,40.29,2,58.39,10.64-7.59,3.44-15.36,6.44-23.29,9-17.29,5.6-36.09,9.55-57.45,12.06-27.82,3.29-56.46,3.67-81.77,4-2-6-4.21-12.74-9.26-16.51,2.79-6.44,4.36-13.33,4.64-20.34,20.38.07,39.92.2,57.5.32,16.79.14,34.15.26,51.24.83ZM1.98,7.4C3.98,2.98,8.67.44,13.46,1.19h50.18c13.49,0,26.92,0,40,.08-.28,6.81-1.79,13.51-4.48,19.77-.3-.19-.59-.38-.9-.55-2.98-1.45-6.28-2.14-9.59-2-1.38,0-2.73.08-4,.17-3.88.26-7.81.69-11.61,1.11-6.73.88-13.51,1.34-20.3,1.39-2.81,0-5.67-.23-8.44-.41-3.82-.25-7.77-.51-11.67-.38-8,.25-14.45,2.2-19.18,5.79-3.88-.72-7.37-2.83-9.8-5.95C.86,16.54.21,11.66,1.98,7.39h0Z"/>
  <path class="uuid-3f875e89-7d8d-485a-8efc-86f8c4294f03" d="M85,13.86c1.92,0,3.47-1.55,3.47-3.47s-1.55-3.47-3.47-3.47-3.47,1.55-3.47,3.47,1.55,3.47,3.47,3.47h0ZM85,7.92c1.36,0,2.47,1.11,2.47,2.47s-1.11,2.47-2.47,2.47-2.47-1.11-2.47-2.47,1.11-2.47,2.47-2.47Z"/>
  <path class="uuid-3f875e89-7d8d-485a-8efc-86f8c4294f03" d="M53.82,13.86c1.92,0,3.47-1.54,3.48-3.46s-1.54-3.47-3.46-3.48-3.47,1.54-3.48,3.46c0,0,0,0,0,0,0,1.91,1.55,3.46,3.46,3.47ZM53.82,7.92c1.36,0,2.47,1.1,2.48,2.46,0,1.36-1.1,2.47-2.46,2.48-1.36,0-2.47-1.1-2.48-2.46,0,0,0,0,0,0,0-1.36,1.1-2.46,2.46-2.47Z"/>
  <path class="uuid-3f875e89-7d8d-485a-8efc-86f8c4294f03" d="M22.36,13.86c1.92,0,3.47-1.56,3.46-3.48s-1.56-3.47-3.48-3.46c-1.91,0-3.46,1.56-3.46,3.47,0,1.92,1.56,3.47,3.48,3.47ZM22.36,7.92c1.36,0,2.47,1.12,2.46,2.48,0,1.36-1.12,2.47-2.48,2.46-1.36,0-2.46-1.11-2.46-2.47,0-1.37,1.11-2.47,2.48-2.47Z"/>
</svg>